<svg width="25" height="25" viewBox="0 0 25 25" fill="none" xmlns="http://www.w3.org/2000/svg">
<path d="M22.6747 11.9473H21.3855C21.0257 7.71727 17.6478 4.34727 13.4304 3.98727V2.69727C13.4304 2.28727 13.0906 1.94727 12.6809 1.94727C12.2711 1.94727 11.9313 2.28727 11.9313 2.69727V3.98727C7.70394 4.34727 4.33602 7.72727 3.97624 11.9473H2.68704C2.27729 11.9473 1.9375 12.2873 1.9375 12.6973C1.9375 13.1073 2.27729 13.4473 2.68704 13.4473H3.97624C4.33602 17.6773 7.71393 21.0473 11.9313 21.4073V22.6973C11.9313 23.1073 12.2711 23.4473 12.6809 23.4473C13.0906 23.4473 13.4304 23.1073 13.4304 22.6973V21.4073C17.6578 21.0473 21.0257 17.6673 21.3855 13.4473H22.6747C23.0844 13.4473 23.4242 13.1073 23.4242 12.6973C23.4242 12.2873 23.0844 11.9473 22.6747 11.9473ZM13.4304 19.9073V18.6973C13.4304 18.2873 13.0906 17.9473 12.6809 17.9473C12.2711 17.9473 11.9313 18.2873 11.9313 18.6973V19.9073C8.53343 19.5573 5.8251 16.8473 5.47532 13.4473H6.68457C7.09432 13.4473 7.43411 13.1073 7.43411 12.6973C7.43411 12.2873 7.09432 11.9473 6.68457 11.9473H5.47532C5.8251 8.54727 8.53343 5.83727 11.9313 5.48727V6.69727C11.9313 7.10727 12.2711 7.44727 12.6809 7.44727C13.0906 7.44727 13.4304 7.10727 13.4304 6.69727V5.48727C16.8283 5.83727 19.5366 8.54727 19.8864 11.9473H18.6772C18.2674 11.9473 17.9276 12.2873 17.9276 12.6973C17.9276 13.1073 18.2674 13.4473 18.6772 13.4473H19.8864C19.5366 16.8473 16.8283 19.5573 13.4304 19.9073ZM15.4292 12.6973C15.4292 14.2173 14.1999 15.4473 12.6809 15.4473C11.1618 15.4473 9.93257 14.2173 9.93257 12.6973C9.93257 11.1773 11.1618 9.94727 12.6809 9.94727C14.1999 9.94727 15.4292 11.1773 15.4292 12.6973Z" fill="#DEE0E3"/>
</svg>
