<svg width="30" height="28" viewBox="0 0 30 28" fill="none" xmlns="http://www.w3.org/2000/svg">
<g id="Group">
<path id="Vector" d="M23.9836 0.304688H6.79573C3.48526 0.304688 0.791992 2.99796 0.791992 6.30843C0.791992 9.63493 3.51326 12.3122 6.75992 12.3122H9.4565V7.60819C9.4565 5.50157 11.1703 3.78771 13.2769 3.78771H13.2852C15.3873 3.79222 17.0975 5.50607 17.0975 7.60819V12.3122H23.9836C27.2941 12.3122 29.9873 9.6189 29.9873 6.30843C29.9873 2.99796 27.2941 0.304688 23.9836 0.304688ZM25.6825 5.47123L22.2612 8.89256C21.9272 9.22659 21.3856 9.22665 21.0516 8.89256L19.3409 7.18189C19.0069 6.84786 19.0069 6.30632 19.3409 5.97228C19.6749 5.63825 20.2165 5.63825 20.5505 5.97228L21.6564 7.07811L24.473 4.26162C24.807 3.92759 25.3486 3.92759 25.6826 4.26162C26.0166 4.59566 26.0166 5.13725 25.6825 5.47123Z" fill="#1B1B1B"/>
<path id="Vector_2" d="M20.893 14.719L15.3868 14.1467V7.60787C15.3868 6.44439 14.4449 5.50056 13.2815 5.49805C12.1145 5.49554 11.1671 6.44085 11.1671 7.60787V18.5515H11.148L9.06536 16.8123C8.18693 16.0788 6.87611 16.2163 6.16903 17.1162C5.49098 17.9792 5.62191 19.2248 6.46452 19.9279L10.6917 23.4554H23.1417V17.2653C23.1417 15.9708 22.1775 14.879 20.893 14.719Z" fill="#1B1B1B"/>
<path id="Vector_3" d="M11.1672 26.8767C11.1672 27.349 11.5502 27.732 12.0226 27.732H22.2865C22.7589 27.732 23.1419 27.349 23.1419 26.8767V25.166H11.1672V26.8767Z" fill="#1B1B1B"/>
</g>
</svg>
