<svg width="20" height="27" viewBox="0 0 20 27" fill="none" xmlns="http://www.w3.org/2000/svg">
<path d="M11.625 7.17188C11.625 7.51042 11.7435 7.79818 11.9805 8.03516C12.2174 8.27214 12.5052 8.39062 12.8438 8.39062H19.75V25.0469C19.75 25.3854 19.6315 25.6732 19.3945 25.9102C19.1576 26.1471 18.8698 26.2656 18.5312 26.2656H1.46875C1.13021 26.2656 0.842448 26.1471 0.605469 25.9102C0.36849 25.6732 0.25 25.3854 0.25 25.0469V1.48438C0.25 1.14583 0.36849 0.858073 0.605469 0.621094C0.842448 0.384115 1.13021 0.265625 1.46875 0.265625H11.625V7.17188ZM14.875 19.1562V18.75C14.875 18.3438 14.6719 18.1406 14.2656 18.1406H5.73438C5.32812 18.1406 5.125 18.3438 5.125 18.75V19.1562C5.125 19.5625 5.32812 19.7656 5.73438 19.7656H14.2656C14.6719 19.7656 14.875 19.5625 14.875 19.1562ZM14.875 15.9062V15.5C14.875 15.0938 14.6719 14.8906 14.2656 14.8906H5.73438C5.32812 14.8906 5.125 15.0938 5.125 15.5V15.9062C5.125 16.3125 5.32812 16.5156 5.73438 16.5156H14.2656C14.6719 16.5156 14.875 16.3125 14.875 15.9062ZM14.875 12.25C14.875 11.8438 14.6719 11.6406 14.2656 11.6406H5.73438C5.32812 11.6406 5.125 11.8438 5.125 12.25V12.6562C5.125 13.0625 5.32812 13.2656 5.73438 13.2656H14.2656C14.6719 13.2656 14.875 13.0625 14.875 12.6562V12.25ZM19.75 6.46094V6.76562H13.25V0.265625H13.5547C13.8932 0.265625 14.181 0.384115 14.418 0.621094L19.3945 5.59766C19.6315 5.83464 19.75 6.1224 19.75 6.46094Z" fill="#1B1B1B"/>
</svg>
