<svg width="30" height="30" viewBox="0 0 30 30" fill="none" xmlns="http://www.w3.org/2000/svg">
<g id="Group 1000006106">
<g id="Group">
<g id="Group_2">
<path id="Vector" d="M15.1092 5.08203C9.63128 5.08203 5.17468 9.53863 5.17468 15.0165C5.17468 20.4944 9.63128 24.951 15.1092 24.951C20.5871 24.951 25.0437 20.4944 25.0437 15.0165C25.0437 9.53863 20.5871 5.08203 15.1092 5.08203ZM19.7628 12.8364L13.9492 18.6501C13.5482 19.0511 12.897 19.0514 12.4958 18.6501L10.4556 16.6098C10.0542 16.2084 10.0542 15.5578 10.4556 15.1564C10.8569 14.7551 11.5076 14.7551 11.9089 15.1564L13.2225 16.4699L18.3094 11.383C18.7107 10.9818 19.3614 10.9818 19.7627 11.383C20.1641 11.7843 20.1641 12.4351 19.7628 12.8364Z" fill="#1B1B1B"/>
</g>
</g>
<g id="Group_3">
<g id="Group_4">
<path id="Vector_2" d="M15.1094 0.289062C6.96786 0.289062 0.378906 6.87726 0.378906 15.0195C0.378906 23.161 6.96711 29.75 15.1094 29.75C23.2509 29.75 29.8398 23.1618 29.8398 15.0195C29.8398 6.87801 23.2516 0.289062 15.1094 0.289062ZM15.1094 27.0094C8.49816 27.0094 3.11946 21.6308 3.11946 15.0195C3.11946 8.40831 8.49816 3.02962 15.1094 3.02962C21.7206 3.02962 27.0993 8.40831 27.0993 15.0195C27.0993 21.6308 21.7206 27.0094 15.1094 27.0094Z" fill="#1B1B1B"/>
</g>
</g>
</g>
</svg>
