<svg width="28" height="30" viewBox="0 0 28 30" fill="none" xmlns="http://www.w3.org/2000/svg">
<path d="M25.7342 5.32575V8.23923H0V5.32575C0 4.26881 0.854745 3.41406 1.91169 3.41406H23.8226C24.8795 3.41406 25.7342 4.26881 25.7342 5.32575Z" fill="#1B1B1B"/>
<path d="M11.7183 13.2949H14.016V15.5926H11.7183V13.2949Z" fill="#1B1B1B"/>
<path d="M4.36563 13.2935V15.5912H6.66333V13.2935H4.36563ZM4.36563 13.2935V15.5912H6.66333V13.2935H4.36563ZM0 9.61719V25.3978C0 26.4547 0.854745 27.3095 1.91169 27.3095H16.2401C15.56 26.2525 15.1648 24.9842 15.1648 23.6332C15.1648 19.8282 18.2529 16.7401 22.0579 16.7401C23.409 16.7401 24.6773 17.1353 25.7342 17.8154V9.61719H0ZM8.04195 23.6332C8.04195 24.01 7.72947 24.3225 7.35264 24.3225H3.67632C3.2995 24.3225 2.98701 24.01 2.98701 23.6332V19.9568C2.98701 19.58 3.2995 19.2675 3.67632 19.2675H7.35264C7.72947 19.2675 8.04195 19.58 8.04195 19.9568V23.6332ZM8.04195 16.2805C8.04195 16.6573 7.72947 16.9698 7.35264 16.9698H3.67632C3.2995 16.9698 2.98701 16.6573 2.98701 16.2805V12.6042C2.98701 12.2274 3.2995 11.9149 3.67632 11.9149H7.35264C7.72947 11.9149 8.04195 12.2274 8.04195 12.6042V16.2805ZM15.3946 16.2805C15.3946 16.6573 15.0821 16.9698 14.7053 16.9698H11.029C10.6521 16.9698 10.3397 16.6573 10.3397 16.2805V12.6042C10.3397 12.2274 10.6521 11.9149 11.029 11.9149H14.7053C15.0821 11.9149 15.3946 12.2274 15.3946 12.6042V16.2805ZM4.36563 22.9439H6.66333V20.6462H4.36563V22.9439ZM4.36563 15.5912H6.66333V13.2935H4.36563V15.5912Z" fill="#1B1B1B"/>
<path d="M12.867 5.94166C12.4865 5.94166 12.1777 5.63294 12.1777 5.25235V1.57603C12.1777 1.19544 12.4865 0.886719 12.867 0.886719C13.2476 0.886719 13.5564 1.19544 13.5564 1.57603V5.25235C13.5564 5.63294 13.2476 5.94166 12.867 5.94166Z" fill="#1B1B1B"/>
<path d="M3.67637 5.94166C3.29578 5.94166 2.98706 5.63294 2.98706 5.25235V1.57603C2.98706 1.19544 3.29578 0.886719 3.67637 0.886719C4.05696 0.886719 4.36568 1.19544 4.36568 1.57603V5.25235C4.36568 5.63294 4.05696 5.94166 3.67637 5.94166Z" fill="#1B1B1B"/>
<path d="M22.058 5.94166C21.6774 5.94166 21.3687 5.63294 21.3687 5.25235V1.57603C21.3687 1.19544 21.6774 0.886719 22.058 0.886719C22.4386 0.886719 22.7473 1.19544 22.7473 1.57603V5.25235C22.7473 5.63294 22.4386 5.94166 22.058 5.94166Z" fill="#1B1B1B"/>
<path d="M22.0579 18.1191C19.0158 18.1191 16.5435 20.5915 16.5435 23.6336C16.5435 26.6758 19.0158 29.1481 22.0579 29.1481C25.1001 29.1481 27.5724 26.6758 27.5724 23.6336C27.5724 20.5915 25.1001 18.1191 22.0579 18.1191ZM23.8961 24.3229H22.0579C21.6811 24.3229 21.3686 24.0104 21.3686 23.6336V20.8764C21.3686 20.4996 21.6811 20.1871 22.0579 20.1871C22.4348 20.1871 22.7472 20.4996 22.7472 20.8764V22.9443H23.8961C24.2729 22.9443 24.5854 23.2568 24.5854 23.6336C24.5854 24.0104 24.2729 24.3229 23.8961 24.3229Z" fill="#1B1B1B"/>
</svg>
