<svg width="36" height="37" viewBox="0 0 36 37" fill="none" xmlns="http://www.w3.org/2000/svg">
<path id="Vector" fill-rule="evenodd" clip-rule="evenodd" d="M8.47222 32.1466L9.85989 31.3454C10.0058 31.2616 10.1718 31.2447 10.3224 31.2849L19.4336 33.7243C20.582 34.0321 21.6682 33.893 22.6836 33.268C26.8704 30.6905 31.0579 28.1139 35.2445 25.536C35.8813 25.1439 35.9637 24.073 35.5864 23.4651C34.7542 22.1242 32.4492 23.2405 31.4914 23.7983L24.5699 27.8297C23.4927 28.457 22.3047 28.6473 21.079 28.4411C19.1867 28.1333 17.4197 27.5692 15.5809 27.0765C15.2537 26.989 15.0592 26.6528 15.1466 26.3255C15.2341 25.9983 15.5704 25.8038 15.8976 25.8913C17.3945 26.2923 18.8782 26.7744 20.3958 27.0881C21.1666 27.1824 21.8026 26.9392 22.0165 26.1409C22.2106 25.4165 21.7538 24.7339 21.0697 24.4968C18.991 24.1163 16.9736 23.387 15.3873 22.8135C13.088 21.9823 12.4733 21.7903 10.2066 23.1026L5.04509 26.0909L8.47222 32.1466ZM2.88956 24.7692L8.59921 34.8578C8.70853 35.0514 8.63758 35.3019 8.44439 35.4113C7.81241 35.7799 7.11617 36.1268 6.50201 36.5106C6.3083 36.6199 6.05781 36.549 5.94848 36.3558L0.239058 26.2676C0.129586 26.0741 0.200613 25.823 0.39373 25.7137L2.33611 24.6144C2.52975 24.5051 2.78023 24.576 2.88956 24.7692ZM2.89936 26.5649C2.84399 26.186 2.49189 25.9237 2.11301 25.9791C1.73412 26.0345 1.47183 26.3866 1.52727 26.7655C1.58264 27.1444 1.93473 27.4067 2.31362 27.3513C2.69251 27.2958 2.9548 26.9438 2.89936 26.5649ZM15.6428 5.74487V13.6819H13.2386V5.74487H12.1909C11.8944 5.74487 11.7179 5.41675 11.8812 5.16938L14.131 1.76088C14.2775 1.53897 14.6039 1.53897 14.7504 1.76088L17.0002 5.16938C17.1635 5.41675 16.987 5.74487 16.6905 5.74487H15.6428ZM24.016 9.58859C27.5383 9.58859 30.3938 12.444 30.3938 15.9664C30.3938 19.4888 27.5383 22.3443 24.016 22.3443C20.4937 22.3443 17.6382 19.4888 17.6382 15.9664C17.6382 12.4441 20.4937 9.58859 24.016 9.58859ZM26.441 13.7993C26.1084 13.0072 25.4478 12.4721 24.6097 12.298V11.9305C24.6097 11.6026 24.3439 11.3367 24.016 11.3367C23.6881 11.3367 23.4222 11.6026 23.4222 11.9305V12.3068C22.3669 12.5381 21.5361 13.3593 21.5913 14.4941C21.6549 15.8047 22.7857 16.3406 23.9267 16.5279C24.5435 16.6291 25.4524 16.8428 25.4702 17.6197C25.4856 18.2703 24.6087 18.4963 24.0854 18.5087C23.4294 18.5244 22.717 18.23 22.5451 17.5405C22.467 17.2228 22.1461 17.0286 21.8285 17.1067C21.5108 17.1849 21.3167 17.5057 21.3947 17.8234C21.642 18.8149 22.4468 19.4469 23.4222 19.6345V20.0021C23.4222 20.33 23.688 20.5959 24.0159 20.5959C24.3438 20.5959 24.6097 20.33 24.6097 20.0021V19.646C25.6812 19.4669 26.6814 18.7873 26.653 17.5918C26.6182 16.1339 25.3778 15.5658 24.1169 15.3589C23.5988 15.2738 22.8053 15.0837 22.7741 14.4383C22.7473 13.886 23.2096 13.5554 23.7015 13.4563C24.377 13.3203 25.0689 13.5978 25.3463 14.2584C25.4731 14.5607 25.821 14.703 26.1233 14.5762C26.4256 14.4495 26.5679 14.1016 26.441 13.7993ZM34.273 5.07267H24.5964C23.7496 5.07267 23.0568 4.37991 23.0568 3.53315V2.4028C23.0568 1.55604 23.7496 0.863281 24.5964 0.863281H34.273C35.1197 0.863281 35.8125 1.55604 35.8125 2.4028V3.53308C35.8125 4.37984 35.1196 5.07267 34.273 5.07267ZM34.273 15.0522H31.5262C31.5623 15.352 31.5813 15.6569 31.5813 15.9664C31.5813 17.1475 31.3104 18.2654 30.8276 19.2615H34.273C35.1197 19.2615 35.8125 18.5688 35.8125 17.722V16.5917C35.8125 15.745 35.1196 15.0522 34.273 15.0522ZM34.273 14.5319C35.1197 14.5319 35.8125 13.8391 35.8125 12.9923V11.8621C35.8125 11.0153 35.1196 10.3225 34.273 10.3225H29.053C30.2649 11.4051 31.1262 12.872 31.4449 14.5319H34.273ZM34.273 5.59295H24.5964C23.7496 5.59295 23.0568 6.2857 23.0568 7.13246V8.26274C23.0568 8.32954 23.0611 8.39537 23.0695 8.45994C23.3796 8.4212 23.6954 8.40109 24.016 8.40109C25.6512 8.40109 27.1653 8.92002 28.4025 9.80226H34.273C35.1197 9.80226 35.8125 9.1095 35.8125 8.26274V7.13246C35.8125 6.2857 35.1196 5.59295 34.273 5.59295Z" fill="#1B1B1B"/>
</svg>
