<svg width="18" height="18" viewBox="0 0 18 18" fill="none" xmlns="http://www.w3.org/2000/svg">
<mask id="mask0_2_193" style="mask-type:luminance" maskUnits="userSpaceOnUse" x="0" y="0" width="18" height="18">
<path d="M0.345703 0.393862H17.6931V17.752H0.345703V0.393862Z" fill="white"/>
</mask>
<g mask="url(#mask0_2_193)">
<path d="M8.35315 13.742H9.68581M12.3589 13.742H13.6916M4.35512 13.742H5.68778M8.35315 9.74151H9.68581M12.3589 9.74151H13.6916M4.35512 9.74151H5.68778M1.02344 6.39645H17.0232M13.0252 4.3962V1.06246M5.02147 4.3962V1.06246M3.69649 17.0645H14.3502C15.8265 17.0645 17.0232 15.8669 17.0232 14.3897V5.07069C17.0232 3.59349 15.8265 2.39595 14.3502 2.39595H3.69649C2.2202 2.39595 1.02344 3.59349 1.02344 5.07069V14.3897C1.02344 15.8669 2.2202 17.0645 3.69649 17.0645Z" stroke="#DEE0E3" stroke-width="1.3561" stroke-miterlimit="10" stroke-linecap="round" stroke-linejoin="round"/>
</g>
</svg>
