<svg width="21" height="18" viewBox="0 0 21 18" fill="none" xmlns="http://www.w3.org/2000/svg">
<path d="M2.38763 17.3722H18.8492C19.3949 17.3722 19.9183 17.1528 20.3041 16.7624C20.6901 16.3718 20.9068 15.8421 20.9068 15.29V2.79706C20.9068 2.24491 20.6901 1.71526 20.3041 1.32468C19.9183 0.934273 19.3949 0.714844 18.8492 0.714844H2.38763C1.84198 0.714844 1.31855 0.934273 0.932739 1.32468C0.546755 1.71525 0.330078 2.24491 0.330078 2.79706V15.29C0.330078 15.8421 0.546755 16.3718 0.932739 16.7624C1.31855 17.1528 1.84198 17.3722 2.38763 17.3722ZM2.38763 4.87927H18.8492V9.04352H2.38763V4.87927ZM3.15925 12.4272H7.27452L7.2747 12.427C7.55028 12.427 7.805 12.5759 7.94279 12.8175C8.08075 13.059 8.08075 13.3567 7.94279 13.5983C7.805 13.8398 7.55026 13.9887 7.2747 13.9887H3.15925C2.88367 13.9887 2.62894 13.8398 2.49115 13.5983C2.35319 13.3567 2.35319 13.059 2.49115 12.8175C2.62894 12.5759 2.88368 12.427 3.15925 12.427L3.15925 12.4272Z" fill="#DEE0E3"/>
</svg>
