<svg width="21" height="20" viewBox="0 0 21 20" fill="none" xmlns="http://www.w3.org/2000/svg">
<g id="Group 1000006004">
<mask id="mask0_658_6822" style="mask-type:luminance" maskUnits="userSpaceOnUse" x="0" y="0" width="21" height="20">
<g id="Group">
<path id="bg" d="M1.01127 19.974V0.447916H20.5373V19.974H1.01127Z" fill="white" stroke="#1B1B1B" stroke-width="0.0286446"/>
<g id="Group_2">
<path id="path901" d="M10.7738 11.145C11.2906 11.145 11.7095 10.726 11.7095 10.2092C11.7095 9.69246 11.2906 9.27352 10.7738 9.27352C10.257 9.27352 9.83807 9.69246 9.83807 10.2092C9.83807 10.726 10.257 11.145 10.7738 11.145Z" fill="white" stroke="#1B1B1B" stroke-width="0.0381927"/>
<path id="path905" d="M14.5929 11.145C15.1097 11.145 15.5286 10.726 15.5286 10.2092C15.5286 9.69246 15.1097 9.27352 14.5929 9.27352C14.0761 9.27352 13.6572 9.69246 13.6572 10.2092C13.6572 10.726 14.0761 11.145 14.5929 11.145Z" fill="white" stroke="#1B1B1B" stroke-width="0.0381927"/>
<path id="path909" d="M6.9547 11.145C7.47148 11.145 7.89042 10.726 7.89042 10.2092C7.89042 9.69246 7.47148 9.27352 6.9547 9.27352C6.43792 9.27352 6.01897 9.69246 6.01897 10.2092C6.01897 10.726 6.43792 11.145 6.9547 11.145Z" fill="white" stroke="#1B1B1B" stroke-width="0.0381927"/>
</g>
</g>
</mask>
<g mask="url(#mask0_658_6822)">
<g id="Group_3">
<g id="g885">
<g id="g887">
<g id="Clip path group">
<mask id="mask1_658_6822" style="mask-type:luminance" maskUnits="userSpaceOnUse" x="0" y="0" width="21" height="20">
<g id="clipPath893">
<path id="path891" d="M20.5325 19.9692V0.452692H1.01604V19.9692H20.5325Z" fill="white" stroke="white" stroke-width="0.0381927"/>
</g>
</mask>
<g mask="url(#mask1_658_6822)">
<g id="g889">
<g id="g895">
<path id="path897" d="M10.7746 1.19959C5.79659 1.19959 1.76111 5.23507 1.76111 10.2131C1.76111 11.9655 2.26178 13.6008 3.12711 14.9848L1.76111 19.2266L6.00291 17.8606C7.38682 18.7259 9.02212 19.2266 10.7746 19.2266C15.7526 19.2266 19.7881 15.1911 19.7881 10.2131C19.7881 5.23507 15.7526 1.19959 10.7746 1.19959Z" stroke="#1B1B1B" stroke-width="1.52771" stroke-miterlimit="10" stroke-linecap="round" stroke-linejoin="round"/>
</g>
<g id="g899">
<path id="path901_2" d="M10.775 11.1411C11.2918 11.1411 11.7107 10.7221 11.7107 10.2053C11.7107 9.68856 11.2918 9.26962 10.775 9.26962C10.2582 9.26962 9.83929 9.68856 9.83929 10.2053C9.83929 10.7221 10.2582 11.1411 10.775 11.1411Z" fill="#1B1B1B" stroke="#1B1B1B" stroke-width="0.0381927"/>
</g>
<g id="g903">
<path id="path905_2" d="M14.5924 11.1411C15.1092 11.1411 15.5281 10.7221 15.5281 10.2053C15.5281 9.68856 15.1092 9.26962 14.5924 9.26962C14.0756 9.26962 13.6567 9.68856 13.6567 10.2053C13.6567 10.7221 14.0756 11.1411 14.5924 11.1411Z" fill="#1B1B1B" stroke="#1B1B1B" stroke-width="0.0381927"/>
</g>
<g id="g907">
<path id="path909_2" d="M6.9547 11.1411C7.47148 11.1411 7.89042 10.7221 7.89042 10.2053C7.89042 9.68856 7.47148 9.26962 6.9547 9.26962C6.43792 9.26962 6.01897 9.68856 6.01897 10.2053C6.01897 10.7221 6.43792 11.1411 6.9547 11.1411Z" fill="#1B1B1B" stroke="#1B1B1B" stroke-width="0.0381927"/>
</g>
</g>
</g>
</g>
</g>
</g>
</g>
</g>
</g>
</svg>
