<svg width="37" height="27" viewBox="0 0 37 27" fill="none" xmlns="http://www.w3.org/2000/svg">
<path d="M33.8783 0.193359H3.22141C1.65628 0.193359 0.382812 1.46683 0.382812 3.03196V23.4699C0.382812 25.035 1.65628 26.3085 3.22141 26.3085H33.8783C35.4434 26.3085 36.7169 25.035 36.7169 23.4699V3.03196C36.7169 1.46683 35.4434 0.193359 33.8783 0.193359Z" fill="#5D647F"/>
<path d="M12.8739 11.549H6.06122C5.4341 11.549 4.92578 11.0406 4.92578 10.4135V5.87177C4.92578 5.24465 5.4341 4.73633 6.06122 4.73633H12.8739C13.501 4.73633 14.0093 5.24465 14.0093 5.87177V10.4135C14.0093 11.0406 13.501 11.549 12.8739 11.549Z" fill="#FFD100"/>
<path d="M8.89982 18.9265H6.06122C5.4341 18.9265 4.92578 18.4182 4.92578 17.7911V17.2233C4.92578 16.5962 5.4341 16.0879 6.06122 16.0879H8.89982C9.52694 16.0879 10.0353 16.5962 10.0353 17.2233V17.7911C10.0353 18.4182 9.52694 18.9265 8.89982 18.9265Z" fill="#B8BAC0"/>
<path d="M16.2826 18.9265H13.444C12.8169 18.9265 12.3086 18.4182 12.3086 17.7911V17.2233C12.3086 16.5962 12.8169 16.0879 13.444 16.0879H16.2826C16.9098 16.0879 17.4181 16.5962 17.4181 17.2233V17.7911C17.4181 18.4182 16.9098 18.9265 16.2826 18.9265Z" fill="#B8BAC0"/>
<path d="M23.6615 18.9265H20.8229C20.1958 18.9265 19.6875 18.4182 19.6875 17.7911V17.2233C19.6875 16.5962 20.1958 16.0879 20.8229 16.0879H23.6615C24.2887 16.0879 24.797 16.5962 24.797 17.2233V17.7911C24.797 18.4182 24.2887 18.9265 23.6615 18.9265Z" fill="#B8BAC0"/>
<path d="M31.0404 18.9265H28.2018C27.5747 18.9265 27.0664 18.4182 27.0664 17.7911V17.2233C27.0664 16.5962 27.5747 16.0879 28.2018 16.0879H31.0404C31.6676 16.0879 32.1759 16.5962 32.1759 17.2233V17.7911C32.1759 18.4182 31.6676 18.9265 31.0404 18.9265Z" fill="#B8BAC0"/>
<path d="M16.8479 22.3327H5.4935C5.17969 22.3327 4.92578 22.0785 4.92578 21.765C4.92578 21.4515 5.17969 21.1973 5.4935 21.1973H16.8479C17.1617 21.1973 17.4156 21.4515 17.4156 21.765C17.4156 22.0785 17.1617 22.3327 16.8479 22.3327Z" fill="#8A8895"/>
<path d="M24.228 22.3327H19.1185C18.8047 22.3327 18.5508 22.0785 18.5508 21.765C18.5508 21.4515 18.8047 21.1973 19.1185 21.1973H24.228C24.5418 21.1973 24.7957 21.4515 24.7957 21.765C24.7957 22.0785 24.5418 22.3327 24.228 22.3327Z" fill="#8A8895"/>
<path d="M14.008 8.71037H8.33075V7.57493H14.008V6.43949H8.33075V4.73633H7.19531V11.549H8.33075V9.84581H14.008V8.71037Z" fill="#FF9500"/>
<path d="M28.7696 11.549C30.6509 11.549 32.1759 10.0239 32.1759 8.14265C32.1759 6.26139 30.6509 4.73633 28.7696 4.73633C26.8883 4.73633 25.3633 6.26139 25.3633 8.14265C25.3633 10.0239 26.8883 11.549 28.7696 11.549Z" fill="#FF4F19"/>
</svg>
