<svg width="14" height="18" viewBox="0 0 14 18" fill="none" xmlns="http://www.w3.org/2000/svg">
<path d="M11.1269 16.1387C10.951 16.5254 10.6676 16.8532 10.3105 17.083C9.95336 17.3129 9.53759 17.4351 9.11287 17.435H2.32458C2.03418 17.435 1.74661 17.3778 1.47831 17.2667C1.21 17.1556 0.966215 16.9927 0.76087 16.7874C0.555524 16.582 0.392643 16.3383 0.281529 16.07C0.170414 15.8017 0.113243 15.5141 0.113282 15.2237V5.32072C0.113037 4.89597 0.235159 4.48014 0.465038 4.12298C0.694918 3.76581 1.02282 3.48243 1.40953 3.30674V14.3758C1.40945 14.6073 1.455 14.8366 1.54356 15.0506C1.63212 15.2646 1.76197 15.459 1.92568 15.6228C2.0894 15.7865 2.28377 15.9164 2.4977 16.0051C2.71163 16.0937 2.94093 16.1393 3.17249 16.1393L11.1269 16.1387ZM8.06589 5.20134V0.867188H4.56652C4.27602 0.867187 3.98837 0.924435 3.72 1.03566C3.45164 1.14688 3.20782 1.3099 3.00249 1.51539C2.79715 1.72089 2.63433 1.96484 2.52332 2.23329C2.41231 2.50174 2.35529 2.78944 2.35552 3.07994V13.6665C2.35575 14.0714 2.51678 14.4597 2.8032 14.746C3.08962 15.0322 3.47799 15.193 3.88293 15.193H11.3551C11.6455 15.193 11.933 15.1358 12.2013 15.0247C12.4696 14.9136 12.7134 14.7507 12.9187 14.5454C13.1241 14.34 13.287 14.0963 13.3981 13.828C13.5092 13.5597 13.5664 13.2721 13.5664 12.9817V6.53524H9.39863C9.04506 6.53493 8.70607 6.39426 8.45617 6.14414C8.20627 5.89402 8.06589 5.55491 8.06589 5.20134ZM8.8315 0.867188L13.5667 5.78773H9.51742C9.3355 5.78773 9.16104 5.71546 9.0324 5.58683C8.90376 5.45819 8.8315 5.28373 8.8315 5.10181V0.867188Z" fill="#DEE0E3"/>
</svg>
