<svg width="14" height="16" viewBox="0 0 14 16" fill="none" xmlns="http://www.w3.org/2000/svg">
<g id="Group 427319115">
<path id="Vector" d="M12.4194 1.91191H9.67984V1.43979C9.67984 0.657552 9.01081 0.0234375 8.18551 0.0234375H6.19307C5.36777 0.0234375 4.69874 0.657552 4.69874 1.43979V1.91191H1.95914C1.27141 1.91191 0.713867 2.44036 0.713867 3.09221V4.03645C0.713867 4.2972 0.936865 4.50857 1.21198 4.50857H13.1666C13.4417 4.50857 13.6647 4.2972 13.6647 4.03645V3.09221C13.6647 2.44036 13.1072 1.91191 12.4194 1.91191ZM5.69496 1.43979C5.69496 1.17954 5.91849 0.967675 6.19307 0.967675H8.18551C8.46009 0.967675 8.68362 1.17954 8.68362 1.43979V1.91191H5.69496V1.43979Z" fill="#C66060"/>
<path id="Vector_2" d="M1.65858 5.45312C1.5697 5.45312 1.49888 5.52353 1.50311 5.60769L1.91405 13.7825C1.95203 14.5391 2.60767 15.1316 3.40651 15.1316H10.9709C11.7698 15.1316 12.4254 14.5391 12.4634 13.7825L12.8743 5.60769C12.8786 5.52353 12.8077 5.45312 12.7189 5.45312H1.65858ZM9.18116 6.63342C9.18116 6.37258 9.40406 6.1613 9.67927 6.1613C9.95447 6.1613 10.1774 6.37258 10.1774 6.63342V12.771C10.1774 13.0318 9.95447 13.2431 9.67927 13.2431C9.40406 13.2431 9.18116 13.0318 9.18116 12.771V6.63342ZM6.69061 6.63342C6.69061 6.37258 6.91351 6.1613 7.18872 6.1613C7.46392 6.1613 7.68683 6.37258 7.68683 6.63342V12.771C7.68683 13.0318 7.46392 13.2431 7.18872 13.2431C6.91351 13.2431 6.69061 13.0318 6.69061 12.771V6.63342ZM4.20006 6.63342C4.20006 6.37258 4.42297 6.1613 4.69817 6.1613C4.97338 6.1613 5.19628 6.37258 5.19628 6.63342V12.771C5.19628 13.0318 4.97338 13.2431 4.69817 13.2431C4.42297 13.2431 4.20006 13.0318 4.20006 12.771V6.63342Z" fill="#C66060"/>
</g>
</svg>
