<svg width="8" height="13" viewBox="0 0 8 13" fill="none" xmlns="http://www.w3.org/2000/svg">
<path d="M4.27841 11.6498C3.56907 11.6498 2.94841 11.5098 2.41641 11.2298C1.89374 10.9498 1.41774 10.5391 0.988406 9.99777L2.06641 8.91977C2.33707 9.31177 2.65441 9.6291 3.01841 9.87177C3.38241 10.1144 3.82107 10.2358 4.33441 10.2358C4.87574 10.2358 5.30507 10.1191 5.62241 9.88577C5.94907 9.65243 6.11241 9.3211 6.11241 8.89177C6.11241 8.5651 6.02841 8.2991 5.86041 8.09377C5.69241 7.88843 5.46841 7.72043 5.18841 7.58977C4.91774 7.44977 4.61441 7.32843 4.27841 7.22577C3.95174 7.11377 3.62041 6.99243 3.28441 6.86177C2.95774 6.72177 2.65441 6.5491 2.37441 6.34377C2.10374 6.13843 1.88441 5.87243 1.71641 5.54577C1.54841 5.2191 1.46441 4.80377 1.46441 4.29976C1.46441 3.7211 1.60441 3.2311 1.88441 2.82977C2.17374 2.4191 2.56107 2.10643 3.04641 1.89177C3.53174 1.6771 4.07307 1.56977 4.67041 1.56977C5.24907 1.56977 5.78574 1.69577 6.28041 1.94777C6.77507 2.19977 7.18107 2.52177 7.49841 2.91377L6.42041 3.99177C6.14041 3.67443 5.85107 3.4271 5.55241 3.24977C5.26307 3.07243 4.95507 2.98377 4.62841 2.98377C4.10574 2.98377 3.70441 3.08643 3.42441 3.29177C3.14441 3.48777 3.00441 3.78643 3.00441 4.18777C3.00441 4.48643 3.08841 4.7291 3.25641 4.91577C3.43374 5.0931 3.66241 5.2471 3.94241 5.37777C4.22241 5.4991 4.52574 5.61577 4.85241 5.72777C5.18841 5.83977 5.52441 5.96577 5.86041 6.10577C6.19641 6.24577 6.50441 6.42777 6.78441 6.65177C7.06441 6.86643 7.28841 7.14643 7.45641 7.49177C7.63374 7.8371 7.72241 8.2711 7.72241 8.79377C7.72241 9.6711 7.40974 10.3664 6.78441 10.8798C6.16841 11.3931 5.33307 11.6498 4.27841 11.6498ZM4.05441 12.9098V0.309765H5.17441V12.9098H4.05441Z" fill="#DEE0E3"/>
</svg>
