<svg width="19" height="19" viewBox="0 0 19 19" fill="none" xmlns="http://www.w3.org/2000/svg">
<path d="M18.9884 17.1666C18.9884 17.793 18.4805 18.3009 17.8541 18.3009H1.97413C1.34768 18.3009 0.839844 17.793 0.839844 17.1666C0.839844 16.5402 1.34768 16.0323 1.97413 16.0323H17.8541C18.4805 16.0323 18.9884 16.5402 18.9884 17.1666ZM9.11207 13.5733C9.33357 13.7948 9.62381 13.9056 9.91411 13.9056C10.2043 13.9056 10.4947 13.7948 10.7162 13.5733L14.735 9.55453C15.178 9.11155 15.178 8.39337 14.735 7.9504C14.292 7.50743 13.5738 7.50743 13.1309 7.9504L11.0484 10.0329V1.28663C11.0484 0.660184 10.5406 0.152344 9.91411 0.152344C9.28767 0.152344 8.77983 0.660184 8.77983 1.28663V10.0329L6.69735 7.9504C6.25438 7.50743 5.5362 7.50743 5.09323 7.9504C4.65026 8.39337 4.65026 9.11155 5.09323 9.55453L9.11207 13.5733Z" fill="#3A3A3A"/>
</svg>
