<svg width="53" height="53" viewBox="0 0 53 53" fill="none" xmlns="http://www.w3.org/2000/svg">
<g opacity="0.3">
<path d="M17.392 11.8476L13.3208 9.54138L27.2013 1.67871L31.2722 3.98469L17.392 11.8476ZM18.1181 18.8456L20.9387 20.4435V15.4946L18.1181 13.8968V18.8456ZM21.6614 14.266L35.5421 6.4033L32.7216 4.80562L18.8411 12.6685L21.6614 14.266ZM27.9261 34.3574L36.1684 29.6884C35.6166 28.7508 35.3008 27.6627 35.3008 26.5022C35.3008 22.9782 38.2134 20.1205 41.8052 20.1205V10.7684L27.9262 18.6302V34.3575L27.9261 34.3574ZM27.203 17.4051L41.0838 9.54219L36.9916 7.22423L23.1106 15.0869L27.203 17.4051ZM26.477 18.6317L22.3879 16.3154V21.6746C22.3879 21.9286 22.2498 22.1632 22.0256 22.2904C21.9135 22.3536 21.7884 22.3859 21.6633 22.3859C21.5383 22.3859 21.4132 22.3536 21.301 22.2904L17.0313 19.8716C16.8072 19.7449 16.669 19.5098 16.669 19.2562V13.0758L12.5981 10.7698V26.4954L26.4771 34.3574V18.6317H26.477ZM10.1067 40.0111L12.8856 39.1377C13.065 39.0812 13.1893 38.9421 13.2227 38.76C13.256 38.578 13.1889 38.405 13.0407 38.2908L4.9767 32.0785C4.84389 31.9763 4.68241 31.9473 4.52134 31.9969C4.36027 32.0466 4.24464 32.161 4.19537 32.3194L1.17903 42.0141C1.12375 42.1919 1.17033 42.3725 1.30521 42.503C1.44009 42.6335 1.62477 42.6768 1.80519 42.6201L4.7733 41.6871C8.55762 51.727 24.9286 55.4383 35.0058 44.9292C22.0141 51.1685 11.5025 44.6127 10.1068 40.0109L10.1067 40.0111ZM36.7499 26.5023C36.7499 29.2416 39.0133 31.4621 41.8052 31.4621C44.5971 31.4621 46.8604 29.2416 46.8604 26.5023C46.8604 23.7631 44.597 21.5424 41.8052 21.5424C39.0134 21.5424 36.7499 23.7631 36.7499 26.5023ZM41.8051 32.4542C36.5453 32.4542 32.2271 36.4059 31.7641 41.4479V42.595H51.8461V41.4479C51.3831 36.4058 47.0648 32.4542 41.8051 32.4542Z" fill="#3A3A3A"/>
</g>
</svg>
