<svg width="701" height="700" viewBox="0 0 701 700" fill="none" xmlns="http://www.w3.org/2000/svg">
<g clip-path="url(#clip0_817_13245)">
<path d="M662.404 596.658L659.571 593.812L590.965 662.413L592.635 664.068L610.828 682.234C622.484 693.915 647.292 688.014 666.252 669.083C685.195 650.116 691.09 625.311 679.434 613.659L662.434 596.659L662.404 596.658Z" fill="#3A3A3A"/>
<path d="M642.782 577.312L574.176 645.867L590.964 662.411L659.57 593.81L657.61 591.849L657.555 591.88L642.782 577.312Z" fill="#CFCFCF"/>
<path d="M277.891 9.76953C130.258 9.76953 10.584 129.474 10.584 277.117C10.584 424.754 130.258 544.433 277.891 544.433C332.626 544.433 383.433 527.959 425.828 499.739L574.176 645.869L642.782 577.314L495.403 432.156C526.656 388.409 545.236 334.972 545.236 277.117C545.235 129.474 425.562 9.76953 277.891 9.76953ZM281.547 465.085C177.748 465.085 93.576 380.937 93.576 277.118C93.576 173.291 177.748 89.1495 281.547 89.1495C385.37 89.1495 469.524 173.292 469.524 277.118C469.524 380.937 385.37 465.085 281.547 465.085Z" fill="#3A3A3A"/>
<path d="M313.854 160.806L182.548 325.966C178.209 331.458 179.11 339.438 184.599 343.832C186.941 345.666 189.731 346.577 192.509 346.577C196.225 346.577 199.953 344.952 202.459 341.778L333.746 176.608C338.122 171.116 337.184 163.142 331.688 158.773C326.2 154.439 318.199 155.31 313.854 160.806Z" fill="#CFCFCF"/>
<path d="M368.919 215.865L237.608 381.032C233.239 386.525 234.17 394.498 239.666 398.895C242.008 400.731 244.798 401.639 247.564 401.639C251.292 401.639 254.996 399.987 257.501 396.84L388.814 231.673C393.178 226.181 392.251 218.204 386.755 213.811C381.284 209.465 373.265 210.376 368.919 215.865Z" fill="#CFCFCF"/>
</g>
<defs>
<clipPath id="clip0_817_13245">
<rect width="701" height="700" fill="white"/>
</clipPath>
</defs>
</svg>
