<svg width="316" height="24" viewBox="0 0 316 24" fill="none" xmlns="http://www.w3.org/2000/svg">
<path d="M20.2638 1.44579H21.1768V22.4434H20.2638V1.44579ZM0.179211 1.44579H1.09215V22.4434H0.179211V1.44579ZM18.438 1.44579H19.3509V22.4434H18.438V1.44579ZM16.6121 1.44579H17.525V22.4434H16.6121V1.44579ZM14.7862 1.44579H15.6992V22.4434H14.7862V14.2142H6.56978V22.4434H5.65684V1.44579H6.56978V9.64955H14.7862V1.44579ZM3.83096 1.44579H4.7439V22.4434H3.83096V1.44579ZM2.00509 1.44579H2.91802V22.4434H2.00509V1.44579ZM14.7862 13.3013V12.3884H6.56978V13.3013H14.7862ZM14.7862 11.4754V10.5625H6.56978V11.4754H14.7862ZM38.3704 13.2125V1.44579H39.2834V13.2125C39.2834 14.4974 38.7762 15.5963 37.7618 16.5093C36.7474 17.4222 35.5302 17.8787 34.1101 17.8787C32.6899 17.8787 31.4727 17.4222 30.4583 16.5093C29.4439 15.5963 28.9368 14.4974 28.9368 13.2125V1.44579H29.8497V13.2125C29.8497 14.2438 30.2639 15.1272 31.0923 15.8626C31.9292 16.598 32.9351 16.9657 34.1101 16.9657C35.285 16.9657 36.2867 16.598 37.1152 15.8626C37.952 15.1272 38.3704 14.2438 38.3704 13.2125ZM40.1963 13.2125V1.44579H41.1093V13.2125C41.1093 14.0917 40.9233 14.9328 40.5513 15.7358C40.1794 16.5304 39.6807 17.2193 39.0551 17.8026C38.4296 18.3859 37.6857 18.8508 36.8235 19.1974C35.9613 19.5355 35.0568 19.7045 34.1101 19.7045C33.1633 19.7045 32.2588 19.5355 31.3966 19.1974C30.5344 18.8508 29.7905 18.3859 29.165 17.8026C28.5395 17.2193 28.0407 16.5304 27.6688 15.7358C27.2968 14.9328 27.1109 14.0917 27.1109 13.2125V1.44579H28.0238V13.2125C28.0238 14.2185 28.2943 15.1525 28.8353 16.0148C29.3848 16.8685 30.1244 17.5448 31.0543 18.0435C31.9926 18.5422 33.0112 18.7916 34.1101 18.7916C35.209 18.7916 36.2233 18.5422 37.1532 18.0435C38.0915 17.5448 38.8311 16.8685 39.3721 16.0148C39.9216 15.1525 40.1963 14.2185 40.1963 13.2125ZM42.0222 13.2125V1.44579H42.9351V13.2125C42.9351 14.3368 42.6984 15.4146 42.2251 16.4459C41.7601 17.4687 41.1346 18.352 40.3485 19.0959C39.5623 19.8398 38.624 20.4315 37.5336 20.8711C36.4431 21.3106 35.302 21.5304 34.1101 21.5304C32.9182 21.5304 31.777 21.3106 30.6865 20.8711C29.5961 20.4315 28.6578 19.8398 27.8717 19.0959C27.0855 18.352 26.4558 17.4687 25.9824 16.4459C25.5175 15.4146 25.285 14.3368 25.285 13.2125V1.44579H26.1979V13.2125C26.1979 14.5481 26.553 15.7865 27.263 16.9277C27.9731 18.0604 28.9325 18.9607 30.1413 19.6285C31.3586 20.2878 32.6815 20.6175 34.1101 20.6175C35.5386 20.6175 36.8573 20.2878 38.0661 19.6285C39.2834 18.9607 40.247 18.0604 40.9571 16.9277C41.6672 15.7865 42.0222 14.5481 42.0222 13.2125ZM43.8481 13.2125V1.44579H44.761V13.2125C44.761 15.0384 44.2834 16.7333 43.3282 18.2971C42.373 19.8525 41.0754 21.0866 39.4355 21.9996C37.8041 22.9041 36.0289 23.3563 34.1101 23.3563C32.1912 23.3563 30.4118 22.9041 28.7719 21.9996C27.1405 21.0866 25.8471 19.8525 24.8919 18.2971C23.9367 16.7333 23.4591 15.0384 23.4591 13.2125V1.44579H24.3721V13.2125C24.3721 14.4552 24.6299 15.647 25.1455 16.7882C25.6612 17.9294 26.3543 18.9142 27.225 19.7426C28.0957 20.5625 29.1312 21.2177 30.3315 21.7079C31.5403 22.1982 32.7998 22.4434 34.1101 22.4434C35.4203 22.4434 36.6756 22.1982 37.8759 21.7079C39.0847 21.2177 40.1245 20.5625 40.9951 19.7426C41.8658 18.9142 42.559 17.9294 43.0746 16.7882C43.5902 15.647 43.8481 14.4552 43.8481 13.2125ZM55.5768 9.66223H54.0425C53.3916 9.66223 52.9225 9.49739 52.6351 9.16772C52.3477 8.8296 52.204 8.38581 52.204 7.83635C52.204 6.6191 53.1127 6.01048 54.9301 6.01048C56.6376 6.01048 57.9225 6.26407 58.7847 6.77126L58.0493 7.32917C57.4576 7.05867 56.4179 6.92342 54.9301 6.92342C54.2031 6.92342 53.7129 7.00372 53.4593 7.16433C53.2141 7.32494 53.0916 7.54895 53.0916 7.83635C53.0916 8.12376 53.1592 8.34777 53.2944 8.50838C53.4297 8.66899 53.6791 8.74929 54.0425 8.74929H55.6148C56.756 8.74929 57.783 8.94371 58.696 9.33256C59.6174 9.7214 60.3739 10.2539 60.9656 10.9302C61.5574 11.598 62.0096 12.3715 62.3224 13.2506C62.6351 14.1213 62.7915 15.0553 62.7915 16.0528C62.7915 16.8643 62.6774 17.6335 62.4492 18.3605C62.2209 19.0875 61.8744 19.7553 61.4094 20.3639C60.953 20.9725 60.3993 21.5008 59.7484 21.9489C59.106 22.3884 58.3367 22.7308 57.4407 22.9759C56.5531 23.2295 55.5895 23.3563 54.5497 23.3563C52.9183 23.3563 51.3883 23.1069 49.9597 22.6082C48.5396 22.1179 47.3561 21.429 46.4094 20.5414L47.1448 19.9962C48.007 20.7739 49.0848 21.3783 50.3781 21.8094C51.6799 22.232 53.0704 22.4434 54.5497 22.4434C55.7078 22.4434 56.7518 22.2785 57.6816 21.9489C58.6199 21.6107 59.3891 21.15 59.9893 20.5668C60.5979 19.9835 61.0629 19.3072 61.3841 18.538C61.7138 17.7688 61.8786 16.9404 61.8786 16.0528C61.8786 14.8778 61.6419 13.8169 61.1685 12.8702C60.6951 11.915 59.9724 11.1415 59.0003 10.5498C58.0366 9.95809 56.8955 9.66223 55.5768 9.66223ZM54.0425 10.5752H55.488C57.204 10.5752 58.5438 11.0993 59.5075 12.1474C60.4796 13.1956 60.9656 14.4974 60.9656 16.0528C60.9656 17.6335 60.4035 18.9438 59.2793 19.9835C58.155 21.0148 56.5785 21.5304 54.5497 21.5304C53.1972 21.5304 51.9335 21.3445 50.7585 20.9725C49.5835 20.6006 48.6072 20.0765 47.8295 19.4002L48.5396 18.8296C49.2327 19.396 50.1034 19.8356 51.1516 20.1483C52.2082 20.4611 53.3409 20.6175 54.5497 20.6175C56.3333 20.6175 57.6943 20.1906 58.6326 19.3368C59.5793 18.4831 60.0527 17.3884 60.0527 16.0528C60.0527 14.7341 59.6554 13.6437 58.8608 12.7814C58.0747 11.9192 56.9462 11.4881 55.4753 11.4881H54.0425C52.8084 11.4881 51.8828 11.15 51.2657 10.4737C50.6486 9.79748 50.3401 8.91836 50.3401 7.83635C50.3401 6.75435 50.7205 5.87523 51.4812 5.19898C52.2505 4.52273 53.4001 4.1846 54.9301 4.1846C56.0037 4.1846 57.0011 4.3114 57.9225 4.56499C58.8439 4.81014 59.6047 5.16517 60.2049 5.63009L59.4821 6.18799C58.4255 5.46103 56.9081 5.09754 54.9301 5.09754C53.6537 5.09754 52.7196 5.35114 52.1279 5.85832C51.5446 6.35706 51.253 7.0164 51.253 7.83635C51.253 8.66476 51.4686 9.32833 51.8997 9.82707C52.3392 10.3258 53.0535 10.5752 54.0425 10.5752ZM54.0425 12.401H55.4373C56.6715 12.401 57.5971 12.7434 58.2142 13.4281C58.8312 14.1128 59.1398 14.9877 59.1398 16.0528C59.1398 17.1348 58.7552 18.0139 57.9859 18.6902C57.2251 19.3664 56.0797 19.7045 54.5497 19.7045C53.4762 19.7045 52.4745 19.582 51.5446 19.3368C50.6232 19.0832 49.8625 18.724 49.2623 18.2591L49.985 17.7012C51.0417 18.4281 52.5632 18.7916 54.5497 18.7916C55.8261 18.7916 56.756 18.5422 57.3393 18.0435C57.931 17.5363 58.2268 16.8727 58.2268 16.0528C58.2268 15.2328 58.0071 14.5735 57.5675 14.0748C57.1279 13.5676 56.4136 13.314 55.4246 13.314H54.0425C52.3096 13.314 50.9529 12.7983 49.9724 11.7671C49.0002 10.7273 48.5142 9.41709 48.5142 7.83635C48.5142 6.25562 49.0763 4.94961 50.2006 3.91833C51.3249 2.8786 52.9014 2.35873 54.9301 2.35873C56.2826 2.35873 57.5421 2.5447 58.7087 2.91663C59.8836 3.28857 60.86 3.81267 61.6377 4.48892L60.9276 5.0595C60.2345 4.49314 59.3638 4.05358 58.3156 3.74081C57.2674 3.42805 56.1389 3.27167 54.9301 3.27167C53.1465 3.27167 51.7813 3.69855 50.8346 4.55231C49.8963 5.40608 49.4271 6.50076 49.4271 7.83635C49.4271 9.1635 49.8244 10.2582 50.619 11.1204C51.4136 11.9742 52.5548 12.401 54.0425 12.401ZM54.0425 14.2269H55.4373C56.0882 14.2269 56.5573 14.396 56.8447 14.7341C57.1322 15.0722 57.2759 15.5118 57.2759 16.0528C57.2759 17.27 56.3671 17.8787 54.5497 17.8787C52.8337 17.8787 51.5446 17.6251 50.6824 17.1179L51.4178 16.56C52.0096 16.8305 53.0535 16.9657 54.5497 16.9657C55.2767 16.9657 55.7627 16.8854 56.0079 16.7248C56.2615 16.5642 56.3883 16.3402 56.3883 16.0528C56.3883 15.7738 56.3164 15.5541 56.1727 15.3935C56.0375 15.2244 55.7839 15.1399 55.4119 15.1399H54.0425C52.876 15.1399 51.8194 14.9497 50.8726 14.5693C49.9343 14.1889 49.1609 13.6648 48.5522 12.997C47.9521 12.3292 47.4914 11.5557 47.1701 10.6766C46.8489 9.79748 46.6883 8.85073 46.6883 7.83635C46.6883 7.02485 46.8024 6.25562 47.0307 5.52865C47.2589 4.80168 47.6013 4.13388 48.0577 3.52526C48.5226 2.91663 49.0763 2.39254 49.7188 1.95298C50.3697 1.50496 51.1389 1.15838 52.0265 0.913243C52.9225 0.65965 53.8904 0.532853 54.9301 0.532853C56.5616 0.532853 58.0874 0.78222 59.5075 1.28095C60.9276 1.77124 62.111 2.46017 63.0578 3.34774L62.3224 3.89297C61.4602 3.11528 60.3824 2.51511 59.0891 2.09245C57.7957 1.66135 56.4094 1.44579 54.9301 1.44579C53.772 1.44579 52.7239 1.61485 51.7856 1.95298C50.8557 2.28265 50.0865 2.73912 49.4778 3.32238C48.8777 3.90565 48.4128 4.5819 48.0831 5.35114C47.7619 6.12037 47.6013 6.94878 47.6013 7.83635C47.6013 9.02825 47.8422 10.1018 48.324 11.057C48.8058 12.0122 49.5412 12.7814 50.5303 13.3647C51.5193 13.9395 52.69 14.2269 54.0425 14.2269ZM84.9049 1.44579H85.8178V22.4434H84.9049V1.44579ZM64.8203 1.44579H65.7332V22.4434H64.8203V1.44579ZM83.079 1.44579H83.992V22.4434H83.079V1.44579ZM81.2532 1.44579H82.1661V22.4434H81.2532V1.44579ZM79.4273 1.44579H80.3402V22.4434H79.4273V14.2142H71.2108V22.4434H70.2979V1.44579H71.2108V9.64955H79.4273V1.44579ZM68.472 1.44579H69.385V22.4434H68.472V1.44579ZM66.6462 1.44579H67.5591V22.4434H66.6462V1.44579ZM79.4273 13.3013V12.3884H71.2108V13.3013H79.4273ZM79.4273 11.4754V10.5625H71.2108V11.4754H79.4273ZM122.386 1.44579H123.299V22.4434H122.386V1.44579ZM102.301 1.44579H103.214V22.4434H102.301V1.44579ZM120.56 1.44579H121.473V22.4434H120.56V1.44579ZM118.734 1.44579H119.647V22.4434H118.734V1.44579ZM116.908 1.44579H117.821V22.4434H116.908V14.2142H108.692V22.4434H107.779V1.44579H108.692V9.64955H116.908V1.44579ZM105.953 1.44579H106.866V22.4434H105.953V1.44579ZM104.127 1.44579H105.04V22.4434H104.127V1.44579ZM116.908 13.3013V12.3884H108.692V13.3013H116.908ZM116.908 11.4754V10.5625H108.692V11.4754H116.908ZM140.493 13.2125V1.44579H141.406V13.2125C141.406 14.4974 140.898 15.5963 139.884 16.5093C138.87 17.4222 137.652 17.8787 136.232 17.8787C134.812 17.8787 133.595 17.4222 132.581 16.5093C131.566 15.5963 131.059 14.4974 131.059 13.2125V1.44579H131.972V13.2125C131.972 14.2438 132.386 15.1272 133.215 15.8626C134.051 16.598 135.057 16.9657 136.232 16.9657C137.407 16.9657 138.409 16.598 139.237 15.8626C140.074 15.1272 140.493 14.2438 140.493 13.2125ZM142.319 13.2125V1.44579H143.231V13.2125C143.231 14.0917 143.046 14.9328 142.674 15.7358C142.302 16.5304 141.803 17.2193 141.177 17.8026C140.552 18.3859 139.808 18.8508 138.946 19.1974C138.084 19.5355 137.179 19.7045 136.232 19.7045C135.286 19.7045 134.381 19.5355 133.519 19.1974C132.657 18.8508 131.913 18.3859 131.287 17.8026C130.662 17.2193 130.163 16.5304 129.791 15.7358C129.419 14.9328 129.233 14.0917 129.233 13.2125V1.44579H130.146V13.2125C130.146 14.2185 130.417 15.1525 130.958 16.0148C131.507 16.8685 132.247 17.5448 133.176 18.0435C134.115 18.5422 135.133 18.7916 136.232 18.7916C137.331 18.7916 138.346 18.5422 139.275 18.0435C140.214 17.5448 140.953 16.8685 141.494 16.0148C142.044 15.1525 142.319 14.2185 142.319 13.2125ZM144.144 13.2125V1.44579H145.057V13.2125C145.057 14.3368 144.821 15.4146 144.347 16.4459C143.882 17.4687 143.257 18.352 142.471 19.0959C141.685 19.8398 140.746 20.4315 139.656 20.8711C138.565 21.3106 137.424 21.5304 136.232 21.5304C135.04 21.5304 133.899 21.3106 132.809 20.8711C131.718 20.4315 130.78 19.8398 129.994 19.0959C129.208 18.352 128.578 17.4687 128.105 16.4459C127.64 15.4146 127.407 14.3368 127.407 13.2125V1.44579H128.32V13.2125C128.32 14.5481 128.675 15.7865 129.385 16.9277C130.095 18.0604 131.055 18.9607 132.264 19.6285C133.481 20.2878 134.804 20.6175 136.232 20.6175C137.661 20.6175 138.98 20.2878 140.188 19.6285C141.406 18.9607 142.369 18.0604 143.079 16.9277C143.789 15.7865 144.144 14.5481 144.144 13.2125ZM145.97 13.2125V1.44579H146.883V13.2125C146.883 15.0384 146.406 16.7333 145.45 18.2971C144.495 19.8525 143.198 21.0866 141.558 21.9996C139.926 22.9041 138.151 23.3563 136.232 23.3563C134.313 23.3563 132.534 22.9041 130.894 21.9996C129.263 21.0866 127.969 19.8525 127.014 18.2971C126.059 16.7333 125.581 15.0384 125.581 13.2125V1.44579H126.494V13.2125C126.494 14.4552 126.752 15.647 127.268 16.7882C127.783 17.9294 128.477 18.9142 129.347 19.7426C130.218 20.5625 131.253 21.2177 132.454 21.7079C133.663 22.1982 134.922 22.4434 136.232 22.4434C137.543 22.4434 138.798 22.1982 139.998 21.7079C141.207 21.2177 142.247 20.5625 143.117 19.7426C143.988 18.9142 144.681 17.9294 145.197 16.7882C145.712 15.647 145.97 14.4552 145.97 13.2125ZM157.699 9.66223H156.165C155.514 9.66223 155.045 9.49739 154.757 9.16772C154.47 8.8296 154.326 8.38581 154.326 7.83635C154.326 6.6191 155.235 6.01048 157.052 6.01048C158.76 6.01048 160.045 6.26407 160.907 6.77126L160.172 7.32917C159.58 7.05867 158.54 6.92342 157.052 6.92342C156.325 6.92342 155.835 7.00372 155.582 7.16433C155.336 7.32494 155.214 7.54895 155.214 7.83635C155.214 8.12376 155.281 8.34777 155.417 8.50838C155.552 8.66899 155.801 8.74929 156.165 8.74929H157.737C158.878 8.74929 159.905 8.94371 160.818 9.33256C161.74 9.7214 162.496 10.2539 163.088 10.9302C163.68 11.598 164.132 12.3715 164.445 13.2506C164.757 14.1213 164.914 15.0553 164.914 16.0528C164.914 16.8643 164.8 17.6335 164.571 18.3605C164.343 19.0875 163.997 19.7553 163.532 20.3639C163.075 20.9725 162.522 21.5008 161.871 21.9489C161.228 22.3884 160.459 22.7308 159.563 22.9759C158.675 23.2295 157.712 23.3563 156.672 23.3563C155.041 23.3563 153.51 23.1069 152.082 22.6082C150.662 22.1179 149.478 21.429 148.532 20.5414L149.267 19.9962C150.129 20.7739 151.207 21.3783 152.5 21.8094C153.802 22.232 155.193 22.4434 156.672 22.4434C157.83 22.4434 158.874 22.2785 159.804 21.9489C160.742 21.6107 161.511 21.15 162.112 20.5668C162.72 19.9835 163.185 19.3072 163.506 18.538C163.836 17.7688 164.001 16.9404 164.001 16.0528C164.001 14.8778 163.764 13.8169 163.291 12.8702C162.817 11.915 162.095 11.1415 161.123 10.5498C160.159 9.95809 159.018 9.66223 157.699 9.66223ZM156.165 10.5752H157.61C159.326 10.5752 160.666 11.0993 161.63 12.1474C162.602 13.1956 163.088 14.4974 163.088 16.0528C163.088 17.6335 162.526 18.9438 161.401 19.9835C160.277 21.0148 158.701 21.5304 156.672 21.5304C155.319 21.5304 154.056 21.3445 152.881 20.9725C151.706 20.6006 150.729 20.0765 149.952 19.4002L150.662 18.8296C151.355 19.396 152.226 19.8356 153.274 20.1483C154.33 20.4611 155.463 20.6175 156.672 20.6175C158.456 20.6175 159.817 20.1906 160.755 19.3368C161.702 18.4831 162.175 17.3884 162.175 16.0528C162.175 14.7341 161.778 13.6437 160.983 12.7814C160.197 11.9192 159.068 11.4881 157.598 11.4881H156.165C154.931 11.4881 154.005 11.15 153.388 10.4737C152.771 9.79748 152.462 8.91836 152.462 7.83635C152.462 6.75435 152.843 5.87523 153.603 5.19898C154.373 4.52273 155.522 4.1846 157.052 4.1846C158.126 4.1846 159.123 4.3114 160.045 4.56499C160.966 4.81014 161.727 5.16517 162.327 5.63009L161.604 6.18799C160.548 5.46103 159.03 5.09754 157.052 5.09754C155.776 5.09754 154.842 5.35114 154.25 5.85832C153.667 6.35706 153.375 7.0164 153.375 7.83635C153.375 8.66476 153.591 9.32833 154.022 9.82707C154.461 10.3258 155.176 10.5752 156.165 10.5752ZM156.165 12.401H157.56C158.794 12.401 159.719 12.7434 160.336 13.4281C160.953 14.1128 161.262 14.9877 161.262 16.0528C161.262 17.1348 160.877 18.0139 160.108 18.6902C159.347 19.3664 158.202 19.7045 156.672 19.7045C155.598 19.7045 154.597 19.582 153.667 19.3368C152.745 19.0832 151.985 18.724 151.385 18.2591L152.107 17.7012C153.164 18.4281 154.685 18.7916 156.672 18.7916C157.948 18.7916 158.878 18.5422 159.461 18.0435C160.053 17.5363 160.349 16.8727 160.349 16.0528C160.349 15.2328 160.129 14.5735 159.69 14.0748C159.25 13.5676 158.536 13.314 157.547 13.314H156.165C154.432 13.314 153.075 12.7983 152.095 11.7671C151.122 10.7273 150.636 9.41709 150.636 7.83635C150.636 6.25562 151.199 4.94961 152.323 3.91833C153.447 2.8786 155.024 2.35873 157.052 2.35873C158.405 2.35873 159.664 2.5447 160.831 2.91663C162.006 3.28857 162.982 3.81267 163.76 4.48892L163.05 5.0595C162.357 4.49314 161.486 4.05358 160.438 3.74081C159.39 3.42805 158.261 3.27167 157.052 3.27167C155.269 3.27167 153.904 3.69855 152.957 4.55231C152.019 5.40608 151.549 6.50076 151.549 7.83635C151.549 9.1635 151.947 10.2582 152.741 11.1204C153.536 11.9742 154.677 12.401 156.165 12.401ZM156.165 14.2269H157.56C158.21 14.2269 158.68 14.396 158.967 14.7341C159.254 15.0722 159.398 15.5118 159.398 16.0528C159.398 17.27 158.489 17.8787 156.672 17.8787C154.956 17.8787 153.667 17.6251 152.805 17.1179L153.54 16.56C154.132 16.8305 155.176 16.9657 156.672 16.9657C157.399 16.9657 157.885 16.8854 158.13 16.7248C158.384 16.5642 158.511 16.3402 158.511 16.0528C158.511 15.7738 158.439 15.5541 158.295 15.3935C158.16 15.2244 157.906 15.1399 157.534 15.1399H156.165C154.998 15.1399 153.942 14.9497 152.995 14.5693C152.057 14.1889 151.283 13.6648 150.674 12.997C150.074 12.3292 149.614 11.5557 149.292 10.6766C148.971 9.79748 148.811 8.85073 148.811 7.83635C148.811 7.02485 148.925 6.25562 149.153 5.52865C149.381 4.80168 149.723 4.13388 150.18 3.52526C150.645 2.91663 151.199 2.39254 151.841 1.95298C152.492 1.50496 153.261 1.15838 154.149 0.913243C155.045 0.65965 156.013 0.532853 157.052 0.532853C158.684 0.532853 160.21 0.78222 161.63 1.28095C163.05 1.77124 164.233 2.46017 165.18 3.34774L164.445 3.89297C163.582 3.11528 162.505 2.51511 161.211 2.09245C159.918 1.66135 158.532 1.44579 157.052 1.44579C155.894 1.44579 154.846 1.61485 153.908 1.95298C152.978 2.28265 152.209 2.73912 151.6 3.32238C151 3.90565 150.535 4.5819 150.205 5.35114C149.884 6.12037 149.723 6.94878 149.723 7.83635C149.723 9.02825 149.964 10.1018 150.446 11.057C150.928 12.0122 151.663 12.7814 152.653 13.3647C153.642 13.9395 154.812 14.2269 156.165 14.2269ZM187.027 1.44579H187.94V22.4434H187.027V1.44579ZM166.943 1.44579H167.855V22.4434H166.943V1.44579ZM185.201 1.44579H186.114V22.4434H185.201V1.44579ZM183.375 1.44579H184.288V22.4434H183.375V1.44579ZM181.55 1.44579H182.462V22.4434H181.55V14.2142H173.333V22.4434H172.42V1.44579H173.333V9.64955H181.55V1.44579ZM170.594 1.44579H171.507V22.4434H170.594V1.44579ZM168.768 1.44579H169.681V22.4434H168.768V1.44579ZM181.55 13.3013V12.3884H173.333V13.3013H181.55ZM181.55 11.4754V10.5625H173.333V11.4754H181.55Z" fill="#1B1B1B"/>
<path d="M220.273 8.6225L219.525 9.117C219.069 8.44075 218.473 7.90821 217.737 7.51936C217.01 7.12207 216.22 6.92342 215.366 6.92342C213.98 6.92342 212.796 7.4137 211.816 8.39426C210.835 9.37482 210.345 10.5583 210.345 11.9446C210.345 13.3309 210.835 14.5143 211.816 15.4949C212.796 16.4755 213.98 16.9657 215.366 16.9657C216.22 16.9657 217.01 16.7671 217.737 16.3698C218.473 15.9725 219.069 15.4357 219.525 14.7595L220.261 15.292C219.72 16.0866 219.018 16.7164 218.156 17.1813C217.294 17.6462 216.364 17.8787 215.366 17.8787C214.563 17.8787 213.794 17.7223 213.059 17.4095C212.332 17.0968 211.702 16.6741 211.169 16.1416C210.637 15.609 210.214 14.9792 209.901 14.2523C209.589 13.5169 209.432 12.7476 209.432 11.9446C209.432 11.1415 209.589 10.3765 209.901 9.64955C210.214 8.91413 210.637 8.28014 211.169 7.7476C211.702 7.21505 212.332 6.79239 213.059 6.47963C213.794 6.16686 214.563 6.01048 215.366 6.01048C216.372 6.01048 217.306 6.24717 218.168 6.72054C219.031 7.18546 219.732 7.81945 220.273 8.6225ZM221.782 7.58276L221.021 8.07727C220.396 7.16433 219.584 6.44159 218.587 5.90904C217.598 5.36804 216.524 5.09754 215.366 5.09754C214.124 5.09754 212.978 5.40608 211.93 6.02316C210.882 6.63178 210.049 7.46019 209.432 8.50838C208.824 9.55657 208.519 10.702 208.519 11.9446C208.519 13.1872 208.824 14.3326 209.432 15.3808C210.049 16.429 210.882 17.2616 211.93 17.8787C212.978 18.4873 214.124 18.7916 215.366 18.7916C216.524 18.7916 217.602 18.5211 218.6 17.9801C219.597 17.4391 220.409 16.7079 221.034 15.7865L221.782 16.3064C221.072 17.3546 220.151 18.183 219.018 18.7916C217.894 19.4002 216.676 19.7045 215.366 19.7045C213.963 19.7045 212.665 19.358 211.474 18.6648C210.282 17.9717 209.339 17.0291 208.646 15.8372C207.953 14.6453 207.606 13.3478 207.606 11.9446C207.606 10.5414 207.953 9.2438 208.646 8.05191C209.339 6.86002 210.282 5.91749 211.474 5.22434C212.665 4.53118 213.963 4.1846 215.366 4.1846C216.676 4.1846 217.894 4.48892 219.018 5.09754C220.151 5.70617 221.072 6.53457 221.782 7.58276ZM223.304 6.56839L222.543 7.06289C221.748 5.89636 220.717 4.97497 219.449 4.29872C218.19 3.61402 216.829 3.27167 215.366 3.27167C214.191 3.27167 213.067 3.4999 211.993 3.95637C210.92 4.41284 209.994 5.02992 209.217 5.8076C208.447 6.57684 207.835 7.49823 207.378 8.57178C206.922 9.64532 206.693 10.7696 206.693 11.9446C206.693 13.1196 206.922 14.2438 207.378 15.3174C207.835 16.3909 208.447 17.3165 209.217 18.0942C209.994 18.8635 210.92 19.4763 211.993 19.9328C213.067 20.3892 214.191 20.6175 215.366 20.6175C216.837 20.6175 218.202 20.2751 219.462 19.5904C220.721 18.9057 221.748 17.9801 222.543 16.8136L223.278 17.3588C222.399 18.6437 221.262 19.6623 219.868 20.4146C218.481 21.1585 216.981 21.5304 215.366 21.5304C213.633 21.5304 212.031 21.1035 210.561 20.2498C209.09 19.3876 207.923 18.221 207.061 16.7502C206.207 15.2793 205.78 13.6775 205.78 11.9446C205.78 10.2117 206.207 8.60982 207.061 7.13897C207.923 5.66813 209.09 4.50582 210.561 3.65206C212.031 2.78984 213.633 2.35873 215.366 2.35873C216.989 2.35873 218.498 2.73912 219.893 3.4999C221.288 4.25223 222.425 5.27506 223.304 6.56839ZM224.8 5.52865L224.039 6.02316C223.075 4.61149 221.829 3.49567 220.299 2.67572C218.777 1.85577 217.133 1.44579 215.366 1.44579C213.946 1.44579 212.585 1.72474 211.283 2.28265C209.99 2.8321 208.874 3.57598 207.936 4.51428C206.998 5.45257 206.25 6.57261 205.692 7.87439C205.142 9.16772 204.867 10.5244 204.867 11.9446C204.867 13.3647 205.142 14.7257 205.692 16.0274C206.25 17.3208 206.998 18.4366 207.936 19.3749C208.874 20.3132 209.99 21.0613 211.283 21.6192C212.585 22.1686 213.946 22.4434 215.366 22.4434C217.133 22.4434 218.781 22.0292 220.311 21.2007C221.841 20.3723 223.088 19.2523 224.052 17.8406L224.787 18.3985C223.739 19.9201 222.387 21.1289 220.73 22.0249C219.073 22.9125 217.285 23.3563 215.366 23.3563C213.819 23.3563 212.34 23.052 210.928 22.4434C209.525 21.8432 208.312 21.0359 207.289 20.0215C206.275 18.9987 205.463 17.7857 204.855 16.3825C204.255 14.9708 203.955 13.4915 203.955 11.9446C203.955 10.3977 204.255 8.92258 204.855 7.51936C205.463 6.10769 206.275 4.89467 207.289 3.88029C208.312 2.85746 209.525 2.04596 210.928 1.44579C212.34 0.837165 213.819 0.532853 215.366 0.532853C217.294 0.532853 219.086 0.980868 220.742 1.8769C222.399 2.77293 223.752 3.99018 224.8 5.52865ZM226.562 1.44579H227.475V22.4434H226.562V1.44579ZM232.04 1.44579H232.953V17.8787H240.256V18.7916H232.953V19.7045H240.256V20.6175H232.953V21.5304H240.256V22.4434H232.04V1.44579ZM230.214 1.44579H231.127V22.4434H230.214V1.44579ZM228.388 1.44579H229.301V22.4434H228.388V1.44579ZM249.677 8.39426C248.697 9.37482 248.207 10.5583 248.207 11.9446C248.207 13.3309 248.697 14.5143 249.677 15.4949C250.658 16.4755 251.841 16.9657 253.228 16.9657C254.614 16.9657 255.798 16.4755 256.778 15.4949C257.759 14.5143 258.249 13.3309 258.249 11.9446C258.249 10.5583 257.759 9.37482 256.778 8.39426C255.798 7.4137 254.614 6.92342 253.228 6.92342C251.841 6.92342 250.658 7.4137 249.677 8.39426ZM247.763 14.2523C247.45 13.5169 247.294 12.7476 247.294 11.9446C247.294 11.1415 247.45 10.3765 247.763 9.64955C248.076 8.91413 248.498 8.28014 249.031 7.7476C249.563 7.21505 250.193 6.79239 250.92 6.47963C251.656 6.16686 252.425 6.01048 253.228 6.01048C254.031 6.01048 254.796 6.16686 255.523 6.47963C256.258 6.79239 256.892 7.21505 257.425 7.7476C257.957 8.28014 258.38 8.91413 258.693 9.64955C259.006 10.3765 259.162 11.1415 259.162 11.9446C259.162 12.7476 259.006 13.5169 258.693 14.2523C258.38 14.9792 257.957 15.609 257.425 16.1416C256.892 16.6741 256.258 17.0968 255.523 17.4095C254.796 17.7223 254.031 17.8787 253.228 17.8787C252.425 17.8787 251.656 17.7223 250.92 17.4095C250.193 17.0968 249.563 16.6741 249.031 16.1416C248.498 15.609 248.076 14.9792 247.763 14.2523ZM247.294 8.50838C246.685 9.55657 246.381 10.702 246.381 11.9446C246.381 13.1872 246.685 14.3326 247.294 15.3808C247.911 16.429 248.743 17.2616 249.792 17.8787C250.84 18.4873 251.985 18.7916 253.228 18.7916C254.47 18.7916 255.616 18.4873 256.664 17.8787C257.712 17.2616 258.541 16.429 259.149 15.3808C259.766 14.3326 260.075 13.1872 260.075 11.9446C260.075 10.702 259.766 9.55657 259.149 8.50838C258.541 7.46019 257.712 6.63178 256.664 6.02316C255.616 5.40608 254.47 5.09754 253.228 5.09754C251.985 5.09754 250.84 5.40608 249.792 6.02316C248.743 6.63178 247.911 7.46019 247.294 8.50838ZM246.508 15.8372C245.814 14.6453 245.468 13.3478 245.468 11.9446C245.468 10.5414 245.814 9.2438 246.508 8.05191C247.201 6.86002 248.143 5.91749 249.335 5.22434C250.527 4.53118 251.825 4.1846 253.228 4.1846C254.631 4.1846 255.929 4.53118 257.12 5.22434C258.312 5.91749 259.255 6.86002 259.948 8.05191C260.641 9.2438 260.988 10.5414 260.988 11.9446C260.988 13.3478 260.641 14.6453 259.948 15.8372C259.255 17.0291 258.312 17.9717 257.12 18.6648C255.929 19.358 254.631 19.7045 253.228 19.7045C251.825 19.7045 250.527 19.358 249.335 18.6648C248.143 17.9717 247.201 17.0291 246.508 15.8372ZM245.24 8.57178C244.783 9.64532 244.555 10.7696 244.555 11.9446C244.555 13.1196 244.783 14.2438 245.24 15.3174C245.696 16.3909 246.309 17.3165 247.078 18.0942C247.856 18.8635 248.781 19.4763 249.855 19.9328C250.929 20.3892 252.053 20.6175 253.228 20.6175C254.403 20.6175 255.527 20.3892 256.601 19.9328C257.674 19.4763 258.596 18.8635 259.365 18.0942C260.142 17.3165 260.76 16.3909 261.216 15.3174C261.672 14.2438 261.901 13.1196 261.901 11.9446C261.901 10.7696 261.672 9.64532 261.216 8.57178C260.76 7.49823 260.142 6.57684 259.365 5.8076C258.596 5.02992 257.674 4.41284 256.601 3.95637C255.527 3.4999 254.403 3.27167 253.228 3.27167C252.053 3.27167 250.929 3.4999 249.855 3.95637C248.781 4.41284 247.856 5.02992 247.078 5.8076C246.309 6.57684 245.696 7.49823 245.24 8.57178ZM244.923 16.7502C244.069 15.2793 243.642 13.6775 243.642 11.9446C243.642 10.2117 244.069 8.60982 244.923 7.13897C245.785 5.66813 246.951 4.50582 248.422 3.65206C249.893 2.78984 251.495 2.35873 253.228 2.35873C254.961 2.35873 256.563 2.78984 258.033 3.65206C259.504 4.50582 260.667 5.66813 261.52 7.13897C262.383 8.60982 262.814 10.2117 262.814 11.9446C262.814 13.6775 262.383 15.2793 261.52 16.7502C260.667 18.221 259.504 19.3876 258.033 20.2498C256.563 21.1035 254.961 21.5304 253.228 21.5304C251.495 21.5304 249.893 21.1035 248.422 20.2498C246.951 19.3876 245.785 18.221 244.923 16.7502ZM243.553 7.87439C243.004 9.16772 242.729 10.5244 242.729 11.9446C242.729 13.3647 243.004 14.7257 243.553 16.0274C244.111 17.3208 244.859 18.4366 245.798 19.3749C246.736 20.3132 247.852 21.0613 249.145 21.6192C250.447 22.1686 251.808 22.4434 253.228 22.4434C254.648 22.4434 256.005 22.1686 257.298 21.6192C258.6 21.0613 259.72 20.3132 260.658 19.3749C261.596 18.4366 262.34 17.3208 262.89 16.0274C263.448 14.7257 263.727 13.3647 263.727 11.9446C263.727 10.5244 263.448 9.16772 262.89 7.87439C262.34 6.57261 261.596 5.45257 260.658 4.51428C259.72 3.57598 258.6 2.8321 257.298 2.28265C256.005 1.72474 254.648 1.44579 253.228 1.44579C251.808 1.44579 250.447 1.72474 249.145 2.28265C247.852 2.8321 246.736 3.57598 245.798 4.51428C244.859 5.45257 244.111 6.57261 243.553 7.87439ZM242.716 16.3825C242.116 14.9708 241.816 13.4915 241.816 11.9446C241.816 10.3977 242.116 8.92258 242.716 7.51936C243.325 6.10769 244.136 4.89467 245.151 3.88029C246.174 2.85746 247.387 2.04596 248.79 1.44579C250.202 0.837165 251.681 0.532853 253.228 0.532853C254.775 0.532853 256.25 0.837165 257.653 1.44579C259.065 2.04596 260.278 2.85746 261.292 3.88029C262.315 4.89467 263.126 6.10769 263.727 7.51936C264.335 8.92258 264.64 10.3977 264.64 11.9446C264.64 13.4915 264.335 14.9708 263.727 16.3825C263.126 17.7857 262.315 18.9987 261.292 20.0215C260.278 21.0359 259.065 21.8432 257.653 22.4434C256.25 23.052 254.775 23.3563 253.228 23.3563C251.681 23.3563 250.202 23.052 248.79 22.4434C247.387 21.8432 246.174 21.0359 245.151 20.0215C244.136 18.9987 243.325 17.7857 242.716 16.3825ZM275.012 9.66223H273.477C272.826 9.66223 272.357 9.49739 272.07 9.16772C271.782 8.8296 271.639 8.38581 271.639 7.83635C271.639 6.6191 272.547 6.01048 274.365 6.01048C276.072 6.01048 277.357 6.26407 278.219 6.77126L277.484 7.32917C276.892 7.05867 275.853 6.92342 274.365 6.92342C273.638 6.92342 273.148 7.00372 272.894 7.16433C272.649 7.32494 272.526 7.54895 272.526 7.83635C272.526 8.12376 272.594 8.34777 272.729 8.50838C272.864 8.66899 273.114 8.74929 273.477 8.74929H275.05C276.191 8.74929 277.218 8.94371 278.131 9.33256C279.052 9.7214 279.809 10.2539 280.4 10.9302C280.992 11.598 281.444 12.3715 281.757 13.2506C282.07 14.1213 282.226 15.0553 282.226 16.0528C282.226 16.8643 282.112 17.6335 281.884 18.3605C281.656 19.0875 281.309 19.7553 280.844 20.3639C280.388 20.9725 279.834 21.5008 279.183 21.9489C278.541 22.3884 277.771 22.7308 276.875 22.9759C275.988 23.2295 275.024 23.3563 273.984 23.3563C272.353 23.3563 270.823 23.1069 269.394 22.6082C267.974 22.1179 266.791 21.429 265.844 20.5414L266.58 19.9962C267.442 20.7739 268.52 21.3783 269.813 21.8094C271.115 22.232 272.505 22.4434 273.984 22.4434C275.143 22.4434 276.187 22.2785 277.116 21.9489C278.055 21.6107 278.824 21.15 279.424 20.5668C280.033 19.9835 280.498 19.3072 280.819 18.538C281.149 17.7688 281.313 16.9404 281.313 16.0528C281.313 14.8778 281.077 13.8169 280.603 12.8702C280.13 11.915 279.407 11.1415 278.435 10.5498C277.471 9.95809 276.33 9.66223 275.012 9.66223ZM273.477 10.5752H274.923C276.639 10.5752 277.979 11.0993 278.942 12.1474C279.914 13.1956 280.4 14.4974 280.4 16.0528C280.4 17.6335 279.838 18.9438 278.714 19.9835C277.59 21.0148 276.013 21.5304 273.984 21.5304C272.632 21.5304 271.368 21.3445 270.193 20.9725C269.018 20.6006 268.042 20.0765 267.264 19.4002L267.974 18.8296C268.667 19.396 269.538 19.8356 270.586 20.1483C271.643 20.4611 272.776 20.6175 273.984 20.6175C275.768 20.6175 277.129 20.1906 278.067 19.3368C279.014 18.4831 279.487 17.3884 279.487 16.0528C279.487 14.7341 279.09 13.6437 278.296 12.7814C277.509 11.9192 276.381 11.4881 274.91 11.4881H273.477C272.243 11.4881 271.318 11.15 270.7 10.4737C270.083 9.79748 269.775 8.91836 269.775 7.83635C269.775 6.75435 270.155 5.87523 270.916 5.19898C271.685 4.52273 272.835 4.1846 274.365 4.1846C275.438 4.1846 276.436 4.3114 277.357 4.56499C278.279 4.81014 279.039 5.16517 279.64 5.63009L278.917 6.18799C277.86 5.46103 276.343 5.09754 274.365 5.09754C273.088 5.09754 272.154 5.35114 271.563 5.85832C270.979 6.35706 270.688 7.0164 270.688 7.83635C270.688 8.66476 270.903 9.32833 271.334 9.82707C271.774 10.3258 272.488 10.5752 273.477 10.5752ZM273.477 12.401H274.872C276.106 12.401 277.032 12.7434 277.649 13.4281C278.266 14.1128 278.575 14.9877 278.575 16.0528C278.575 17.1348 278.19 18.0139 277.421 18.6902C276.66 19.3664 275.514 19.7045 273.984 19.7045C272.911 19.7045 271.909 19.582 270.979 19.3368C270.058 19.0832 269.297 18.724 268.697 18.2591L269.42 17.7012C270.476 18.4281 271.998 18.7916 273.984 18.7916C275.261 18.7916 276.191 18.5422 276.774 18.0435C277.366 17.5363 277.662 16.8727 277.662 16.0528C277.662 15.2328 277.442 14.5735 277.002 14.0748C276.563 13.5676 275.848 13.314 274.859 13.314H273.477C271.744 13.314 270.388 12.7983 269.407 11.7671C268.435 10.7273 267.949 9.41709 267.949 7.83635C267.949 6.25562 268.511 4.94961 269.635 3.91833C270.76 2.8786 272.336 2.35873 274.365 2.35873C275.717 2.35873 276.977 2.5447 278.143 2.91663C279.318 3.28857 280.295 3.81267 281.072 4.48892L280.362 5.0595C279.669 4.49314 278.799 4.05358 277.75 3.74081C276.702 3.42805 275.574 3.27167 274.365 3.27167C272.581 3.27167 271.216 3.69855 270.269 4.55231C269.331 5.40608 268.862 6.50076 268.862 7.83635C268.862 9.1635 269.259 10.2582 270.054 11.1204C270.848 11.9742 271.99 12.401 273.477 12.401ZM273.477 14.2269H274.872C275.523 14.2269 275.992 14.396 276.28 14.7341C276.567 15.0722 276.711 15.5118 276.711 16.0528C276.711 17.27 275.802 17.8787 273.984 17.8787C272.268 17.8787 270.979 17.6251 270.117 17.1179L270.853 16.56C271.444 16.8305 272.488 16.9657 273.984 16.9657C274.711 16.9657 275.198 16.8854 275.443 16.7248C275.696 16.5642 275.823 16.3402 275.823 16.0528C275.823 15.7738 275.751 15.5541 275.607 15.3935C275.472 15.2244 275.219 15.1399 274.847 15.1399H273.477C272.311 15.1399 271.254 14.9497 270.307 14.5693C269.369 14.1889 268.596 13.6648 267.987 12.997C267.387 12.3292 266.926 11.5557 266.605 10.6766C266.284 9.79748 266.123 8.85073 266.123 7.83635C266.123 7.02485 266.237 6.25562 266.465 5.52865C266.694 4.80168 267.036 4.13388 267.492 3.52526C267.957 2.91663 268.511 2.39254 269.154 1.95298C269.804 1.50496 270.574 1.15838 271.461 0.913243C272.357 0.65965 273.325 0.532853 274.365 0.532853C275.996 0.532853 277.522 0.78222 278.942 1.28095C280.362 1.77124 281.546 2.46017 282.493 3.34774L281.757 3.89297C280.895 3.11528 279.817 2.51511 278.524 2.09245C277.23 1.66135 275.844 1.44579 274.365 1.44579C273.207 1.44579 272.159 1.61485 271.22 1.95298C270.29 2.28265 269.521 2.73912 268.913 3.32238C268.312 3.90565 267.848 4.5819 267.518 5.35114C267.197 6.12037 267.036 6.94878 267.036 7.83635C267.036 9.02825 267.277 10.1018 267.759 11.057C268.241 12.0122 268.976 12.7814 269.965 13.3647C270.954 13.9395 272.125 14.2269 273.477 14.2269ZM288.82 22.4434H287.907V1.44579H288.82V22.4434ZM286.994 22.4434H286.081V1.44579H286.994V22.4434ZM285.168 22.4434H284.255V1.44579H285.168V22.4434ZM290.646 17.8787H300.358V18.7916H290.646V19.7045H300.358V20.6175H290.646V21.5304H300.358V22.4434H289.733V1.44579H300.358V2.35873H290.646V3.27167H300.358V4.1846H290.646V5.09754H300.358V6.01048H290.646V9.66223H295.629V10.5752H290.646V11.4881H295.629V12.401H290.646V13.314H295.629V14.2269H290.646V17.8787ZM302.209 2.35873V1.44579H315.904V2.35873H302.209ZM302.209 4.1846V3.27167H315.904V4.1846H302.209ZM302.209 6.01048V5.09754H315.904V6.01048H312.252V22.4434H311.339V6.01048H310.426V22.4434H309.513V6.01048H308.6V22.4434H307.687V6.01048H306.774V22.4434H305.861V6.01048H302.209Z" fill="#787878"/>
</svg>
