<svg width="19" height="17" viewBox="0 0 19 17" fill="none" xmlns="http://www.w3.org/2000/svg">
<path d="M17.9757 0.923828H4.74557C4.49494 0.923828 4.25457 1.02489 4.07735 1.20478C3.90012 1.38467 3.80056 1.62865 3.80056 1.88305V4.76071H8.52562V2.84227H14.1957V12.4345H17.9757C18.2264 12.4345 18.4667 12.3334 18.644 12.1535C18.8212 11.9736 18.9208 11.7296 18.9208 11.4752V1.88305C18.9208 1.62865 18.8212 1.38467 18.644 1.20478C18.4667 1.02489 18.2264 0.923828 17.9757 0.923828ZM6.87185 4.01132C6.87185 4.08287 6.84385 4.15149 6.794 4.20208C6.74416 4.25267 6.67655 4.2811 6.60606 4.2811H5.72011C5.64962 4.2811 5.58202 4.25267 5.53218 4.20208C5.48233 4.15149 5.45433 4.08287 5.45433 4.01132V3.11205C5.45433 3.0405 5.48233 2.97188 5.53218 2.92128C5.58202 2.87069 5.64962 2.84227 5.72011 2.84227H6.60606C6.67655 2.84227 6.74416 2.87069 6.794 2.92128C6.84385 2.97188 6.87185 3.0405 6.87185 3.11205V4.01132ZM17.267 10.2462C17.267 10.3178 17.239 10.3864 17.1891 10.437C17.1393 10.4876 17.0717 10.516 17.0012 10.516H16.1152C16.0448 10.516 15.9772 10.4876 15.9273 10.437C15.8775 10.3864 15.8495 10.3178 15.8495 10.2462V9.34697C15.8495 9.27542 15.8775 9.20681 15.9273 9.15621C15.9772 9.10562 16.0448 9.07719 16.1152 9.07719H17.0012C17.0717 9.07719 17.1393 9.10562 17.1891 9.15621C17.239 9.20681 17.267 9.27542 17.267 9.34697V10.2462ZM17.267 7.12878C17.267 7.20033 17.239 7.26895 17.1891 7.31954C17.1393 7.37014 17.0717 7.39856 17.0012 7.39856H16.1152C16.0448 7.39856 15.9772 7.37014 15.9273 7.31954C15.8775 7.26895 15.8495 7.20033 15.8495 7.12878V6.22951C15.8495 6.15796 15.8775 6.08934 15.9273 6.03875C15.9772 5.98815 16.0448 5.95973 16.1152 5.95973H17.0012C17.0717 5.95973 17.1393 5.98815 17.1891 6.03875C17.239 6.08934 17.267 6.15796 17.267 6.22951V7.12878ZM17.267 4.01132C17.267 4.08287 17.239 4.15149 17.1891 4.20208C17.1393 4.25267 17.0717 4.2811 17.0012 4.2811H16.1152C16.0448 4.2811 15.9772 4.25267 15.9273 4.20208C15.8775 4.15149 15.8495 4.08287 15.8495 4.01132V3.11205C15.8495 3.0405 15.8775 2.97188 15.9273 2.92128C15.9772 2.87069 16.0448 2.84227 16.1152 2.84227H17.0012C17.0717 2.84227 17.1393 2.87069 17.1891 2.92128C17.239 2.97188 17.267 3.0405 17.267 3.11205V4.01132ZM12.3057 5.71993H0.96552C0.714887 5.71993 0.47452 5.82099 0.297296 6.00087C0.120071 6.18076 0.0205078 6.42474 0.0205078 6.67915L0.0205078 15.3121C0.0205078 15.5665 0.120071 15.8105 0.297296 15.9904C0.47452 16.1703 0.714887 16.2713 0.96552 16.2713H12.3057C12.5563 16.2713 12.7967 16.1703 12.9739 15.9904C13.1511 15.8105 13.2507 15.5665 13.2507 15.3121V6.67915C13.2507 6.42474 13.1511 6.18076 12.9739 6.00087C12.7967 5.82099 12.5563 5.71993 12.3057 5.71993ZM2.85555 7.63836C3.04245 7.63836 3.22516 7.69462 3.38057 7.80002C3.53597 7.90542 3.6571 8.05523 3.72862 8.23051C3.80015 8.40578 3.81886 8.59865 3.7824 8.78472C3.74594 8.97079 3.65593 9.14171 3.52377 9.27586C3.39161 9.41 3.22322 9.50136 3.03991 9.53837C2.85659 9.57538 2.66658 9.55639 2.4939 9.48379C2.32123 9.41119 2.17364 9.28824 2.0698 9.1305C1.96596 8.97276 1.91053 8.7873 1.91053 8.59758C1.91053 8.34318 2.0101 8.0992 2.18732 7.91931C2.36454 7.73943 2.60491 7.63836 2.85555 7.63836ZM11.3607 14.3529H1.91053V13.3937L3.80056 11.4752L4.74557 12.4345L8.52562 8.59758L11.3607 11.4752V14.3529Z" fill="#9F9FA0"/>
</svg>
