<svg width="334" height="260" viewBox="0 0 334 260" fill="none" xmlns="http://www.w3.org/2000/svg">
<path fill-rule="evenodd" clip-rule="evenodd" d="M304.469 183.664C302.08 188.172 299.17 192.499 296.496 196.904C295.526 197.705 294.319 200.701 294.035 201.179C292.474 204.227 290.723 207.224 289.398 210.35C284.926 220.915 282.797 231.92 282.134 243.158C282.04 244.669 282.04 246.167 281.992 247.678L285.139 259.833C288.759 252.651 299.264 235.291 303.334 228.304C307.806 220.605 312.585 213.049 315.661 204.899C315.803 204.77 315.85 204.628 315.755 204.46C317.435 201.45 321.126 188.418 320.913 187.823C326.119 165.039 321.647 143.029 304.351 122.053C305.132 125.773 306.315 129.467 307.498 133.161C313.105 150.598 313.011 167.545 304.469 183.69V183.664Z" fill="white"/>
<path fill-rule="evenodd" clip-rule="evenodd" d="M182.881 0.818115H199.348C203.394 11.1125 202.377 22.3111 193.836 34.5172C190.428 41.6342 184.584 48.2862 180.042 55.1707C170.625 69.4175 162.604 83.884 155.695 98.5313C155.34 99.2675 154.891 99.9908 154.015 101.515C143.676 77.5162 157.47 55.9327 170.436 34.2976C176.989 23.3703 180.751 12.1459 182.881 0.818115Z" fill="white"/>
<path fill-rule="evenodd" clip-rule="evenodd" d="M172.92 100.533C174.955 90.7421 177.983 81.0418 184.632 71.7291C185.815 70.0758 185.744 68.0737 187.566 66.4333C191.115 60.7242 195.161 55.1443 199.585 49.5902C202.732 45.6378 204.98 41.272 207.062 36.9967C209.641 31.6751 213.095 26.4697 215.059 21.0965C216.289 17.7253 215.461 14.1345 215.579 10.6341C212.504 7.23709 208.978 3.99506 205.287 0.804688H220.761C244.043 8.23166 268.602 14.2378 293.327 20.1277C310.764 24.2739 327.09 29.5697 342.375 35.7567C345.592 36.4929 348.219 37.6941 350.75 38.9858L350.703 39.0245C350.703 39.0245 350.727 38.9987 350.75 38.9858C352.643 39.6575 354.512 40.3549 356.381 41.0524V54.576C351.649 53.1681 346.941 51.7602 342.233 50.3265C332.366 47.3298 321.767 45.1211 312.468 41.5949C282.041 33.3671 253.507 23.641 229.279 10.4533C226.511 8.94207 219.105 6.55252 219.105 6.55252C218.206 6.32002 223.198 10.5179 225.185 12.4424C233.372 20.3861 241.038 28.4718 248.23 36.6867C253.175 39.425 258.617 41.0653 261.954 42.4216C269.856 45.6507 278.681 48.1823 286.986 51.1402C293.658 53.5168 300.591 55.8935 307.641 57.6243C317.579 60.0526 327.279 62.6359 336.767 65.5292C340.103 66.0458 342.446 67.5441 345.308 68.3191C349.118 69.3524 352.785 70.4762 356.358 71.6774V83.496C341.807 79.6081 326.806 76.2369 311.522 73.1886C298.674 70.9799 286.891 67.6087 276.15 63.2171C272.672 61.7834 268.626 60.4142 266.07 58.6059C267.088 59.9622 268.129 61.3055 269.123 62.6746C272.482 67.2341 275.676 71.8195 278.705 76.4436C278.752 76.2757 278.823 76.0948 278.871 75.9269C289.376 82.2818 302.957 86.4151 317.886 89.5667C330.828 92.2921 343.936 94.7979 356.358 98.2208V110.879C350.23 109.303 344.078 107.714 337.95 106.139C332.106 104.795 326.144 103.607 320.465 102.109C308.872 99.0732 297.586 95.7279 287.719 91.1813C290.843 96.6708 298.769 108.903 299.479 109.833C310.433 114.496 322.547 118.073 335.229 121.225C342.138 122.943 349.212 124.441 356.358 125.823V138.662C356.05 138.598 355.743 138.533 355.435 138.456C335.04 133.831 316.632 127.851 303.17 118.5C305.701 132.269 297.136 152.444 275.251 169.61C265.786 178.574 257.008 187.758 249.627 197.29C245.628 202.457 242.221 207.765 238.506 212.997C237.82 213.991 237.749 215.167 234.65 216.562C233.987 200.532 238.341 185.601 247.024 170.966C247.308 170.488 247.568 170.011 247.828 169.546C252.253 160.801 260.061 152.909 268.697 145.198C281.402 133.831 293.019 122.207 296.072 108.748C295.953 108.567 295.882 108.373 295.764 108.192C295.811 108.205 295.835 108.231 295.882 108.244C293.398 104.459 290.866 100.662 288.926 96.787C286.726 92.3954 282.869 88.3655 280.834 83.961C280.621 83.5218 279.462 83.7156 278.729 83.8576C284.762 98.8408 277.735 112.791 266.141 126.353C259.162 134.516 251.259 142.408 242.67 150.093C230.959 161.176 221.471 172.723 216.739 185.304C214.396 191.504 212.906 197.755 212.03 204.084C210.492 197.729 208.765 191.478 209.144 184.877C209.475 178.665 209.948 172.516 211.604 166.368C213.166 160.569 216.36 155.002 220.051 149.499C220.43 148.815 220.808 148.13 221.187 147.445C221.613 146.322 222.204 145.224 223.624 144.307C226.984 139.398 232.213 135.046 236.921 130.499C245.226 122.491 253.696 114.483 260.345 105.971C266.614 97.9754 276.173 78.3811 275.582 77.5673C272.175 72.9949 268.768 68.4224 265.266 63.8758C264.509 62.8942 260.77 55.3897 261.007 62.158C259.895 70.4632 254.974 78.239 249.295 85.8985C246.882 89.1534 243.924 92.2921 241.203 95.4825C231.976 107.74 222.678 119.972 213.592 132.269C208.505 139.14 203.797 146.102 198.236 152.935C193.291 133.237 203.56 115.012 217.709 97.1745C222.819 89.7476 229.705 82.7597 236.14 75.6686C245.486 65.3742 251.235 54.7181 247.331 43.1578C243.12 37.255 236.992 31.8688 232.023 26.1726C231.266 25.3072 228.001 21.8844 228.001 21.8844C229.941 26.7151 230.675 28.6655 231.219 33.4834C231.526 36.1313 230.604 39.0762 229.61 41.8403C226.936 49.1511 222.299 56.0743 215.485 62.5713C202.211 76.5469 190.712 90.91 182.999 106.087C180.042 111.938 177.439 117.841 174.363 124.402C171.004 116.084 171.358 108.309 172.967 100.546L172.92 100.533Z" fill="white"/>
<path fill-rule="evenodd" clip-rule="evenodd" d="M328.249 0.817604C337.737 3.29757 347.106 5.91961 356.381 8.61916V19.7402C339.109 17.0536 321.813 14.367 304.754 11.3058C291.079 8.85165 277.19 6.70752 263.988 3.51715C263.136 3.34923 262.332 3.1684 261.504 2.98757C259.847 3.03924 258.475 2.69049 257.292 2.09634C255.21 1.69592 253.199 1.24385 251.164 0.804688H328.273L328.249 0.817604Z" fill="white"/>
<path fill-rule="evenodd" clip-rule="evenodd" d="M115.946 0.818115C112.089 9.33007 107.286 17.7 103.098 26.1602C97.7273 36.9972 91.5283 47.7437 89.7774 58.9939C89.6118 60.1048 89.5881 61.2156 89.4935 62.2747C79.9584 53.879 81.1414 19.9862 90.6765 0.818115L115.946 0.818115Z" fill="white"/>
<path fill-rule="evenodd" clip-rule="evenodd" d="M11.817 0.818115H25.0431C23.9074 2.97517 22.748 5.1193 21.565 7.27635C17.3062 15.0521 11.746 22.4403 6.51713 29.9319C5.49974 31.4172 4.95561 33.2126 0.957031 34.3622C2.56593 29.9319 3.89077 26.0311 5.40502 22.1561C8.14961 15.1296 10.1608 7.99968 11.8407 0.818115H11.817Z" fill="white"/>
<path fill-rule="evenodd" clip-rule="evenodd" d="M44.2784 0.817604H60.0124C57.812 6.30711 54.9018 11.6416 51.9443 17.0149C47.6855 24.7906 42.1252 32.1788 36.8963 39.6704C35.8789 41.1558 35.3347 42.9511 31.3125 44.0878C32.9214 39.6574 34.2464 35.7567 35.7606 31.8817C39.7356 21.6777 42.2436 11.28 44.2547 0.804688L44.2784 0.817604Z" fill="white"/>
<path fill-rule="evenodd" clip-rule="evenodd" d="M125.718 41.0013C127.894 33.5226 130.047 26.0182 135.678 18.7979C135.82 17.6354 136.601 16.5633 137.808 15.5429L137.855 15.4912C138.163 14.1996 139.109 13.0242 140.553 11.9392C140.742 11.655 140.931 11.358 141.12 11.0738C141.475 9.64007 142.469 8.28384 143.818 6.96636C145.001 4.92556 146.018 2.85892 147.083 0.818115H165.206C164.449 5.77804 162.959 10.7251 160.309 15.6979C160.072 16.3825 159.954 17.067 159.575 17.7387C147.485 39.5417 135.371 61.3447 123.186 83.1348C122.476 84.4136 122.216 85.8344 120.37 87.0356C119.093 86.2606 119.637 85.3952 119.661 84.6719C120.11 70.1279 121.506 55.5581 125.694 41.0013H125.718Z" fill="white"/>
<path fill-rule="evenodd" clip-rule="evenodd" d="M356.38 177.271C337.239 160.08 318.003 142.901 309.367 122.699C314.667 126.781 320.109 130.824 325.22 134.97C335.299 143.146 347.507 150.508 356.38 159.137V177.271Z" fill="white"/>
</svg>
