<svg width="13" height="15" viewBox="0 0 13 15" fill="none" xmlns="http://www.w3.org/2000/svg">
<path d="M9.43683 13.48C9.43683 13.6505 9.36908 13.8141 9.24848 13.9347C9.12788 14.0553 8.96432 14.123 8.79377 14.123H2.73145C2.16314 14.1224 1.61828 13.8964 1.21643 13.4945C0.814572 13.0927 0.588529 12.5478 0.587891 11.9795V2.54785C0.588529 1.97954 0.814572 1.43469 1.21643 1.03283C1.61828 0.630978 2.16314 0.404935 2.73145 0.404297L8.79377 0.404297C8.96432 0.404297 9.12788 0.472048 9.24848 0.592647C9.36908 0.713245 9.43683 0.876811 9.43683 1.04736C9.43683 1.21792 9.36908 1.38148 9.24848 1.50208C9.12788 1.62268 8.96432 1.69043 8.79377 1.69043H2.73145C2.50412 1.69068 2.28617 1.78109 2.12543 1.94184C1.96469 2.10258 1.87427 2.32053 1.87402 2.54785V11.9795C1.87426 12.2068 1.96468 12.4248 2.12542 12.5855C2.28617 12.7463 2.50412 12.8367 2.73145 12.8369H8.79377C8.96432 12.8369 9.12788 12.9047 9.24848 13.0253C9.36908 13.1459 9.43683 13.3094 9.43683 13.48ZM12.3454 6.80897L9.28952 3.75301C9.23005 3.6922 9.15911 3.6438 9.0808 3.61059C9.00249 3.57739 8.91838 3.56005 8.83333 3.55958C8.74827 3.55911 8.66397 3.57552 8.5853 3.60785C8.50664 3.64018 8.43516 3.6878 8.37502 3.74795C8.31488 3.80809 8.26727 3.87957 8.23495 3.95825C8.20263 4.03692 8.18623 4.12122 8.18671 4.20627C8.18719 4.29133 8.20454 4.37544 8.23775 4.45374C8.27096 4.53204 8.31938 4.60298 8.38019 4.66244L10.3383 6.62061H5.27582C5.10527 6.62061 4.9417 6.68836 4.8211 6.80896C4.7005 6.92955 4.63275 7.09312 4.63275 7.26367C4.63275 7.43422 4.7005 7.59779 4.8211 7.71839C4.9417 7.83899 5.10527 7.90674 5.27582 7.90674H10.3382L8.38009 9.86487C8.32011 9.92453 8.27249 9.99543 8.23995 10.0735C8.20742 10.1516 8.19061 10.2354 8.1905 10.32C8.19038 10.4045 8.20696 10.4883 8.23928 10.5665C8.2716 10.6447 8.31903 10.7157 8.37885 10.7755C8.43867 10.8354 8.5097 10.8828 8.58788 10.9151C8.66606 10.9474 8.74984 10.964 8.83444 10.9639C8.91904 10.9638 9.00278 10.947 9.08087 10.9144C9.15896 10.8819 9.22986 10.8343 9.28952 10.7743L12.3454 7.7184C12.466 7.5978 12.5338 7.43424 12.5338 7.26368C12.5338 7.09313 12.466 6.92957 12.3454 6.80897Z" fill="#606060"/>
</svg>
