<svg width="93" height="65" viewBox="0 0 93 65" fill="none" xmlns="http://www.w3.org/2000/svg">
<path d="M5.28527 25.6399C5.2487 25.6712 5.20323 25.6966 5.17689 25.7349C4.87374 26.1744 4.57231 26.6155 4.27276 27.0575C3.95067 27.5327 3.62555 28.006 3.31236 28.487C3.14677 28.7415 3.00372 29.0107 2.85006 29.2729C2.65302 29.6089 2.45351 29.9437 2.25836 30.2807C2.16495 30.4418 2.07628 30.6056 1.98988 30.7707C1.7936 31.1452 1.60034 31.5215 1.40463 31.8965C1.38966 31.9251 1.36541 31.949 1.33225 31.9922C1.30307 31.9128 1.27749 31.8531 1.25912 31.7911C0.99121 30.8972 0.735433 29.9999 0.565103 29.0812C0.436266 28.3868 0.360857 27.6871 0.40235 26.9795C0.443464 26.28 0.604511 25.6066 0.829975 24.944C1.22539 23.7813 1.88966 22.7866 2.70095 21.88C3.66439 20.8031 4.78583 19.9143 5.98667 19.1189C6.68637 18.6555 7.37924 18.1805 8.03214 17.6528C8.48023 17.2906 8.91524 16.9093 9.28963 16.4668C9.41411 16.3195 9.52419 16.1627 9.59164 15.9668C9.57042 15.9825 9.5456 15.995 9.52836 16.0143C8.96356 16.6509 8.27599 17.1286 7.53802 17.5374C7.24207 17.7015 6.93153 17.8391 6.62725 17.9878C6.45219 18.0734 6.27826 18.1611 6.10054 18.2407C6.01793 18.2777 5.92774 18.2976 5.83642 18.3267C5.7523 18.1934 5.72179 18.0611 5.69754 17.93C5.63388 17.5861 5.50448 17.2648 5.38038 16.9404C5.26499 16.6392 5.13388 16.3461 4.96545 16.0713C4.81975 15.8337 4.66514 15.6015 4.51187 15.3684C4.2468 14.9654 3.98439 14.5605 3.71194 14.1625C3.44783 13.7771 3.29606 13.348 3.21175 12.8955C3.1155 12.3796 3.15737 11.8661 3.31823 11.3671C3.44044 10.9885 3.57628 10.6142 3.71478 10.2411C3.76992 10.0926 3.79114 9.94856 3.75059 9.7949C3.64695 9.40176 3.54559 9.00805 3.44119 8.6151C3.41126 8.50237 3.37412 8.39153 3.33585 8.26534C3.01565 8.37182 2.72293 8.49933 2.44669 8.65868C2.15302 8.82806 1.87886 9.02908 1.63047 9.26042C1.4825 9.39835 1.34873 9.55182 1.21137 9.70093C1.12384 9.79604 1.03194 9.87978 0.899698 9.90745C0.775977 9.9334 0.706823 9.89532 0.671582 9.77236C0.621373 9.5971 0.679728 9.42866 0.752672 9.28315C0.842479 9.1043 0.958243 8.92525 1.10394 8.79035C1.41921 8.49858 1.75381 8.22631 2.09409 7.96371C2.24604 7.84644 2.43001 7.77008 2.60053 7.67724C2.74945 7.59615 2.90008 7.51809 3.05791 7.43435C3.06965 7.29793 3.00883 7.17383 2.98003 7.04443C2.95787 6.94534 2.92755 6.84795 2.9016 6.74962C2.85309 6.56621 2.86257 6.5287 3.00637 6.42525C3.22274 6.2697 3.4518 6.15413 3.73108 6.15413C3.93703 6.15413 4.09618 6.23503 4.21099 6.39172C4.31027 6.52718 4.38739 6.67951 4.4698 6.82692C4.5221 6.92014 4.55374 6.93814 4.6515 6.90991C5.14696 6.76667 5.64392 6.62817 6.13767 6.47906C6.53763 6.35837 6.91088 6.17781 7.24207 5.9207C7.36825 5.82275 7.48667 5.71286 7.59694 5.59691C7.94006 5.23597 8.3404 4.98398 8.84097 4.91009C8.86541 4.90649 8.88853 4.89418 8.92794 4.88054C8.92794 4.82521 8.93059 4.76686 8.92756 4.70888C8.90539 4.2769 8.89781 3.8434 8.85386 3.41369C8.82525 3.13442 8.95181 2.94419 9.1246 2.76363C9.31843 2.5609 9.49463 2.34586 9.6354 2.10221C9.77713 1.85685 9.76954 1.63006 9.5905 1.42297C9.54427 1.36935 9.46697 1.33695 9.398 1.30967C9.30422 1.27254 9.20626 1.23597 9.10717 1.22347C8.79891 1.185 8.58008 1.401 8.603 1.7102C8.60736 1.76856 8.62214 1.82767 8.61627 1.88489C8.60395 2.00558 8.53063 2.08857 8.43495 2.10031C8.3224 2.11414 8.22729 2.07322 8.18106 1.9711C8.14753 1.89721 8.12441 1.80835 8.1301 1.72839C8.15795 1.34415 8.38379 1.09652 8.71498 0.93434C9.26538 0.664541 9.85878 0.967685 10.1019 1.38603C10.219 1.58743 10.2095 1.81214 10.142 2.02851C10.0293 2.3902 9.85083 2.71759 9.5672 2.97413C9.37849 3.14465 9.29285 3.32028 9.33131 3.59387C9.38266 3.95935 9.36238 4.33487 9.37375 4.70604C9.37508 4.74715 9.38228 4.78808 9.38701 4.83146C9.58804 4.86007 9.77959 4.88414 9.96962 4.91597C10.035 4.92696 10.1036 4.94666 10.1593 4.98095C10.4099 5.13556 10.6782 5.2625 10.9084 5.4495C11.0922 5.5988 11.2616 5.77103 11.4611 5.89456C11.7188 6.05409 11.9414 6.27292 12.2381 6.3686C12.2701 6.37883 12.2997 6.39702 12.3292 6.4135C12.7375 6.64238 13.178 6.79319 13.6184 6.94439C13.7527 6.99043 13.8859 7.0395 14.0384 7.09388C14.1131 6.91635 14.1902 6.75795 14.2461 6.59255C14.3052 6.41767 14.4082 6.32313 14.5977 6.32351C14.7756 6.32389 14.9537 6.3074 15.1314 6.31214C15.2315 6.31479 15.3355 6.3326 15.4295 6.36652C15.5808 6.42108 15.6365 6.52586 15.61 6.68615C15.581 6.86159 15.542 7.03514 15.5081 7.20983C15.4922 7.29149 15.478 7.37372 15.463 7.45576C15.6676 7.53135 15.8546 7.60202 16.0428 7.66928C16.4043 7.79869 16.7199 8.0018 17.034 8.22196C17.3571 8.44818 17.5657 8.75587 17.7857 9.06508C17.9137 9.24507 17.8982 9.43473 17.8565 9.62628C17.8184 9.80153 17.6528 9.8472 17.5325 9.71305C17.3794 9.54253 17.2292 9.36785 17.0443 9.2337C16.7578 9.02586 16.4782 8.80456 16.1491 8.66284C15.8857 8.54954 15.6218 8.43757 15.3575 8.32673C15.3273 8.31404 15.2921 8.31385 15.2453 8.30532C15.1322 8.59483 15.086 8.89267 15.0572 9.19714C15.0219 9.56982 15.0556 9.94117 15.0589 10.3131C15.0634 10.822 15.0653 11.3305 15.014 11.8375C15.002 11.9554 14.9829 12.0734 14.9562 12.1888C14.8569 12.6179 14.769 13.0507 14.6453 13.4728C14.5575 13.7724 14.4145 14.0552 14.3044 14.3487C14.1322 14.808 13.9613 15.2686 13.8626 15.7504C13.8306 15.9069 13.8122 16.0712 13.8217 16.2299C13.8478 16.6699 13.8959 17.1083 13.9272 17.5478C13.9423 17.7591 13.9332 17.9719 13.9454 18.1833C13.9872 18.9033 14.0285 19.6233 14.0803 20.3425C14.1119 20.7813 14.1561 21.2193 14.2066 21.6564C14.2553 22.077 14.311 22.4975 14.3789 22.9154C14.459 23.4082 14.5674 23.8967 14.6409 24.3904C14.6996 24.7843 14.7963 25.1693 14.8757 25.5581C14.9384 25.865 15.0206 26.1678 15.096 26.4721C15.1716 26.7765 15.2487 27.0804 15.327 27.3842C15.4031 27.6793 15.4742 27.9761 15.5615 28.2678C15.6849 28.6809 15.8222 29.0899 15.9509 29.5014C15.9761 29.582 15.9821 29.6684 16.0079 29.7485C16.0833 29.9812 16.1631 30.2123 16.2434 30.4433C16.3741 30.8192 16.5011 31.1964 16.6401 31.5693C16.7644 31.9025 16.9014 32.2309 17.0354 32.5606C17.2269 33.0316 17.4185 33.5024 17.6148 33.9715C17.7193 34.2218 17.8325 34.4685 17.9441 34.7157C18.1078 35.0782 18.2694 35.4416 18.4395 35.8012C18.5913 36.1223 18.7536 36.4385 18.9107 36.757C19.0528 37.0452 19.1894 37.3362 19.338 37.6212C19.4471 37.8304 19.5714 38.0318 19.689 38.2366C19.8196 38.4643 19.9505 38.6919 20.0807 38.9198C20.1394 39.0229 20.1949 39.1276 20.2548 39.2301C20.4043 39.4857 20.5848 39.7222 20.6917 40.0037C20.7356 40.1197 20.8298 40.2163 20.8969 40.3243C20.9636 40.4317 21.0251 40.5424 21.088 40.6521C21.1007 40.6741 21.1062 40.7004 21.1201 40.7212C21.3044 40.9952 21.4884 41.2694 21.6754 41.5416C21.8044 41.7294 21.9641 41.9014 22.0627 42.1036C22.1727 42.3298 22.3408 42.5069 22.4818 42.7065C22.6822 42.9905 22.8927 43.2677 23.1074 43.5411C23.3105 43.7999 23.5248 44.05 23.7336 44.3044C23.9109 44.5206 24.0888 44.7364 24.2643 44.9543C24.4393 45.1718 24.6095 45.3921 24.8116 45.5875C24.963 45.7336 25.0924 45.9022 25.2324 46.06C25.2662 46.0981 25.2965 46.1451 25.3391 46.1682C25.5721 46.294 25.7034 46.5181 25.8726 46.7059C25.9179 46.7561 25.959 46.8129 26.0126 46.8524C26.2679 47.0399 26.4545 47.2976 26.6868 47.5064C26.9192 47.7154 27.1095 47.9668 27.3652 48.1528C27.5 48.251 27.6106 48.3825 27.732 48.4988C27.7444 48.5106 27.7546 48.5263 27.769 48.5335C28.0943 48.6977 28.2972 49.0071 28.5824 49.219C28.6095 49.2391 28.6307 49.2673 28.6582 49.2868C28.9479 49.4924 29.2383 49.6968 29.5286 49.9016C29.5632 49.9261 29.603 49.9458 29.6316 49.9759C29.8569 50.2118 30.1527 50.3516 30.4052 50.5488C30.7139 50.7898 31.0619 50.9681 31.3793 51.1949C31.64 51.3813 31.9139 51.5519 32.1928 51.7104C32.5456 51.9109 32.9115 52.0881 33.2677 52.2828C33.4755 52.3965 33.6754 52.5244 33.8785 52.6466C33.9147 52.6684 33.9463 52.705 33.985 52.7144C34.2705 52.7847 34.5022 52.9643 34.7612 53.0882C34.8751 53.1426 34.9949 53.1845 35.1093 53.2375C35.4085 53.376 35.7038 53.5227 36.0051 53.6563C36.2442 53.7622 36.482 53.8751 36.7434 53.9217C36.8096 53.9334 36.8846 53.9473 36.9346 53.9865C37.0759 54.0973 37.2474 54.1095 37.409 54.1546C37.6125 54.2112 37.8196 54.2567 37.9933 54.3899C38.0322 54.4196 38.0847 54.4357 38.1334 54.4471C38.3389 54.4952 38.5466 54.5354 38.7516 54.586C38.9405 54.6326 39.1352 54.6695 39.312 54.7464C39.4725 54.8162 39.6404 54.8239 39.8033 54.8656C39.9751 54.9096 40.1489 54.9467 40.3217 54.9874C40.4935 55.028 40.6654 55.0695 40.8603 55.1161C40.6656 55.211 40.4806 55.302 40.295 55.3914C39.6688 55.6928 39.0189 55.9336 38.3653 56.1688C37.5735 56.4535 36.7626 56.6583 35.9386 56.8148C35.6076 56.8778 35.2686 56.8994 34.9335 56.9408C34.8497 56.9513 34.7669 56.9696 34.683 56.977C34.4825 56.9946 34.2817 57.0104 34.0809 57.0221C33.8704 57.0342 33.6591 57.0532 33.449 57.0469C33.162 57.0384 32.8755 57.0092 32.589 56.9886C32.5551 56.9861 32.5216 56.9778 32.4878 56.9778C31.8397 56.977 31.2055 56.8616 30.5742 56.7336C30.1699 56.6515 29.7699 56.5468 29.3694 56.4463C29.042 56.3643 28.7264 56.2446 28.4122 56.1225C27.8455 55.9024 27.2824 55.6744 26.743 55.3901C26.4439 55.2324 26.1271 55.1085 25.826 54.9543C25.5488 54.8122 25.2813 54.6508 25.0106 54.4962C24.798 54.3747 24.6019 54.2211 24.3895 54.1066C24.1646 53.9854 23.9793 53.8101 23.7512 53.6983C23.6926 53.6695 23.6508 53.6083 23.5971 53.5672C23.5174 53.5062 23.4321 53.4524 23.3525 53.3912C23.1733 53.2535 22.9774 53.1405 22.8232 52.9657C22.714 52.8419 22.5471 52.7703 22.4312 52.6511C22.3135 52.5301 22.2139 52.3944 22.0466 52.3364C22.0263 52.3046 22.0058 52.2726 21.9855 52.2408C21.9751 52.2512 21.9645 52.2616 21.9541 52.2718C21.9852 52.2931 22.0164 52.3141 22.0475 52.3353C22.1618 52.4905 22.2675 52.6527 22.392 52.7989C22.5729 53.0117 22.7641 53.2159 22.9566 53.4183C23.1835 53.657 23.4122 53.8944 23.6483 54.1241C23.8599 54.3298 24.0765 54.5312 24.302 54.7214C24.6187 54.9888 24.945 55.2446 25.2682 55.5043C25.499 55.6898 25.7487 55.8524 25.977 56.0375C26.308 56.3059 26.6763 56.5119 27.0263 56.7482C27.4621 57.0422 27.9185 57.3018 28.3846 57.543C28.7834 57.7493 29.1841 57.9532 29.5932 58.1375C30.1246 58.377 30.6618 58.6053 31.2031 58.8219C31.9012 59.1011 32.6063 59.3662 33.3327 59.5631C33.9291 59.7247 34.5331 59.8584 35.15 59.9255C35.4193 59.9547 35.6853 60.0147 35.9545 60.043C36.4418 60.0941 36.9306 60.1318 37.435 60.1767C37.4071 60.2089 37.3829 60.2508 37.3469 60.2766C37.0718 60.4753 36.7853 60.6549 36.4804 60.8059C36.3063 60.8922 36.1426 60.999 35.9717 61.0922C35.8008 61.1854 35.6275 61.2735 35.4545 61.3628C35.2366 61.4751 35.0102 61.5685 34.8014 61.7021C34.668 61.7876 34.5074 61.8306 34.3579 61.8901C33.9335 62.0587 33.5147 62.2444 33.0822 62.3884C32.7139 62.5109 32.3296 62.5854 31.9522 62.6807C31.8946 62.6953 31.8353 62.7029 31.7785 62.7197C31.3942 62.8338 31 62.8783 30.6013 62.8988C30.5087 62.9035 30.4174 62.9297 30.3249 62.9418C30.1991 62.9585 30.0727 62.9706 29.9469 62.9863C29.8641 62.9967 29.7819 63.0104 29.6993 63.0219C29.6576 63.0278 29.6159 63.0361 29.574 63.0365C29.3454 63.0384 29.1167 63.0434 28.8882 63.0377C28.6347 63.0314 28.3813 63.0149 28.128 63.0024C28.1026 63.0011 28.0769 62.9933 28.0521 62.9958C27.6925 63.0333 27.3448 62.9374 26.992 62.9014C26.9666 62.8988 26.9414 62.8912 26.9162 62.8922C26.5744 62.9058 26.2387 62.8349 25.9096 62.7707C25.5305 62.6966 25.1424 62.6341 24.7859 62.4619C24.6358 62.3893 24.4696 62.3509 24.3137 62.2891C23.952 62.1457 23.5907 62.0013 23.2324 61.8499C22.9753 61.7413 22.7211 61.625 22.4694 61.5043C22.0342 61.2957 21.6248 61.0399 21.2061 60.8012C20.9189 60.6375 20.6445 60.4577 20.377 60.2637C20.0767 60.0462 19.7525 59.8609 19.4575 59.6369C18.92 59.2288 18.3817 58.8215 17.8819 58.3654C17.5259 58.0405 17.1938 57.694 16.8599 57.3469C16.4547 56.9255 16.0744 56.4839 15.7025 56.0342C15.4327 55.708 15.1714 55.3741 14.9215 55.0323C14.647 54.657 14.3904 54.2686 14.125 53.8867C14.1115 53.8671 14.0894 53.8537 14.0477 53.8164C14.0674 53.899 14.074 53.9571 14.0947 54.0098C14.2555 54.4183 14.4113 54.8292 14.5843 55.2326C14.7277 55.5672 14.8938 55.892 15.0475 56.2224C15.326 56.8209 15.646 57.3961 15.9774 57.967C16.207 58.3624 16.4513 58.7476 16.6934 59.1345C16.8457 59.3776 16.9943 59.6227 17.1752 59.8482C17.3865 60.1115 17.5661 60.3999 17.7745 60.6657C18.0464 61.0123 18.3211 61.3577 18.6159 61.6843C19.07 62.1879 19.5376 62.6798 20.0089 63.1674C20.2679 63.4355 20.5464 63.6849 20.8154 63.9433C20.8563 63.9825 20.8938 64.0255 20.9621 64.0977C20.8823 64.0977 20.8434 64.1004 20.8052 64.0973C19.7561 64.0147 18.7065 63.9363 17.6792 63.6881C16.5549 63.4164 15.463 63.0523 14.4132 62.5625C13.5805 62.1739 12.7805 61.7298 12.0284 61.2017C11.311 60.6981 10.6494 60.1277 10.0223 59.5163C9.33415 58.8454 8.69433 58.1322 8.13407 57.3497C7.55924 56.5469 7.07117 55.6942 6.64791 54.8025C6.22161 53.9043 5.85537 52.9825 5.5526 52.0359C5.20342 50.9439 4.9249 49.8336 4.73922 48.7019C4.68996 48.4014 4.67746 48.0947 4.6551 47.7904C4.62346 47.3601 4.58746 46.9297 4.57363 46.4984C4.55791 46.0079 4.56416 45.5166 4.5615 45.0255C4.56056 44.8391 4.56132 44.6528 4.56132 44.4308C4.46336 44.542 4.45086 44.6559 4.43096 44.7593C4.35707 45.1417 4.28678 45.5251 4.2271 45.9099C4.13236 46.5208 4.04635 47.1329 3.95863 47.7449C3.90576 48.1134 3.85385 48.4819 3.80705 48.8512C3.78261 49.0443 3.76802 49.2389 3.7523 49.4329C3.68807 50.2269 3.62877 51.0217 3.62384 51.8186C3.62005 52.4274 3.63312 53.0363 3.64601 53.6449C3.65586 54.1025 3.67784 54.5598 3.69337 55.0174C3.69602 55.093 3.69375 55.1688 3.69375 55.2446C3.55355 55.2802 3.49235 55.1962 3.44328 55.1061C3.36238 54.9571 3.29057 54.8033 3.21327 54.6525C3.02778 54.2912 2.83907 53.9316 2.65624 53.5689C2.54976 53.3578 2.45237 53.1422 2.35082 52.9285C2.24244 52.7 2.13388 52.4715 2.02588 52.2428C2.00409 52.1968 1.98288 52.1504 1.96393 52.1032C1.70701 51.4588 1.45105 50.8147 1.25514 50.1477C0.996706 49.2675 0.793029 48.3753 0.644108 47.4704C0.503335 46.6157 0.399318 45.7563 0.360288 44.8912C0.333195 44.2894 0.332436 43.6858 0.340204 43.0831C0.348351 42.4382 0.366353 41.7929 0.404625 41.149C0.496516 39.6058 0.678403 38.074 1.02001 36.5634C1.34419 35.1305 1.75419 33.7222 2.22274 32.3311C2.39553 31.8184 2.58253 31.3101 2.79189 30.8091C3.04957 30.1926 3.2972 29.5729 3.59428 28.9736C3.8008 28.5571 3.98837 28.1314 4.1892 27.7121C4.27314 27.5369 4.36768 27.3665 4.46109 27.1958C4.72104 26.721 4.96469 26.2373 5.24965 25.7764C5.27352 25.7377 5.26992 25.682 5.27901 25.6343C5.34893 25.6073 5.38246 25.5562 5.38076 25.4814C5.39572 25.4668 5.41069 25.4524 5.42547 25.4378C5.41676 25.4308 5.40785 25.4238 5.39913 25.4167C5.39497 25.4401 5.39061 25.4632 5.38644 25.4865C5.31899 25.5151 5.28754 25.5678 5.28527 25.6399ZM4.82903 7.78353C4.89838 7.98986 4.95863 8.17402 5.02191 8.35705C5.12725 8.66152 5.236 8.96466 5.34021 9.26951C5.38 9.38585 5.43475 9.48191 5.55639 9.53344C5.73506 9.60923 5.90728 9.69998 6.08671 9.77368C6.42244 9.91142 6.75798 10.0511 7.10016 10.1714C7.32316 10.2498 7.55753 10.2962 7.78716 10.3552C7.90975 10.3866 8.03214 10.4228 8.157 10.4412C8.41676 10.4793 8.67765 10.5115 8.93893 10.537C9.19944 10.5626 9.46242 10.6041 9.72161 10.5899C10.0587 10.5715 10.3923 10.4995 10.7288 10.4605C11.4177 10.3807 12.0708 10.1801 12.694 9.88168C13.0397 9.71608 13.3067 9.4641 13.4791 9.11605C13.65 8.7716 13.7389 8.40081 13.8349 8.0323C13.8469 7.98626 13.8438 7.93624 13.8487 7.87485C13.7421 7.8434 13.6462 7.81214 13.5486 7.78694C13.4092 7.75113 13.2646 7.73105 13.129 7.68463C12.5138 7.47376 11.8819 7.31309 11.2841 7.04821C10.8594 6.86008 10.4198 6.70471 9.9844 6.5412C9.85841 6.49403 9.72578 6.45272 9.59296 6.4387C9.39213 6.41729 9.18845 6.4135 8.98648 6.41919C8.88834 6.42184 8.7811 6.4442 8.69527 6.49005C8.40388 6.64598 8.11873 6.80608 7.79342 6.89266C7.49273 6.97281 7.2055 7.10164 6.90804 7.19562C6.64222 7.27974 6.37053 7.34435 6.10205 7.42014C5.68788 7.53723 5.27428 7.6564 4.82903 7.78353ZM5.55904 25.2421L5.57041 25.2214L5.5545 25.2188L5.55904 25.2421Z" fill="url(#paint0_linear_1_1286)"/>
<path d="M15.0112 32.1761C14.7384 32.1761 14.602 32.0056 14.602 31.6645C14.602 31.4112 14.714 31.1335 14.9382 30.8314C15.172 30.5293 15.3133 30.3295 15.362 30.2321C15.4108 30.1346 15.5375 29.9836 15.7421 29.7789C15.9565 29.5743 16.1416 29.4525 16.2975 29.4135C16.4632 29.3745 16.7945 29.3307 17.2915 29.282C18.8117 29.1358 20.4683 29.053 22.2613 29.0335C24.2102 26.0808 25.7986 23.8883 27.0264 22.4558C25.2042 22.7871 22.9678 22.9528 20.3172 22.9528C16.7214 22.9528 14.9235 22.1489 14.9235 20.541C14.9235 20.083 15.1525 19.6835 15.6105 19.3424C16.0783 19.0013 16.663 18.8308 17.3646 18.8308C18.0759 18.8308 18.4316 18.9136 18.4316 19.0793C18.4316 19.167 18.3196 19.2109 18.0954 19.2109C17.881 19.2109 17.6764 19.2937 17.4815 19.4593C17.2964 19.6153 17.2038 19.7663 17.2038 19.9125C17.2038 20.1366 17.6813 20.3023 18.6363 20.4094C19.5912 20.5166 21.0627 20.5702 23.0506 20.5702C25.0482 20.5702 27.2116 20.39 29.5405 20.0294C30.3104 19.396 31.0315 18.9185 31.7039 18.5969C32.386 18.2754 33.0779 18.1146 33.7795 18.1146C34.4811 18.1146 34.9391 18.2705 35.1535 18.5823C35.3678 18.8942 35.475 19.128 35.475 19.2839C35.4848 19.4399 35.3727 19.6445 35.1388 19.8979C34.905 20.1512 34.5785 20.4094 34.1595 20.6726C33.1753 21.2767 31.8841 21.6373 30.286 21.7542C28.5807 23.9078 26.8218 26.3439 25.0093 29.0627C25.7596 29.0919 26.4612 29.1504 27.1141 29.2381C27.767 29.3161 28.0935 29.5694 28.0935 29.9982C28.0935 30.1736 27.8157 30.5098 27.2603 31.0068C27.2018 31.075 27.1287 31.1773 27.041 31.3137C26.8851 31.5476 26.7292 31.6645 26.5733 31.6645C26.4271 31.6645 26.2566 31.645 26.0617 31.6061C25.3016 31.5768 24.7315 31.5622 24.3515 31.5622L23.4014 31.5768C19.9713 36.9169 18.1977 39.6941 18.0808 39.9085C17.9736 40.1132 17.8518 40.2691 17.7154 40.3763C17.5887 40.4835 17.4279 40.5371 17.233 40.5371C17.0381 40.5371 16.7653 40.5029 16.4145 40.4347C16.0637 40.3763 15.8006 40.2983 15.6252 40.2009C15.4497 40.1132 15.362 40.0011 15.362 39.8647C15.362 39.7185 15.4059 39.5139 15.4936 39.2508C15.7275 38.5979 17.3646 36.0789 20.4049 31.6938C18.4267 31.7912 16.8579 31.8935 15.6982 32.0007L15.0112 32.1761ZM33.5748 18.977C33.4189 19.0257 33.2289 19.1037 33.0048 19.2109L33.5748 18.977ZM38.7931 29.0627C39.5337 29.0627 39.904 29.3161 39.904 29.8228C39.904 30.0956 39.8407 30.2954 39.714 30.4221C39.5873 30.5488 39.3144 30.9727 38.8954 31.6938C38.4861 32.4051 38.0281 33.3211 37.5214 34.4418C37.0244 35.5527 36.7029 36.5028 36.5567 37.2921C36.5275 37.3895 36.5128 37.526 36.5128 37.7014C36.5128 38.2373 36.659 38.5053 36.9514 38.5053C37.2437 38.5053 37.5896 38.3689 37.9892 38.096C38.3887 37.8134 38.7444 37.5162 39.0562 37.2044C39.368 36.8828 39.6701 36.5564 39.9625 36.225C40.2645 35.8937 40.4448 35.7037 40.5033 35.655C40.5618 35.6063 40.6495 35.5819 40.7664 35.5819C40.9515 35.5819 41.0636 35.7232 41.1026 36.0058C41.1416 36.2884 41.1611 36.5807 41.1611 36.8828C41.1611 37.1849 41.1318 37.3944 41.0734 37.5113C40.7908 38.0668 40.1671 38.7343 39.2024 39.5139C38.2474 40.2934 37.3752 40.6832 36.5859 40.6832C35.8064 40.6832 35.2314 40.4445 34.8611 39.967C34.4908 39.4895 34.3057 38.9633 34.3057 38.3884C34.3057 37.8037 34.4031 37.2921 34.598 36.8536C33.7892 37.906 32.8586 38.7976 31.8062 39.5285C30.7635 40.2593 29.9108 40.6248 29.2482 40.6248C28.5856 40.6248 28.0447 40.425 27.6257 40.0255C27.0898 39.5285 26.8218 38.8415 26.8218 37.9645C26.8218 37.0777 27.0167 36.1909 27.4065 35.3042C27.806 34.4077 28.3273 33.594 28.9705 32.8631C29.6136 32.1225 30.3201 31.4502 31.0899 30.846C32.7076 29.5792 34.1985 28.9458 35.5627 28.9458C36.089 28.9458 36.5177 29.0335 36.849 29.2089C37.1804 29.3843 37.3899 29.6035 37.4776 29.8666C37.7114 29.5158 37.9063 29.2966 38.0622 29.2089C38.2279 29.1114 38.4715 29.0627 38.7931 29.0627ZM36.849 30.6852C35.1827 30.6852 33.4579 31.6109 31.6746 33.4624C31.0412 34.1251 30.4565 34.9193 29.9206 35.845C29.3944 36.7707 29.1313 37.4041 29.1313 37.7452C29.1313 38.0863 29.2287 38.2568 29.4236 38.2568C29.6965 38.2568 30.4565 37.7208 31.7039 36.6489C32.9512 35.5673 33.7795 34.7731 34.1887 34.2664C34.637 33.7012 35.5238 32.5075 36.849 30.6852ZM41.4388 37.2482L41.4242 37.4821C41.4242 37.7257 41.5167 37.9352 41.7019 38.1106C41.887 38.286 42.0576 38.3737 42.2135 38.3737C43.3828 38.3737 44.4158 38.1983 45.3123 37.8475C46.2185 37.4967 46.6717 37.1459 46.6717 36.7951C46.6717 36.6294 46.506 36.4881 46.1747 36.3712C45.8531 36.2445 45.3025 36.0935 44.523 35.9181C43.7531 35.7329 43.1928 35.5916 42.842 35.4942C42.4912 35.387 42.2135 35.2896 42.0088 35.2019C41.8042 35.1141 41.5947 34.9923 41.3803 34.8364C40.9223 34.5149 40.6933 34.0374 40.6933 33.404C40.6933 32.7608 40.9272 32.1274 41.3949 31.5037C41.8724 30.8703 42.4668 30.3295 43.1782 29.8813C43.8896 29.433 44.6545 29.0383 45.4731 28.6973C47.0907 28.0249 48.4501 27.6887 49.5512 27.6887C50.6329 27.6887 51.3004 27.9226 51.5537 28.3903C51.6317 28.556 51.6707 28.7411 51.6707 28.9458V29.0481C51.6707 29.5646 51.5586 29.969 51.3345 30.2613C51.1201 30.5536 50.7742 30.8168 50.2967 31.0506C49.8289 31.2845 49.4538 31.4014 49.1712 31.4014C48.8983 31.4014 48.7229 31.3819 48.645 31.343C48.5767 31.304 48.5183 31.2553 48.4696 31.1968C48.4208 31.1286 48.3575 31.0799 48.2795 31.0506C48.2113 31.0214 48.1772 30.9483 48.1772 30.8314C48.1772 30.7144 48.2259 30.5975 48.3234 30.4806C48.4208 30.3539 48.489 30.2223 48.528 30.0859C47.8849 30.1151 47.2125 30.2662 46.5109 30.539C45.8093 30.8021 45.2051 31.0993 44.6984 31.4307C44.2014 31.762 43.7872 32.0787 43.4559 32.3808C43.1246 32.6829 42.9589 32.907 42.9589 33.0532C42.9589 33.1896 43.1831 33.3016 43.6313 33.3893C45.6485 33.7889 46.9737 34.1348 47.6071 34.4271C48.2406 34.7195 48.6791 35.0508 48.9227 35.4211C49.1663 35.7914 49.2881 36.1276 49.2881 36.4297C49.2881 37.0533 49.0396 37.6429 48.5426 38.1983C48.0457 38.7538 47.4317 39.2069 46.7009 39.5577C45.132 40.3275 43.7629 40.7125 42.5935 40.7125C41.4339 40.7125 40.63 40.5322 40.1817 40.1716C39.7432 39.8208 39.5239 39.4018 39.5239 38.9146C39.5239 38.4273 39.6458 37.9791 39.8894 37.5698C40.1427 37.1508 40.4643 36.9413 40.8541 36.9413C41.2439 36.9413 41.4388 37.0436 41.4388 37.2482ZM63.7151 35.8596C63.7833 36.3079 63.8174 36.6636 63.8174 36.9267C63.8174 37.18 63.7687 37.4041 63.6712 37.599C63.5835 37.7842 63.3789 38.0522 63.0573 38.403C62.7455 38.744 62.3703 39.09 61.9318 39.4408C60.8599 40.2886 59.7636 40.7125 58.643 40.7125C57.0351 40.7125 56.2312 40.0011 56.2312 38.5784C56.2312 37.3408 57.308 34.8754 59.4615 31.1822C59.5395 31.0458 59.5931 30.9483 59.6223 30.8898C58.872 31.416 57.4346 32.8534 55.3103 35.2019C53.1957 37.5406 51.7876 39.1972 51.086 40.1716C51.0275 40.2593 50.8814 40.3568 50.6475 40.464C50.4136 40.5712 50.2285 40.6248 50.092 40.6248C49.9654 40.6248 49.8289 40.5809 49.6828 40.4932C49.5268 40.4152 49.4294 40.3763 49.3904 40.3763C49.2637 40.3763 49.2004 40.3324 49.2004 40.2447C49.2004 40.1668 49.3758 39.7234 49.7266 38.9146C50.0677 38.096 50.5208 37.0826 51.086 35.8742C52.6354 32.5416 54.94 28.2052 57.9998 22.8651C59.0717 20.9941 59.9098 19.6689 60.514 18.8893C60.9427 18.3338 61.6638 18.0561 62.6773 18.0561C62.8917 18.0561 63.0135 18.1195 63.0427 18.2461C63.0719 18.3728 63.0866 18.5092 63.0866 18.6554C63.0866 18.8016 63.0573 18.9477 62.9989 19.0939L61.4348 21.535C58.336 26.3683 56.0022 30.3734 54.4333 33.5501C55.9535 31.6986 57.4298 30.271 58.8622 29.2673C59.749 28.6339 60.4116 28.3172 60.8502 28.3172C61.2984 28.3172 61.7028 28.3903 62.0634 28.5365C62.4239 28.6729 62.6042 29.0091 62.6042 29.5451C62.6042 29.74 62.2875 30.4611 61.6541 31.7084C59.7539 35.4503 58.8038 37.5308 58.8038 37.9498C58.8038 38.3591 58.9743 38.5638 59.3154 38.5638C59.8123 38.5638 60.5773 38.0814 61.6102 37.1167C62.3898 36.3858 62.8819 35.9181 63.0866 35.7134C63.2035 35.6257 63.3107 35.5819 63.4081 35.5819C63.5933 35.5819 63.6956 35.6745 63.7151 35.8596ZM72.1491 24.1222C72.1491 24.6776 71.8909 25.2379 71.3744 25.8031C70.8579 26.3586 70.3171 26.6363 69.7519 26.6363C69.1965 26.6363 68.9187 26.3439 68.9187 25.7593C68.9187 25.1746 69.1624 24.6191 69.6496 24.0929C70.1466 23.557 70.6923 23.289 71.2867 23.289C71.5498 23.289 71.7593 23.3621 71.9152 23.5083C72.0711 23.6544 72.1491 23.8591 72.1491 24.1222ZM69.7811 36.8828C69.7811 37.1751 69.7519 37.3847 69.6934 37.5113C69.2159 38.4858 68.4559 39.2751 67.4132 39.8793C66.3705 40.4737 65.4643 40.7709 64.6944 40.7709C63.9246 40.7709 63.262 40.5127 62.7065 39.9962C62.1511 39.4798 61.8733 38.9535 61.8733 38.4176C61.8733 37.8816 62.1413 37.1021 62.6773 36.0789C63.2132 35.0557 63.7492 34.1104 64.2851 33.2432C64.8211 32.3759 65.0891 31.9082 65.0891 31.8399C65.0891 31.762 64.9868 31.6158 64.7821 31.4014C64.5872 31.187 64.4898 31.0311 64.4898 30.9337C64.4898 30.8265 64.6896 30.5585 65.0891 30.1298C65.4984 29.6912 65.9905 29.2625 66.5654 28.8435C67.1501 28.4147 67.5935 28.2003 67.8955 28.2003C68.2074 28.2003 68.4851 28.3367 68.7287 28.6096C68.9723 28.8824 69.0941 29.1309 69.0941 29.3551C69.0941 29.5792 67.9345 31.6889 65.6153 35.6842C65.5861 35.7427 65.5032 35.8742 65.3668 36.0789C65.2401 36.2738 65.1378 36.4394 65.0598 36.5758C64.9916 36.7025 64.9088 36.8584 64.8114 37.0436C64.6165 37.4334 64.519 37.7598 64.519 38.0229C64.519 38.3543 64.7431 38.5199 65.1914 38.5199C65.6397 38.5199 66.1025 38.3689 66.58 38.0668C67.0673 37.755 67.4863 37.4139 67.8371 37.0436C68.7531 36.0594 69.2744 35.5673 69.4011 35.5673C69.6545 35.5673 69.7811 36.0058 69.7811 36.8828ZM78.639 29.0335C78.9314 29.0335 79.2286 29.165 79.5307 29.4281C79.8425 29.6912 79.9984 30.0956 79.9984 30.6413C79.9984 31.1773 79.8084 31.8789 79.4284 32.7462C79.0483 33.6037 78.527 34.4807 77.8643 35.3773C77.2017 36.264 76.4709 37.1021 75.6718 37.8914C74.8825 38.671 74.0249 39.3141 73.0992 39.8208C72.1832 40.3178 71.35 40.5663 70.5997 40.5663C69.8493 40.5663 69.2452 40.3324 68.7872 39.8647C68.3389 39.3872 68.1148 38.7294 68.1148 37.8914C68.1148 37.0436 68.3194 36.1081 68.7287 35.0849C69.1477 34.0617 69.6837 33.1603 70.3366 32.3808C70.9895 31.5915 71.696 30.885 72.456 30.2613C74.0444 28.9848 75.4379 28.3465 76.6365 28.3465C77.1725 28.3465 77.5769 28.478 77.8497 28.7411C77.9472 28.8288 77.9959 28.9068 77.9959 28.975V29.0627C78.1323 29.0432 78.3467 29.0335 78.639 29.0335ZM77.1627 30.9775H77.0604C76.7193 30.9775 76.5488 30.729 76.5488 30.2321C75.8374 30.4659 75.092 30.8752 74.3124 31.4599C73.5328 32.0446 72.8361 32.7365 72.2222 33.5355C70.9749 35.1336 70.3415 36.4833 70.322 37.5844C70.322 38.1301 70.5217 38.403 70.9213 38.403C71.3208 38.403 71.9152 38.1399 72.7045 37.6137C73.4939 37.0874 74.2734 36.3371 75.0433 35.3626C75.8228 34.3882 76.4026 33.5453 76.7827 32.8339C77.1725 32.1128 77.3674 31.6256 77.3674 31.3722C77.3674 31.1091 77.2991 30.9775 77.1627 30.9775ZM87.3069 37.9206C87.3069 38.3494 87.5993 38.5638 88.1839 38.5638C88.4958 38.5638 88.8856 38.4078 89.3533 38.096C89.8308 37.7842 90.2596 37.4431 90.6396 37.0728C91.653 36.0691 92.228 35.5673 92.3644 35.5673C92.6178 35.5673 92.7444 35.9327 92.7444 36.6636C92.7444 37.3944 92.5154 37.8963 92.0574 38.1691C90.664 39.4262 89.5872 40.1911 88.8271 40.464C88.3983 40.6101 87.9257 40.6784 87.4092 40.6686C86.8928 40.6589 86.3812 40.4347 85.8745 39.9962C85.3677 39.5577 85.1144 39.0266 85.1144 38.403C85.1144 37.7696 85.28 37.0533 85.6113 36.2543C85.9427 35.4552 86.2789 34.7731 86.6199 34.2079C86.9707 33.633 87.3995 32.9703 87.9062 32.22C88.4129 31.4599 88.6809 30.9873 88.7102 30.8021L88.6809 30.7729C88.3593 30.8021 87.5603 31.4355 86.2837 32.6731C85.0169 33.9107 83.9694 34.9875 83.1411 35.9035C82.3128 36.8195 81.3237 38.0424 80.1738 39.5723C79.8522 39.9914 79.5891 40.2009 79.3845 40.2009C79.1799 40.2009 78.907 40.1375 78.566 40.0108C78.2151 39.8744 78.0008 39.777 77.9228 39.7185C77.8448 39.66 77.8059 39.5723 77.8059 39.4554C77.8059 39.3385 77.84 39.1972 77.9082 39.0315C77.9764 38.8561 78.0446 38.7148 78.1128 38.6076C78.1713 38.4907 78.2736 38.3153 78.4198 38.0814C78.566 37.8475 78.8534 37.3554 79.2822 36.6051C79.7207 35.845 80.3882 34.7146 81.2847 33.2139C82.1812 31.7133 82.7172 30.807 82.8926 30.4952C83.2629 29.852 83.565 29.3843 83.7988 29.0919C84.2373 28.5365 84.9779 28.2588 86.0206 28.2588C86.2545 28.2588 86.3714 28.4049 86.3714 28.6973C86.3714 29.1553 85.9475 30.0177 85.0998 31.2845L84.4858 32.2054C86.1717 30.3344 87.5944 29.1504 88.754 28.6534C89.3192 28.4098 89.8259 28.288 90.2742 28.288C90.7322 28.288 91.0927 28.4098 91.3558 28.6534C91.6287 28.8971 91.7651 29.1699 91.7651 29.472C91.7651 29.7643 91.6628 30.12 91.4581 30.539C91.2535 30.9483 91.044 31.3186 90.8296 31.6499C90.625 31.9715 90.3521 32.3808 90.0111 32.8777C89.67 33.3747 89.4849 33.6476 89.4556 33.6963C89.4264 33.7353 89.3484 33.8522 89.2217 34.0471C89.1048 34.2323 89.0171 34.3687 88.9586 34.4564C88.9002 34.5441 88.8027 34.7 88.6663 34.9241C88.5299 35.1385 88.4178 35.3188 88.3301 35.465C88.2522 35.6111 88.1498 35.7914 88.0232 36.0058C87.9062 36.2202 87.8088 36.4053 87.7308 36.5612C87.6626 36.7171 87.5895 36.8877 87.5116 37.0728C87.3751 37.4139 87.3069 37.6965 87.3069 37.9206Z" fill="#363744"/>
<path d="M21.0778 42.8675C21.384 42.8675 21.7053 43.0039 21.9145 43.2191L21.6356 43.5586C21.4901 43.3919 21.2809 43.2828 21.0839 43.2828C20.7201 43.2828 20.4382 43.5647 20.4382 43.9345C20.4382 44.3044 20.7201 44.5893 21.0839 44.5893C21.2749 44.5893 21.484 44.4923 21.6356 44.3408L21.9175 44.6469C21.6932 44.8773 21.3688 45.0259 21.0596 45.0259C20.4261 45.0259 19.9471 44.556 19.9471 43.9406C19.9471 43.3282 20.4351 42.8675 21.0778 42.8675ZM22.6825 44.5863H23.5919V45.0046H22.2035V42.8826H22.6825V44.5863ZM24.8644 42.8675C25.5131 42.8675 26.0042 43.3282 26.0042 43.9436C26.0042 44.556 25.5131 45.0259 24.8644 45.0259C24.2157 45.0259 23.7246 44.559 23.7246 43.9436C23.7246 43.3252 24.2157 42.8675 24.8644 42.8675ZM24.8705 43.2858C24.5127 43.2858 24.2157 43.5708 24.2157 43.9436C24.2157 44.3165 24.5158 44.6075 24.8705 44.6075C25.2251 44.6075 25.5131 44.3165 25.5131 43.9436C25.5131 43.5708 25.2251 43.2858 24.8705 43.2858ZM27.8235 43.2888H27.1748V45.0046H26.6958V43.2888H26.0501V42.8826H27.8235V43.2888ZM29.9988 45.0046H29.5198V44.168H28.5589V45.0046H28.0799V42.8826H28.5589V43.7678H29.5198V42.8826H29.9988V45.0046ZM30.945 45.0046H30.466V42.8826H30.945V45.0046ZM33.3382 45.0046H32.9017L31.874 43.6435V45.0046H31.4163V42.8826H31.8528L32.8835 44.2468V42.8826H33.3382V45.0046ZM35.2301 43.9345H35.6454V44.75C35.4211 44.9137 35.0785 45.0259 34.7845 45.0259C34.1418 45.0259 33.6538 44.559 33.6538 43.9436C33.6538 43.3313 34.1509 42.8675 34.8118 42.8675C35.127 42.8675 35.4484 42.9887 35.6636 43.1767L35.3938 43.5192C35.2362 43.3737 35.0179 43.2828 34.8118 43.2828C34.4359 43.2828 34.1449 43.5708 34.1449 43.9436C34.1449 44.3195 34.4389 44.6075 34.8148 44.6075C34.9421 44.6075 35.0937 44.562 35.2301 44.4923V43.9345ZM37.5714 42.8614C37.8685 42.8614 38.1656 42.9523 38.3778 43.0918L38.1928 43.4889C37.9685 43.3555 37.7017 43.2706 37.532 43.2706C37.3713 43.2706 37.2622 43.3282 37.2622 43.4434C37.2622 43.8345 38.3929 43.6162 38.3899 44.3802C38.3899 44.7955 38.0291 45.0198 37.5593 45.0198C37.2106 45.0198 36.862 44.8864 36.6225 44.6833L36.8135 44.2922C37.0318 44.4863 37.341 44.6105 37.5653 44.6105C37.7624 44.6105 37.8806 44.5378 37.8806 44.4074C37.8806 44.0073 36.7499 44.2407 36.7499 43.4889C36.7499 43.1039 37.0803 42.8614 37.5714 42.8614ZM40.2898 43.2888H39.641V45.0046H39.1621V43.2888H38.5164V42.8826H40.2898V43.2888ZM41.419 42.8675C42.0677 42.8675 42.5588 43.3282 42.5588 43.9436C42.5588 44.556 42.0677 45.0259 41.419 45.0259C40.7702 45.0259 40.2791 44.559 40.2791 43.9436C40.2791 43.3252 40.7702 42.8675 41.419 42.8675ZM41.425 43.2858C41.0673 43.2858 40.7702 43.5708 40.7702 43.9436C40.7702 44.3165 41.0704 44.6075 41.425 44.6075C41.7797 44.6075 42.0677 44.3165 42.0677 43.9436C42.0677 43.5708 41.7797 43.2858 41.425 43.2858ZM44.1766 45.0046L43.8401 44.3983H43.7946H43.352V45.0046H42.8731V42.8826H43.7946C44.3494 42.8826 44.6646 43.1494 44.6646 43.6193C44.6646 43.9467 44.5252 44.1831 44.2675 44.3044L44.7192 45.0046H44.1766ZM43.352 43.9982H43.7946C44.0584 43.9982 44.2099 43.8769 44.2099 43.6344C44.2099 43.398 44.0584 43.2797 43.7946 43.2797H43.352V43.9982ZM46.6825 43.2797H45.5457V43.7405H46.5703V44.1376H45.5457V44.6075H46.7158V45.0046H45.0667V42.8826H46.6825V43.2797Z" fill="#363744"/>
<defs>
<linearGradient id="paint0_linear_1_1286" x1="20.5981" y1="0.832031" x2="20.5981" y2="64.0988" gradientUnits="userSpaceOnUse">
<stop stop-color="#35567D"/>
<stop offset="1" stop-color="#78A8E1"/>
</linearGradient>
</defs>
</svg>
