<svg width="23" height="21" viewBox="0 0 23 21" fill="none" xmlns="http://www.w3.org/2000/svg">
<g id="Group 1000006019">
<path id="Vector" d="M18.7581 0.417969H4.02547C1.84958 0.417969 0.0136719 2.25388 0.0136719 4.45243V16.5558C0.0136719 18.7544 1.84958 20.5903 4.04813 20.5903H18.6674C20.8433 20.5903 22.7019 18.7544 22.7019 16.5558V4.45243C22.7925 2.25388 20.9566 0.417969 18.7581 0.417969ZM20.3673 16.6691C20.3673 17.5984 19.6873 18.3917 18.7581 18.3917H4.02547C3.09618 18.3917 2.30289 17.5758 2.30289 16.6691V4.45243C2.30289 3.52314 3.11885 2.72985 4.02547 2.72985H18.6447C19.574 2.72985 20.3673 3.54581 20.3673 4.45243V16.6691Z" fill="#DEE0E3"/>
<path id="Vector_2" d="M16.6952 4.33984C16.2419 4.33984 15.7659 4.5665 15.426 4.90648C15.086 5.24646 14.9727 5.60911 14.9727 6.06242C14.9727 6.99171 15.7886 7.785 16.6952 7.785C17.6019 7.785 18.4178 6.96904 18.4178 6.06242C18.4178 5.1558 17.6019 4.33984 16.6952 4.33984Z" fill="#DEE0E3"/>
<path id="Vector_3" d="M15.3128 9.0532C14.9728 8.23724 13.8169 8.12391 13.2502 8.82654L11.7543 11.0251C11.301 11.7277 10.2584 11.7277 9.80507 11.0251L9.35176 10.4585C8.89845 9.75583 7.85584 9.89182 7.40253 10.5718L4.84132 14.6062C4.38801 15.4222 4.84132 16.4422 5.88394 16.4422H16.6954C17.5113 16.4422 18.078 15.5129 17.738 14.7196L15.3128 9.0532Z" fill="#DEE0E3"/>
</g>
</svg>
