<svg width="4545" height="6246" viewBox="0 0 4545 6246" fill="none" xmlns="http://www.w3.org/2000/svg">
<path d="M4221.05 2016.2L4533.47 2305.01H3178.08L2913.23 2016.2H4221.05Z" fill="#2A2A2A"/>
<path opacity="0.5" d="M4221.05 2016.2L4533.47 2305.01H3178.08L2913.23 2016.2H4221.05Z" fill="black"/>
<path d="M4221.66 2016.2H2913.23V3364.8H4221.66V2016.2Z" fill="#353535"/>
<path opacity="0.2" d="M4221.66 2016.2H2913.23V3364.8H4221.66V2016.2Z" fill="black"/>
<path d="M3801.35 2016.2H2492.91V3364.8H3801.35V2016.2Z" fill="#3A3A3A"/>
<path d="M2493.52 2016.2L2181.12 2305.01H3536.5L3801.35 2016.2H2493.52Z" fill="#2A2A2A"/>
<path opacity="0.3" d="M2493.52 2016.2L2181.12 2305.01H3536.5L3801.35 2016.2H2493.52Z" fill="white"/>
<path d="M3168.46 2480.85C3290.43 2480.85 3373.26 2554.97 3373.26 2676.92C3373.26 2809.19 3282.25 2867.37 3160.27 2867.37L3156.65 2941.49H3066.52L3061.98 2794.19H3092.02C3194.89 2794.19 3274.08 2775.43 3274.08 2676.92C3274.08 2611.25 3234.94 2570.91 3169.4 2570.91C3104.78 2570.91 3063.82 2608.42 3063.82 2674.1H2966.43C2965.46 2560.61 3044.67 2480.85 3168.46 2480.85ZM3110.19 3148.83C3072.86 3148.83 3043.75 3118.81 3043.75 3080.37C3043.75 3041.89 3072.88 3011.88 3110.19 3011.88C3146.6 3011.88 3175.74 3041.91 3175.74 3080.37C3175.75 3118.81 3146.62 3148.83 3110.19 3148.83Z" fill="white"/>
<path d="M3858.06 3364.81H2315.68V3504.53H3858.06V3364.81Z" fill="#6A6A6A"/>
<path opacity="0.3" d="M3858.06 3364.81H2315.68V3504.53H3086.87H3858.06V3364.81Z" fill="#3A3A3A"/>
<path d="M4430.95 3364.81H3858.06V3504.53H4430.95V3364.81Z" fill="#2A2A2A"/>
<path opacity="0.5" d="M4430.95 3364.81H3858.06V3504.53H4430.95V3364.81Z" fill="#2A2A2A"/>
<path d="M3336.52 3504.52H3243.57V6133.45H3336.52V3504.52Z" fill="#263238"/>
<path opacity="0.2" d="M3336.52 3504.52H3243.57V6133.45H3336.52V3504.52Z" fill="white"/>
<path opacity="0.2" d="M3336.52 3569.95L3243.57 3609.56V3504.52H3336.52V3569.95Z" fill="black"/>
<path d="M3744.5 6218.52H2835.59V6218.03C2835.59 6141.8 2895.54 6080.02 2969.48 6080.02H3610.59C3684.55 6080.02 3744.49 6141.8 3744.49 6218.03V6218.52H3744.5Z" fill="#2A2A2A"/>
<path d="M381.155 734.755C572.561 734.755 727.728 574.827 727.728 377.545C727.728 180.265 572.561 20.3359 381.155 20.3359C189.748 20.3359 34.582 180.265 34.582 377.545C34.582 574.827 189.748 734.755 381.155 734.755Z" fill="#868686"/>
<g opacity="0.7">
<path d="M381.155 734.755C572.561 734.755 727.728 574.827 727.728 377.545C727.728 180.265 572.561 20.3359 381.155 20.3359C189.748 20.3359 34.582 180.265 34.582 377.545C34.582 574.827 189.748 734.755 381.155 734.755Z" fill="white"/>
</g>
<path d="M381.152 742.106C186.113 742.106 27.4492 578.573 27.4492 377.547C27.4492 176.521 186.113 12.9883 381.152 12.9883C576.192 12.9883 734.856 176.521 734.856 377.547C734.856 578.573 576.192 742.106 381.152 742.106ZM381.152 27.6866C193.984 27.6866 41.71 184.634 41.71 377.547C41.71 570.46 193.984 727.408 381.152 727.408C568.321 727.408 720.595 570.46 720.595 377.547C720.595 184.634 568.321 27.6866 381.152 27.6866Z" fill="#6A6A6A"/>
<path d="M383.951 178.992C459.009 178.992 509.994 224.615 509.994 299.669C509.994 381.071 453.987 416.883 378.912 416.883L376.672 462.506H321.212L318.412 371.854H336.887C400.188 371.854 448.931 360.313 448.931 299.686C448.931 259.274 424.841 234.442 384.512 234.442C344.744 234.442 319.532 257.525 319.532 297.955H259.591C259.031 228.061 307.773 178.992 383.951 178.992ZM348.103 590.074C325.131 590.074 307.198 571.591 307.198 547.931C307.198 524.253 325.131 505.77 348.103 505.77C370.515 505.77 388.448 524.253 388.448 547.931C388.448 571.608 370.515 590.074 348.103 590.074Z" fill="#2A2A2A"/>
<path d="M597.996 656.208L711.012 714.12C716.94 717.158 723.395 711.099 721.008 704.734L671.556 572.566C646.394 609.414 621.808 638.234 597.996 656.208Z" fill="#3A3A3A"/>
<path d="M687.861 1306.9C703.702 1389.05 1381.53 1356.41 1349.82 1250.33C1344.53 1232.65 1334.06 1215.03 1325.17 1195.31C1281.12 1097.58 1207.97 975.017 971.265 975.832C828.855 976.307 641.192 1065.04 687.861 1306.9Z" fill="#2A2A2A"/>
<path d="M1527.4 5921.04L1562.08 6101.94H1654.87L1667.24 5921.04H1527.4Z" fill="#FFC3BD"/>
<path d="M1642.64 6078.99C1642.64 6078.99 1660.23 6056.58 1682.56 6064.22C1704.87 6071.88 1734.08 6109.54 1734.08 6109.54C1734.08 6109.54 1855.12 6149.54 1887.8 6151.65C1920.49 6153.75 1949.1 6172.71 1961.35 6237.97H1565.01C1565.01 6237.97 1549.42 6090.58 1547 6065.31C1544.57 6040.04 1583.39 6071.62 1583.39 6071.62L1642.64 6078.99Z" fill="#2A2A2A"/>
<path d="M1949.57 6218.52C1925.75 6218.28 1902.02 6218.05 1878.19 6217.79C1774.08 6216.7 1669.97 6215.5 1565.88 6214.41C1561.92 6214.41 1561.92 6208.03 1565.88 6208.15C1572.9 6208.27 1580.01 6208.27 1587.03 6208.39C1587.03 6208.15 1587.14 6207.78 1587.26 6207.54C1602.21 6173.46 1584.92 6138.66 1555.02 6121.2C1551.51 6119.26 1554.67 6113.73 1558.05 6115.78C1590.4 6134.69 1608.17 6171.9 1593.34 6208.39C1608.06 6208.63 1622.67 6208.74 1637.39 6208.86C1741.38 6209.95 1845.47 6211.15 1949.57 6212.24C1953.54 6212.26 1953.54 6218.64 1949.57 6218.52Z" fill="black"/>
<path d="M1720.03 6135.2C1733.82 6115.24 1757.1 6109.57 1776.67 6124.63C1779.83 6127.05 1782.89 6121.57 1779.76 6119.18C1757.32 6101.9 1730.36 6109.4 1714.75 6132.03C1712.46 6135.32 1717.76 6138.49 1720.03 6135.2Z" fill="white"/>
<path d="M1754.19 6145.83C1767.97 6125.87 1791.26 6120.2 1810.82 6135.25C1813.98 6137.68 1817.05 6132.2 1813.92 6129.8C1791.47 6112.53 1764.51 6120.03 1748.9 6142.65C1746.6 6145.95 1751.92 6149.1 1754.19 6145.83Z" fill="white"/>
<path d="M1789.45 6156.45C1803.23 6136.49 1826.51 6130.82 1846.06 6145.88C1849.22 6148.3 1852.29 6142.82 1849.16 6140.43C1826.71 6123.15 1799.76 6130.65 1784.14 6153.28C1781.87 6156.57 1787.17 6159.73 1789.45 6156.45Z" fill="white"/>
<path d="M697.23 5922.33L716.481 6101.93H809.275L837.072 5922.33H697.23Z" fill="#FFC3BD"/>
<path d="M797.037 6078.99C797.037 6078.99 814.624 6056.58 836.953 6064.22C859.267 6071.88 888.48 6109.54 888.48 6109.54C888.48 6109.54 1009.52 6149.54 1042.2 6151.65C1074.89 6153.75 1103.49 6172.71 1115.75 6237.97H719.409C719.409 6237.97 703.815 6090.58 701.394 6065.31C698.973 6040.04 737.787 6071.62 737.787 6071.62L797.037 6078.99Z" fill="#2A2A2A"/>
<path d="M1103.96 6218.52C1080.13 6218.28 1056.4 6218.05 1032.57 6217.79C928.464 6216.7 824.358 6215.5 720.267 6214.41C716.299 6214.41 716.299 6208.03 720.267 6208.15C727.282 6208.27 734.396 6208.27 741.411 6208.39C741.411 6208.15 741.527 6207.78 741.642 6207.54C756.594 6173.46 739.304 6138.66 709.399 6121.2C705.891 6119.26 709.053 6113.73 712.429 6115.78C744.787 6134.69 762.555 6171.9 747.718 6208.39C762.44 6208.63 777.047 6208.74 791.769 6208.86C895.76 6209.95 999.851 6211.15 1103.96 6212.24C1107.94 6212.26 1107.94 6218.64 1103.96 6218.52Z" fill="black"/>
<path d="M874.431 6135.2C888.215 6115.24 911.5 6109.57 931.063 6124.63C934.225 6127.05 937.287 6121.57 934.159 6119.18C911.714 6101.9 884.756 6109.4 869.145 6132.03C866.84 6135.32 872.159 6138.49 874.431 6135.2Z" fill="white"/>
<path d="M908.57 6145.83C922.353 6125.87 945.638 6120.2 965.201 6135.25C968.363 6137.68 971.426 6132.2 968.297 6129.8C945.852 6112.53 918.895 6120.03 903.284 6142.65C900.995 6145.95 906.298 6149.1 908.57 6145.83Z" fill="white"/>
<path d="M943.843 6156.45C957.626 6136.49 980.911 6130.82 1000.46 6145.88C1003.62 6148.3 1006.68 6142.82 1003.55 6140.43C981.109 6123.15 954.152 6130.65 938.541 6153.28C936.252 6156.57 941.571 6159.73 943.843 6156.45Z" fill="white"/>
<path d="M1496.52 5927.4H1701.28C1719 5655.64 1769.12 4755.11 1729.52 4309.47C1758.01 3691.17 1666.33 2870.39 1666.33 2870.39H1017.68C1017.68 2870.39 1065.21 3419.64 1278.58 4300.56C1277.08 4998.5 1442.36 5696.23 1496.52 5927.4Z" fill="#151515"/>
<path opacity="0.2" d="M1243.59 4152.51C1360.85 3658.85 1257.88 3018.7 1257.88 3018.7L1156.69 3749.91L1243.59 4152.51Z" fill="black"/>
<path d="M1472.12 5922.11L1487.15 6002.3L1721.94 6001.27L1722.08 5921.04L1472.12 5922.11Z" fill="#263238"/>
<path d="M668.016 5935.19H872.772C945.722 5655.62 1092.27 4756.72 1115.73 4311.1C1231.73 3692.8 1287.21 2870.39 1287.21 2870.39H638.556C638.556 2870.39 578.219 3425.93 666.913 4306.86C649.704 5074.88 663.372 5696.23 668.016 5935.19Z" fill="#151515"/>
<path d="M650.131 5921.89L649.703 6001.4L886.356 6001.46L898.756 5921.94L650.131 5921.89Z" fill="#263238"/>
<path d="M1751.14 2971.26C1301.25 3149.48 568.29 3020.31 568.29 3020.31C577.018 2793.56 584.593 2344.46 581.628 1971.22C581.464 1962.57 581.464 1953.91 581.299 1945.25C580.805 1892.3 579.982 1841.04 578.994 1792.5C578.829 1786.56 578.829 1780.62 578.664 1774.85C576.524 1679.46 573.23 1595.11 568.949 1527.55C560.715 1400.43 627.737 1282.12 749.76 1260.91C786.812 1254.46 826.828 1248.86 868.49 1244.27C878.371 1243.09 888.416 1242.07 898.626 1241.05C1014.23 1229.34 1141.03 1224.25 1256.79 1227.64C1262.56 1227.64 1268.32 1227.81 1274.08 1227.98C1277.05 1228.15 1280.34 1228.15 1283.3 1228.32C1288.24 1228.49 1293.35 1228.66 1298.29 1229C1349.83 1231.21 1398.74 1235.11 1442.54 1241.05C1542.01 1254.29 1630.44 1335.25 1632.08 1438.79C1633.57 1533.66 1642.62 1733.94 1655.63 1959.85C1660.57 2045.39 1666.17 2134.84 1672.26 2223.44C1695.81 2572.23 1725.78 2910.33 1751.14 2971.26Z" fill="#3A3A3A"/>
<path d="M603.2 2556.28C603.365 2556.45 603.528 2556.79 603.528 2556.95L603.034 2556.62C602.375 2556.28 601.718 2556.28 600.895 2556.28L535.682 2682.38C531.401 2680.01 527.286 2677.63 523.169 2675.09L520.038 2673.05L518.064 2671.69L514.441 2668.98L506.865 2663.54L500.773 2658.79C492.375 2652.34 485.623 2646.57 478.378 2640.46C464.71 2628.41 451.7 2616.53 439.021 2604.48C413.825 2580.55 389.617 2556.62 365.574 2532.34C318.148 2483.29 272.206 2433.39 227.579 2382.13C182.623 2330.88 139.313 2278.43 96.498 2222.25C85.7942 2208.16 74.9257 2193.57 64.3866 2177.95C58.9523 2169.8 53.6828 2162.34 48.0839 2153C42.6496 2144.52 36.886 2134.5 30.4638 2122.11L25.3587 2110.91L22.7241 2105.31C21.5714 2102.08 20.254 2098.35 19.1013 2094.95L15.9724 2084.09C14.9844 2079.51 14.3256 2080.36 12.5142 2066.1C11.1968 2055.07 11.0323 2043.53 12.185 2032.32L13.173 2024.01C13.667 2021.46 14.1611 2018.24 14.4904 2017.22L16.9605 2008.22C18.7719 2002.11 21.0772 1996.17 23.5473 1990.23L27.335 1981.75L29.4755 1977.5L30.2989 1975.98L37.3801 1963.92C42.979 1954.76 45.6138 1951.19 49.2366 1945.93C63.2339 1926.08 74.4315 1912.33 86.1234 1897.56C132.067 1841.72 177.518 1792.33 223.462 1742.26C269.736 1693.04 315.844 1644.16 363.106 1596.8C457.135 1501.25 552.646 1408.4 652.273 1318.96L840.66 1532.47C746.961 1624.98 650.296 1715.44 553.961 1805.06L410.036 1939.48C363.928 1982.09 317.49 2026.04 275.827 2068.14C279.121 2074.25 282.58 2080.36 286.203 2086.47C318.15 2140.78 354.377 2195.94 389.946 2250.93C426.174 2305.76 462.732 2360.75 499.948 2414.55C518.392 2441.71 537 2468.53 555.937 2494.49C565.324 2507.56 574.877 2519.95 584.098 2532L597.106 2548.64L602.212 2554.92L603.2 2556.28Z" fill="#3A3A3A"/>
<path d="M1057.31 1375.68C1057.31 1375.68 1142.53 1740.48 1118.11 2095.11" stroke="white" stroke-width="0.5" stroke-miterlimit="10" stroke-linecap="round" stroke-linejoin="round"/>
<path d="M1251.18 1367.79C1251.18 1367.79 1336.39 1732.59 1311.97 2087.22" stroke="white" stroke-width="0.5" stroke-miterlimit="10" stroke-linecap="round" stroke-linejoin="round"/>
<path opacity="0.2" d="M1672.26 2223.44C1505.94 1973.48 1380.59 1695.82 1300.56 1387.53L1655.63 1959.85C1660.57 2045.39 1666.17 2134.84 1672.26 2223.44Z" fill="black"/>
<path opacity="0.2" d="M807.082 2445.11C807.082 2445.11 839.062 2667.77 827.617 2795.98C827.617 2795.98 1182.42 2853.28 1555.67 2768.17C1570.56 2681.71 1569.72 2551.24 1535.81 2422.6C1316.22 2411.16 1069.7 2421.6 807.082 2445.11Z" fill="black"/>
<path d="M1342.97 518.432C1272.65 492.684 1194.51 495.926 1128.33 531.45C1085.12 554.652 1047.56 590.176 1048.48 643.471C1050.64 767.814 1084.28 975.816 1084.28 975.816L1491.52 786.059C1491.52 786.059 1521.18 681.897 1473.47 615.466C1438.07 566.16 1394.94 537.459 1342.97 518.432Z" fill="#263238"/>
<path d="M1050.26 773.705C1050.26 773.705 1059.1 737.57 1018.66 670.442C978.216 603.314 1022.55 561.544 1053.65 571.219C1053.65 571.219 1037.43 529.873 1064.37 515.718C1091.33 501.562 1105.03 517.721 1105.03 517.721C1105.03 517.721 1206.55 433.994 1344.42 462.05C1455.49 484.657 1537.63 404.834 1578.85 435.928C1620.07 467.023 1545.11 496.063 1545.11 496.063C1545.11 496.063 1611.78 533.913 1601.41 569.216C1591.05 604.52 1530.01 607.32 1530.01 607.32C1530.01 607.32 1593.39 650.703 1567.53 679.573C1541.68 708.461 1461.04 673.463 1461.04 673.463C1461.04 673.463 1141.24 671.749 1050.26 773.705Z" fill="#263238"/>
<path d="M1262.24 1130.43L1262.26 1130.59C1261.96 1131.12 1261.83 1131.48 1261.54 1132L1235.91 1200.79C1232.9 1215.08 1231.2 1229.46 1230.81 1243.57C1230.43 1255.46 1231.04 1267.14 1232.27 1278.41C1245.13 1301.44 1247.21 1350.67 1193.49 1344.89C1125.7 1337.73 1010.75 1228.1 1009.54 1196.8C1050.93 1104.86 1090.27 989.872 1094.8 898.117L1163.06 992.963L1262.24 1130.43Z" fill="#FFC3BD"/>
<g opacity="0.2">
<path d="M1261.52 1132L1235.9 1200.8C1195.6 1176.12 1155.75 1128.15 1150.5 1080.51C1146.92 1046.16 1164.9 1016.4 1178.21 1016.15L1261.52 1132Z" fill="black"/>
</g>
<path d="M1448.67 1002.84C1443.05 1017.8 1436.96 1032.48 1430.59 1046.9C1373.92 1174.23 1214.54 1168.51 1126.42 1060.19C1126.29 1059.99 1126.32 1059.82 1126.16 1059.77C1118.35 1050.15 1111.05 1039.74 1104.48 1028.44C1050.9 936.699 1073.46 873.322 1098.47 726.491C1123.45 579.828 1286.47 504.673 1408.57 594.866C1521.27 678.101 1505.23 853.379 1448.67 1002.84Z" fill="#FFC3BD"/>
<path d="M1321.49 989.056C1315.86 1004.72 1301.93 1013.84 1290.37 1009.43C1278.81 1005.01 1274 988.734 1279.63 973.068C1285.27 957.402 1299.2 948.289 1310.76 952.702C1322.32 957.115 1327.13 973.39 1321.49 989.056Z" fill="white"/>
<path d="M1217.75 703.732C1254.88 698.369 1229.59 656.174 1237.56 632.48C1263.46 555.491 1466.65 608.141 1490.02 725.916C1490.02 725.916 1484.4 636.18 1420.99 581.205C1357.57 526.23 1221.17 501.212 1158.45 564.708C1095.74 628.203 1095.43 740.122 1095.43 740.122C1095.43 740.122 1093.73 760.353 1105.87 773.711C1112.64 780.449 1124.54 811.476 1144.29 819.707C1161.12 826.734 1173.96 823.951 1180.14 798.814C1186.35 773.677 1192.9 707.313 1217.75 703.732Z" fill="#263238"/>
<path d="M1015.79 808.109C1017.39 848.25 1036.82 883.876 1060.71 905.856C1096.66 938.902 1135.77 911.032 1143.46 864.646C1150.4 822.909 1140.04 755.408 1095.44 740.133C1051.51 725.061 1013.96 762.215 1015.79 808.109Z" fill="#FFC3BD"/>
<path d="M1306.9 816.464C1304.25 827.87 1307.96 838.546 1315.19 840.345C1322.42 842.127 1330.42 834.336 1333.07 822.948C1335.72 811.542 1332.02 800.866 1324.79 799.067C1317.56 797.268 1309.56 805.058 1306.9 816.464Z" fill="#263238"/>
<path d="M1428.46 844.923C1425.81 856.328 1429.52 867.003 1436.75 868.802C1443.97 870.584 1451.98 862.793 1454.65 851.405C1457.3 839.999 1453.59 829.323 1446.36 827.524C1439.12 825.725 1431.11 833.517 1428.46 844.923Z" fill="#263238"/>
<path d="M1471.81 810.658C1469.86 810.166 1468.22 808.656 1467.64 806.534C1465.02 797.029 1460.4 790.376 1453.92 786.761C1443.25 780.82 1430.54 784.656 1430.41 784.707C1427.46 785.674 1424.17 783.96 1423.23 780.82C1422.29 777.697 1423.97 774.387 1427 773.403C1427.68 773.182 1444.37 767.972 1459.37 776.356C1468.68 781.55 1475.18 790.613 1478.66 803.292C1479.53 806.432 1477.77 809.708 1474.7 810.607C1473.73 810.896 1472.73 810.896 1471.81 810.658Z" fill="#263238"/>
<path d="M1283.24 764.368C1282.35 764.147 1281.49 763.706 1280.75 763.061C1278.12 760.804 1277.74 756.781 1279.91 754.065C1280.42 753.42 1292.54 738.518 1310.99 736.94C1322.41 735.955 1333.53 740.199 1344 749.585C1346.61 751.91 1346.89 755.966 1344.63 758.631C1342.37 761.313 1338.44 761.584 1335.85 759.259C1328.03 752.266 1320.06 749.041 1312.12 749.703C1298.95 750.79 1289.59 762.128 1289.51 762.246C1287.92 764.181 1285.46 764.911 1283.24 764.368Z" fill="#263238"/>
<path d="M1382.7 824.898C1382.7 824.898 1388.43 877.141 1403.84 913.344C1419.31 949.683 1358.56 936.087 1358.56 936.087L1382.7 824.898Z" fill="#ED847E"/>
<path opacity="0.2" d="M792.74 1584.75L581.299 1945.26C580.805 1892.3 579.981 1841.04 578.993 1792.5C578.829 1786.56 578.829 1780.62 578.664 1774.85L792.74 1584.75Z" fill="black"/>
<path d="M1814.05 2124.66C1746.37 2156.4 1666.83 2129.24 1629.45 2064.91C1626.98 2060.67 1624.67 2056.6 1622.2 2052.35C1617.43 2044.04 1612.65 2035.55 1607.87 2027.06C1605.4 2022.99 1603.1 2018.75 1600.79 2014.5C1593.05 2000.93 1585.48 1987.18 1577.74 1973.43C1569.34 1958.15 1560.78 1942.88 1552.21 1927.43C1543.82 1912.16 1535.42 1896.88 1526.85 1881.44C1518.29 1866.16 1509.89 1850.72 1501.66 1835.44C1493.26 1820 1484.86 1804.55 1476.63 1789.1C1475.64 1787.24 1474.65 1785.37 1473.67 1783.5C1458.02 1754.48 1442.38 1725.29 1426.9 1696.27C1394.13 1634.15 1361.69 1571.86 1330.07 1509.06C1298.45 1446.09 1267.16 1383.12 1237.69 1318.79L1367.29 1231.38C1412.57 1285.02 1456.05 1340.01 1499.19 1395.17C1503.97 1401.28 1508.74 1407.39 1513.52 1413.67L1612.49 1360.38C1637.19 1405.18 1660.57 1450.67 1683.62 1496.5C1706.51 1542.16 1729.24 1588.15 1751.31 1634.32C1773.37 1680.48 1795.44 1726.81 1816.68 1773.49C1838.25 1820 1859.33 1866.84 1880.08 1913.69L1885.84 1926.92C1918.94 2001.94 1886.83 2090.54 1814.05 2124.66Z" fill="#3A3A3A"/>
<path d="M1552.22 1927.43C1550.41 1924.38 1548.76 1921.49 1547.11 1918.44C1531.63 1890.94 1516.48 1863.28 1501.66 1835.44C1509.9 1850.72 1518.3 1866.16 1526.86 1881.44C1535.42 1896.88 1543.82 1912.16 1552.22 1927.43Z" fill="#407BFF"/>
<path d="M1367.45 1265.83C1364.31 1291.57 1346.21 1331.69 1309.82 1330.33C1275.73 1328.97 1247.24 1317.09 1243.78 1315.57C1243.62 1315.4 1243.45 1315.4 1243.45 1315.4C1215.62 1308.1 1163.42 1289.94 1145.47 1254.46C1120.28 1204.9 1159.64 1127.17 1159.64 1127.17C1118.8 1087.28 1070.48 1018.66 1104.24 1034.27C1137.83 1049.89 1270.46 1145.33 1317.92 1134.52C1362.05 1124.47 1377.52 1084.97 1393.92 1092.97C1412.79 1102.17 1377.75 1137.49 1360.13 1174.15C1360.13 1174.15 1372.25 1226.64 1367.45 1265.83Z" fill="#FFC3BD"/>
<g opacity="0.2">
<path d="M1231.58 1316.25C1230.99 1316.25 1230.41 1316.13 1229.85 1315.86C1226.46 1314.23 1146.51 1275.58 1132 1233.37C1119.08 1195.71 1146.82 1141.65 1154.36 1128.05C1143.76 1118.45 1104.62 1082.06 1094.13 1059.82C1088.35 1047.53 1087.05 1038.76 1090.17 1033.01C1092.66 1028.41 1096.94 1027.83 1097.42 1027.78C1114.4 1028.03 1131.67 1041.13 1155.57 1059.26C1179.35 1077.3 1208.92 1099.74 1248.99 1117.84C1321.06 1150.37 1333.99 1130.58 1342.54 1117.48L1345.78 1112.61C1355.27 1098.5 1371.17 1074.88 1398.2 1086.2C1400.31 1087.08 1401.33 1089.54 1400.47 1091.71C1399.61 1093.89 1397.23 1094.94 1395.12 1094.06C1375.7 1085.99 1364.37 1099.86 1352.57 1117.44L1349.37 1122.23C1336.56 1141.82 1317.95 1158.21 1245.71 1125.61C1204.8 1107.14 1174.8 1084.38 1150.71 1066.1C1128.94 1049.59 1111.75 1036.54 1097.88 1036.25C1098.19 1036.28 1097.67 1036.5 1097.29 1037.32C1096.75 1038.45 1095.46 1043.21 1101.55 1056.12C1112.72 1079.8 1161.84 1123.52 1162.33 1123.96C1163.87 1125.32 1164.21 1127.61 1163.16 1129.39C1162.78 1130.02 1126.5 1191.92 1139.77 1230.55C1153.13 1269.42 1232.52 1307.8 1233.33 1308.19C1235.38 1309.17 1236.27 1311.7 1235.32 1313.82C1234.63 1315.35 1233.13 1316.25 1231.58 1316.25Z" fill="black"/>
</g>
<path opacity="0.2" d="M1425.8 1299.83L1778.48 1852.87C1778.48 1852.87 1737.31 1667.58 1425.8 1299.83Z" fill="black"/>
<path d="M579.225 2559.08C579.225 2559.08 721.174 2604.12 732.389 2632.65C743.619 2661.19 697.231 2653.8 697.231 2653.8C697.231 2653.8 747.851 2664.78 746.485 2684.88C744.838 2709 696.276 2701.07 696.276 2701.07C696.276 2701.07 737.263 2711.56 734.727 2729.31C732.092 2747.73 676.729 2742.32 676.729 2742.32C676.729 2742.32 704.279 2754.64 694.826 2765.81C685.374 2776.97 582.206 2769.18 549.568 2745.27C516.929 2721.35 537.974 2587.3 547.558 2558.14C557.142 2528.98 540.346 2498.74 580.427 2465.34L579.225 2559.08Z" fill="#FFC3BD"/>
<path opacity="0.2" d="M696.903 2656.03C696.837 2656.01 696.772 2656.01 696.689 2655.98L609.297 2633.03C608.128 2632.71 607.419 2631.48 607.716 2630.28C608.012 2629.07 609.264 2628.33 610.384 2628.65L697.776 2651.61C698.945 2651.92 699.653 2653.16 699.357 2654.36C699.077 2655.5 698.007 2656.21 696.903 2656.03Z" fill="black"/>
<path opacity="0.2" d="M693.41 2702.89L693.36 2702.87L607.746 2686.85C606.561 2686.63 605.77 2685.46 605.984 2684.22C606.198 2682.98 607.137 2682.35 608.537 2682.4L694.151 2698.42C695.336 2698.64 696.127 2699.83 695.913 2701.05C695.682 2702.28 694.579 2703.07 693.41 2702.89Z" fill="black"/>
<path opacity="0.2" d="M673.452 2744.07L609.525 2733.81C608.323 2733.63 607.516 2732.46 607.697 2731.23C607.878 2730 608.998 2729.15 610.2 2729.35L674.127 2739.6C675.329 2739.79 676.136 2740.96 675.955 2742.18C675.773 2743.42 674.654 2744.27 673.452 2744.07Z" fill="black"/>
</svg>
