<svg width="276" height="368" viewBox="0 0 276 368" fill="none" xmlns="http://www.w3.org/2000/svg">
<path d="M256.328 118.79L275.3 135.806H192.992L176.909 118.79H256.328Z" fill="#407BFF"/>
<path opacity="0.5" d="M256.328 118.79L275.3 135.806H192.992L176.909 118.79H256.328Z" fill="black"/>
<path d="M256.365 118.79H176.909V198.246H256.365V118.79Z" fill="#407BFF"/>
<path opacity="0.2" d="M256.365 118.79H176.909V198.246H256.365V118.79Z" fill="black"/>
<path d="M230.841 118.79H151.385V198.246H230.841V118.79Z" fill="#407BFF"/>
<path d="M151.422 118.79L132.451 135.806H214.758L230.841 118.79H151.422Z" fill="#407BFF"/>
<path opacity="0.3" d="M151.422 118.79L132.451 135.806H214.758L230.841 118.79H151.422Z" fill="white"/>
<path d="M192.408 146.166C199.815 146.166 204.845 150.533 204.845 157.718C204.845 165.511 199.318 168.939 191.911 168.939L191.691 173.306H186.218L185.942 164.627H187.766C194.013 164.627 198.822 163.522 198.822 157.718C198.822 153.849 196.445 151.472 192.465 151.472C188.541 151.472 186.054 153.682 186.054 157.552H180.14C180.081 150.865 184.891 146.166 192.408 146.166ZM188.87 185.522C186.603 185.522 184.835 183.753 184.835 181.488C184.835 179.221 186.604 177.453 188.87 177.453C191.081 177.453 192.85 179.222 192.85 181.488C192.851 183.753 191.082 185.522 188.87 185.522Z" fill="white"/>
<path d="M234.285 198.247H140.622V206.479H234.285V198.247Z" fill="#407BFF"/>
<path opacity="0.3" d="M234.285 198.247H140.622V206.479H234.285V198.247Z" fill="black"/>
<path d="M269.074 198.247H234.285V206.479H269.074V198.247Z" fill="#407BFF"/>
<path opacity="0.5" d="M269.074 198.247H234.285V206.479H269.074V198.247Z" fill="black"/>
<path d="M202.614 206.478H196.969V361.369H202.614V206.478Z" fill="#263238"/>
<path opacity="0.2" d="M202.614 206.478H196.969V361.369H202.614V206.478Z" fill="white"/>
<path opacity="0.2" d="M202.614 210.333L196.969 212.667V206.478H202.614V210.333Z" fill="black"/>
<path d="M227.389 366.381H172.194V366.352C172.194 361.861 175.835 358.221 180.325 358.221H219.257C223.748 358.221 227.388 361.861 227.388 366.352V366.381H227.389Z" fill="#407BFF"/>
<path d="M23.146 43.2902C34.7693 43.2902 44.192 33.8676 44.192 22.2442C44.192 10.6209 34.7693 1.19824 23.146 1.19824C11.5226 1.19824 2.09998 10.6209 2.09998 22.2442C2.09998 33.8676 11.5226 43.2902 23.146 43.2902Z" fill="#407BFF"/>
<g opacity="0.7">
<path d="M23.146 43.2902C34.7693 43.2902 44.192 33.8676 44.192 22.2442C44.192 10.6209 34.7693 1.19824 23.146 1.19824C11.5226 1.19824 2.09998 10.6209 2.09998 22.2442C2.09998 33.8676 11.5226 43.2902 23.146 43.2902Z" fill="white"/>
</g>
<path d="M23.146 43.7231C11.302 43.7231 1.66699 34.0881 1.66699 22.2441C1.66699 10.4001 11.302 0.765137 23.146 0.765137C34.99 0.765137 44.625 10.4001 44.625 22.2441C44.625 34.0881 34.99 43.7231 23.146 43.7231ZM23.146 1.63113C11.78 1.63113 2.53299 10.8781 2.53299 22.2441C2.53299 33.6101 11.78 42.8571 23.146 42.8571C34.512 42.8571 43.759 33.6101 43.759 22.2441C43.759 10.8781 34.512 1.63113 23.146 1.63113Z" fill="#407BFF"/>
<path d="M23.3159 10.5459C27.8739 10.5459 30.97 13.2339 30.97 17.6559C30.97 22.4519 27.5689 24.5619 23.0099 24.5619L22.8739 27.2499H19.506L19.336 21.9089H20.4579C24.3019 21.9089 27.2619 21.2289 27.2619 17.6569C27.2619 15.2759 25.799 13.8129 23.35 13.8129C20.935 13.8129 19.404 15.1729 19.404 17.5549H15.764C15.73 13.4369 18.6899 10.5459 23.3159 10.5459ZM21.139 34.7659C19.744 34.7659 18.655 33.6769 18.655 32.2829C18.655 30.8879 19.744 29.7989 21.139 29.7989C22.5 29.7989 23.589 30.8879 23.589 32.2829C23.589 33.6779 22.5 34.7659 21.139 34.7659Z" fill="#407BFF"/>
<path d="M36.314 38.6624L43.177 42.0744C43.537 42.2534 43.929 41.8964 43.784 41.5214L40.781 33.7344C39.253 35.9054 37.76 37.6034 36.314 38.6624Z" fill="#407BFF"/>
<path d="M41.771 76.9999C42.733 81.8399 83.895 79.9169 81.969 73.6669C81.648 72.6249 81.012 71.5869 80.472 70.4249C77.797 64.6669 73.355 57.4459 58.981 57.4939C50.333 57.5219 38.937 62.7499 41.771 76.9999Z" fill="#407BFF"/>
<path d="M92.7531 348.854L94.859 359.512H100.494L101.245 348.854H92.7531Z" fill="#FFC3BD"/>
<path d="M99.751 358.16C99.751 358.16 100.819 356.84 102.175 357.29C103.53 357.741 105.304 359.96 105.304 359.96C105.304 359.96 112.654 362.317 114.639 362.441C116.624 362.565 118.361 363.682 119.105 367.527H95.037C95.037 367.527 94.09 358.843 93.943 357.354C93.796 355.865 96.153 357.726 96.153 357.726L99.751 358.16Z" fill="#407BFF"/>
<path d="M118.39 366.381C116.943 366.367 115.502 366.353 114.055 366.338C107.733 366.274 101.411 366.203 95.09 366.139C94.849 366.139 94.849 365.763 95.09 365.77C95.516 365.777 95.948 365.777 96.374 365.784C96.374 365.77 96.381 365.748 96.388 365.734C97.296 363.726 96.246 361.676 94.43 360.647C94.217 360.533 94.409 360.207 94.614 360.328C96.579 361.442 97.6581 363.634 96.7571 365.784C97.6511 365.798 98.5381 365.805 99.4321 365.812C105.747 365.876 112.068 365.947 118.39 366.011C118.631 366.012 118.631 366.388 118.39 366.381Z" fill="black"/>
<path d="M104.451 361.472C105.288 360.296 106.702 359.962 107.89 360.849C108.082 360.992 108.268 360.669 108.078 360.528C106.715 359.51 105.078 359.952 104.13 361.285C103.991 361.479 104.313 361.666 104.451 361.472Z" fill="white"/>
<path d="M106.525 362.098C107.362 360.922 108.776 360.588 109.964 361.475C110.156 361.618 110.342 361.295 110.152 361.154C108.789 360.136 107.152 360.578 106.204 361.911C106.064 362.105 106.387 362.291 106.525 362.098Z" fill="white"/>
<path d="M108.666 362.724C109.503 361.548 110.917 361.214 112.104 362.101C112.296 362.244 112.482 361.921 112.292 361.78C110.929 360.762 109.292 361.204 108.344 362.537C108.206 362.731 108.528 362.917 108.666 362.724Z" fill="white"/>
<path d="M42.34 348.93L43.509 359.512H49.144L50.832 348.93H42.34Z" fill="#FFC3BD"/>
<path d="M48.401 358.16C48.401 358.16 49.469 356.84 50.825 357.29C52.18 357.741 53.954 359.96 53.954 359.96C53.954 359.96 61.304 362.317 63.289 362.441C65.274 362.565 67.011 363.682 67.755 367.527H43.687C43.687 367.527 42.74 358.843 42.593 357.354C42.446 355.865 44.803 357.726 44.803 357.726L48.401 358.16Z" fill="#407BFF"/>
<path d="M67.039 366.381C65.592 366.367 64.151 366.353 62.704 366.338C56.382 366.274 50.06 366.203 43.739 366.139C43.498 366.139 43.498 365.763 43.739 365.77C44.165 365.777 44.597 365.777 45.023 365.784C45.023 365.77 45.03 365.748 45.037 365.734C45.945 363.726 44.895 361.676 43.079 360.647C42.866 360.533 43.058 360.207 43.263 360.328C45.228 361.442 46.307 363.634 45.406 365.784C46.3 365.798 47.187 365.805 48.081 365.812C54.396 365.876 60.717 365.947 67.039 366.011C67.281 366.012 67.281 366.388 67.039 366.381Z" fill="black"/>
<path d="M53.1009 361.472C53.9379 360.296 55.3519 359.962 56.5399 360.849C56.7319 360.992 56.9179 360.669 56.7279 360.528C55.3649 359.51 53.7279 359.952 52.7799 361.285C52.6399 361.479 52.9629 361.666 53.1009 361.472Z" fill="white"/>
<path d="M55.1739 362.098C56.0109 360.922 57.4249 360.588 58.6129 361.475C58.8049 361.618 58.9909 361.295 58.8009 361.154C57.4379 360.136 55.8009 360.578 54.8529 361.911C54.7139 362.105 55.0359 362.291 55.1739 362.098Z" fill="white"/>
<path d="M57.316 362.724C58.153 361.548 59.567 361.214 60.754 362.101C60.946 362.244 61.132 361.921 60.942 361.78C59.579 360.762 57.942 361.204 56.994 362.537C56.855 362.731 57.178 362.917 57.316 362.724Z" fill="white"/>
<path d="M90.8781 349.229H103.312C104.388 333.217 107.432 280.16 105.027 253.904C106.757 217.475 101.19 169.117 101.19 169.117H61.8C61.8 169.117 64.6861 201.477 77.6431 253.379C77.5521 294.5 87.5891 335.609 90.8781 349.229Z" fill="#263238"/>
<path opacity="0.2" d="M75.518 244.656C82.639 215.571 76.386 177.855 76.386 177.855L70.241 220.936L75.518 244.656Z" fill="black"/>
<path d="M89.396 348.917L90.309 353.642L104.567 353.581L104.575 348.854L89.396 348.917Z" fill="#263238"/>
<path d="M40.566 349.688H53C57.43 333.216 66.329 280.255 67.754 254C74.798 217.571 78.167 169.117 78.167 169.117H38.777C38.777 169.117 35.113 201.848 40.499 253.75C39.454 299 40.284 335.609 40.566 349.688Z" fill="#263238"/>
<path d="M39.48 348.904L39.454 353.589L53.825 353.592L54.578 348.907L39.48 348.904Z" fill="#263238"/>
<path d="M106.34 175.06C79.02 185.56 34.51 177.95 34.51 177.95C35.04 164.59 35.5 138.13 35.32 116.14C35.31 115.63 35.31 115.12 35.3 114.61C35.27 111.49 35.22 108.47 35.16 105.61C35.15 105.26 35.15 104.91 35.14 104.57C35.01 98.95 34.81 93.98 34.55 90C34.05 82.51 38.12 75.5399 45.53 74.2899C47.78 73.9099 50.21 73.5799 52.74 73.3099C53.34 73.2399 53.95 73.1799 54.57 73.1199C61.59 72.4299 69.29 72.13 76.32 72.33C76.67 72.33 77.02 72.34 77.37 72.35C77.55 72.36 77.75 72.3599 77.93 72.3699C78.23 72.3799 78.54 72.39 78.84 72.41C81.97 72.54 84.94 72.7699 87.6 73.1199C93.64 73.8999 99.01 78.67 99.11 84.77C99.2 90.36 99.75 102.16 100.54 115.47C100.84 120.51 101.18 125.78 101.55 131C102.98 151.55 104.8 171.47 106.34 175.06Z" fill="#407BFF"/>
<path d="M36.6301 150.61C36.6401 150.62 36.65 150.64 36.65 150.65L36.62 150.63C36.58 150.61 36.5401 150.61 36.4901 150.61L32.53 158.04C32.27 157.9 32.0201 157.76 31.7701 157.61L31.58 157.49L31.4601 157.41L31.2401 157.25L30.78 156.93L30.4101 156.65C29.9001 156.27 29.4901 155.93 29.0501 155.57C28.2201 154.86 27.4301 154.16 26.6601 153.45C25.1301 152.04 23.66 150.63 22.2 149.2C19.32 146.31 16.5301 143.37 13.8201 140.35C11.0901 137.33 8.46005 134.24 5.86005 130.93C5.21005 130.1 4.55005 129.24 3.91005 128.32C3.58005 127.84 3.26005 127.4 2.92005 126.85C2.59005 126.35 2.24005 125.76 1.85005 125.03L1.54004 124.37L1.38005 124.04C1.31005 123.85 1.23005 123.63 1.16005 123.43L0.970049 122.79C0.910049 122.52 0.870042 122.57 0.760042 121.73C0.680042 121.08 0.670053 120.4 0.740053 119.74L0.800051 119.25C0.830051 119.1 0.860053 118.91 0.880053 118.85L1.03005 118.32C1.14005 117.96 1.28004 117.61 1.43004 117.26L1.66005 116.76L1.79004 116.51L1.84004 116.42L2.27005 115.71C2.61005 115.17 2.77005 114.96 2.99005 114.65C3.84005 113.48 4.52004 112.67 5.23004 111.8C8.02004 108.51 10.7801 105.6 13.5701 102.65C16.3801 99.7499 19.1801 96.87 22.0501 94.08C27.7601 88.45 33.5601 82.98 39.6101 77.71L51.0501 90.2899C45.3601 95.7399 39.49 101.07 33.64 106.35L24.9 114.27C22.1 116.78 19.28 119.37 16.75 121.85C16.95 122.21 17.1601 122.57 17.3801 122.93C19.3201 126.13 21.52 129.38 23.68 132.62C25.88 135.85 28.1 139.09 30.36 142.26C31.48 143.86 32.61 145.44 33.76 146.97C34.33 147.74 34.9101 148.47 35.4701 149.18L36.26 150.16L36.5701 150.53L36.6301 150.61Z" fill="#407BFF"/>
<path d="M64.2061 81.0522C64.2061 81.0522 69.3811 102.545 67.8981 123.439" stroke="white" stroke-width="0.5" stroke-miterlimit="10" stroke-linecap="round" stroke-linejoin="round"/>
<path d="M75.979 80.5869C75.979 80.5869 81.154 102.08 79.671 122.974" stroke="white" stroke-width="0.5" stroke-miterlimit="10" stroke-linecap="round" stroke-linejoin="round"/>
<path opacity="0.2" d="M101.55 131C91.45 116.273 83.838 99.914 78.978 81.75L100.54 115.47C100.84 120.51 101.18 125.78 101.55 131Z" fill="black"/>
<path opacity="0.2" d="M49.011 144.06C49.011 144.06 50.953 157.179 50.258 164.733C50.258 164.733 71.804 168.109 94.47 163.094C95.374 158 95.323 150.313 93.264 142.734C79.929 142.06 64.959 142.675 49.011 144.06Z" fill="black"/>
<path d="M81.5531 30.5449C77.2831 29.0279 72.5381 29.2189 68.5191 31.3119C65.8951 32.6789 63.6141 34.7719 63.6701 37.9119C63.8011 45.2379 65.8441 57.4929 65.8441 57.4929L90.5741 46.3129C90.5741 46.3129 92.3751 40.1759 89.4781 36.2619C87.3281 33.3569 84.7091 31.6659 81.5531 30.5449Z" fill="#263238"/>
<path d="M63.7781 45.585C63.7781 45.585 64.3151 43.456 61.8591 39.501C59.4031 35.546 62.0951 33.085 63.9841 33.655C63.9841 33.655 62.9991 31.219 64.6351 30.385C66.2721 29.551 67.1041 30.503 67.1041 30.503C67.1041 30.503 73.2691 25.57 81.6411 27.223C88.3861 28.555 93.3741 23.852 95.8771 25.684C98.3801 27.516 93.8281 29.227 93.8281 29.227C93.8281 29.227 97.8771 31.457 97.2471 33.537C96.6181 35.617 92.9111 35.782 92.9111 35.782C92.9111 35.782 96.7601 38.338 95.1901 40.039C93.6201 41.741 88.7231 39.679 88.7231 39.679C88.7231 39.679 69.3031 39.578 63.7781 45.585Z" fill="#263238"/>
<path d="M76.6511 66.6021L76.6521 66.612C76.6341 66.643 76.6261 66.6641 76.6081 66.6951L75.0521 70.748C74.8691 71.59 74.7661 72.4371 74.7421 73.2681C74.7191 73.9691 74.7561 74.657 74.8311 75.321C75.6121 76.678 75.7381 79.5781 72.4761 79.2381C68.3591 78.8161 61.3791 72.357 61.3051 70.513C63.8191 65.096 66.2081 58.321 66.4831 52.915L70.6281 58.5031L76.6511 66.6021Z" fill="#FFC3BD"/>
<g opacity="0.2">
<path d="M76.6071 66.6951L75.0511 70.7481C72.6041 69.2941 70.1841 66.4681 69.8651 63.6611C69.6481 61.6371 70.7401 59.8841 71.5481 59.8691L76.6071 66.6951Z" fill="black"/>
</g>
<path d="M87.9721 59.0852C87.6311 59.9662 87.2611 60.8312 86.8741 61.6812C83.4331 69.1832 73.7541 68.8462 68.4031 62.4642C68.3951 62.4522 68.3971 62.4422 68.3871 62.4392C67.9131 61.8722 67.4701 61.2592 67.0711 60.5932C63.8171 55.1882 65.1871 51.4542 66.7061 42.8032C68.2231 34.1622 78.1221 29.7342 85.5371 35.0482C92.3811 39.9522 91.4071 50.2792 87.9721 59.0852Z" fill="#FFC3BD"/>
<path d="M80.2491 58.2729C79.9071 59.1959 79.0611 59.733 78.3591 59.473C77.6571 59.213 77.3651 58.2539 77.7071 57.3309C78.0491 56.4079 78.8951 55.871 79.5971 56.131C80.2991 56.391 80.5911 57.3499 80.2491 58.2729Z" fill="white"/>
<path d="M73.949 41.4622C76.204 41.1462 74.668 38.6602 75.152 37.2642C76.725 32.7282 89.064 35.8302 90.483 42.7692C90.483 42.7692 90.142 37.4822 86.291 34.2432C82.44 31.0042 74.157 29.5302 70.348 33.2712C66.54 37.0122 66.521 43.6062 66.521 43.6062C66.521 43.6062 66.418 44.7982 67.155 45.5852C67.566 45.9822 68.289 47.8102 69.488 48.2952C70.51 48.7092 71.29 48.5452 71.665 47.0642C72.042 45.5832 72.44 41.6732 73.949 41.4622Z" fill="#263238"/>
<path d="M61.685 47.6119C61.782 49.9769 62.962 52.0759 64.413 53.3709C66.596 55.3179 68.971 53.6759 69.438 50.9429C69.859 48.4839 69.23 44.5069 66.522 43.6069C63.854 42.7189 61.574 44.9079 61.685 47.6119Z" fill="#FFC3BD"/>
<path d="M79.3631 48.1042C79.2021 48.7762 79.4271 49.4052 79.8661 49.5112C80.3051 49.6162 80.7911 49.1572 80.9521 48.4862C81.1131 47.8142 80.8881 47.1852 80.4491 47.0792C80.0101 46.9732 79.5241 47.4322 79.3631 48.1042Z" fill="#263238"/>
<path d="M86.745 49.781C86.584 50.453 86.809 51.0819 87.248 51.1879C87.687 51.2929 88.173 50.8339 88.335 50.1629C88.496 49.4909 88.271 48.8619 87.832 48.7559C87.392 48.6499 86.906 49.109 86.745 49.781Z" fill="#263238"/>
<path d="M89.3771 47.7621C89.2591 47.7331 89.159 47.6441 89.124 47.5191C88.965 46.9591 88.6841 46.5671 88.2911 46.3541C87.6431 46.0041 86.8711 46.2301 86.8631 46.2331C86.6841 46.2901 86.4841 46.1891 86.4271 46.0041C86.3701 45.8201 86.4721 45.6251 86.6561 45.5671C86.6971 45.5541 87.711 45.2471 88.622 45.7411C89.187 46.0471 89.5821 46.5811 89.7931 47.3281C89.8461 47.5131 89.739 47.7061 89.553 47.7591C89.494 47.7761 89.4331 47.7761 89.3771 47.7621Z" fill="#263238"/>
<path d="M77.9261 45.0348C77.8721 45.0218 77.8201 44.9958 77.7751 44.9578C77.6151 44.8248 77.5921 44.5878 77.7241 44.4278C77.7551 44.3898 78.4911 43.5118 79.6111 43.4188C80.3051 43.3608 80.9801 43.6108 81.6161 44.1638C81.7741 44.3008 81.7911 44.5398 81.6541 44.6968C81.5171 44.8548 81.2781 44.8708 81.1211 44.7338C80.6461 44.3218 80.1621 44.1318 79.6801 44.1708C78.8801 44.2348 78.3121 44.9028 78.3071 44.9098C78.2101 45.0238 78.0611 45.0668 77.9261 45.0348Z" fill="#263238"/>
<path d="M83.966 48.6011C83.966 48.6011 84.314 51.6791 85.25 53.8121C86.189 55.9531 82.5 55.1521 82.5 55.1521L83.966 48.6011Z" fill="#ED847E"/>
<path opacity="0.2" d="M48.14 93.3701L35.3 114.61C35.27 111.49 35.22 108.47 35.16 105.61C35.15 105.26 35.15 104.91 35.14 104.57L48.14 93.3701Z" fill="black"/>
<path d="M110.16 125.18C106.05 127.05 101.22 125.45 98.95 121.66C98.8 121.41 98.66 121.17 98.51 120.92C98.22 120.43 97.93 119.93 97.64 119.43C97.49 119.19 97.35 118.94 97.21 118.69C96.74 117.89 96.28 117.08 95.81 116.27C95.3 115.37 94.78 114.47 94.26 113.56C93.75 112.66 93.24 111.76 92.72 110.85C92.2 109.95 91.69 109.04 91.19 108.14C90.68 107.23 90.17 106.32 89.67 105.41C89.61 105.3 89.55 105.19 89.49 105.08C88.54 103.37 87.59 101.65 86.65 99.9403C84.66 96.2803 82.69 92.6103 80.77 88.9103C78.85 85.2003 76.95 81.4903 75.16 77.7003L83.03 72.5503C85.78 75.7103 88.42 78.9503 91.04 82.2003C91.33 82.5603 91.62 82.9203 91.91 83.2903L97.92 80.1503C99.42 82.7903 100.84 85.4703 102.24 88.1703C103.63 90.8603 105.01 93.5703 106.35 96.2903C107.69 99.0103 109.03 101.74 110.32 104.49C111.63 107.23 112.91 109.99 114.17 112.75L114.52 113.53C116.53 117.95 114.58 123.17 110.16 125.18Z" fill="#407BFF"/>
<path d="M94.2601 113.56C94.1501 113.38 94.0501 113.21 93.9501 113.03C93.0101 111.41 92.0901 109.78 91.1901 108.14C91.6901 109.04 92.2001 109.95 92.7201 110.85C93.2401 111.76 93.7501 112.66 94.2601 113.56Z" fill="#407BFF"/>
<path d="M83.0401 74.58C82.8491 76.096 81.7501 78.46 79.5401 78.38C77.4701 78.3 75.7401 77.6 75.5301 77.51C75.5201 77.5 75.5101 77.5 75.5101 77.5C73.8201 77.07 70.6501 76 69.5601 73.91C68.0301 70.99 70.4201 66.41 70.4201 66.41C67.9401 64.06 65.0061 60.017 67.0561 60.937C69.0961 61.857 77.1501 67.48 80.0321 66.843C82.7121 66.251 83.6511 63.924 84.6471 64.395C85.7931 64.937 83.6651 67.018 82.5951 69.178C82.5951 69.178 83.3311 72.271 83.0401 74.58Z" fill="#FFC3BD"/>
<g opacity="0.2">
<path d="M74.7891 77.5502C74.7531 77.5502 74.7181 77.5432 74.6841 77.5272C74.4781 77.4312 69.6231 75.1542 68.7421 72.6672C67.9571 70.4482 69.6421 67.2632 70.1001 66.4622C69.4561 65.8962 67.0791 63.7522 66.4421 62.4422C66.0911 61.7182 66.0121 61.2012 66.2021 60.8622C66.3531 60.5912 66.6131 60.5572 66.6421 60.5542C67.6731 60.5692 68.7221 61.3412 70.1731 62.4092C71.6171 63.4722 73.4131 64.7942 75.8461 65.8602C80.2231 67.7772 81.0081 66.6112 81.5271 65.8392L81.7241 65.5522C82.3001 64.7212 83.2661 63.3292 84.9071 63.9962C85.0351 64.0482 85.0971 64.1932 85.0451 64.3212C84.9931 64.4492 84.8481 64.5112 84.7201 64.4592C83.5411 63.9842 82.8531 64.8012 82.1361 65.8372L81.9421 66.1192C81.1641 67.2732 80.0341 68.2392 75.6471 66.3182C73.1631 65.2302 71.3411 63.8892 69.8781 62.8122C68.5561 61.8392 67.5121 61.0702 66.6701 61.0532C66.6891 61.0552 66.6571 61.0682 66.6341 61.1162C66.6011 61.1832 66.5231 61.4632 66.8931 62.2242C67.5711 63.6192 70.5541 66.1952 70.5841 66.2212C70.6771 66.3012 70.6981 66.4362 70.6341 66.5412C70.6111 66.5782 68.4081 70.2252 69.2141 72.5012C70.0251 74.7912 74.8461 77.0522 74.8951 77.0752C75.0201 77.1332 75.0741 77.2822 75.0161 77.4072C74.9741 77.4972 74.8831 77.5502 74.7891 77.5502Z" fill="black"/>
</g>
<path opacity="0.2" d="M86.583 76.583L108 109.167C108 109.167 105.5 98.25 86.583 76.583Z" fill="black"/>
<path d="M35.1741 150.775C35.1741 150.775 43.7941 153.429 44.4751 155.11C45.1571 156.791 42.3401 156.356 42.3401 156.356C42.3401 156.356 45.4141 157.003 45.3311 158.187C45.2311 159.608 42.2821 159.141 42.2821 159.141C42.2821 159.141 44.7711 159.759 44.6171 160.805C44.4571 161.89 41.0951 161.571 41.0951 161.571C41.0951 161.571 42.7681 162.297 42.1941 162.955C41.6201 163.613 35.3551 163.154 33.3731 161.745C31.3911 160.336 32.6691 152.438 33.2511 150.72C33.8331 149.002 32.8131 147.22 35.2471 145.252L35.1741 150.775Z" fill="#FFC3BD"/>
<path opacity="0.2" d="M42.3201 156.487C42.3161 156.486 42.3121 156.486 42.3071 156.484L37.0001 155.132C36.9291 155.113 36.8861 155.041 36.9041 154.97C36.9221 154.899 36.9981 154.855 37.0661 154.874L42.3731 156.227C42.4441 156.245 42.4871 156.318 42.4691 156.389C42.4521 156.456 42.3871 156.498 42.3201 156.487Z" fill="black"/>
<path opacity="0.2" d="M42.1081 159.248L42.1051 159.247L36.9061 158.303C36.8341 158.29 36.7861 158.221 36.7991 158.148C36.8121 158.075 36.8691 158.038 36.9541 158.041L42.1531 158.985C42.2251 158.998 42.2731 159.068 42.2601 159.14C42.2461 159.212 42.1791 159.259 42.1081 159.248Z" fill="black"/>
<path opacity="0.2" d="M40.896 161.674L37.014 161.07C36.941 161.059 36.892 160.99 36.903 160.918C36.914 160.845 36.982 160.795 37.055 160.807L40.937 161.411C41.01 161.422 41.059 161.491 41.048 161.563C41.037 161.636 40.969 161.686 40.896 161.674Z" fill="black"/>
</svg>
