<svg width="13" height="16" viewBox="0 0 13 16" fill="none" xmlns="http://www.w3.org/2000/svg">
<path fill-rule="evenodd" clip-rule="evenodd" d="M6.64998 1.26984C4.48863 1.26984 2.73651 3.02196 2.73651 5.1833V6.71771C2.73651 7.24039 2.56784 7.70639 2.36698 8.10881C2.22623 8.39076 2.04998 8.67644 1.89247 8.93169C1.83326 9.02768 1.7767 9.11934 1.72568 9.20491C1.55782 9.48635 1.46124 9.81522 1.46124 10.1682C1.46124 11.082 2.11114 11.8468 2.9908 11.9687C4.14248 12.1284 5.55593 12.2851 6.64998 12.2851C7.74403 12.2851 9.15749 12.1284 10.3092 11.9687C11.1888 11.8468 11.8387 11.082 11.8387 10.1682C11.8387 9.81522 11.7421 9.48635 11.5743 9.20491C11.5233 9.11934 11.4667 9.02768 11.4075 8.93169C11.25 8.67644 11.0737 8.39076 10.933 8.10881C10.7321 7.70639 10.5635 7.24047 10.5635 6.71771V5.1833C10.5635 3.02196 8.81131 1.26984 6.64998 1.26984ZM1.6366 5.1833C1.6366 2.41449 3.88117 0.169922 6.64998 0.169922C9.41876 0.169922 11.6634 2.41449 11.6634 5.1833V6.71771C11.6634 7.00186 11.7547 7.29216 11.9171 7.61752C12.0345 7.85275 12.1692 8.0709 12.3161 8.30885C12.3814 8.41473 12.4492 8.52458 12.519 8.64154C12.7856 9.08862 12.9386 9.61137 12.9386 10.1682C12.9386 11.6052 11.909 12.8574 10.4602 13.0582C9.2996 13.2192 7.82374 13.385 6.64998 13.385C5.47622 13.385 4.00034 13.2192 2.83973 13.0582C1.39093 12.8574 0.361328 11.6052 0.361328 10.1682C0.361328 9.61137 0.514363 9.08862 0.78099 8.64154C0.850746 8.52458 0.918523 8.41473 0.983887 8.30885C1.13078 8.0709 1.26546 7.85275 1.38286 7.61752C1.54529 7.29216 1.6366 7.00186 1.6366 6.71771V5.1833Z" fill="#606060"/>
<path fill-rule="evenodd" clip-rule="evenodd" d="M8.54855 14.0715C8.29557 13.9034 7.95423 13.9721 7.78608 14.225C7.54095 14.5936 7.1235 14.8346 6.64995 14.8346C6.1764 14.8346 5.75894 14.5936 5.51381 14.225C5.34567 13.9721 5.00431 13.9034 4.75138 14.0715C4.49845 14.2397 4.42974 14.5811 4.59791 14.834C5.03821 15.4962 5.79275 15.9346 6.64995 15.9346C7.50715 15.9346 8.26169 15.4962 8.70202 14.834C8.87016 14.5811 8.80145 14.2397 8.54855 14.0715Z" fill="#606060"/>
</svg>
