<svg width="13" height="17" viewBox="0 0 13 17" fill="none" xmlns="http://www.w3.org/2000/svg">
<g clip-path="url(#clip0_738_11950)">
<path d="M11.4853 4.70504L7.91117 1.13091C7.82774 1.04745 7.71388 1 7.59521 1H1.34033C0.601273 1 0 1.60128 0 2.34034V14.9097C0 15.6488 0.601273 16.25 1.34033 16.25H10.2759C11.0149 16.25 11.6162 15.6488 11.6162 14.9097V5.021C11.6162 4.89918 11.5651 4.78477 11.4853 4.70504ZM8.04199 2.52539L10.0908 4.57422H8.48877C8.24241 4.57422 8.04199 4.3738 8.04199 4.12745V2.52539ZM10.2759 15.3565H1.34033C1.09398 15.3565 0.893553 15.1561 0.893553 14.9097V2.34034C0.893553 2.09398 1.09398 1.89356 1.34033 1.89356H7.14843V4.12745C7.14843 4.8665 7.74971 5.46778 8.48877 5.46778H10.7227V14.9097C10.7227 15.1561 10.5222 15.3565 10.2759 15.3565Z" fill="#606060"/>
<path d="M9.32959 7.24414H3.96826C3.72152 7.24414 3.52148 7.44418 3.52148 7.69092C3.52148 7.93766 3.72152 8.1377 3.96826 8.1377H9.32959C9.57633 8.1377 9.77637 7.93766 9.77637 7.69092C9.77637 7.44418 9.57633 7.24414 9.32959 7.24414Z" fill="#606060"/>
<path d="M9.32959 9.0293H3.96826C3.72152 9.0293 3.52148 9.22933 3.52148 9.47607C3.52148 9.72281 3.72152 9.92285 3.96826 9.92285H9.32959C9.57633 9.92285 9.77637 9.72281 9.77637 9.47607C9.77637 9.22933 9.57633 9.0293 9.32959 9.0293Z" fill="#606060"/>
<path d="M9.32959 10.8145H3.96826C3.72152 10.8145 3.52148 11.0146 3.52148 11.2613C3.52148 11.508 3.72152 11.7081 3.96826 11.7081H9.32959C9.57633 11.7081 9.77637 11.508 9.77637 11.2613C9.77637 11.0146 9.57633 10.8145 9.32959 10.8145Z" fill="#606060"/>
<path d="M7.54248 12.6055H3.96826C3.72152 12.6055 3.52148 12.8055 3.52148 13.0523C3.52148 13.299 3.72152 13.499 3.96826 13.499H7.54248C7.78922 13.499 7.98926 13.299 7.98926 13.0523C7.98926 12.8055 7.78922 12.6055 7.54248 12.6055Z" fill="#606060"/>
</g>
<defs>
<clipPath id="clip0_738_11950">
<rect width="13" height="16" fill="white" transform="translate(0 0.5)"/>
</clipPath>
</defs>
</svg>
