<svg width="16" height="15" viewBox="0 0 16 15" fill="none" xmlns="http://www.w3.org/2000/svg">
<path d="M15.4044 8.53516L14.2501 1.98852C14.0932 1.09905 13.2418 0.502959 12.3525 0.659821L2.45196 2.40559C1.56246 2.56242 0.966404 3.41365 1.12324 4.30312L1.20806 4.78422C0.628765 5.03692 0.222656 5.6149 0.222656 6.28625V12.7703C0.222656 13.6736 0.95747 14.4084 1.86067 14.4084H11.6888C12.592 14.4084 13.3268 13.6736 13.3268 12.7703V10.5647L14.0757 10.4327C14.5066 10.3567 14.8821 10.1175 15.133 9.75908C15.384 9.40068 15.4804 8.96598 15.4044 8.53516ZM14.4012 9.24662C14.2871 9.40953 14.1164 9.51826 13.9205 9.55281L13.3268 9.65749V9.14828V7.12161V6.28622C13.3268 5.38302 12.592 4.64821 11.6888 4.64821H2.09136L2.00315 4.14796C1.9686 3.95211 2.01244 3.75454 2.12651 3.5916C2.24057 3.42869 2.41128 3.31996 2.60713 3.28541L12.5076 1.53967C12.5512 1.53199 12.5945 1.5283 12.6373 1.5283C12.9916 1.5283 13.3066 1.78287 13.3702 2.14362L14.5245 8.69026C14.559 8.88614 14.5152 9.08371 14.4012 9.24662ZM11.6888 13.5149H1.86067C1.45012 13.5149 1.11612 13.1809 1.11612 12.7703V9.59501H12.4333V12.7703C12.4333 13.1809 12.0993 13.5149 11.6888 13.5149ZM1.86067 5.5417H11.6888C12.0993 5.5417 12.4333 5.87571 12.4333 6.28625V6.67491H1.11612V6.28625C1.11612 5.87571 1.45012 5.5417 1.86067 5.5417ZM12.4333 7.56837V8.70158H1.11612V7.56837H12.4333Z" fill="#606060"/>
<path d="M4.52223 11.7207H2.49556C2.24884 11.7207 2.04883 11.9207 2.04883 12.1674C2.04883 12.4141 2.24884 12.6142 2.49556 12.6142H4.52223C4.76894 12.6142 4.96896 12.4141 4.96896 12.1674C4.96896 11.9207 4.76894 11.7207 4.52223 11.7207Z" fill="#606060"/>
</svg>
