<svg width="44" height="42" viewBox="0 0 44 42" fill="none" xmlns="http://www.w3.org/2000/svg">
<g opacity="0.3">
<g clip-path="url(#clip0_64_211)">
<path d="M15.7003 32.2523C14.8845 32.2523 14.1247 31.8939 13.6162 31.269L11.8308 29.076L10.26 28.335L6.15887 36.4153C5.95327 36.8205 5.97643 37.3011 6.22018 37.6855C6.46334 38.069 6.89161 38.3022 7.35236 38.3022H7.35536L11.1595 38.2938L13.4488 41.27C13.702 41.5991 14.0971 41.79 14.5131 41.7899C14.5539 41.7899 14.5949 41.7881 14.636 41.7844C15.096 41.7427 15.5012 41.4707 15.7068 41.0655L19.8676 32.8674L18.5638 32.2523H15.7003Z" fill="#3A3A3A"/>
<path d="M38.4413 36.4153L34.3401 28.335L32.7694 29.076L30.984 31.2691C30.4754 31.8939 29.7158 32.2523 28.8998 32.2523H26.0363L24.7324 32.8674L28.8933 41.0655C29.099 41.4707 29.5042 41.7427 29.9641 41.7844C30.0052 41.788 30.0461 41.7899 30.087 41.7899C30.5029 41.7899 30.8981 41.5991 31.1513 41.27L33.4405 38.2938L37.2447 38.3022H37.2477C37.7084 38.3022 38.1367 38.0691 38.3799 37.6855C38.6236 37.3011 38.6469 36.8205 38.4413 36.4153Z" fill="#3A3A3A"/>
<path d="M28.8999 30.9468C29.3055 30.9468 29.6892 30.7659 29.942 30.4552L31.917 28.0292L34.771 26.6828C35.1365 26.5103 35.4019 26.1843 35.4922 25.797L36.1971 22.7717L38.1722 20.3456C38.4251 20.0349 38.5198 19.6284 38.4295 19.241L37.7247 16.2158L38.4295 13.1904C38.5197 12.803 38.4251 12.3965 38.1722 12.0858L36.1971 9.65977L35.4922 6.63446C35.402 6.24709 35.1365 5.92108 34.771 5.74865L31.917 4.40227L29.942 1.97618C29.6891 1.66551 29.3055 1.4846 28.8999 1.4846H25.7322L22.8781 0.13805C22.5126 -0.0342978 22.087 -0.0342978 21.7215 0.13805L18.8675 1.48443H15.6997C15.2941 1.48443 14.9105 1.66535 14.6577 1.97602L12.6826 4.4021L9.82864 5.74849C9.46318 5.92092 9.19778 6.24693 9.10748 6.6343L8.40256 9.65961L6.4275 12.0856C6.17459 12.3963 6.07987 12.8028 6.17017 13.1903L6.87501 16.2156L6.17017 19.2408C6.07996 19.6282 6.17459 20.0347 6.4275 20.3454L8.40256 22.7715L9.10748 25.7968C9.19769 26.1842 9.46318 26.5102 9.82864 26.6826L12.6826 28.029L14.6577 30.4551C14.9106 30.7657 15.2941 30.9467 15.6997 30.9467H18.8675L21.7215 32.293C21.9042 32.3792 22.102 32.4223 22.2998 32.4223C22.4975 32.4223 22.6954 32.3792 22.8781 32.293L25.7321 30.9467H28.8998L28.8999 30.9468ZM22.2998 27.6402C15.8691 27.6402 10.6373 22.5152 10.6373 16.2157C10.6373 9.91617 15.8691 4.79111 22.2998 4.79111C28.7306 4.79111 33.9624 9.91617 33.9624 16.2157C33.9624 22.5152 28.7306 27.6402 22.2998 27.6402Z" fill="#3A3A3A"/>
<path d="M22.3004 6.09668C16.6046 6.09668 11.9707 10.636 11.9707 16.2156C11.9707 21.7952 16.6046 26.3345 22.3004 26.3345C27.9962 26.3345 32.6301 21.7952 32.6301 16.2156C32.6301 10.636 27.9962 6.09668 22.3004 6.09668ZM22.5764 19.2113C22.3177 19.4647 21.9764 19.5937 21.6336 19.5937C21.3403 19.5937 21.0459 19.4993 20.8014 19.3076L17.4692 16.6963L19.1344 14.6573L21.535 16.5386L25.3565 12.7951L27.2414 14.6415L22.5764 19.2113V19.2113Z" fill="#3A3A3A"/>
</g>
</g>
<defs>
<clipPath id="clip0_64_211">
<rect width="42.6517" height="41.7812" fill="white" transform="translate(0.974609 0.00878906)"/>
</clipPath>
</defs>
</svg>
