<svg width="15" height="16" viewBox="0 0 15 16" fill="none" xmlns="http://www.w3.org/2000/svg">
<g clip-path="url(#clip0_2_340)">
<path d="M9.86328 12.5674C10.0251 12.5674 10.1562 12.4362 10.1562 12.2744C10.1562 12.1126 10.0251 11.9814 9.86328 11.9814C9.70148 11.9814 9.57031 12.1126 9.57031 12.2744C9.57031 12.4362 9.70148 12.5674 9.86328 12.5674Z" fill="#606060"/>
<path d="M12.5364 14.0259L9.53943 8.74228L10.1317 7.56725C10.5196 6.79768 11.296 6.31961 12.1578 6.31961C12.3199 6.31961 12.4514 6.18818 12.4514 6.02605V4.53824C12.4514 4.37614 12.3199 4.24469 12.1578 4.24469H8.9164L7.79375 2.50697V1.71089C7.79377 1.05074 7.25667 0.513672 6.59653 0.513672C5.93638 0.513672 5.39931 1.05074 5.39931 1.71089C5.39931 1.87299 5.53074 2.00444 5.69287 2.00444C5.855 2.00444 5.98642 1.87302 5.98642 1.71089C5.98642 1.37447 6.26011 1.10075 6.59656 1.10075C6.933 1.10075 7.20669 1.37444 7.20669 1.71089V2.507L6.08404 4.24472H2.84266C2.76479 4.24472 2.69014 4.27565 2.63509 4.33067C2.58004 4.38575 2.54914 4.4604 2.54914 4.53824V6.02605C2.54914 6.18815 2.68056 6.31961 2.84269 6.31961C3.70449 6.31961 4.48083 6.79768 4.86875 7.56722L5.46104 8.74228L2.464 14.0259C2.42348 14.0973 2.41472 14.1825 2.43992 14.2606C2.46508 14.3388 2.52183 14.4029 2.59642 14.4373C4.11274 15.1364 5.79631 15.5086 7.46512 15.5136C7.47658 15.5136 7.48786 15.5137 7.49931 15.5137C9.18092 15.5137 10.8762 15.1417 12.404 14.4373C12.4786 14.4029 12.5353 14.3388 12.5605 14.2606C12.5857 14.1825 12.577 14.0973 12.5364 14.0259ZM7.50022 3.13451L8.42456 4.56531C8.24773 4.90691 7.89201 5.12875 7.50022 5.12875C7.10843 5.12875 6.75271 4.90694 6.57587 4.56531L7.50022 3.13451ZM3.13619 5.74735V4.83183H6.05202C6.32799 5.36799 6.88624 5.71583 7.50022 5.71583C8.11419 5.71583 8.67245 5.36799 8.94842 4.83183H11.8643V5.74735C10.899 5.84523 10.0513 6.42259 9.60749 7.30302L9.0304 8.44791H5.9701L5.39298 7.30299C4.94916 6.42256 4.10143 5.84523 3.13619 5.74735ZM7.46688 14.9265C5.98815 14.9221 4.49729 14.6142 3.13452 14.0337L5.96993 9.03499H9.03051L11.8659 14.0337C10.4824 14.623 8.96793 14.9305 7.46688 14.9265Z" fill="#606060" stroke="#606060" stroke-width="0.5"/>
<path d="M9.89149 13.2141C9.14623 13.5577 8.31942 13.7391 7.49913 13.7391C7.49363 13.7391 7.48809 13.7391 7.48258 13.7391C6.66866 13.7366 5.84749 13.5551 5.10795 13.2141C4.96068 13.1462 4.78636 13.2105 4.71845 13.3577C4.65057 13.5049 4.71488 13.6793 4.86209 13.7472C5.67766 14.1233 6.5832 14.3234 7.48082 14.3261C7.48695 14.3262 7.49295 14.3262 7.49908 14.3262C8.40362 14.3262 9.31551 14.1261 10.1373 13.7472C10.2845 13.6793 10.3488 13.505 10.281 13.3577C10.2131 13.2105 10.0387 13.1462 9.89149 13.2141Z" fill="#606060"/>
<path d="M8.43002 9.7531C8.28899 9.83308 8.23954 10.0122 8.31952 10.1533L8.94656 11.2587C9.00061 11.354 9.0999 11.4075 9.20217 11.4075C9.25124 11.4075 9.30099 11.3952 9.34672 11.3692C9.48776 11.2893 9.53721 11.1101 9.45723 10.9691L8.83019 9.86361C8.75018 9.72261 8.57103 9.67312 8.43002 9.7531Z" fill="#606060"/>
</g>
<defs>
<clipPath id="clip0_2_340">
<rect width="15" height="15" fill="white" transform="translate(0 0.513672)"/>
</clipPath>
</defs>
</svg>
