<svg width="17" height="14" viewBox="0 0 17 14" fill="none" xmlns="http://www.w3.org/2000/svg">
<path d="M15.3643 1.58416C13.6242 -0.155421 10.7935 -0.155421 9.05394 1.58416L8.64989 1.98797L8.24608 1.58416C6.5065 -0.155657 3.67556 -0.155657 1.93598 1.58416C0.231721 3.28842 0.220654 5.98985 1.91032 7.86812C3.4514 9.58062 7.99649 13.2804 8.18933 13.437C8.32025 13.5434 8.47777 13.5952 8.63435 13.5952C8.63953 13.5952 8.64471 13.5952 8.64965 13.595C8.81165 13.6025 8.97482 13.5469 9.10998 13.437C9.30282 13.2804 13.8484 9.58062 15.3899 7.86788C17.0794 5.98985 17.0683 3.28842 15.3643 1.58416ZM14.3398 6.92298C13.1382 8.2578 9.83543 11.0108 8.64965 11.9877C7.46388 11.011 4.16179 8.25827 2.96047 6.92322C1.78175 5.61312 1.77069 3.74733 2.9348 2.58321C3.52934 1.98891 4.31012 1.69153 5.09091 1.69153C5.8717 1.69153 6.65248 1.98868 7.24702 2.58321L8.13517 3.47137C8.2409 3.57709 8.37417 3.6402 8.51403 3.66233C8.74101 3.71107 8.9873 3.64773 9.1639 3.47161L10.0525 2.58321C11.2418 1.39438 13.1764 1.39461 14.365 2.58321C15.5291 3.74733 15.518 5.61311 14.3398 6.92298Z" fill="#606060"/>
</svg>
