<svg width="38" height="39" viewBox="0 0 38 39" fill="none" xmlns="http://www.w3.org/2000/svg">
<g opacity="0.3">
<path d="M16.625 12.8291V10.4541H2.375C1.06637 10.4541 0 11.5205 0 12.8291V17.5791H17.1261C16.796 16.128 16.625 14.5652 16.625 12.8291Z" fill="#3A3A3A"/>
<path d="M37.9026 22.3291C36.2829 24.8252 33.8129 26.9485 30.2741 28.9815C29.7302 29.2926 29.1175 29.4541 28.5 29.4541C27.8825 29.4541 27.2697 29.2926 26.733 28.9862C23.1942 26.9485 20.7243 24.8229 19.1021 22.3291H0V34.2041C0 35.5151 1.06638 36.5791 2.375 36.5791H35.625C36.936 36.5791 38 35.5151 38 34.2041V22.3291H37.9026ZM10.6875 29.4541H5.9375C5.282 29.4541 4.75 28.9221 4.75 28.2666C4.75 27.6111 5.282 27.0791 5.9375 27.0791H10.6875C11.343 27.0791 11.875 27.6111 11.875 28.2666C11.875 28.9221 11.343 29.4541 10.6875 29.4541Z" fill="#3A3A3A"/>
<path d="M37.2804 6.98779L28.9679 3.42529C28.6662 3.29704 28.3314 3.29704 28.0297 3.42529L19.7173 6.98779C19.2826 7.17304 19 7.60291 19 8.07791V12.8279C19 19.3615 21.4154 23.1805 27.9086 26.9212C28.0915 27.0257 28.2957 27.0779 28.5 27.0779C28.7043 27.0779 28.9085 27.0257 29.0914 26.9212C35.5846 23.19 38 19.371 38 12.8279V8.07791C38 7.60291 37.7174 7.17304 37.2804 6.98779ZM32.9911 12.3838L28.2411 18.3213C28.0131 18.6015 27.6711 18.7654 27.3125 18.7654C27.2959 18.7654 27.2769 18.7654 27.2626 18.7654C26.885 18.7488 26.5359 18.554 26.3245 18.2382L23.9495 14.6757C23.5861 14.1294 23.7334 13.3932 24.2796 13.0298C24.8211 12.6688 25.5598 12.8113 25.9255 13.3599L27.4004 15.571L31.1339 10.9018C31.5448 10.3912 32.2929 10.3104 32.8035 10.7165C33.3165 11.1227 33.3972 11.8708 32.9911 12.3838Z" fill="#3A3A3A"/>
</g>
</svg>
