<svg width="26" height="26" viewBox="0 0 26 26" fill="none" xmlns="http://www.w3.org/2000/svg">
<g clip-path="url(#clip0_28_13240)">
<path d="M21.458 4.29395C19.0971 1.93301 15.958 0.632812 12.6191 0.632812C9.28027 0.632812 6.14121 1.93301 3.78027 4.29395C1.41934 6.65488 0.119141 9.79395 0.119141 13.1328C0.119141 16.4717 1.41938 19.6107 3.78027 21.9717C6.14116 24.3327 9.28027 25.6328 12.6191 25.6328C15.958 25.6328 19.0971 24.3326 21.458 21.9717C23.8189 19.6107 25.1191 16.4717 25.1191 13.1328C25.1191 9.79395 23.8189 6.65493 21.458 4.29395ZM12.6191 12.3516C14.5577 12.3516 16.1348 13.9287 16.1348 15.8672C16.1348 17.4725 15.0529 18.8291 13.5802 19.2482C13.4744 19.2783 13.4004 19.3735 13.4004 19.4835V20.142C13.4004 20.5627 13.0771 20.9247 12.6569 20.9444C12.2082 20.9655 11.8379 20.6081 11.8379 20.1641V19.4833C11.8379 19.3736 11.7644 19.2784 11.6588 19.2484C10.1924 18.8314 9.11333 17.4851 9.10357 15.889C9.10098 15.463 9.43594 15.0985 9.86182 15.0863C10.3038 15.0736 10.666 15.4281 10.666 15.8672C10.666 16.9903 11.619 17.8951 12.7587 17.8154C13.7208 17.7482 14.5002 16.9688 14.5674 16.0067C14.647 14.8669 13.7422 13.9141 12.6191 13.9141C10.6806 13.9141 9.10352 12.337 9.10352 10.3984C9.10352 8.79312 10.1854 7.43657 11.6581 7.01743C11.7639 6.9873 11.8379 6.89214 11.8379 6.78213V6.12363C11.8379 5.70293 12.1612 5.34097 12.5814 5.32119C13.0301 5.3001 13.4004 5.65757 13.4004 6.10156V6.78228C13.4004 6.89199 13.4739 6.98721 13.5794 7.01724C15.0458 7.43423 16.125 8.78057 16.1347 10.3766C16.1373 10.8026 15.8023 11.1671 15.3765 11.1793C14.9345 11.192 14.5723 10.8375 14.5723 10.3984C14.5723 9.27529 13.6193 8.37051 12.4795 8.4502C11.5174 8.51743 10.7381 9.29683 10.6709 10.2589C10.5913 11.3987 11.496 12.3516 12.6191 12.3516Z" fill="#3A3A3A"/>
</g>
<defs>
<clipPath id="clip0_28_13240">
<rect width="25" height="25" fill="white" transform="translate(0.119141 0.632812)"/>
</clipPath>
</defs>
</svg>
