<svg width="26" height="26" viewBox="0 0 26 26" fill="none" xmlns="http://www.w3.org/2000/svg">
<g clip-path="url(#clip0_28_13268)">
<path d="M12.6191 0.632812C8.22632 0.632812 4.5625 4.17139 4.5625 8.68945C4.5625 10.4083 5.079 11.941 6.07026 13.3772L12.0026 22.6341C12.2904 23.0841 12.9485 23.0832 13.2357 22.6341L19.1938 13.3458C20.1637 11.9746 20.6758 10.3646 20.6758 8.68945C20.6758 4.24702 17.0616 0.632812 12.6191 0.632812ZM12.6191 12.3516C10.6 12.3516 8.95703 10.7086 8.95703 8.68945C8.95703 6.67026 10.6 5.02734 12.6191 5.02734C14.6383 5.02734 16.2812 6.67026 16.2812 8.68945C16.2812 10.7086 14.6383 12.3516 12.6191 12.3516Z" fill="#3A3A3A"/>
<path d="M18.3449 17.4639L14.6569 23.2298C13.7022 24.7182 11.5307 24.7133 10.5807 23.2313L6.88662 17.4654C3.63643 18.2168 1.63281 19.5935 1.63281 21.2385C1.63281 24.0931 7.29336 25.6331 12.6191 25.6331C17.9449 25.6331 23.6055 24.0931 23.6055 21.2385C23.6055 19.5923 21.5991 18.2149 18.3449 17.4639Z" fill="#3A3A3A"/>
</g>
<defs>
<clipPath id="clip0_28_13268">
<rect width="25" height="25" fill="white" transform="translate(0.119141 0.632812)"/>
</clipPath>
</defs>
</svg>
