<svg width="26" height="26" viewBox="0 0 26 26" fill="none" xmlns="http://www.w3.org/2000/svg">
<path d="M4.96289 16.582H3.2793C2.96857 16.5823 2.67064 16.7058 2.45093 16.9255C2.23121 17.1453 2.10767 17.4432 2.10742 17.7539V22.8984C2.10767 23.2092 2.23121 23.5071 2.45093 23.7268C2.67064 23.9465 2.96857 24.0701 3.2793 24.0703H4.96289C5.27341 24.0694 5.57095 23.9456 5.79052 23.7261C6.01009 23.5065 6.13385 23.209 6.13477 22.8984V17.7539C6.13385 17.4434 6.01009 17.1458 5.79052 16.9263C5.57095 16.7067 5.27341 16.5829 4.96289 16.582Z" fill="#3A3A3A"/>
<path d="M10.627 11.9297H8.94336C8.63284 11.9306 8.33529 12.0543 8.11572 12.2739C7.89615 12.4935 7.77239 12.791 7.77148 13.1016V22.8984C7.77239 23.209 7.89615 23.5065 8.11572 23.7261C8.3353 23.9456 8.63284 24.0694 8.94336 24.0703H10.627C10.9377 24.0701 11.2356 23.9465 11.4553 23.7268C11.675 23.5071 11.7986 23.2092 11.7988 22.8984V13.1016C11.7986 12.7908 11.675 12.4929 11.4553 12.2732C11.2356 12.0535 10.9377 11.9299 10.627 11.9297Z" fill="#3A3A3A"/>
<path d="M16.2949 6.85156H14.6113C14.4574 6.85136 14.3049 6.88153 14.1626 6.94035C14.0204 6.99917 13.8911 7.08548 13.7822 7.19434C13.6734 7.3032 13.5871 7.43247 13.5282 7.57474C13.4694 7.71701 13.4392 7.86949 13.4395 8.02344V22.8984C13.4397 23.2092 13.5632 23.5071 13.783 23.7268C14.0027 23.9465 14.3006 24.0701 14.6113 24.0703H16.2949C16.6054 24.0694 16.903 23.9456 17.1226 23.7261C17.3421 23.5065 17.4659 23.209 17.4668 22.8984V8.02344C17.4666 7.71271 17.343 7.41478 17.1233 7.19507C16.9036 6.97535 16.6056 6.85181 16.2949 6.85156Z" fill="#3A3A3A"/>
<path d="M21.959 2.19531H20.2754C19.9649 2.19622 19.6673 2.31998 19.4478 2.53955C19.2282 2.75912 19.1044 3.05667 19.1035 3.36719V22.8984C19.1044 23.209 19.2282 23.5065 19.4478 23.7261C19.6673 23.9456 19.9649 24.0694 20.2754 24.0703H21.959C22.2697 24.0701 22.5676 23.9465 22.7874 23.7268C23.0071 23.5071 23.1306 23.2092 23.1309 22.8984V3.36719C23.1306 3.05646 23.0071 2.75853 22.7874 2.53881C22.5676 2.3191 22.2697 2.19555 21.959 2.19531Z" fill="#3A3A3A"/>
</svg>
