 <svg width="28" height="27" viewBox="0 0 28 27" fill="none" xmlns="http://www.w3.org/2000/svg">
                                    <path d="M5.43201 15.1287C5.43201 14.5274 5.19769 13.9841 4.82365 13.5693C5.19769 13.1545 5.43201 12.6112 5.43201 12.01C5.43201 10.7201 4.38276 9.6709 3.09296 9.6709H0.753906C0.753906 10.2694 0.753906 17.858 0.753906 17.4677H3.09296C4.38276 17.4677 5.43201 16.4185 5.43201 15.1287ZM2.31327 11.2303H3.09296C3.52314 11.2303 3.87264 11.5798 3.87264 12.01C3.87264 12.4401 3.52314 12.7896 3.09296 12.7896H2.31327V11.2303ZM2.31327 14.349H3.09296C3.52314 14.349 3.87264 14.6985 3.87264 15.1287C3.87264 15.5589 3.52314 15.9084 3.09296 15.9084H2.31327V14.349Z" fill="#1B1B1B"></path>
                                    <path d="M10.9125 12.01C10.9125 10.7201 9.86323 9.6709 8.57343 9.6709H6.23438C6.23438 10.2694 6.23438 17.858 6.23438 17.4677H7.79374V14.349H8.09148L9.78407 17.7342L11.179 17.0368L9.68749 14.0538C10.4134 13.6563 10.9125 12.8943 10.9125 12.01ZM7.79374 12.7896V11.2303H8.57343C9.00361 11.2303 9.35311 11.5798 9.35311 12.01C9.35311 12.4401 9.00361 12.7896 8.57343 12.7896H7.79374Z" fill="#1B1B1B"></path>
                                    <path d="M16.3695 17.4677C16.3695 16.8761 16.3695 11.746 16.3695 12.01C16.3695 10.7201 15.3203 9.6709 14.0305 9.6709C12.7407 9.6709 11.6914 10.7201 11.6914 12.01C11.6914 13.2672 11.6914 17.6279 11.6914 17.4677H13.2508V14.349H14.8101V17.4677H16.3695ZM13.2508 12.7896V12.01C13.2508 11.5798 13.6003 11.2303 14.0305 11.2303C14.4606 11.2303 14.8101 11.5798 14.8101 12.01V12.7896H13.2508Z" fill="#1B1B1B"></path>
                                    <path d="M25.028 9.6709H22.6055V17.4677H25.028C26.3178 17.4677 27.3671 16.4185 27.3671 15.1287V12.01C27.3671 10.7201 26.3178 9.6709 25.028 9.6709ZM25.8077 15.1287C25.8077 15.5589 25.4582 15.9084 25.028 15.9084H24.1648V11.2303H25.028C25.4582 11.2303 25.8077 11.5798 25.8077 12.01V15.1287Z" fill="#1B1B1B"></path>
                                    <path d="M19.658 17.4677H21.8265V9.6709H20.2672V13.4734L19.3169 9.6709H17.1484V17.4677H18.7078V13.6653L19.658 17.4677Z" fill="#1B1B1B"></path>
                                    <path d="M23.932 6.55175C23.9257 6.50523 23.9131 6.46011 23.9152 6.41167L23.9144 6.08275C23.9388 5.44543 23.6905 4.81805 23.2352 4.36422C22.7799 3.90737 22.1494 3.65917 21.5449 3.68277H21.168C20.8619 3.67518 20.5505 3.49773 20.4218 3.15586L20.2985 2.87336C20.0777 2.25964 19.6002 1.77161 19.0208 1.55002C18.4452 1.29725 17.7744 1.30411 17.182 1.56219L16.8516 1.70456C16.5432 1.83934 16.1975 1.77078 15.9523 1.50964L15.7315 1.29034C14.8848 0.346192 13.1443 0.376652 12.3555 1.25988L12.0874 1.52788C11.8613 1.77 11.5156 1.83856 11.2034 1.703L10.8814 1.5652C10.2829 1.30099 9.6106 1.29642 9.07075 1.53552C8.45781 1.77156 7.98038 2.25964 7.77709 2.8284L7.62251 3.19084C7.50753 3.49768 7.19992 3.70024 6.87178 3.68272L6.54285 3.6835C5.88958 3.6637 5.27893 3.9081 4.82433 4.36266C4.36748 4.81799 4.11928 5.44538 4.14288 6.05301L4.14366 6.44821C4.14517 6.48049 4.11616 6.5175 4.11195 6.55175H0.753906V8.11112C1.29662 8.11112 28.2326 8.11112 27.3671 8.11112V6.55175H23.932Z" fill="#1B1B1B"></path>
                                    <path d="M0.75479 19.0264V20.5857H4.12692C4.13321 20.6323 4.14584 20.6774 4.14377 20.7258L4.14455 21.0547C4.12017 21.6921 4.36842 22.3194 4.8237 22.7733C5.27904 23.2301 5.89577 23.4646 6.51406 23.4547H6.89096C7.15745 23.4471 7.50769 23.639 7.63711 23.9816L7.76046 24.2641C7.98127 24.8778 8.45869 25.3659 9.0381 25.5875C9.61299 25.8402 10.2845 25.8342 10.8769 25.5753L11.2073 25.4329C11.518 25.2981 11.8614 25.3667 12.1066 25.6279L12.3274 25.8471C12.7508 26.3192 13.3713 26.5895 14.0299 26.5895C14.6885 26.5895 15.3091 26.3192 15.7035 25.8776L15.9715 25.6096C16.1984 25.3675 16.5448 25.2982 16.8555 25.4345L17.1775 25.5723C17.7737 25.835 18.446 25.8396 18.9882 25.602C19.6011 25.3659 20.0785 24.8778 20.2818 24.3091L20.4364 23.9466C20.5514 23.6398 20.8361 23.4418 21.1871 23.4548L21.5161 23.454C22.18 23.492 22.7808 23.2301 23.2346 22.7748C23.6914 22.3195 23.9396 21.6921 23.916 21.0845L23.9153 20.6893C23.9137 20.657 23.9428 20.62 23.947 20.5857H27.368V19.0264C26.8253 19.0264 -0.110659 19.0264 0.75479 19.0264Z" fill="#1B1B1B"></path>
                                    </svg>
