<svg width="27" height="27" viewBox="0 0 27 27" fill="none" xmlns="http://www.w3.org/2000/svg">
                                    <path d="M4.53281 0.589844H8.43281C10.6428 0.589844 12.3328 2.27984 12.3328 4.48984V8.38984C12.3328 10.5998 10.6428 12.2898 8.43281 12.2898H4.53281C2.32281 12.2898 0.632812 10.5998 0.632812 8.38984V4.48984C0.632812 2.27984 2.32281 0.589844 4.53281 0.589844Z" fill="#3A3A3A"></path>
                                    <path d="M4.53281 14.8896H8.43281C10.6428 14.8896 12.3328 16.5796 12.3328 18.7896V22.6896C12.3328 24.8996 10.6428 26.5896 8.43281 26.5896H4.53281C2.32281 26.5896 0.632812 24.8996 0.632812 22.6896V18.7896C0.632812 16.7096 2.32281 14.8896 4.53281 14.8896Z" fill="#3A3A3A"></path>
                                    <path d="M18.8336 14.8896H22.7336C24.9436 14.8896 26.6336 16.5796 26.6336 18.7896V22.6896C26.6336 24.8996 24.9436 26.5896 22.7336 26.5896H18.8336C16.6236 26.5896 14.9336 24.8996 14.9336 22.6896V18.7896C14.9336 16.7096 16.7536 14.8896 18.8336 14.8896Z" fill="#3A3A3A"></path>
                                    <path d="M24.6837 7.35051H16.8838C16.3638 7.35051 15.8438 6.96051 15.8438 6.31051C15.8438 5.66051 16.2338 5.27051 16.8838 5.27051H24.6837C25.2037 5.27051 25.7237 5.66051 25.7237 6.31051C25.7237 6.96051 25.2037 7.35051 24.6837 7.35051Z" fill="#3A3A3A"></path>
                                    <path d="M20.7822 11.2491C20.2622 11.2491 19.7422 10.8591 19.7422 10.2091V2.40914C19.7422 1.88914 20.1322 1.36914 20.7822 1.36914C21.4322 1.36914 21.8222 1.75914 21.8222 2.40914V10.2091C21.8222 10.8591 21.3022 11.2491 20.7822 11.2491Z" fill="#3A3A3A"></path>
                                    </svg>
