<svg width="26" height="26" viewBox="0 0 26 26" fill="none" xmlns="http://www.w3.org/2000/svg">
<g clip-path="url(#clip0_28_13279)">
<path d="M21.8829 2.10352H19.677V4.3094C19.677 4.75057 19.3094 5.04469 18.9418 5.04469C18.5741 5.04469 18.2065 4.75057 18.2065 4.3094V2.10352H6.44175V4.3094C6.44175 4.75057 6.0741 5.04469 5.70646 5.04469C5.33881 5.04469 4.97116 4.75057 4.97116 4.3094V2.10352H2.76528C1.66234 2.10352 0.853516 3.0594 0.853516 4.3094V6.95646H24.3829V4.3094C24.3829 3.0594 23.0594 2.10352 21.8829 2.10352ZM0.853516 8.50057V21.9565C0.853516 23.28 1.66234 24.1623 2.83881 24.1623H21.9565C23.1329 24.1623 24.4565 23.2065 24.4565 21.9565V8.50057H0.853516ZM7.39763 20.8535H5.63293C5.33881 20.8535 5.04469 20.6329 5.04469 20.2653V18.427C5.04469 18.1329 5.26528 17.8388 5.63293 17.8388H7.47116C7.76528 17.8388 8.0594 18.0594 8.0594 18.427V20.2653C7.98587 20.6329 7.76528 20.8535 7.39763 20.8535ZM7.39763 14.2359H5.63293C5.33881 14.2359 5.04469 14.0153 5.04469 13.6476V11.8094C5.04469 11.5153 5.26528 11.2212 5.63293 11.2212H7.47116C7.76528 11.2212 8.0594 11.4418 8.0594 11.8094V13.6476C7.98587 14.0153 7.76528 14.2359 7.39763 14.2359ZM13.28 20.8535H11.4418C11.1476 20.8535 10.8535 20.6329 10.8535 20.2653V18.427C10.8535 18.1329 11.0741 17.8388 11.4418 17.8388H13.28C13.5741 17.8388 13.8682 18.0594 13.8682 18.427V20.2653C13.8682 20.6329 13.6476 20.8535 13.28 20.8535ZM13.28 14.2359H11.4418C11.1476 14.2359 10.8535 14.0153 10.8535 13.6476V11.8094C10.8535 11.5153 11.0741 11.2212 11.4418 11.2212H13.28C13.5741 11.2212 13.8682 11.4418 13.8682 11.8094V13.6476C13.8682 14.0153 13.6476 14.2359 13.28 14.2359ZM19.1623 20.8535H17.3241C17.03 20.8535 16.7359 20.6329 16.7359 20.2653V18.427C16.7359 18.1329 16.9565 17.8388 17.3241 17.8388H19.1623C19.4565 17.8388 19.7506 18.0594 19.7506 18.427V20.2653C19.7506 20.6329 19.53 20.8535 19.1623 20.8535ZM19.1623 14.2359H17.3241C17.03 14.2359 16.7359 14.0153 16.7359 13.6476V11.8094C16.7359 11.5153 16.9565 11.2212 17.3241 11.2212H19.1623C19.4565 11.2212 19.7506 11.4418 19.7506 11.8094V13.6476C19.7506 14.0153 19.53 14.2359 19.1623 14.2359Z" fill="#3A3A3A"/>
</g>
<defs>
<clipPath id="clip0_28_13279">
<rect width="25" height="25" fill="white" transform="translate(0.119141 0.632812)"/>
</clipPath>
</defs>
</svg>
