<svg width="26" height="27" viewBox="0 0 26 27" fill="none" xmlns="http://www.w3.org/2000/svg">
                                    <path fill-rule="evenodd" clip-rule="evenodd" d="M23.2917 13.5684V15.1934C23.2917 15.4924 23.049 15.735 22.75 15.735C22.451 15.735 22.2083 15.4924 22.2083 15.1934V13.5684H21.125V15.1934C21.125 15.4924 20.8823 15.735 20.5833 15.735C20.2843 15.735 20.0417 15.4924 20.0417 15.1934V13.5684H18.9583V15.1934C18.9583 15.4924 18.7157 15.735 18.4167 15.735C18.1177 15.735 17.875 15.4924 17.875 15.1934V13.5684H16.7917V15.1934C16.7917 15.4924 16.549 15.735 16.25 15.735C15.951 15.735 15.7083 15.4924 15.7083 15.1934V13.5684H14.625V15.1934C14.625 15.4924 14.3823 15.735 14.0833 15.735C13.7843 15.735 13.5417 15.4924 13.5417 15.1934V13.5684H12.4583V15.1934C12.4583 15.4924 12.2157 15.735 11.9167 15.735C11.6177 15.735 11.375 15.4924 11.375 15.1934V13.5684H10.2917V15.1934C10.2917 15.4924 10.049 15.735 9.75 15.735C9.451 15.735 9.20833 15.4924 9.20833 15.1934V13.5684H8.125V15.1934C8.125 15.4924 7.88233 15.735 7.58333 15.735C7.28433 15.735 7.04167 15.4924 7.04167 15.1934V13.5684H5.95833V15.1934C5.95833 15.4924 5.71567 15.735 5.41667 15.735C5.11767 15.735 4.875 15.4924 4.875 15.1934V13.5684H3.79167V15.1934C3.79167 15.4924 3.549 15.735 3.25 15.735C2.951 15.735 2.70833 15.4924 2.70833 15.1934V13.5684H2.16667C1.86767 13.5684 1.625 13.811 1.625 14.11V18.4434C1.625 18.7424 1.86767 18.985 2.16667 18.985H23.8333C24.1323 18.985 24.375 18.7424 24.375 18.4434V14.11C24.375 13.811 24.1323 13.5684 23.8333 13.5684H23.2917Z" fill="black"></path>
                                    <path fill-rule="evenodd" clip-rule="evenodd" d="M3.47439 10.3181H22.5259L21.2838 11.5601C21.0726 11.7714 21.0726 12.1148 21.2838 12.326C21.4951 12.5373 21.8385 12.5373 22.0498 12.326L24.2164 10.1594C24.4282 9.94813 24.4282 9.60471 24.2164 9.39346L22.0498 7.2268C21.8385 7.01555 21.4951 7.01555 21.2838 7.2268C21.0726 7.43805 21.0726 7.78146 21.2838 7.99271L22.5259 9.23476H3.47439L4.71643 7.99271C4.92768 7.78146 4.92768 7.43805 4.71643 7.2268C4.50518 7.01555 4.16176 7.01555 3.95051 7.2268L1.78384 9.39346C1.57205 9.60471 1.57205 9.94813 1.78384 10.1594L3.95051 12.326C4.16176 12.5373 4.50518 12.5373 4.71643 12.326C4.92768 12.1148 4.92768 11.7714 4.71643 11.5601L3.47439 10.3181Z" fill="black"></path>
                                    </svg>
