<svg width="26" height="26" viewBox="0 0 26 26" fill="none" xmlns="http://www.w3.org/2000/svg">
<g clip-path="url(#clip0_28_13249)">
<path d="M20.3364 7.9407L16.2091 7.34095L14.3632 3.60096C13.6506 2.15673 11.589 2.15619 10.876 3.60091L9.03017 7.34095L4.90278 7.9407C3.30904 8.17224 2.67159 10.1326 3.8252 11.2572L6.81181 14.1685L6.10679 18.2791C5.83452 19.8663 7.5018 21.0785 8.92802 20.3289L12.6196 18.388L16.3113 20.3289C17.7392 21.0794 19.4041 19.8627 19.1324 18.2791L18.4274 14.1685L21.414 11.2572C22.5672 10.133 21.9308 8.17239 20.3364 7.9407Z" fill="#3A3A3A"/>
<path d="M6.69749 2.93492L5.70086 1.56324C5.4303 1.19097 4.90916 1.1084 4.5369 1.37896C4.16458 1.64947 4.08206 2.17061 4.35257 2.54292L5.3492 3.9146C5.6199 4.28706 6.14109 4.36934 6.51316 4.09888C6.88547 3.82842 6.96799 3.30723 6.69749 2.93492Z" fill="#3A3A3A"/>
<path d="M3.39046 15.2274C3.24822 14.7898 2.7782 14.5501 2.34041 14.6924L0.695149 15.2271C0.257454 15.3692 0.0179526 15.8394 0.16014 16.2771C0.30262 16.7156 0.773615 16.9542 1.21019 16.8121L2.8555 16.2775C3.29319 16.1354 3.53269 15.6652 3.39046 15.2274Z" fill="#3A3A3A"/>
<path d="M20.7007 1.37897C20.3284 1.10842 19.8073 1.19094 19.5367 1.56325L18.5401 2.93493C18.2695 3.30724 18.3521 3.82843 18.7244 4.09889C19.0969 4.3695 19.6179 4.28678 19.8884 3.91461L20.885 2.54294C21.1556 2.17062 21.073 1.64948 20.7007 1.37897Z" fill="#3A3A3A"/>
<path d="M24.543 15.2271L22.8977 14.6925C22.46 14.55 21.9899 14.7898 21.8477 15.2275C21.7054 15.6652 21.9449 16.1353 22.3827 16.2775L24.028 16.8122C24.4648 16.9542 24.9356 16.7154 25.078 16.2771C25.2202 15.8394 24.9807 15.3693 24.543 15.2271Z" fill="#3A3A3A"/>
<path d="M12.6185 21.6875C12.1583 21.6875 11.7852 22.0606 11.7852 22.5208V24.2121C11.7852 24.6723 12.1583 25.0454 12.6185 25.0454C13.0787 25.0454 13.4518 24.6723 13.4518 24.2121V22.5208C13.4518 22.0606 13.0787 21.6875 12.6185 21.6875Z" fill="#3A3A3A"/>
</g>
<defs>
<clipPath id="clip0_28_13249">
<rect width="25" height="25" fill="white" transform="translate(0.119141 0.632812)"/>
</clipPath>
</defs>
</svg>
