<svg width="26" height="26" viewBox="0 0 26 26" fill="none" xmlns="http://www.w3.org/2000/svg">
<path d="M14.1963 0.632812H12.7305V3.41757H14.1963V0.632812Z" fill="#3A3A3A"/>
<path d="M16.331 1.11061L15.373 3.72559L16.7491 4.22969L17.7071 1.61472L16.331 1.11061Z" fill="#3A3A3A"/>
<path d="M10.5967 1.10722L9.2207 1.61133L10.1787 4.2263L11.5547 3.7222L10.5967 1.10722Z" fill="#3A3A3A"/>
<path d="M20.1879 6.98511H14.6875L15.8609 9.17321H21.3613L20.1879 6.98511Z" fill="#3A3A3A"/>
<path d="M6.73983 6.98511L5.56641 9.17321H11.0668L12.2402 6.98511H6.73983Z" fill="#3A3A3A"/>
<path d="M14.9859 10.6352L13.465 7.79883L11.9442 10.6352H6.49414V14.0569C7.12922 13.716 8.11509 13.3862 9.55141 13.3862C11.125 13.3862 12.1299 13.817 12.7323 14.2303C12.934 14.3691 13.0909 14.5064 13.2086 14.6241H16.1652C16.963 14.6241 17.667 15.0364 18.0739 15.6588L20.435 14.033C20.4355 14.0325 20.4355 14.0325 20.436 14.032V10.6352H14.9859Z" fill="#3A3A3A"/>
<path d="M24.0796 13.2088C23.0014 13.3412 21.8744 14.5562 21.5309 15.0129L21.4591 15.1087L20.4371 15.8127L18.4283 17.1962C18.4175 17.2817 18.4019 17.3662 18.3813 17.4488C18.1376 18.4454 17.2367 19.1865 16.1663 19.1865H11.2414V17.7209H16.1663C16.4076 17.7209 16.6246 17.6158 16.7736 17.4487C16.9095 17.2969 16.9895 17.0935 16.9805 16.8723C16.9626 16.4314 16.5839 16.0906 16.1426 16.0906H12.4471L12.259 15.7579C12.1862 15.6617 11.5131 14.8527 9.55255 14.8527C9.14379 14.8527 8.78631 14.8843 8.47551 14.9353C7.7857 15.0487 7.14285 15.3576 6.61076 15.811L6.49532 15.9094L6.11914 16.2939L9.37574 22.3492H16.9167L21.8075 18.7775L25.1085 13.4955C24.7871 13.2537 24.4582 13.1628 24.0796 13.2088Z" fill="#3A3A3A"/>
<path d="M3.89113 15.2512L0.130859 17.2147L4.52621 25.6331L8.38956 23.6164L3.89113 15.2512Z" fill="#3A3A3A"/>
</svg>
