<svg width="26" height="26" viewBox="0 0 26 26" fill="none" xmlns="http://www.w3.org/2000/svg">
<g clip-path="url(#clip0_28_13275)">
<path d="M12.6191 0.632812C5.72695 0.632812 0.119141 6.24063 0.119141 13.1328C0.119141 20.025 5.72695 25.6328 12.6191 25.6328C19.5113 25.6328 25.1191 20.025 25.1191 13.1328C25.1191 6.24063 19.5113 0.632812 12.6191 0.632812ZM12.6191 16.2578C13.1973 16.2578 13.7316 16.0891 14.1957 15.8141L16.4301 18.0484C15.3738 18.8734 14.0613 19.3828 12.6191 19.3828C9.17227 19.3828 6.36914 16.5797 6.36914 13.1328C6.36914 9.68594 9.17227 6.88281 12.6191 6.88281C14.0613 6.88281 15.3723 7.39375 16.4316 8.21563L14.1957 10.45C13.7316 10.1766 13.1973 10.0078 12.6191 10.0078C10.8957 10.0078 9.49414 11.4094 9.49414 13.1328C9.49414 14.8562 10.8957 16.2578 12.6191 16.2578ZM12.6191 5.32031C8.31133 5.32031 4.80664 8.825 4.80664 13.1328C4.80664 17.4406 8.31133 20.9453 12.6191 20.9453C14.491 20.9453 16.1879 20.2563 17.5348 19.1547L19.7691 21.3891C17.8504 23.0547 15.3535 24.0703 12.6191 24.0703C6.58789 24.0703 1.68164 19.1625 1.68164 13.1328C1.68164 7.10156 6.58789 2.19531 12.6191 2.19531C15.3535 2.19531 17.8504 3.21094 19.7707 4.87656L17.5348 7.11094C16.1879 6.00938 14.491 5.32031 12.6191 5.32031Z" fill="#3A3A3A"/>
</g>
<defs>
<clipPath id="clip0_28_13275">
<rect width="25" height="25" fill="white" transform="translate(0.119141 0.632812)"/>
</clipPath>
</defs>
</svg>
