<svg width="20" height="20" viewBox="0 0 20 20" fill="none" xmlns="http://www.w3.org/2000/svg">
<path d="M14.7261 0H5.27328C2.36561 0 0 2.36558 0 5.27322V6.44477C0 7.41377 0.788324 8.20272 1.75797 8.20272H4.10172C5.07073 8.20272 5.8597 7.41441 5.8597 6.44477V5.27322C5.8597 4.95044 6.12269 4.68745 6.44547 4.68745H13.5545C13.8773 4.68745 14.1403 4.95044 14.1403 5.27322V6.44477C14.1403 7.41377 14.9286 8.20272 15.8983 8.20272H18.242C19.211 8.20272 20 7.41441 20 6.44477V5.27322C19.9994 2.36558 17.6337 0 14.7261 0ZM4.6875 6.44541C4.6875 6.76819 4.42451 7.03119 4.10172 7.03119H1.75797C1.43519 7.03119 1.1722 6.76819 1.1722 6.44541V5.85964H4.6875V6.44541ZM13.5545 3.51591H6.44547C5.68159 3.51591 5.03022 4.00588 4.78845 4.68745H1.21463C1.49949 2.70252 3.21116 1.17218 5.27392 1.17218H14.7267C16.7895 1.17218 18.5012 2.70252 18.786 4.68745H15.2122C14.9698 4.00588 14.3184 3.51591 13.5545 3.51591ZM18.8278 6.44541C18.8278 6.76819 18.5648 7.03119 18.242 7.03119H15.8983C15.5755 7.03119 15.3125 6.76819 15.3125 6.44541V5.85964H18.8278V6.44541Z" fill="#DEE0E3"/>
<path d="M18.6037 16.4148C15.4118 8.65577 15.6035 9.1123 15.57 9.05636C15.2543 8.52975 14.6762 8.20311 14.0628 8.20311H12.9684V7.61734C12.9684 6.64834 12.1801 5.85938 11.2105 5.85938H8.7889C7.81989 5.85938 7.03093 6.6477 7.03093 7.61734V8.20311H5.93654C5.17779 8.20311 4.56051 8.72008 4.39011 9.13481L1.39629 16.4129C1.24711 16.7711 1.17188 17.1498 1.17188 17.5375V18.2416C1.17188 19.2106 1.9602 19.9995 2.92985 19.9995H17.0702C18.0392 19.9995 18.8281 19.2112 18.8281 18.2416V17.5375C18.8275 17.1491 18.7516 16.7711 18.6037 16.4148ZM8.20248 7.61669C8.20248 7.29391 8.46547 7.03092 8.78826 7.03092H11.2098C11.5326 7.03092 11.7956 7.29391 11.7956 7.61669V8.20246H8.20184L8.20248 7.61669ZM17.6553 18.2409C17.6553 18.5637 17.3923 18.8267 17.0695 18.8267H2.92985C2.60706 18.8267 2.34407 18.5637 2.34407 18.2409V17.5369C2.34407 17.3041 2.38973 17.0771 2.47975 16.8598L5.45493 9.62799C5.56359 9.47046 5.74492 9.37401 5.93718 9.37401C6.11722 9.37401 13.6185 9.37401 14.0628 9.37401C14.2551 9.37401 14.4371 9.47046 14.5451 9.62799L17.5209 16.8624C17.6103 17.0771 17.6553 17.3041 17.6553 17.5369V18.2409Z" fill="#DEE0E3"/>
<path d="M10.0387 10.5469C8.10008 10.5469 6.52344 12.1241 6.52344 14.0621C6.52344 16.0008 8.10072 17.5774 10.0387 17.5774C11.9774 17.5774 13.554 16.0001 13.554 14.0621C13.554 12.1241 11.9768 10.5469 10.0387 10.5469ZM10.0387 16.4059C8.7463 16.4059 7.69499 15.3546 7.69499 14.0621C7.69499 12.7697 8.7463 11.7184 10.0387 11.7184C11.3312 11.7184 12.3825 12.7697 12.3825 14.0621C12.3818 15.3546 11.3305 16.4059 10.0387 16.4059Z" fill="#DEE0E3"/>
<path d="M10.0387 12.8906C9.39252 12.8906 8.86719 13.4166 8.86719 14.0622C8.86719 14.7084 9.39316 15.2337 10.0387 15.2337C10.685 15.2337 11.2103 14.7077 11.2103 14.0622C11.2103 13.4166 10.6843 12.8906 10.0387 12.8906Z" fill="#DEE0E3"/>
</svg>
