<svg width="57" height="45" viewBox="0 0 57 45" fill="none" xmlns="http://www.w3.org/2000/svg">
<path d="M47.4023 15.4413C44.8141 5.13075 34.3578 -1.12941 24.0472 1.45877C15.9898 3.48144 10.1392 10.4454 9.5364 18.7308C3.81529 19.6743 -0.0578042 25.0769 0.885671 30.798C1.72438 35.8842 6.13149 39.609 11.2862 39.5885H20.0352V36.0889H11.2862C7.42066 36.0889 4.28697 32.9552 4.28697 29.0897C4.28697 25.2241 7.42066 22.0904 11.2862 22.0904C12.2526 22.0904 13.036 21.3071 13.036 20.3406C13.0273 11.6431 20.071 4.58524 28.7685 4.5766C36.2975 4.56906 42.7787 9.89176 44.2351 17.2785C44.3789 18.016 44.9775 18.5794 45.7224 18.6783C50.5062 19.3595 53.8318 23.7897 53.1507 28.5734C52.539 32.8689 48.8714 36.0673 44.5326 36.0889H37.5333V39.5885H44.5326C51.2973 39.5681 56.7646 34.0675 56.744 27.3028C56.727 21.6717 52.8726 16.7776 47.4023 15.4413Z" fill="#DEE0E3"/>
<path d="M27.5422 22.5987L20.543 29.5979L23.0102 32.0652L27.0348 28.0581V44.8388H30.5344V28.0581L34.5414 32.0652L37.0087 29.5979L30.0094 22.5987C29.3269 21.9202 28.2247 21.9202 27.5422 22.5987Z" fill="#DEE0E3"/>
</svg>
