<svg width="19" height="13" viewBox="0 0 19 13" fill="none" xmlns="http://www.w3.org/2000/svg">
<path d="M18.9873 0.352539H0.487305V12.686H18.9873V0.352539Z" fill="#F0F0F0"/>
<path d="M18.9873 1.8916H0.487305V3.43314H18.9873V1.8916Z" fill="#D80027"/>
<path d="M18.9873 4.97363H0.487305V6.51517H18.9873V4.97363Z" fill="#D80027"/>
<path d="M18.9873 8.05566H0.487305V9.5972H18.9873V8.05566Z" fill="#D80027"/>
<path d="M18.9873 11.1416H0.487305V12.6831H18.9873V11.1416Z" fill="#D80027"/>
<path d="M9.7373 0.352539H0.487305V6.99364H9.7373V0.352539Z" fill="#2E52B2"/>
<path d="M4.09471 3.0752L3.94573 3.5335H3.46387L3.85378 3.81661L3.7048 4.27488L4.09471 3.99178L4.48437 4.27488L4.33543 3.81661L4.72534 3.5335H4.24343L4.09471 3.0752Z" fill="#F0F0F0"/>
<path d="M4.24343 5.18581L4.09471 4.72754L3.94573 5.18581H3.46387L3.85378 5.46895L3.7048 5.92722L4.09471 5.64408L4.48437 5.92722L4.33543 5.46895L4.72534 5.18581H4.24343Z" fill="#F0F0F0"/>
<path d="M2.20636 5.18581L2.0576 4.72754L1.90863 5.18581H1.42676L1.81667 5.46895L1.66769 5.92722L2.0576 5.64408L2.44729 5.92722L2.29835 5.46895L2.68819 5.18581H2.20636Z" fill="#F0F0F0"/>
<path d="M2.0576 3.0752L1.90863 3.5335H1.42676L1.81667 3.81661L1.66769 4.27488L2.0576 3.99178L2.44729 4.27488L2.29835 3.81661L2.68819 3.5335H2.20636L2.0576 3.0752Z" fill="#F0F0F0"/>
<path d="M4.09471 1.41895L3.94573 1.87729H3.46387L3.85378 2.16043L3.7048 2.6187L4.09471 2.33556L4.48437 2.6187L4.33543 2.16043L4.72534 1.87729H4.24343L4.09471 1.41895Z" fill="#F0F0F0"/>
<path d="M2.0576 1.41895L1.90863 1.87729H1.42676L1.81667 2.16043L1.66769 2.6187L2.0576 2.33556L2.44729 2.6187L2.29835 2.16043L2.68819 1.87729H2.20636L2.0576 1.41895Z" fill="#F0F0F0"/>
<path d="M6.13081 3.0752L5.98187 3.5335H5.5L5.88987 3.81661L5.74097 4.27488L6.13081 3.99178L6.52053 4.27488L6.37156 3.81661L6.76147 3.5335H6.2796L6.13081 3.0752Z" fill="#F0F0F0"/>
<path d="M6.2796 5.18581L6.13081 4.72754L5.98187 5.18581H5.5L5.88987 5.46895L5.74097 5.92722L6.13081 5.64408L6.52053 5.92722L6.37156 5.46895L6.76147 5.18581H6.2796Z" fill="#F0F0F0"/>
<path d="M8.31667 5.18581L8.16792 4.72754L8.01894 5.18581H7.53711L7.92695 5.46895L7.77801 5.92722L8.16792 5.64408L8.55761 5.92722L8.40863 5.46895L8.79854 5.18581H8.31667Z" fill="#F0F0F0"/>
<path d="M8.16792 3.0752L8.01894 3.5335H7.53711L7.92695 3.81661L7.77801 4.27488L8.16792 3.99178L8.55761 4.27488L8.40863 3.81661L8.79854 3.5335H8.31667L8.16792 3.0752Z" fill="#F0F0F0"/>
<path d="M6.13081 1.41895L5.98187 1.87729H5.5L5.88987 2.16043L5.74097 2.6187L6.13081 2.33556L6.52053 2.6187L6.37156 2.16043L6.76147 1.87729H6.2796L6.13081 1.41895Z" fill="#F0F0F0"/>
<path d="M8.16792 1.41895L8.01894 1.87729H7.53711L7.92695 2.16043L7.77801 2.6187L8.16792 2.33556L8.55761 2.6187L8.40863 2.16043L8.79854 1.87729H8.31667L8.16792 1.41895Z" fill="#F0F0F0"/>
</svg>
