<svg width="18" height="18" viewBox="0 0 18 18" fill="none" xmlns="http://www.w3.org/2000/svg">
<path id="Vector" d="M18 16.9808C18 17.4099 17.6525 17.7578 17.223 17.7578C16.7935 17.7578 16.446 17.4099 16.446 16.9808C16.446 14.239 14.8676 11.8116 12.4072 10.6637C11.5557 11.2171 10.5427 11.5419 9.45388 11.5419C8.36091 11.5419 7.34405 11.2149 6.49057 10.6576C5.75607 11.0044 5.0754 11.4709 4.50893 12.037C3.1879 13.3584 2.46023 15.1142 2.46023 16.9808C2.46023 17.4099 2.11271 17.7578 1.68324 17.7578C1.25377 17.7578 0.90625 17.4099 0.90625 16.9808C0.90625 14.6992 1.79554 12.5534 3.41022 10.9383C3.95051 10.3977 4.57845 9.9342 5.25215 9.55206C4.47967 8.61274 4.01496 7.41121 4.01496 6.10298C4.01496 3.10391 6.45519 0.664062 9.45388 0.664062C12.4526 0.664062 14.8928 3.10391 14.8928 6.10298C14.8928 7.40803 14.43 8.60662 13.6609 9.54494C16.3282 11.0467 18 13.8525 18 16.9808ZM9.45388 2.21804C7.31185 2.21804 5.56894 3.96095 5.56894 6.10298C5.56894 8.24501 7.31185 9.98793 9.45388 9.98793C11.5959 9.98793 13.3388 8.24501 13.3388 6.10298C13.3388 3.96095 11.5959 2.21804 9.45388 2.21804Z" fill="#1B1B1B"/>
</svg>
