<svg width="15" height="14" viewBox="0 0 15 14" fill="none" xmlns="http://www.w3.org/2000/svg">
<path d="M0.904297 13.1855C0.904297 13.5242 1.1786 13.7988 1.51758 13.7988C1.85656 13.7988 2.13086 13.5242 2.13086 13.1855C2.13086 11.0214 3.37674 9.10545 5.31873 8.19942C5.99082 8.63617 6.79036 8.89258 7.64979 8.89258C8.51248 8.89258 9.31509 8.63445 9.98875 8.19463C10.5685 8.46829 11.1058 8.83651 11.5529 9.28337C12.5956 10.3264 13.1699 11.7122 13.1699 13.1855C13.1699 13.5242 13.4442 13.7988 13.7832 13.7988C14.1222 13.7988 14.3965 13.5242 14.3965 13.1855C14.3965 11.3846 13.6946 9.69092 12.4201 8.41615C11.9936 7.98946 11.498 7.62361 10.9662 7.32198C11.576 6.58057 11.9428 5.6322 11.9428 4.59961C11.9428 2.23243 10.0167 0.306641 7.64979 0.306641C5.28291 0.306641 3.35682 2.23243 3.35682 4.59961C3.35682 5.62969 3.72212 6.57574 4.32915 7.31637C2.22388 8.50168 0.904297 10.7164 0.904297 13.1855ZM7.64979 1.5332C9.34051 1.5332 10.7162 2.90889 10.7162 4.59961C10.7162 6.29033 9.34051 7.66602 7.64979 7.66602C5.95908 7.66602 4.58339 6.29033 4.58339 4.59961C4.58339 2.90889 5.95908 1.5332 7.64979 1.5332Z" fill="#606060"/>
</svg>
