<svg width="49" height="49" viewBox="0 0 49 49" fill="none" xmlns="http://www.w3.org/2000/svg">
<g clip-path="url(#clip0_893_2154)">
<path opacity="0.7" d="M30.0512 42.7467C30.1916 41.6753 30.5793 40.6511 31.1834 39.7551C31.1977 39.7291 31.2106 39.7023 31.2216 39.6748C44.1631 32.0813 44.9363 15.4885 44.9427 15.3043C44.9566 14.9325 44.7121 14.6003 44.3528 14.5032C42.8404 14.0865 41.4016 13.4387 40.087 12.5828C40.2776 11.7096 39.9665 10.8029 39.28 10.2307C38.5935 9.65844 37.6456 9.51575 36.821 9.86056C35.8877 8.86916 35.0583 7.78494 34.3458 6.62469C34.3325 6.60322 34.3185 6.5825 34.3037 6.56216C33.7613 5.70106 33.2963 4.79366 32.914 3.85053C32.6097 1.81072 28.2324 0.875 24.1435 0.875C20.0546 0.875 15.6773 1.81072 15.373 3.85053C14.9907 4.79366 14.5257 5.70106 13.9833 6.56216C13.9685 6.5825 13.9545 6.60322 13.9412 6.62469C13.2287 7.78494 12.3992 8.86916 11.466 9.86056C10.6413 9.51313 9.69175 9.65469 9.00447 10.2277C8.31709 10.8006 8.00678 11.7091 8.2 12.5829C6.88544 13.4388 5.44647 14.0865 3.93419 14.5033C3.57503 14.6004 3.33044 14.9326 3.34431 15.3044C3.35078 15.4886 4.12384 32.0803 17.0654 39.6748C17.0765 39.7024 17.0893 39.7292 17.1036 39.7552C17.7035 40.6531 18.0893 41.6768 18.2313 42.7473C13.1326 43.2229 10.5435 44.2062 10.5435 45.6751C10.5435 48.7207 21.8724 48.875 24.1435 48.875C26.4146 48.875 37.7435 48.7207 37.7435 45.675C37.7435 44.2056 35.1529 43.2222 30.0512 42.7467ZM37.7435 11.275C38.1852 11.2754 38.5431 11.6333 38.5435 12.0749C38.5435 12.5168 38.1854 12.8749 37.7435 12.8749C37.3017 12.8749 36.9436 12.5168 36.9436 12.0749C36.9436 11.6331 37.3017 11.275 37.7435 11.275ZM36.1435 14.875C36.1435 15.5377 35.6062 16.075 34.9435 16.075C34.2811 16.0742 33.7442 15.5374 33.7435 14.875C33.7435 14.2122 34.2808 13.675 34.9435 13.675C35.6062 13.675 36.1435 14.2122 36.1435 14.875ZM24.1435 2.47503C28.781 2.47503 31.1794 3.62225 31.3412 4.07506C31.1794 4.52778 28.781 5.675 24.1435 5.675C19.4638 5.675 17.0646 4.50697 16.9419 4.08706C17.0646 3.64297 19.4638 2.47503 24.1435 2.47503ZM15.2779 7.50622L15.3107 7.45737V7.45775C15.7415 6.7655 16.073 6.14731 16.3219 5.64341C16.7651 5.94434 17.2463 6.18509 17.753 6.35909C17.8087 6.38647 17.8675 6.407 17.9282 6.42031C19.9438 7.02284 22.0402 7.31112 24.1436 7.27484C26.2472 7.31103 28.3439 7.02275 30.3596 6.42003C30.4192 6.40681 30.4771 6.38656 30.532 6.35975C31.0394 6.18566 31.5213 5.94472 31.9652 5.64331C32.2141 6.14712 32.5457 6.76541 32.9763 7.45766V7.45728L33.0092 7.50613C33.769 8.7365 34.6509 9.88728 35.6415 10.9409C35.4487 11.288 35.3463 11.678 35.3436 12.0749C35.3436 12.0889 35.3476 12.1018 35.3477 12.1158C35.2142 12.0923 35.0792 12.0786 34.9437 12.0749C33.5092 12.0795 32.3114 13.1697 32.1718 14.5973C31.9023 14.5199 31.6239 14.4789 31.3437 14.4749C29.7955 14.4781 28.4717 15.5894 28.2004 17.1137C26.748 16.5494 25.0973 17.0078 24.1437 18.2401C23.4677 17.3816 22.4365 16.8788 21.3437 16.8749C20.9138 16.878 20.488 16.9589 20.0869 17.1137C19.8156 15.5894 18.4919 14.4782 16.9437 14.4749C16.6635 14.4788 16.3849 14.5199 16.1156 14.5973C15.9761 13.1697 14.7782 12.0796 13.3437 12.0749C13.2081 12.0786 13.0731 12.0923 12.9396 12.1158C12.9398 12.1019 12.9437 12.089 12.9437 12.0749C12.941 11.678 12.8386 11.288 12.6459 10.9409C13.6362 9.88737 14.5181 8.73669 15.2779 7.50622ZM32.9435 17.675C32.9435 18.5587 32.2272 19.275 31.3435 19.275C30.4603 19.274 29.7445 18.5583 29.7435 17.675C29.7435 16.7913 30.4598 16.075 31.3435 16.075C32.2272 16.075 32.9435 16.7913 32.9435 17.675ZM28.9435 20.475C28.9435 21.5796 28.0481 22.475 26.9435 22.475C25.839 22.475 24.9436 21.5796 24.9436 20.475C24.9447 19.3709 25.8394 18.4762 26.9435 18.4751C28.0481 18.475 28.9435 19.3705 28.9435 20.475ZM23.3435 20.475C23.3435 21.5796 22.4481 22.475 21.3436 22.475C20.239 22.475 19.3436 21.5796 19.3436 20.475C19.3447 19.3709 20.2395 18.4762 21.3436 18.4751C22.4481 18.475 23.3435 19.3705 23.3435 20.475ZM18.5435 17.675C18.5435 18.5587 17.8272 19.275 16.9435 19.275C16.0598 19.275 15.3435 18.5587 15.3435 17.675C15.3445 16.7918 16.0603 16.076 16.9435 16.075C17.8272 16.075 18.5435 16.7913 18.5435 17.675ZM13.3435 13.675C14.0062 13.675 14.5435 14.2122 14.5435 14.875C14.5435 15.5377 14.0062 16.075 13.3435 16.075C12.6808 16.075 12.1435 15.5377 12.1435 14.875C12.1442 14.2125 12.6811 13.6757 13.3435 13.675ZM10.5435 11.275C10.9853 11.275 11.3434 11.6331 11.3434 12.0749C11.3434 12.5168 10.9853 12.8749 10.5435 12.8749C10.1016 12.8749 9.7435 12.5168 9.7435 12.0749C9.74397 11.6334 10.1019 11.2754 10.5435 11.275ZM4.98878 15.8609C6.42259 15.4048 7.78891 14.7586 9.05106 13.9396C9.47256 14.2837 9.99934 14.4727 10.5435 14.475C10.5575 14.475 10.5704 14.4711 10.5842 14.4709C10.5608 14.6044 10.5471 14.7395 10.5435 14.8751C10.5453 16.4207 11.7978 17.6732 13.3435 17.6751C13.4791 17.6714 13.6141 17.6577 13.7476 17.6342C13.7474 17.6482 13.7434 17.661 13.7434 17.6751C13.7453 19.4416 15.1769 20.8732 16.9434 20.8751C17.2236 20.8712 17.5022 20.8301 17.7715 20.7527C17.8747 22.2261 18.874 23.4839 20.2859 23.9176C21.6977 24.3513 23.2308 23.8712 24.1433 22.7098C25.0558 23.8712 26.5889 24.3512 28.0007 23.9176C29.4126 23.4839 30.412 22.2261 30.5151 20.7527C30.7846 20.8301 31.063 20.8711 31.3432 20.8751C33.1097 20.8732 34.5413 19.4416 34.5432 17.6751C34.5432 17.661 34.5392 17.6482 34.5391 17.6342C34.6726 17.6577 34.8077 17.6714 34.9431 17.6751C36.4888 17.6732 37.7413 16.4207 37.7432 14.8751C37.7395 14.7395 37.7258 14.6044 37.7024 14.4709C37.7162 14.4712 37.7291 14.475 37.7432 14.475C38.2873 14.4727 38.8142 14.2837 39.2357 13.9396C40.498 14.7588 41.8645 15.405 43.2987 15.861C42.9963 19.1962 40.7987 35.1059 26.2878 40.1997C24.8993 40.682 23.3889 40.6823 22.0003 40.2006C7.50915 35.1133 5.29506 19.1973 4.98878 15.8609ZM24.1435 47.275C17.1795 47.275 13.1732 46.2933 12.2708 45.6789C12.7766 45.3476 14.435 44.7218 18.2557 44.3518C18.217 44.726 18.1465 45.0962 18.0451 45.4586C17.9666 45.7342 18.0415 46.0306 18.2414 46.2359C18.4412 46.4412 18.7357 46.5239 19.0133 46.4528C19.2909 46.3816 19.5092 46.1675 19.5857 45.8914C20.0464 44.2442 19.9908 42.4954 19.4263 40.8809C20.0844 41.1776 20.7594 41.4603 21.4725 41.7105C23.2032 42.3108 25.0857 42.3105 26.8162 41.7098C27.5287 41.4597 28.2032 41.1771 28.8609 40.8808C28.2962 42.4954 28.2406 44.2442 28.7013 45.8914C28.7778 46.1675 28.9962 46.3817 29.2738 46.4528C29.5514 46.5239 29.8457 46.4412 30.0457 46.2359C30.2456 46.0306 30.3205 45.7342 30.242 45.4586C30.1404 45.0962 30.0694 44.7259 30.0299 44.3517C33.8516 44.7216 35.5103 45.3475 36.0162 45.6789C35.1138 46.2934 31.1075 47.275 24.1435 47.275Z" fill="black"/>
</g>
<defs>
<clipPath id="clip0_893_2154">
<rect width="48" height="48" fill="white" transform="translate(0.143555 0.875)"/>
</clipPath>
</defs>
</svg>
