<svg width="15" height="18" viewBox="0 0 15 18" fill="none" xmlns="http://www.w3.org/2000/svg">
<path d="M4.91406 9.6875H3.58594C3.32031 9.6875 3.1875 9.55469 3.1875 9.28906V7.96094C3.1875 7.69531 3.32031 7.5625 3.58594 7.5625H4.91406C5.17969 7.5625 5.3125 7.69531 5.3125 7.96094V9.28906C5.3125 9.55469 5.17969 9.6875 4.91406 9.6875ZM8.5 9.28906C8.5 9.55469 8.36719 9.6875 8.10156 9.6875H6.77344C6.50781 9.6875 6.375 9.55469 6.375 9.28906V7.96094C6.375 7.69531 6.50781 7.5625 6.77344 7.5625H8.10156C8.36719 7.5625 8.5 7.69531 8.5 7.96094V9.28906ZM11.6875 9.28906C11.6875 9.55469 11.5547 9.6875 11.2891 9.6875H9.96094C9.69531 9.6875 9.5625 9.55469 9.5625 9.28906V7.96094C9.5625 7.69531 9.69531 7.5625 9.96094 7.5625H11.2891C11.5547 7.5625 11.6875 7.69531 11.6875 7.96094V9.28906ZM8.5 12.4766C8.5 12.7422 8.36719 12.875 8.10156 12.875H6.77344C6.50781 12.875 6.375 12.7422 6.375 12.4766V11.1484C6.375 10.8828 6.50781 10.75 6.77344 10.75H8.10156C8.36719 10.75 8.5 10.8828 8.5 11.1484V12.4766ZM5.3125 12.4766C5.3125 12.7422 5.17969 12.875 4.91406 12.875H3.58594C3.32031 12.875 3.1875 12.7422 3.1875 12.4766V11.1484C3.1875 10.8828 3.32031 10.75 3.58594 10.75H4.91406C5.17969 10.75 5.3125 10.8828 5.3125 11.1484V12.4766ZM11.6875 12.4766C11.6875 12.7422 11.5547 12.875 11.2891 12.875H9.96094C9.69531 12.875 9.5625 12.7422 9.5625 12.4766V11.1484C9.5625 10.8828 9.69531 10.75 9.96094 10.75H11.2891C11.5547 10.75 11.6875 10.8828 11.6875 11.1484V12.4766ZM14.875 3.84375V15.5312C14.875 15.974 14.7201 16.3503 14.4102 16.6602C14.1003 16.9701 13.724 17.125 13.2812 17.125H1.59375C1.15104 17.125 0.77474 16.9701 0.464844 16.6602C0.154948 16.3503 0 15.974 0 15.5312V3.84375C0 3.40104 0.154948 3.02474 0.464844 2.71484C0.77474 2.40495 1.15104 2.25 1.59375 2.25H3.1875V0.523438C3.1875 0.257812 3.32031 0.125 3.58594 0.125H4.91406C5.17969 0.125 5.3125 0.257812 5.3125 0.523438V2.25H9.5625V0.523438C9.5625 0.257812 9.69531 0.125 9.96094 0.125H11.2891C11.5547 0.125 11.6875 0.257812 11.6875 0.523438V2.25H13.2812C13.724 2.25 14.1003 2.40495 14.4102 2.71484C14.7201 3.02474 14.875 3.40104 14.875 3.84375ZM13.2812 15.332V5.4375H1.59375V15.332C1.59375 15.4648 1.66016 15.5312 1.79297 15.5312H13.082C13.2148 15.5312 13.2812 15.4648 13.2812 15.332Z" fill="#B3B3B3"/>
</svg>
