<svg width="18" height="14" viewBox="0 0 18 14" fill="none" xmlns="http://www.w3.org/2000/svg">
<path opacity="0.3" d="M16.5 0C16.7708 0 17.0208 0.0729167 17.25 0.21875C17.4792 0.34375 17.6562 0.520833 17.7812 0.75C17.9271 0.979167 18 1.22917 18 1.5V12.5C18 12.9167 17.8542 13.2708 17.5625 13.5625C17.2708 13.8542 16.9167 14 16.5 14H1.5C1.08333 14 0.729167 13.8542 0.4375 13.5625C0.145833 13.2708 0 12.9167 0 12.5V1.5C0 1.08333 0.145833 0.729167 0.4375 0.4375C0.729167 0.145833 1.08333 0 1.5 0H16.5ZM1.6875 1.5C1.5625 1.5 1.5 1.5625 1.5 1.6875V3H16.5V1.6875C16.5 1.5625 16.4375 1.5 16.3125 1.5H1.6875ZM16.3125 12.5C16.4375 12.5 16.5 12.4375 16.5 12.3125V7H1.5V12.3125C1.5 12.4375 1.5625 12.5 1.6875 12.5H16.3125ZM6 9.375V10.625C6 10.875 5.875 11 5.625 11H3.375C3.125 11 3 10.875 3 10.625V9.375C3 9.125 3.125 9 3.375 9H5.625C5.875 9 6 9.125 6 9.375ZM12 9.375V10.625C12 10.875 11.875 11 11.625 11H7.375C7.125 11 7 10.875 7 10.625V9.375C7 9.125 7.125 9 7.375 9H11.625C11.875 9 12 9.125 12 9.375Z" fill="black"/>
</svg>
