<svg width="37" height="27" viewBox="0 0 37 27" fill="none" xmlns="http://www.w3.org/2000/svg">
<g id="Group 1171277491">
<g id="Group">
<path id="Vector" d="M34.0365 0.0976562H3.37962C1.81448 0.0976562 0.541016 1.37112 0.541016 2.93626V23.3742C0.541016 24.9393 1.81448 26.2128 3.37962 26.2128H34.0365C35.6016 26.2128 36.8751 24.9393 36.8751 23.3742V2.93626C36.8751 1.37112 35.6016 0.0976562 34.0365 0.0976562Z" fill="#5D647F"/>
</g>
<g id="Group_2">
<path id="Vector_2" d="M13.0311 11.4533H6.21845C5.59133 11.4533 5.08301 10.9449 5.08301 10.3178V5.77606C5.08301 5.14895 5.59133 4.64062 6.21845 4.64062H13.0311C13.6582 4.64062 14.1665 5.14895 14.1665 5.77606V10.3178C14.1665 10.9449 13.6582 11.4533 13.0311 11.4533Z" fill="#FFD100"/>
</g>
<g id="Group_3">
<g id="Group_4">
<path id="Vector_3" d="M9.05705 18.8308H6.21845C5.59133 18.8308 5.08301 18.3225 5.08301 17.6953V17.1276C5.08301 16.5005 5.59133 15.9922 6.21845 15.9922H9.05705C9.68417 15.9922 10.1925 16.5005 10.1925 17.1276V17.6953C10.1925 18.3225 9.68417 18.8308 9.05705 18.8308Z" fill="#B8BAC0"/>
</g>
<g id="Group_5">
<path id="Vector_4" d="M16.4379 18.8308H13.5993C12.9722 18.8308 12.4639 18.3225 12.4639 17.6953V17.1276C12.4639 16.5005 12.9722 15.9922 13.5993 15.9922H16.4379C17.065 15.9922 17.5733 16.5005 17.5733 17.1276V17.6953C17.5733 18.3225 17.065 18.8308 16.4379 18.8308Z" fill="#B8BAC0"/>
</g>
<g id="Group_6">
<path id="Vector_5" d="M23.8178 18.8308H20.9792C20.3521 18.8308 19.8438 18.3225 19.8438 17.6953V17.1276C19.8438 16.5005 20.3521 15.9922 20.9792 15.9922H23.8178C24.4449 15.9922 24.9532 16.5005 24.9532 17.1276V17.6953C24.9532 18.3225 24.4449 18.8308 23.8178 18.8308Z" fill="#B8BAC0"/>
</g>
<g id="Group_7">
<path id="Vector_6" d="M31.1977 18.8308H28.3591C27.732 18.8308 27.2236 18.3225 27.2236 17.6953V17.1276C27.2236 16.5005 27.732 15.9922 28.3591 15.9922H31.1977C31.8248 15.9922 32.3331 16.5005 32.3331 17.1276V17.6953C32.3331 18.3225 31.8248 18.8308 31.1977 18.8308Z" fill="#B8BAC0"/>
</g>
</g>
<g id="Group_8">
<g id="Group_9">
<path id="Vector_7" d="M17.0042 22.237H5.64975C5.33594 22.237 5.08203 21.9828 5.08203 21.6693C5.08203 21.3558 5.33594 21.1016 5.64975 21.1016H17.0042C17.318 21.1016 17.5719 21.3558 17.5719 21.6693C17.5719 21.9828 17.318 22.237 17.0042 22.237Z" fill="#8A8895"/>
</g>
</g>
<g id="Group_10">
<g id="Group_11">
<path id="Vector_8" d="M24.3852 22.237H19.2757C18.9619 22.237 18.708 21.9828 18.708 21.6693C18.708 21.3558 18.9619 21.1016 19.2757 21.1016H24.3852C24.699 21.1016 24.9529 21.3558 24.9529 21.6693C24.9529 21.9828 24.699 22.237 24.3852 22.237Z" fill="#8A8895"/>
</g>
</g>
<g id="Group_12">
<path id="Vector_9" d="M14.1671 8.61467H8.48993V7.47922H14.1671V6.34379H8.48993V4.64062H7.35449V11.4533H8.48993V9.7501H14.1671V8.61467Z" fill="#FF9500"/>
</g>
<g id="Group_13">
<path id="Vector_10" d="M28.9268 11.4533C30.8081 11.4533 32.3331 9.9282 32.3331 8.04695C32.3331 6.16569 30.8081 4.64062 28.9268 4.64062C27.0456 4.64062 25.5205 6.16569 25.5205 8.04695C25.5205 9.9282 27.0456 11.4533 28.9268 11.4533Z" fill="#FF4F19"/>
</g>
</g>
</svg>
