<svg width="65" height="63" viewBox="0 0 65 63" fill="none" xmlns="http://www.w3.org/2000/svg">
<g clip-path="url(#clip0_952_3889)">
<path d="M25.4193 46.0171C25.842 45.9166 26.6732 45.3255 26.8263 45.0822C27.8449 43.4627 29.949 40.5546 29.6187 38.56C29.5622 38.2194 27.995 38.0627 27.7469 37.7709C26.772 37.4287 26.4126 37.3706 25.6457 36.5905C23.3816 34.2876 27.4407 29.0871 21.9623 27.9872C17.9496 27.1816 14.81 28.8643 14.5914 22.7961C14.3729 16.7279 8.43118 6.25442 2.50769 11.128C-0.891869 13.9251 3.359 18.6569 1.87801 22.6337C0.470508 26.4128 2.30662 29.2082 6.35264 30.9606C10.3987 32.7128 8.53396 34.5846 7.78472 38.1139C6.88474 42.3533 13.273 42.4142 16.2248 42.1909C18.6017 42.011 24.7757 43.1551 25.4193 46.0171Z" fill="url(#paint0_linear_952_3889)"/>
<g style="mix-blend-mode:soft-light">
<g style="mix-blend-mode:soft-light">
<path d="M3.92969 9.12887L4.00128 9.12061C4.84101 16.538 7.41715 23.4489 11.4511 29.1055C13.5287 32.019 15.9761 34.5758 18.7249 36.7051C21.5853 38.9211 24.7776 40.6766 28.2126 41.9224L28.1881 41.9904C24.746 40.7417 21.547 38.9827 18.6807 36.762C15.9262 34.6284 13.4741 32.0664 11.3925 29.1472C7.35122 23.4808 4.7706 16.5583 3.92969 9.12887Z" fill="#FCFDFE"/>
</g>
<g style="mix-blend-mode:soft-light">
<path d="M7.17188 39.758C10.7366 38.1583 16.9091 37.474 20.9313 38.2324L20.918 38.3033C16.9079 37.5472 10.7548 38.2291 7.20141 39.8239L7.17188 39.758Z" fill="#FCFDFE"/>
</g>
<g style="mix-blend-mode:soft-light">
<path d="M22.8075 28.7755C22.8735 28.3849 22.9477 27.9879 23.0304 27.5842L23.101 27.5986C22.5455 30.3103 22.3726 32.7356 22.5873 34.8079C22.8806 37.6357 23.8996 39.7022 25.6164 40.9504L25.5739 41.0087C23.8401 39.748 22.8111 37.6642 22.5155 34.8152C22.3319 33.0441 22.4304 31.017 22.8075 28.7755Z" fill="#FCFDFE"/>
</g>
<g style="mix-blend-mode:soft-light">
<path d="M0.621094 25.6073C3.59181 25.4315 7.78527 25.7492 10.893 28.2626L10.8477 28.3185C7.75786 25.8198 3.58331 25.5042 0.625347 25.6793L0.621094 25.6073Z" fill="#FCFDFE"/>
</g>
<g style="mix-blend-mode:soft-light">
<path d="M6.61683 16.1377C6.70284 15.6269 6.81885 15.1092 6.96511 14.5847C7.44688 12.8583 8.26558 11.0667 9.33308 9.40381L9.39381 9.44276C6.23146 14.3697 6.33283 18.3 6.67472 20.2044L6.60384 20.2172C6.37228 18.9284 6.37725 17.5615 6.61683 16.1377Z" fill="#FCFDFE"/>
</g>
</g>
<path d="M41.4106 35.0061C41.0345 35.024 40.2004 34.7316 40.0145 34.5656C38.7773 33.4624 36.3264 31.5469 36.1218 29.8072C36.0868 29.5103 37.3535 29.0037 37.4898 28.7011C38.219 28.1825 38.5042 28.0478 38.9548 27.2143C40.2855 24.754 35.6561 21.3998 39.9514 19.1694C43.0977 17.5356 46.1154 18.1826 44.8381 13.0793C43.5605 7.97603 45.9869 -2.1677 52.0894 0.467019C55.5918 1.97888 53.1914 6.93768 55.3808 9.89247C57.4612 12.7 56.6054 15.4676 53.6593 17.8972C50.7129 20.327 52.7151 21.4371 54.1876 24.1951C55.9564 27.5077 50.6538 29.0915 48.1431 29.6144C46.1215 30.0352 41.2578 32.4696 41.4106 35.0061Z" fill="url(#paint1_linear_952_3889)"/>
<g style="mix-blend-mode:soft-light">
<g style="mix-blend-mode:soft-light">
<path d="M50.9261 8.09269C51.1052 5.15867 50.9415 2.15218 50.4295 -0.855957L50.3584 -0.843919C51.4433 5.53067 50.9616 11.9003 48.9646 17.576C47.936 20.4991 46.5144 23.2143 44.739 25.6461C42.8913 28.1769 40.6568 30.4038 38.0977 32.2652L38.1402 32.3235C40.7052 30.4576 42.9451 28.2253 44.7971 25.6885C46.5767 23.2512 48.0017 20.5296 49.0326 17.6C50.0911 14.5914 50.7248 11.3879 50.9261 8.09269Z" fill="#FCFDFE"/>
</g>
<g style="mix-blend-mode:soft-light">
<path d="M55.0919 25.4125C51.7391 24.9367 46.4357 25.8487 43.2695 27.4461L43.3021 27.5103C46.4572 25.9189 51.7415 25.0096 55.0818 25.4838L55.0919 25.4125Z" fill="#FCFDFE"/>
</g>
<g style="mix-blend-mode:soft-light">
<path d="M41.3049 27.4306C41.351 26.6762 41.2955 25.8605 41.1381 24.9852C40.8173 23.2022 40.0879 21.2182 38.97 19.0889L38.9062 19.1224C40.0205 21.2451 40.7476 23.222 41.067 24.998C41.5029 27.4207 41.1521 29.3844 40.0243 30.8341L40.0813 30.8783C40.8135 29.9369 41.2225 28.7827 41.3049 27.4306Z" fill="#FCFDFE"/>
</g>
<g style="mix-blend-mode:soft-light">
<path d="M57.1565 12.1321L57.1407 12.0618C54.6248 12.6285 51.2099 13.9001 49.2266 16.7394L49.2856 16.7807C51.2557 13.9603 54.6532 12.696 57.1565 12.1321Z" fill="#FCFDFE"/>
</g>
<g style="mix-blend-mode:soft-light">
<path d="M50.8708 9.01513C50.7114 7.48156 50.154 5.93288 49.2146 4.41181C48.3982 3.09021 47.2856 1.79504 45.9967 0.666748L45.9492 0.720802C49.7653 4.06176 50.6258 7.35622 50.799 9.02245L50.8708 9.01513Z" fill="#FCFDFE"/>
</g>
</g>
<path d="M39.822 53.1285C37.997 52.3545 36.1855 51.5375 34.3888 50.6781C34.3508 50.6979 34.8061 46.4144 37.3305 44.7645C42.2996 41.5888 40.6719 37.1502 40.5096 34.7294C40.1502 31.2843 41.6586 28.0489 44.8682 28.8325C48.4459 29.6325 50.6211 23.9382 51.3727 18.4381C51.5556 15.708 54.8368 13.1935 57.4762 13.1118C60.1873 12.9657 62.2568 15.2525 61.6668 20.6357C61.2564 26.9399 55.9258 29.4153 53.5155 32.0009C51.1459 34.5379 54.2373 37.8975 50.5618 39.7344C47.438 41.4037 43.83 42.2483 44.2263 45.4722C44.6631 48.6713 43.7603 50.958 39.822 53.1285Z" fill="url(#paint2_linear_952_3889)"/>
<g style="mix-blend-mode:soft-light">
<g style="mix-blend-mode:soft-light">
<path d="M56.8423 17.1891C57.2123 15.2783 57.3342 13.3838 57.214 11.478L57.1419 11.4825C57.3822 15.2866 56.6528 19.0477 54.9121 22.9811C53.3551 26.4996 51.1341 29.8618 48.9863 33.1131C48.1841 34.3273 47.3548 35.5828 46.5647 36.8381C41.2321 44.4594 37.1535 52.6539 37.1445 52.6905L37.2145 52.7077L37.1795 52.6992L37.214 52.7096C37.3071 52.449 41.5109 44.187 46.6249 36.878C47.4155 35.622 48.2446 34.3667 49.0466 33.153C51.196 29.8989 53.4186 26.5343 54.9783 23.0102C55.8518 21.0359 56.4716 19.1044 56.8423 17.1891Z" fill="#FCFDFE"/>
</g>
<g style="mix-blend-mode:soft-light">
<path d="M62.5279 19.7766L62.5187 19.7502L62.5367 19.7086C62.4941 19.6902 62.4339 19.7306 61.0106 20.8407C59.1704 22.2758 55.7453 24.9471 53.0156 26.7437L53.0553 26.8036C55.7874 25.0057 59.2141 22.3332 61.055 20.8973C61.842 20.2836 62.4634 19.799 62.5279 19.7766Z" fill="#FCFDFE"/>
</g>
<g style="mix-blend-mode:soft-light">
<path d="M54.6183 23.7604C54.8218 21.6138 54.5165 19.5607 53.7354 17.823C53.1152 16.4431 52.3829 15.6681 52.1753 15.5053C52.1299 15.4698 52.1081 15.4609 52.0859 15.4687L52.1115 15.5426C52.1006 15.5463 52.0923 15.5433 52.0923 15.5433C52.1781 15.5768 52.9186 16.2887 53.5702 17.6528C54.1597 18.8868 54.8064 20.947 54.5406 23.7531L54.6183 23.7604Z" fill="#FCFDFE"/>
</g>
<g style="mix-blend-mode:soft-light">
<path d="M43.9218 39.8601C44.2999 37.9061 44.2252 35.7373 43.6962 33.3837C43.3212 31.7163 42.7298 30.0244 41.938 28.3551C41.8967 28.268 41.8643 28.1993 41.8605 28.1863L41.7852 28.2071C41.7901 28.2255 41.8102 28.2679 41.8674 28.3886C42.6565 30.0527 43.2463 31.739 43.6199 33.4007C44.3362 36.5875 44.2162 39.4335 43.2631 41.8598L43.3358 41.8884C43.5901 41.2414 43.7855 40.5644 43.9218 39.8601Z" fill="#BEB8F2"/>
</g>
<g style="mix-blend-mode:soft-light">
<path d="M52.9785 37.4015L52.961 37.3621C52.9237 37.3408 48.0623 36.3431 44.8281 39.4206L44.878 39.4728C48.0857 36.4203 52.8864 37.4135 52.931 37.4272L52.9431 37.3935L52.9457 37.4296L52.9785 37.4015Z" fill="#FCFDFE"/>
</g>
<g style="mix-blend-mode:soft-light">
<path d="M38.0113 50.9415C38.2346 49.788 38.1611 47.9154 36.9313 45.0791C36.8987 45.0036 36.8703 44.9384 36.8673 44.9259L36.8354 44.9337L36.7928 44.9158C36.7843 44.9363 36.7841 44.9361 36.8595 45.1103C38.2498 48.3169 38.1541 50.2775 37.8289 51.3567L37.9038 51.3794C37.9438 51.2467 37.9804 51.1008 38.0113 50.9415Z" fill="#BEB8F2"/>
</g>
<g style="mix-blend-mode:soft-light">
<path d="M44.8527 46.7113L44.8356 46.635C44.8224 46.6381 44.7865 46.6433 44.7307 46.6518C40.684 47.2671 39.3127 48.6447 38.8555 49.4111L38.9226 49.4513C39.3729 48.6966 40.7277 47.3396 44.7426 46.7292C44.8012 46.7202 44.839 46.7143 44.8527 46.7113Z" fill="#BEB8F2"/>
</g>
</g>
<path d="M47.1473 3.23089C46.4123 2.39365 45.4249 1.89701 44.3647 1.83493L13.19 0.0100783L13.1453 0.00771786C10.5867 -0.118329 8.46181 1.838 8.43724 4.37027L7.95334 54.4386C7.94129 55.6798 8.4259 56.8083 9.31501 57.6134C10.2006 58.415 11.3784 58.7974 12.629 58.6933L43.885 56.0919C43.9105 56.0898 43.9233 56.0886 43.9233 56.0886C46.0895 55.8868 47.8502 53.8554 47.8703 51.5591L48.2666 6.26027C48.2765 5.13978 47.8798 4.06483 47.1473 3.23089Z" fill="url(#paint3_linear_952_3889)"/>
<path d="M44.3657 56.0919L13.1095 58.6933C11.8591 58.7974 10.6811 58.415 9.79572 57.6134C8.9066 56.8083 8.42176 55.6798 8.43381 54.4386L8.91795 4.37027C8.94228 1.838 11.0674 -0.118329 13.626 0.00771786L13.6704 0.0100783L44.8454 1.83493C45.9053 1.89701 46.8927 2.39365 47.628 3.23089C48.3602 4.06483 48.757 5.13978 48.7473 6.26027L48.3508 51.5591C48.3307 53.8554 46.57 55.8868 44.404 56.0886C44.404 56.0886 44.3913 56.0898 44.3657 56.0919Z" fill="url(#paint4_linear_952_3889)"/>
<path d="M48.2199 6.23533L48.019 29.2009L47.8227 51.5967C47.8047 53.6081 46.2673 55.3626 44.3714 55.5177L13.1156 58.0719C10.8745 58.2553 9.05658 56.6084 9.07832 54.3917L9.31294 30.1003L9.5608 4.4008C9.58206 2.18954 11.429 0.501833 13.6649 0.62906L44.8409 2.40788C46.732 2.51552 48.2373 4.22849 48.2199 6.23533Z" fill="white"/>
<g style="mix-blend-mode:multiply" opacity="0.502">
<path d="M48.1184 29.2021L47.922 51.5904C47.9041 53.601 46.3673 55.3543 44.4724 55.5092L13.2343 58.0615C10.9944 58.2447 9.17744 56.6 9.19942 54.384L9.4338 30.1012L48.1184 29.2021Z" fill="#D8DEE8"/>
</g>
<path d="M35.6699 10.9319C35.639 14.3508 32.9305 17.0742 29.5692 17.0133C26.1503 16.9515 23.362 14.0413 23.3948 10.5153C23.4277 6.9895 26.268 4.27193 29.6848 4.44188C33.0439 4.609 35.7009 7.51328 35.6699 10.9319Z" fill="#D8DEE8"/>
<path d="M44.6471 20.818L13.3164 20.8489V18.7288L44.6471 18.8579V20.818Z" fill="#D8DEE8"/>
<path d="M40.2061 24.6297L18.2578 24.8653V22.6873L40.2061 22.5681V24.6297Z" fill="#D8DEE8"/>
<path d="M25.7145 35.3122C25.7145 34.9964 25.4782 34.7495 25.1665 34.7606L12.9611 35.1985C12.6296 35.2103 12.3945 35.4846 12.3945 35.8108V50.6959C12.3945 51.0221 12.6377 51.2664 12.9692 51.2416L25.1795 50.3303C25.4912 50.3071 25.7145 50.0324 25.7145 49.7168V35.3122Z" fill="#D8DEE8"/>
<path d="M22 39.785C22 41.4685 20.6378 42.9086 18.9451 43.0023C17.238 43.097 15.8438 41.7888 15.8438 40.0796C15.8438 38.3707 17.238 36.9289 18.9451 36.8602C20.6378 36.7918 22 38.1016 22 39.785Z" fill="white"/>
<path d="M23.5513 48.6319C23.5579 48.5488 23.5617 48.4404 23.5617 48.3415C23.5617 45.9256 21.5014 44.0902 18.9304 44.2403C16.3266 44.3923 14.1914 46.5172 14.1914 48.989C14.1914 49.0903 14.1952 49.2017 14.2023 49.2859L23.5513 48.6319Z" fill="white"/>
<path d="M37.8622 36.0665L28.1445 36.4531V34.6542L37.8622 34.311V36.0665Z" fill="#D8DEE8"/>
<path d="M45.4854 38.6504L28.1445 39.4785V37.6798L45.4854 36.9297V38.6504Z" fill="#D8DEE8"/>
<path d="M44.9826 42.6694L28.1445 43.6485V41.9315L44.9826 41.0247V42.6694Z" fill="#D8DEE8"/>
<path d="M44.9826 45.3325L28.1445 46.4287V44.6298L44.9826 43.6094V45.3325Z" fill="#D8DEE8"/>
<g style="mix-blend-mode:multiply" opacity="0.302">
<path d="M24.3659 42.7883C25.2236 31.9825 31.705 27.3395 31.2832 17.9039C31.0814 13.3907 29.3145 7.66456 23.2918 0.886339L13.6652 0.330456C11.4297 0.201105 9.58229 1.88764 9.56102 4.09889L9.07831 54.0896C9.05704 56.306 10.8745 57.9543 13.1161 57.7728L26.6529 56.6762C24.9545 52.5319 23.9631 47.8614 24.3659 42.7883Z" fill="#D8DEE8"/>
</g>
<path d="M33.3055 50.371H32.6865V49.5906C32.6865 49.3395 32.4984 49.1254 32.2491 49.093L29.5494 48.742C29.4041 48.7232 29.2633 48.7659 29.1532 48.8624C29.0431 48.9592 28.9823 49.093 28.9823 49.2396V49.9577H28.3633V49.2396C28.3633 48.9174 28.5024 48.6106 28.7446 48.3979C28.9871 48.1855 29.3093 48.087 29.6293 48.1288L32.329 48.48C32.8856 48.5523 33.3055 49.0298 33.3055 49.5906V50.371Z" fill="url(#paint5_linear_952_3889)"/>
<path d="M23.202 50.0765L26.4889 49.481L26.1907 62.4931L23.7639 62.0956C23.5479 62.0602 23.3861 61.8791 23.375 61.6606L22.8209 50.5564C22.8093 50.3234 22.9723 50.118 23.202 50.0765Z" fill="url(#paint6_linear_952_3889)"/>
<path d="M37.4831 51.0979L36.7266 60.5195C36.724 60.5531 36.7183 60.5866 36.7107 60.6184C36.6479 60.8904 36.4225 61.1004 36.1385 61.1396L26.1914 62.4929L26.4896 49.481L27.1892 49.5404L36.8615 50.3647C37.235 50.3966 37.5131 50.7237 37.4831 51.0979Z" fill="url(#paint7_linear_952_3889)"/>
<path d="M24.7534 49.7949L24.4453 49.8506C24.4982 52.1669 24.6665 59.5296 24.7236 62.2528L25.0341 62.3038C24.9779 59.6013 24.8061 52.0916 24.7534 49.7949Z" fill="url(#paint8_linear_952_3889)"/>
<path style="mix-blend-mode:multiply" opacity="0.2" d="M36.7107 60.6184C36.6479 60.8904 36.4225 61.1004 36.1385 61.1396L26.1914 62.4929L26.4896 49.481L27.1892 49.5404C27.8425 50.0451 28.6083 50.99 28.7633 52.6862C29.0421 55.7552 29.5071 55.5024 31.8418 55.9903C34.1766 56.4773 33.8959 57.7177 34.0072 59.3839C34.0902 60.6267 35.681 60.3807 36.7107 60.6184Z" fill="url(#paint9_linear_952_3889)"/>
<path d="M26.2644 32.1939L24.6263 32.9945C24.5082 33.0521 24.465 33.193 24.5309 33.3085L26.0173 35.9172C26.0832 36.0329 26.2252 36.0652 26.3334 35.9906L27.8369 34.953C27.9276 34.8904 27.9524 34.7554 27.8929 34.6511L26.5506 32.2956C26.4913 32.1913 26.3634 32.1455 26.2644 32.1939Z" fill="url(#paint10_linear_952_3889)"/>
<path d="M26.3114 32.1677L24.6731 32.9684C24.5552 33.026 24.5119 33.1669 24.5776 33.2823L26.0643 35.8911C26.1299 36.0065 26.2719 36.0391 26.3804 35.9643L27.8836 34.9268C27.9746 34.8643 27.9991 34.7293 27.9398 34.6249L26.5975 32.2695C26.5382 32.1651 26.4104 32.1193 26.3114 32.1677Z" fill="url(#paint11_linear_952_3889)"/>
<g style="mix-blend-mode:screen" opacity="0.302">
<path d="M26.6482 33.3015C26.8221 33.6067 26.7344 33.9907 26.4445 34.164C26.1454 34.3427 25.7465 34.2301 25.5625 33.9072C25.3784 33.5843 25.4873 33.1882 25.7969 33.0274C26.0967 32.8716 26.474 32.9963 26.6482 33.3015Z" fill="white"/>
</g>
<g style="mix-blend-mode:screen" opacity="0.302">
<path d="M26.5518 33.3536C26.695 33.6048 26.6218 33.9202 26.3829 34.0611C26.1379 34.2055 25.8132 34.1123 25.6634 33.8493C25.5134 33.5864 25.6008 33.263 25.8527 33.1306C26.0982 33.0012 26.4086 33.1025 26.5518 33.3536Z" fill="white"/>
</g>
<path opacity="0.502" d="M27.329 34.5004L26.283 35.1754L26.1523 34.946L27.2054 34.2834L27.329 34.5004Z" fill="white"/>
<path opacity="0.502" d="M27.4447 34.6994L26.4051 35.3861L26.3398 35.2716L27.3828 34.5911L27.4447 34.6994Z" fill="white"/>
<path style="mix-blend-mode:multiply" opacity="0.302" d="M26.499 34.8614C26.2166 34.2769 26.4052 33.8495 26.0997 33.3731C25.9534 33.1451 25.6912 32.8989 25.1803 32.7205L24.6731 32.9683C24.5552 33.0259 24.5119 33.1668 24.5776 33.2822L26.0642 35.891C26.1299 36.0064 26.2719 36.039 26.3804 35.9642L27.0327 35.514C26.8222 35.3488 26.6313 35.1357 26.499 34.8614Z" fill="url(#paint12_linear_952_3889)"/>
<path d="M45.7237 61.0596C45.7549 60.888 46.3092 60.7329 46.5838 60.9626C46.7201 61.0766 46.8139 61.3076 46.735 61.4122C46.7064 61.4502 46.8238 61.517 46.7111 61.5182C46.3378 61.5227 45.6928 61.23 45.7237 61.0596Z" fill="url(#paint13_linear_952_3889)"/>
<path d="M46.3061 61.1218L46.8762 61.0413C46.7002 60.8296 46.6284 60.3865 46.661 59.7119L46.0547 59.8472C46.1008 60.0322 46.1629 60.2614 46.2413 60.5345C46.2815 60.6747 46.2995 60.8942 46.3061 61.1218Z" fill="url(#paint14_linear_952_3889)"/>
<path d="M46.2559 61.0517C46.7135 60.9464 46.9671 60.9391 47.0164 61.0297C47.0906 61.1657 47.1483 61.5299 46.7128 61.5181C46.2776 61.5063 46.2174 61.1671 46.2559 61.0517Z" fill="url(#paint15_linear_952_3889)"/>
<path d="M37.9019 61.7025C37.957 61.537 38.5276 61.4608 38.7671 61.7266C38.886 61.8585 38.9465 62.1007 38.8539 62.193C38.8201 62.2265 38.9271 62.3091 38.8156 62.2947C38.4451 62.2468 37.8476 61.8668 37.9019 61.7025Z" fill="url(#paint16_linear_952_3889)"/>
<path d="M26.6731 35.8955L26.0968 35.8542C25.7698 35.7883 25.5349 35.5698 25.3929 35.1978C25.4485 35.3429 25.1749 34.6409 25.4922 34.572L25.6935 34.9209C25.779 35.0717 25.9527 35.1746 26.2142 35.2296C26.4907 35.3278 26.7026 35.4425 26.8501 35.5738L26.6731 35.8955Z" fill="url(#paint17_linear_952_3889)"/>
<path d="M38.4686 61.8454H39.0444C38.8998 61.611 38.8908 61.1623 39.0175 60.499L38.3984 60.5481C38.418 60.7379 38.4476 60.9735 38.4868 61.2548C38.5069 61.3993 38.4941 61.6191 38.4686 61.8454Z" fill="url(#paint18_linear_952_3889)"/>
<path d="M36.9763 40.0946C36.7095 40.9746 36.3286 42.3946 36.0836 44.1763C35.3842 49.2583 36.8707 49.4205 36.593 55.052C36.5044 56.8497 38.152 60.9946 38.2971 61.0862C38.3675 61.0931 38.4436 61.0976 38.5251 61.0952C38.6683 61.0909 38.8703 61.069 39.1051 60.9986C39.3662 60.9536 40.3071 58.4076 40.089 56.8939C39.9347 55.8225 39.9794 54.6727 40.0689 52.3731C40.0786 52.1246 40.4016 49.7082 41.0377 45.1235C41.3281 47.669 41.6619 49.8319 41.9514 51.5087C42.8811 56.896 45.9045 60.1569 46.0621 60.2091C46.0933 60.2218 46.3771 60.3247 46.6089 60.172C46.6779 60.1267 46.724 60.0748 46.7473 60.0162C46.8282 59.953 46.7235 54.6375 45.8013 50.6373C44.4628 44.8308 45.0457 43.4722 44.6215 40.8785C44.377 39.3825 41.8285 39.1212 36.9763 40.0946Z" fill="url(#paint19_linear_952_3889)"/>
<path d="M42.3815 29.5637C41.4929 29.5378 39.7716 29.2477 38.6467 30.2591C38.627 30.2766 38.5361 30.3762 38.4227 30.5091C38.3173 30.6323 37.956 31.064 37.6283 31.6478C37.3908 32.0703 37.1768 32.5631 36.9606 33.2975C36.5795 34.5924 36.4703 35.6952 36.4337 36.1758C36.2281 38.8778 36.432 40.1243 36.617 40.972C37.4204 41.3843 39.4909 42.122 41.9576 41.7554C43.0842 41.588 43.9858 41.2137 44.6202 40.8792C43.9802 38.9429 44.4825 37.9069 44.7192 36.9519C45.1871 35.0666 45.2929 34.3261 46.6151 31.6147C46.9797 30.8672 46.114 31.2859 45.5597 30.6299C44.7093 29.6234 43.1773 29.5871 42.3815 29.5637Z" fill="url(#paint20_linear_952_3889)"/>
<path d="M44.4417 38.6778C44.359 38.7328 44.2544 38.7465 44.1277 38.7191C43.9375 38.6778 43.706 38.5209 43.4992 38.4548C43.2927 38.3887 43.2762 38.6944 43.5819 38.8511C43.8879 39.0081 44.1525 39.322 44.2683 39.5616C44.3453 39.7211 44.4805 39.6248 44.6733 39.2724L44.4417 38.6778Z" fill="url(#paint21_linear_952_3889)"/>
<path d="M43.7419 29.7263C44.2116 29.7071 47.1798 29.9073 48.9436 31.5072C49.2982 31.8289 50.9838 33.3576 50.8409 35.5438C50.6696 38.166 47.9559 40.3869 45.8691 40.0706C45.3826 39.9968 44.9873 39.7938 44.6922 39.5922L44.3451 38.6112C44.3395 37.9104 44.7232 37.4203 44.9205 37.1496C45.407 36.4821 46.1007 36.3655 46.203 35.7739C46.2597 35.4468 46.0997 35.1789 45.957 34.9393C45.4708 34.124 44.6944 34.0234 44.2925 33.6063C43.8775 33.1758 42.5702 31.8603 43.7419 29.7263Z" fill="url(#paint22_linear_952_3889)"/>
<path d="M38.4291 61.7691C38.8969 61.7287 39.149 61.7568 39.1852 61.8536C39.2398 61.9987 39.2457 62.3672 38.8163 62.2947C38.3868 62.2223 38.3747 61.8776 38.4291 61.7691Z" fill="url(#paint23_linear_952_3889)"/>
<path d="M40.0333 29.8877C39.0612 29.256 36.5196 31.2355 35.7503 31.7812C32.7665 33.8983 32.3405 36.3954 30.838 36.2776C29.822 36.198 29.2139 34.9933 27.5715 35.096C27.2811 35.1139 27.0462 35.1675 26.8974 35.2081C26.896 35.21 26.517 35.653 26.5153 35.6544C26.3667 35.7765 26.2181 35.8983 26.133 36.1008C26.1073 36.4466 26.1181 36.8512 26.2162 37.2893C26.2987 37.5128 26.4246 37.7264 26.594 37.9297C27.1332 38.5764 29.2408 39.979 31.7576 39.4203C32.1787 39.3268 32.3833 39.2291 34.0564 38.3323C38.518 35.9415 38.8911 35.6566 39.259 35.0931C40.2941 33.5071 40.9715 30.4976 40.0333 29.8877Z" fill="url(#paint24_linear_952_3889)"/>
<path d="M39.8807 28.546C39.6054 28.0809 39.7281 27.5499 39.7557 27.4351C39.8715 26.9546 39.9145 26.8819 40.0038 26.7801L40.1302 26.6468C40.1354 26.6427 40.1406 26.639 40.1463 26.6352C40.2339 26.5748 40.5619 26.4768 40.6325 26.4733C40.8586 26.4619 41.3184 27.2716 41.5819 28.5195C41.6032 28.5641 41.6244 28.609 41.6455 28.6545C41.7761 28.9375 41.8881 29.2161 41.9843 29.4875C43.5118 29.6164 43.7238 29.7956 43.7306 29.899C43.745 30.1166 42.8746 30.368 42.2201 30.4638C40.7927 30.6725 39.3252 30.2965 39.3321 30.0307C39.3349 29.9148 39.6187 29.7639 40.8286 29.6056C40.8005 29.4056 40.7722 29.2055 40.7438 29.0055C40.6455 28.9836 40.0834 28.8885 39.8807 28.546Z" fill="url(#paint25_linear_952_3889)"/>
<path d="M39.7707 26.4829C39.7343 26.7532 39.9006 27.0438 40.0932 27.1963C40.2085 27.2876 40.2529 27.272 40.3054 27.3497C40.453 27.5676 40.1463 27.9523 40.2487 28.0401C40.3219 28.1029 40.497 27.9223 40.604 27.9894C40.7212 28.063 40.5742 28.3194 40.6832 28.6494C40.6881 28.6652 40.6912 28.6737 40.6926 28.6772C40.7628 28.8608 40.953 28.9454 41.0033 28.9678C41.2443 29.0752 41.598 28.9985 41.8187 28.795C41.9305 28.6921 41.9421 28.6177 42.1311 28.0734C42.3728 27.3783 42.4002 27.3766 42.4038 27.2399C42.4056 27.1585 42.4104 26.6701 42.0614 26.2651C41.603 25.7328 40.7713 25.6216 40.2364 25.9183C40.1499 25.9662 39.8156 26.1515 39.7707 26.4829Z" fill="#26264F"/>
<path d="M40.3643 27.9142C40.4236 27.7608 40.6199 27.8377 40.6653 28.0034C40.7106 28.1693 40.5956 28.3849 40.4304 28.3938C40.2655 28.4026 40.2844 28.1205 40.3643 27.9142Z" fill="url(#paint26_linear_952_3889)"/>
<path d="M36.4186 37.1128C36.4059 37.1128 36.3938 37.105 36.3889 37.0922C36.3825 37.076 36.3908 37.0576 36.4071 37.0512C36.421 37.0458 37.7976 36.5071 39.0805 35.2417C39.0931 35.2292 39.1134 35.2294 39.1257 35.2419C39.138 35.2544 39.138 35.2745 39.1254 35.287C37.8323 36.5626 36.4439 37.1052 36.4302 37.1107C36.4264 37.1121 36.4224 37.1128 36.4186 37.1128Z" fill="#9B305E"/>
<path d="M44.6807 35.3167L43.2617 36.0102C43.1596 36.06 43.122 36.1821 43.179 36.2821L44.4664 38.5415C44.5236 38.6416 44.6465 38.6697 44.7403 38.605L46.0424 37.7064C46.1211 37.6521 46.1423 37.5353 46.0908 37.4449L44.9284 35.4048C44.8768 35.3144 44.7663 35.2749 44.6807 35.3167Z" fill="url(#paint27_linear_952_3889)"/>
<path d="M44.7197 35.2941L43.3006 35.9874C43.1986 36.0374 43.161 36.1595 43.2182 36.2593L44.5054 38.5187C44.5626 38.6188 44.6855 38.6469 44.7793 38.5822L46.0814 37.6836C46.1601 37.6293 46.1814 37.5125 46.1298 37.4223L44.9674 35.3822C44.9161 35.2918 44.8055 35.2521 44.7197 35.2941Z" fill="url(#paint28_linear_952_3889)"/>
<g style="mix-blend-mode:screen" opacity="0.302">
<path d="M45.0102 36.2757C45.1609 36.5401 45.0848 36.8729 44.8337 37.0228C44.5747 37.1777 44.2293 37.08 44.07 36.8005C43.9105 36.5208 44.005 36.1778 44.273 36.0385C44.5326 35.9035 44.8596 36.0114 45.0102 36.2757Z" fill="white"/>
</g>
<g style="mix-blend-mode:screen" opacity="0.302">
<path d="M44.9307 36.3211C45.0547 36.5385 44.9914 36.8117 44.7844 36.9337C44.5723 37.059 44.2911 36.9781 44.1614 36.7503C44.0314 36.5225 44.1073 36.2428 44.3253 36.1278C44.538 36.0159 44.8069 36.1035 44.9307 36.3211Z" fill="white"/>
</g>
<path opacity="0.502" d="M45.605 37.3141L44.6991 37.8988L44.5859 37.7003L45.498 37.1265L45.605 37.3141Z" fill="white"/>
<path opacity="0.502" d="M45.703 37.4868L44.8026 38.0816L44.7461 37.9822L45.6494 37.3931L45.703 37.4868Z" fill="white"/>
<path style="mix-blend-mode:multiply" opacity="0.302" d="M44.8821 37.6271C44.6375 37.1208 44.801 36.7506 44.5362 36.3378C44.4095 36.1405 44.1824 35.9273 43.7401 35.7727L43.3006 35.9873C43.1986 36.0373 43.161 36.1593 43.2182 36.2592L44.5054 38.5186C44.5626 38.6187 44.6855 38.6468 44.7793 38.5821L45.3445 38.1922C45.1621 38.0491 44.9967 37.8645 44.8821 37.6271Z" fill="url(#paint29_linear_952_3889)"/>
<path d="M54.9907 60.9917C55.175 61.2856 55.1462 61.4232 55.1145 61.4855C55.0216 61.6689 54.7376 61.5346 54.0494 61.6899C53.9686 61.7081 53.8147 61.7454 53.6153 61.7199C53.4443 61.6982 53.2385 61.63 53.2422 61.5844C53.2434 61.5679 53.2725 61.5582 53.2834 61.5547C53.4095 61.5138 53.8632 61.3274 54.6445 60.9957L54.9907 60.9917Z" fill="url(#paint30_linear_952_3889)"/>
<path d="M55.0144 60.3015L54.9788 61.0052C54.7952 61.1659 54.6683 61.1641 54.5984 60.9995C54.548 60.881 54.5062 60.6568 54.4727 60.327L55.0144 60.3015Z" fill="#D8DEE8"/>
<path d="M51.5352 61.0112L51.9108 61.7776L52.3283 61.6657L52.1525 60.938L51.5352 61.0112Z" fill="#D8DEE8"/>
<path d="M52.0869 62.2028C52.2672 61.9378 52.4529 61.9408 52.4723 61.7695C52.4877 61.6349 52.3903 61.4819 52.2622 61.4333C52.0822 61.3651 51.8892 61.5211 51.8455 61.5565C51.5492 61.7961 51.6697 62.1098 51.3845 62.2812C51.3271 62.3157 51.2347 62.3556 51.1437 62.4604C51.1052 62.505 51.0095 62.6152 51.0416 62.6808C51.0785 62.7571 51.2673 62.7344 51.4466 62.7132C51.6619 62.6874 51.7694 62.6747 51.8665 62.5994C52.0007 62.4946 51.948 62.4075 52.0869 62.2028Z" fill="url(#paint31_linear_952_3889)"/>
<path d="M55.5508 43.5076C55.6406 45.1259 55.5537 46.5242 55.4086 47.6721C55.2522 48.9068 55.1199 49.1289 55.1095 49.9747C55.0865 51.8151 55.6973 52.0278 55.9766 54.0828C56.2852 56.3519 55.8289 58.2133 55.6477 58.924C55.4894 59.5453 55.3117 60.0511 55.1756 60.4035C54.9816 60.603 54.656 60.5596 54.3132 60.519C54.0174 58.4621 53.7013 56.5296 53.4054 54.473C52.7469 51.3964 52.0882 48.32 51.4297 45.2437C52.8034 44.6649 54.1771 44.0863 55.5508 43.5076Z" fill="url(#paint32_linear_952_3889)"/>
<path style="mix-blend-mode:multiply" opacity="0.302" d="M54.3132 60.519C54.0174 58.4621 53.7013 56.5296 53.4054 54.473C52.7469 51.3964 52.0882 48.32 51.4297 45.2437C52.8034 44.6649 54.1771 44.0863 55.5509 43.5076C55.5568 43.6147 55.5598 43.7184 55.5643 43.8236C53.7261 45.7063 53.4513 47.0999 53.5477 48.0269C53.6646 49.1514 54.3274 49.6586 54.3425 51.3017C54.3532 52.4765 54.0188 52.7114 54.1065 53.7651C54.2192 55.1218 54.8654 55.8363 55.2144 56.5969C55.5516 57.3319 55.7385 58.3972 55.3349 59.9676C55.2784 60.1309 55.2243 60.2775 55.1756 60.4035C54.9817 60.603 54.6561 60.5596 54.3132 60.519Z" fill="url(#paint33_linear_952_3889)"/>
<path d="M53.1814 45.2696C52.2885 47.1068 51.8263 48.5327 51.5839 49.4099C51.436 49.9447 51.3079 50.4999 51.3263 51.2125C51.3493 52.0856 51.5813 52.7853 51.7691 53.23C52.0361 53.7977 52.2899 54.4642 52.4777 55.2257C53.0866 57.6952 52.6738 59.838 52.3147 61.0803C52.0713 61.1938 51.8282 61.3076 51.5848 61.4212C50.8847 59.8798 50.0015 57.6839 49.271 54.9462C48.8721 53.4512 48.5647 52.278 48.4374 50.7662C48.3029 49.1714 48.3207 46.63 49.3768 43.5081C50.6449 44.0951 51.9133 44.6824 53.1814 45.2696Z" fill="url(#paint34_linear_952_3889)"/>
<path d="M51.456 31.5127C49.8829 31.9186 48.6916 32.3043 48.2183 33.1841C47.7186 34.1136 48.6845 34.7021 49.0928 36.6166C49.7179 39.5476 48.1046 40.7955 48.8428 43.7378C49.0913 44.7292 49.498 45.4784 49.7718 45.9207C50.3223 46.2982 51.1897 46.8038 52.3338 47.1002C53.9991 47.5317 54.77 47.1368 56.9575 47.0809C60.5355 46.9893 61.1543 47.9769 62.7106 47.2093C64.2833 46.4334 65.3165 44.6031 64.9101 43.8912C64.6668 43.4649 64.0383 43.7956 63.0587 43.3287C61.7962 42.7268 61.9191 41.7524 60.8738 41.012C59.3725 39.9481 58.1214 41.2516 56.8358 40.3249C55.5356 39.3875 55.1812 36.8756 55.5724 35.3304C55.8283 34.3209 55.7459 33.2532 55.9127 32.2255C55.9264 32.1401 55.9318 32.0053 55.8671 31.8582C55.6202 31.296 54.5508 31.2726 53.7432 31.2624C52.5112 31.2471 51.5853 31.4791 51.456 31.5127Z" fill="url(#paint35_linear_952_3889)"/>
<path style="mix-blend-mode:multiply" opacity="0.302" d="M62.4298 46.1012C61.9095 45.8137 62.0995 44.8613 61.3283 44.4277C60.6124 44.0252 60.1334 44.6687 59.1092 44.4456C57.7955 44.1593 57.7603 42.9215 56.4999 42.6297C55.5936 42.4201 55.3738 43.005 54.1024 43.1349C52.8334 43.2644 51.1232 42.8783 49.9562 41.6195C49.4605 41.0846 49.1593 40.495 48.9762 39.9421C48.7271 41.0674 48.446 42.1586 48.8422 43.7377C49.0908 44.7291 49.4974 45.4783 49.7712 45.9206C50.3218 46.2981 51.1891 46.8037 52.3332 47.1001C53.9985 47.5316 54.7695 47.1367 56.9569 47.0808C60.5349 46.9892 61.1537 47.9768 62.71 47.2092C63.7152 46.7133 64.4977 45.7875 64.8271 44.9975C63.5044 46.1368 62.8074 46.3099 62.4298 46.1012Z" fill="url(#paint36_linear_952_3889)"/>
<path d="M50.3026 28.8298C50.0552 29.4041 49.9381 29.8847 49.9518 30.2721C49.9652 30.6594 50.1887 30.8211 50.6223 30.7569L50.628 31.1239C50.6329 31.4374 50.4529 31.7242 50.1682 31.8564L49.918 31.9725C51.0604 32.1198 51.9202 31.9515 52.4974 31.4681L52.2302 31.4643C51.8519 31.4586 51.5301 31.1874 51.4606 30.8159L51.4318 30.6611C51.5268 29.4424 51.1504 28.832 50.3026 28.8298Z" fill="white"/>
<path d="M44.4401 38.3868C44.0174 38.1597 43.7733 37.9541 43.7074 37.77C43.6417 37.5857 43.5958 37.3151 43.5703 36.9583L43.994 37.6739C44.1017 37.6305 44.1709 37.5236 44.2017 37.3536C44.2475 37.0985 44.3926 37.3126 44.3633 37.5047C44.3434 37.6329 44.3692 37.927 44.4401 38.3868Z" fill="white"/>
<path d="M48.4707 32.875C48.1779 33.0978 47.7413 33.4809 47.381 34.0635C46.356 35.7203 46.989 37.3055 46.0687 37.9856C45.8057 38.1801 45.3275 38.3656 44.4058 38.1444L44.084 38.3609C43.9543 39.7993 44.7486 40.4555 46.4673 40.3293C48.186 40.2032 49.361 39.0317 49.9919 36.8148L48.4707 32.875Z" fill="url(#paint37_linear_952_3889)"/>
<path d="M50.6351 29.6281C50.7216 29.6139 50.7842 29.4976 50.8466 29.5254C50.912 29.5544 50.9184 29.7159 50.8733 29.8332C50.8364 29.9293 50.7682 29.9876 50.7296 30.0154C50.8045 30.1028 50.9021 30.2399 50.9534 30.4262C51.067 30.8376 50.8724 31.1924 50.7963 31.3968C50.453 32.3183 51.218 33.667 51.9888 34.3162C52.6151 34.8439 52.8661 34.5902 53.2505 35.0316C53.9988 35.891 53.1541 36.9738 53.6042 38.1766C54.2884 40.0055 57.2946 40.3176 57.4191 40.3289C57.4683 40.3336 57.5011 40.3362 57.5522 40.34C58.8975 40.4408 60.9366 40.5935 62.2638 39.3873C63.2566 38.4849 63.6252 37.0269 63.4414 35.7846C63.3929 35.4579 63.19 34.2191 62.0884 33.2856C61.9136 33.1376 60.8785 32.2623 59.5858 32.3577C58.9011 32.4082 58.7832 32.6605 58.2475 32.555C57.5143 32.4103 57.0191 31.7964 56.7117 31.4154C56.1468 30.7148 56.3382 30.5392 55.9457 30.204C55.1766 29.5476 54.3903 30.1783 53.5799 29.6097C52.781 29.0493 53.1616 28.1679 52.3956 27.689C51.6055 27.1952 50.198 27.507 49.9495 28.1937C49.7359 28.7835 50.37 29.6722 50.6351 29.6281Z" fill="url(#paint38_linear_952_3889)"/>
<path d="M22.8906 36.3291C22.9658 36.03 23.1588 35.7552 23.4697 35.5046C23.9359 35.129 24.7818 35.9155 24.8482 36.1431C24.9148 36.3704 24.6034 36.3015 24.4167 36.3192C24.2303 36.3369 23.9132 37.0566 23.4326 37.0934C23.1123 37.1179 22.9315 36.863 22.8906 36.3291Z" fill="url(#paint39_linear_952_3889)"/>
<path d="M16.3567 30.8925C15.9278 29.4824 14.8112 28.3739 13.3763 28.0319C12.7234 27.8763 12.0772 27.8723 11.6094 28.2113C11.822 31.8808 13.0993 34.4433 15.4409 35.8988C17.7824 37.3542 20.3779 37.7984 23.2274 37.2315L22.9202 35.5544C19.6504 36.084 17.4624 34.5302 16.3567 30.8925Z" fill="url(#paint40_linear_952_3889)"/>
<path d="M14.2319 27.9417L12.8274 27.45C12.6271 27.3797 12.4355 27.5104 12.4014 27.7297L12.3998 27.7406C12.3658 27.9601 12.5007 28.195 12.701 28.2651L14.1055 28.757C14.3058 28.8271 14.496 28.7062 14.5301 28.4867L14.5317 28.4758C14.5657 28.2563 14.4322 28.012 14.2319 27.9417Z" fill="url(#paint41_linear_952_3889)"/>
<path d="M3.01829 41.6465C3.34766 41.7633 3.6371 42.0102 3.88638 42.3872C4.26017 42.9525 3.28198 43.8207 3.01829 43.871C2.75461 43.9215 2.86566 43.5783 2.86566 43.3663C2.86566 43.1543 2.08759 42.7203 2.09775 42.175C2.10461 41.8117 2.4113 41.6354 3.01829 41.6465Z" fill="url(#paint42_linear_952_3889)"/>
<path d="M10.4308 59.9456C9.99388 60.2984 9.96907 60.5491 9.98325 60.6712C10.0062 60.8683 10.1548 60.9445 10.5101 61.3163C10.9912 61.819 10.9177 61.8863 11.1627 62.0683C11.7034 62.4696 12.4679 62.4432 12.514 62.3065C12.5464 62.2106 12.2007 62.1325 11.8071 61.6774C11.4439 61.2573 11.3211 60.8409 11.2882 60.7186C11.2284 60.4965 11.2131 60.3046 11.21 60.1717L10.4308 59.9456Z" fill="url(#paint43_linear_952_3889)"/>
<path d="M11.8949 58.8705L11.0344 60.3682C10.8271 60.4598 10.6291 60.4135 10.4453 60.1466L10.7811 58.3257L11.8949 58.8705Z" fill="url(#paint44_linear_952_3889)"/>
<path d="M12.9362 39.6596C13.7743 41.0732 15.1341 43.8014 15.4091 47.4905C15.6806 51.132 14.7612 53.9071 14.3761 54.9419C13.6545 56.881 12.3994 58.9174 11.6705 59.8878C11.1788 59.6824 10.8893 59.3602 10.3976 59.1549C10.4714 58.8876 10.6994 58.0048 10.843 57.4792C10.9541 57.072 11.1592 56.3183 11.2012 56.1573C11.5542 54.8086 11.2757 53.7967 11.3728 52.1288C11.4862 50.1835 11.9323 50.4094 11.8652 49.2417C11.765 47.4978 10.7759 47.0909 9.64037 44.5667C8.86302 42.8391 8.04668 41.0244 8.7971 40.0323C9.7415 38.7834 12.6153 39.5684 12.9362 39.6596Z" fill="url(#paint45_linear_952_3889)"/>
<path d="M6.86855 61.3156C6.60651 61.482 6.44845 61.8778 6.56777 62.1271C6.6852 62.3721 6.98432 62.2947 7.71111 62.5177C8.48941 62.7566 8.64347 62.9981 9.21739 62.9976C9.44917 62.9974 9.86951 62.9575 9.90448 62.8019C9.92929 62.6924 9.75066 62.5834 9.16328 62.1889C8.32945 61.6293 8.33796 61.6137 8.15177 61.5278C7.68418 61.3123 7.21469 61.0956 6.86855 61.3156Z" fill="url(#paint46_linear_952_3889)"/>
<path d="M8.11424 60.1292L7.79479 61.5872C7.75014 61.6524 7.29507 61.8084 6.97656 61.5872L7.09399 60.1292H8.11424Z" fill="url(#paint47_linear_952_3889)"/>
<path style="mix-blend-mode:multiply" opacity="0.2" d="M8.7971 40.0323C9.7415 38.7834 12.6153 39.5684 12.9362 39.6596C13.2807 40.2405 13.7126 41.0465 14.1216 42.0467C13.1033 41.8467 12.6612 42.0282 12.4552 42.2697C11.6556 43.2063 14.159 45.2745 13.6443 48.4127C13.4428 49.6402 12.9173 50.1925 13.0135 51.6916C13.0851 52.8072 13.4319 53.372 13.6717 54.1887C13.8156 54.6788 13.9272 55.2811 13.9324 56.0096C13.2124 57.5908 12.2659 59.0949 11.6705 59.8878C11.1788 59.6824 10.8893 59.3602 10.3976 59.1549C10.4714 58.8876 10.6994 58.0048 10.843 57.4792C10.9541 57.072 11.1592 56.3183 11.2012 56.1573C11.5542 54.8086 11.2757 53.7967 11.3728 52.1288C11.4862 50.1835 11.9323 50.4094 11.8652 49.2417C11.765 47.4978 10.7759 47.0909 9.64038 44.5667C8.86302 42.8391 8.04668 41.0244 8.7971 40.0323Z" fill="url(#paint48_linear_952_3889)"/>
<path d="M10.6953 40.4207C10.7747 43.6746 10.6544 47.4449 10.1294 51.6004C9.70201 54.9836 9.0806 58.0361 8.39587 60.7143C8.30112 60.7688 7.96915 60.9442 7.54361 60.8621C7.2426 60.804 7.04105 60.6449 6.95127 60.5639C7.02617 60.0168 7.10178 59.1892 7.03987 58.1889C6.93331 56.4693 6.53613 56.119 6.36577 54.3397C6.21644 52.7792 6.3738 51.5044 6.45012 50.9133C6.68498 49.0939 7.00396 49.0566 7.01034 47.967C7.02002 46.2892 6.26772 45.6885 5.85423 44.0898C5.57849 43.0236 5.43224 41.4315 6.12595 39.2483C7.64899 39.6392 9.17228 40.0301 10.6953 40.4207Z" fill="url(#paint49_linear_952_3889)"/>
<path style="mix-blend-mode:multiply" opacity="0.2" d="M6.12595 39.2483C6.57181 39.3628 7.01766 39.4773 7.46352 39.5915C7.23031 40.4108 7.00632 41.6404 7.27568 43.0363C7.64734 44.9641 8.60828 45.3871 8.74958 47.1253C8.8767 48.6891 8.15274 49.008 7.80636 51.0937C7.451 53.2313 7.98876 54.2366 8.101 56.0241C8.17802 57.2478 8.05303 58.8484 7.32317 60.7965C7.14289 60.7238 7.01695 60.6232 6.95127 60.564C7.02617 60.0168 7.10178 59.1892 7.03987 58.1889C6.93331 56.4693 6.53613 56.119 6.36577 54.3397C6.21644 52.7792 6.37381 51.5044 6.45012 50.9133C6.68498 49.0939 7.00396 49.0566 7.01034 47.967C7.02002 46.2892 6.26772 45.6885 5.85423 44.0898C5.57849 43.0236 5.43224 41.4315 6.12595 39.2483Z" fill="url(#paint50_linear_952_3889)"/>
<path d="M14.7013 35.1931C14.1728 37.5875 14.2666 40.9726 14.9168 42.5024C14.9326 42.5402 14.9577 42.6062 14.9461 42.6917C14.8991 43.0439 14.2548 43.2882 13.3167 43.4263C13.3099 43.4272 13.3033 43.4282 13.2957 43.4289C13.2631 43.4338 13.2295 43.439 13.196 43.443C13.1617 43.4482 13.1265 43.4522 13.0913 43.4565C12.8784 43.4834 12.6523 43.5042 12.4177 43.5209C12.391 43.5226 12.3633 43.5242 12.3357 43.5259C11.2299 43.5979 9.92378 43.561 8.73601 43.4197C8.27858 43.3661 7.83957 43.2957 7.43507 43.2105C7.42325 43.2079 7.41073 43.2063 7.39892 43.203C6.18681 42.9426 5.30053 42.5435 5.23438 42.0086C5.42103 41.4924 5.57107 40.9943 5.68921 40.5149C5.92714 39.8922 6.17925 39.0661 6.27305 37.6224C6.28983 37.3656 6.27801 37.1397 6.27801 36.9296V36.9263C6.36189 35.68 6.06017 35.1017 5.83901 33.1527C5.82153 33.0045 5.80806 32.8489 5.79223 32.6839C5.78207 32.5826 5.77474 32.4833 5.76624 32.3844C5.60793 30.6244 5.62211 29.185 5.65826 28.2494C6.45239 27.8979 7.63685 27.4853 9.12209 27.3498C10.2446 27.2466 11.2105 27.3321 11.9411 27.4544C12.158 27.5339 12.7369 27.7674 13.3115 28.2921C13.6081 28.5397 14.0319 28.9457 14.4116 29.5365C15.3407 30.9801 15.3055 32.4313 15.2904 32.8355C15.2526 33.8247 14.9896 33.8892 14.7013 35.1931Z" fill="url(#paint51_linear_952_3889)"/>
<path d="M13.3167 43.4346C13.2773 43.4405 13.2371 43.4464 13.196 43.4505C13.1617 43.4556 13.1265 43.459 13.0913 43.463C12.8794 43.4873 12.654 43.5066 12.4177 43.5208C12.391 43.5224 12.3633 43.5241 12.3357 43.5258C11.2415 43.5869 9.93134 43.5484 8.73601 43.4195C8.27858 43.366 7.83957 43.2956 7.43507 43.2104C7.42325 43.2078 7.41073 43.2062 7.39892 43.2028C6.18681 42.9425 5.30053 42.5433 5.23438 42.0085C5.42103 41.4922 5.57107 40.9942 5.68921 40.5148C5.92714 39.8921 6.17925 39.0659 6.27305 37.6223C6.28983 37.3655 6.27801 37.1396 6.27801 36.9295V36.9262C6.36189 35.6799 6.06017 35.1016 5.83901 33.1526C6.40111 33.1634 7.44593 33.3183 7.86651 33.4554C8.92196 33.8003 10.4131 35.6724 10.5069 36.9135C10.651 38.82 7.59999 39.8661 8.00709 41.2019C8.11767 41.5666 8.46784 41.8947 10.7541 42.6621C11.6689 42.9701 12.5217 43.2213 13.2957 43.4287C13.3023 43.4313 13.3099 43.433 13.3167 43.4346Z" fill="url(#paint52_linear_952_3889)"/>
<path d="M5.65914 28.2488C2.37394 29.9037 0.528607 32.0937 0.123391 34.8188C-0.281589 37.5439 0.342893 40.0996 1.99707 42.4858L3.41521 41.5371C1.28824 38.2212 2.30093 35.2673 6.45351 32.6758C6.91378 30.3092 6.64891 28.8335 5.65914 28.2488Z" fill="url(#paint53_linear_952_3889)"/>
<path d="M12.8133 31.4587C12.7748 32.0245 12.6843 32.5115 12.5402 32.8044C12.2571 32.4964 11.9027 32.0965 11.519 31.6547C10.5059 30.4907 9.33415 29.1092 8.00391 27.5102C8.89609 27.1906 11.1462 26.871 12.0166 27.4802C12.6482 27.9212 12.9147 29.9632 12.8133 31.4587Z" fill="white"/>
<path d="M11.8757 27.7075C11.8717 27.6978 11.8634 27.6879 11.8528 27.6782C11.8525 27.678 11.8525 27.6775 11.8521 27.6773C11.8514 27.6766 11.8499 27.6759 11.8492 27.6752C11.7134 27.5569 11.1482 27.4316 11.0015 27.0839C10.9325 26.9205 10.9374 26.6637 11.2177 26.2445C11.0282 25.8897 10.8387 25.5349 10.6492 25.1802C10.5625 26.3507 10.2073 27.0013 9.89829 27.1445C9.6072 27.2795 9.42692 27.1445 8.81141 27.3995C8.65712 27.4634 8.62452 27.5885 8.63444 27.6773C8.63444 27.6822 8.63657 27.6898 8.64058 27.6992C8.65287 27.7453 8.68642 27.7844 8.73793 27.8177C8.94231 27.9976 9.55238 28.3389 11.3762 28.777C11.6848 28.2398 12.0108 27.9084 11.8757 27.7075Z" fill="url(#paint54_linear_952_3889)"/>
<path d="M12.12 25.4697C12.3818 25.2256 12.4816 24.7526 12.2913 24.4202C12.1278 24.1342 11.803 24.0537 11.6087 24.0055C11.0452 23.8658 10.2778 24.0015 9.93235 24.4785C9.72797 24.7611 9.93708 25.4317 9.96708 25.5514C10.0011 25.6866 10.0973 25.7442 10.1757 25.8533C10.2849 26.0048 10.4548 26.2451 10.7305 26.6461C10.7761 26.5444 10.8401 26.4198 10.9297 26.2871C10.9642 26.2361 11.1017 26.0374 11.2831 25.8811C11.647 25.5683 11.8717 25.701 12.12 25.4697Z" fill="url(#paint55_linear_952_3889)"/>
<path d="M10.2972 26.2825C10.4767 26.7142 10.8201 26.9474 11.3276 26.9821C12.009 27.0284 12.3731 25.585 11.9988 25.2191C11.8741 25.0971 11.5943 25.0163 11.3491 25.0487C11.204 25.0678 11.1473 25.1169 10.9101 25.1438C10.6913 25.1686 10.6362 25.1384 10.5637 25.1813C10.473 25.2351 10.3865 25.3846 10.4408 25.8278C10.3352 25.6855 10.1897 25.6168 10.0713 25.6522C10.0524 25.6579 10.0006 25.6822 9.96615 25.7247C9.84163 25.8786 9.96072 26.112 10.2972 26.2825Z" fill="url(#paint56_linear_952_3889)"/>
<path d="M10.5528 25.0904C10.5812 25.118 10.4605 25.2218 10.4231 25.3861C10.3501 25.7055 10.6171 26.1351 10.955 26.2132C11.1549 26.2593 11.2324 26.1485 11.5747 26.1585C11.7867 26.1648 11.9551 26.213 12.0601 26.2505C12.1016 26.6164 11.9384 26.9544 11.6645 27.0852C11.3696 27.2258 11.0533 27.0753 10.921 27.0125C10.8324 26.9702 10.5488 26.8359 10.4399 26.5491C10.3265 26.2503 10.5176 26.1044 10.3638 25.892C10.2863 25.785 10.1691 25.7277 10.0812 25.5285C10.0574 25.4744 10.0434 25.4274 10.0352 25.396C10.2414 25.2414 10.512 25.0502 10.5528 25.0904Z" fill="url(#paint57_linear_952_3889)"/>
<path d="M9.86484 25.0849C9.17703 24.5257 9.07756 24.1537 9.56618 23.9689C10.2994 23.6918 10.8858 23.1029 11.6291 23.4355C12.3727 23.768 13.1474 24.1976 12.9906 24.4401C12.8857 24.6017 12.6862 24.8071 12.3916 25.0564C11.8066 24.8125 10.9645 24.822 9.86484 25.0849Z" fill="url(#paint58_linear_952_3889)"/>
<path d="M10.3398 24.9876C10.699 25.4449 11.1777 25.6677 11.7757 25.6561C12.6726 25.6386 12.7317 25.5827 12.3914 25.0563C11.629 24.8434 11.117 24.71 10.3398 24.9876Z" fill="url(#paint59_linear_952_3889)"/>
<path d="M12.5381 24.9377C12.5364 24.8993 12.2867 24.6158 11.592 24.6169C11.0108 24.6179 10.1654 24.6625 10.168 24.8716C10.1708 25.0805 10.3142 25.0189 10.3608 25.0149C10.4071 25.0111 11.8051 24.7496 12.3895 25.0565C12.4913 25.0435 12.5407 25.0041 12.5381 24.9377Z" fill="url(#paint60_linear_952_3889)"/>
<path d="M11.911 23.8655C11.7498 23.8688 11.6504 23.8261 11.6123 23.7373C11.5736 23.8261 11.4739 23.8688 11.3125 23.8655C11.316 23.9896 11.317 24.1084 11.3168 24.2089C11.3168 24.2861 11.3477 24.3602 11.4032 24.4147C11.4585 24.4693 11.5339 24.5002 11.6123 24.5002C11.6849 24.5002 11.7652 24.4693 11.8207 24.4147C11.876 24.3602 11.9063 24.2861 11.906 24.2089C11.9058 24.1084 11.9074 23.9896 11.911 23.8655Z" fill="url(#paint61_linear_952_3889)"/>
<path d="M12.8126 31.4587C12.7741 32.0245 12.6836 32.5114 12.5395 32.8044C12.2564 32.4963 11.902 32.0965 11.5183 31.6546L11.2359 29.2635C11.2007 28.8216 11.3352 28.793 11.639 29.178C11.9389 29.558 12.4783 30.713 12.8126 31.4587Z" fill="url(#paint62_linear_952_3889)"/>
<path d="M10.8615 28.6472L10.8359 28.9085L11.2364 29.2633L11.6395 29.1783L11.7104 28.7454L11.5133 28.5535L10.8615 28.6472Z" fill="url(#paint63_linear_952_3889)"/>
<path d="M8.37794 27.5561C8.34392 27.3369 8.15229 27.2061 7.95169 27.2764L6.54749 27.7681C6.34689 27.8384 6.21363 28.0827 6.24742 28.3023L6.24931 28.3131C6.2831 28.5326 6.4733 28.6535 6.67367 28.5834L8.0781 28.0915C8.27847 28.0214 8.41362 27.7865 8.37959 27.5672L8.37794 27.5561Z" fill="url(#paint64_linear_952_3889)"/>
</g>
<defs>
<linearGradient id="paint0_linear_952_3889" x1="-4.90951" y1="30.6582" x2="9.82154" y2="44.2224" gradientUnits="userSpaceOnUse">
<stop stop-color="#FF9085"/>
<stop offset="1" stop-color="#FB6FBB"/>
</linearGradient>
<linearGradient id="paint1_linear_952_3889" x1="63.3388" y1="14.4827" x2="54.2251" y2="29.4953" gradientUnits="userSpaceOnUse">
<stop stop-color="#FFC444"/>
<stop offset="0.996" stop-color="#F36F56"/>
</linearGradient>
<linearGradient id="paint2_linear_952_3889" x1="28.2279" y1="57.2114" x2="10.3281" y2="95.4807" gradientUnits="userSpaceOnUse">
<stop offset="0.004" stop-color="#E38DDD"/>
<stop offset="1" stop-color="#9571F6"/>
</linearGradient>
<linearGradient id="paint3_linear_952_3889" x1="7.96504" y1="-0.0449897" x2="48.2569" y2="-0.0449897" gradientUnits="userSpaceOnUse">
<stop stop-color="#311944"/>
<stop offset="1" stop-color="#893976"/>
</linearGradient>
<linearGradient id="paint4_linear_952_3889" x1="61.8345" y1="71.9949" x2="-14.661" y2="51.6762" gradientUnits="userSpaceOnUse">
<stop stop-color="#311944"/>
<stop offset="1" stop-color="#893976"/>
</linearGradient>
<linearGradient id="paint5_linear_952_3889" x1="27.7705" y1="59.6805" x2="26.6288" y2="82.8796" gradientUnits="userSpaceOnUse">
<stop stop-color="#444B8C"/>
<stop offset="0.996" stop-color="#3E4177"/>
</linearGradient>
<linearGradient id="paint6_linear_952_3889" x1="20.6547" y1="50.7137" x2="31.8754" y2="47.5873" gradientUnits="userSpaceOnUse">
<stop offset="0.004" stop-color="#6165D7"/>
<stop offset="1" stop-color="#AA80F9"/>
</linearGradient>
<linearGradient id="paint7_linear_952_3889" x1="26.1914" y1="49.4338" x2="37.4574" y2="49.4338" gradientUnits="userSpaceOnUse">
<stop offset="0.004" stop-color="#6165D7"/>
<stop offset="1" stop-color="#AA80F9"/>
</linearGradient>
<linearGradient id="paint8_linear_952_3889" x1="25.0341" y1="49.7476" x2="24.4452" y2="49.7476" gradientUnits="userSpaceOnUse">
<stop stop-color="#444B8C"/>
<stop offset="0.996" stop-color="#3E4177"/>
</linearGradient>
<linearGradient id="paint9_linear_952_3889" x1="26.1914" y1="49.4338" x2="36.7107" y2="49.4338" gradientUnits="userSpaceOnUse">
<stop offset="0.004" stop-color="#6165D7"/>
<stop offset="1" stop-color="#AA80F9"/>
</linearGradient>
<linearGradient id="paint10_linear_952_3889" x1="29.1158" y1="35.2881" x2="24.8058" y2="36.4705" gradientUnits="userSpaceOnUse">
<stop stop-color="#AB316D"/>
<stop offset="1" stop-color="#792D3D"/>
</linearGradient>
<linearGradient id="paint11_linear_952_3889" x1="29.1626" y1="35.2619" x2="24.8527" y2="36.4443" gradientUnits="userSpaceOnUse">
<stop stop-color="#444B8C"/>
<stop offset="0.996" stop-color="#3E4177"/>
</linearGradient>
<linearGradient id="paint12_linear_952_3889" x1="29.3889" y1="35.2016" x2="24.8221" y2="36.4544" gradientUnits="userSpaceOnUse">
<stop stop-color="#FF9085"/>
<stop offset="1" stop-color="#FB6FBB"/>
</linearGradient>
<linearGradient id="paint13_linear_952_3889" x1="45.6885" y1="60.4022" x2="46.779" y2="61.1276" gradientUnits="userSpaceOnUse">
<stop stop-color="#444B8C"/>
<stop offset="0.996" stop-color="#26264F"/>
</linearGradient>
<linearGradient id="paint14_linear_952_3889" x1="46.2316" y1="61.4342" x2="45.9651" y2="59.5472" gradientUnits="userSpaceOnUse">
<stop stop-color="#AB316D"/>
<stop offset="1" stop-color="#792D3D"/>
</linearGradient>
<linearGradient id="paint15_linear_952_3889" x1="45.8416" y1="60.2301" x2="46.9183" y2="60.9463" gradientUnits="userSpaceOnUse">
<stop stop-color="#444B8C"/>
<stop offset="0.996" stop-color="#26264F"/>
</linearGradient>
<linearGradient id="paint16_linear_952_3889" x1="37.9949" y1="61.0339" x2="38.9545" y2="61.8882" gradientUnits="userSpaceOnUse">
<stop stop-color="#444B8C"/>
<stop offset="0.996" stop-color="#26264F"/>
</linearGradient>
<linearGradient id="paint17_linear_952_3889" x1="25.2895" y1="35.6524" x2="26.551" y2="36.1196" gradientUnits="userSpaceOnUse">
<stop stop-color="#AB316D"/>
<stop offset="1" stop-color="#792D3D"/>
</linearGradient>
<linearGradient id="paint18_linear_952_3889" x1="38.3511" y1="62.1442" x2="38.3511" y2="60.2386" gradientUnits="userSpaceOnUse">
<stop stop-color="#AB316D"/>
<stop offset="1" stop-color="#792D3D"/>
</linearGradient>
<linearGradient id="paint19_linear_952_3889" x1="31.9218" y1="46.671" x2="38.695" y2="39.5072" gradientUnits="userSpaceOnUse">
<stop stop-color="#AB316D"/>
<stop offset="1" stop-color="#792D3D"/>
</linearGradient>
<linearGradient id="paint20_linear_952_3889" x1="46.6285" y1="18.3301" x2="46.8691" y2="44.178" gradientUnits="userSpaceOnUse">
<stop stop-color="#FF9085"/>
<stop offset="1" stop-color="#FB6FBB"/>
</linearGradient>
<linearGradient id="paint21_linear_952_3889" x1="43.5993" y1="37.1933" x2="42.4446" y2="41.7891" gradientUnits="userSpaceOnUse">
<stop stop-color="#AB316D"/>
<stop offset="1" stop-color="#792D3D"/>
</linearGradient>
<linearGradient id="paint22_linear_952_3889" x1="50.7499" y1="17.9251" x2="50.9935" y2="44.102" gradientUnits="userSpaceOnUse">
<stop stop-color="#FF9085"/>
<stop offset="1" stop-color="#FB6FBB"/>
</linearGradient>
<linearGradient id="paint23_linear_952_3889" x1="38.1779" y1="60.9126" x2="39.0958" y2="61.7299" gradientUnits="userSpaceOnUse">
<stop stop-color="#444B8C"/>
<stop offset="0.996" stop-color="#26264F"/>
</linearGradient>
<linearGradient id="paint24_linear_952_3889" x1="40.4162" y1="19.1779" x2="40.6451" y2="43.7655" gradientUnits="userSpaceOnUse">
<stop stop-color="#FF9085"/>
<stop offset="1" stop-color="#FB6FBB"/>
</linearGradient>
<linearGradient id="paint25_linear_952_3889" x1="43.4698" y1="27.0912" x2="43.8796" y2="30.8297" gradientUnits="userSpaceOnUse">
<stop stop-color="#AB316D"/>
<stop offset="1" stop-color="#792D3D"/>
</linearGradient>
<linearGradient id="paint26_linear_952_3889" x1="40.4343" y1="27.3669" x2="41.3914" y2="30.0106" gradientUnits="userSpaceOnUse">
<stop stop-color="#AB316D"/>
<stop offset="1" stop-color="#792D3D"/>
</linearGradient>
<linearGradient id="paint27_linear_952_3889" x1="47.1517" y1="38.0026" x2="43.4188" y2="39.0266" gradientUnits="userSpaceOnUse">
<stop stop-color="#AB316D"/>
<stop offset="1" stop-color="#792D3D"/>
</linearGradient>
<linearGradient id="paint28_linear_952_3889" x1="47.1907" y1="37.9799" x2="43.4579" y2="39.0039" gradientUnits="userSpaceOnUse">
<stop stop-color="#444B8C"/>
<stop offset="0.996" stop-color="#3E4177"/>
</linearGradient>
<linearGradient id="paint29_linear_952_3889" x1="47.3867" y1="37.9276" x2="43.4314" y2="39.0127" gradientUnits="userSpaceOnUse">
<stop stop-color="#FF9085"/>
<stop offset="1" stop-color="#FB6FBB"/>
</linearGradient>
<linearGradient id="paint30_linear_952_3889" x1="54.7632" y1="63.6407" x2="55.6443" y2="58.695" gradientUnits="userSpaceOnUse">
<stop stop-color="#444B8C"/>
<stop offset="0.996" stop-color="#26264F"/>
</linearGradient>
<linearGradient id="paint31_linear_952_3889" x1="52.2711" y1="63.2021" x2="53.1242" y2="58.4138" gradientUnits="userSpaceOnUse">
<stop stop-color="#444B8C"/>
<stop offset="0.996" stop-color="#26264F"/>
</linearGradient>
<linearGradient id="paint32_linear_952_3889" x1="51.4159" y1="45.7708" x2="54.0477" y2="61.8503" gradientUnits="userSpaceOnUse">
<stop stop-color="#311944"/>
<stop offset="1" stop-color="#893976"/>
</linearGradient>
<linearGradient id="paint33_linear_952_3889" x1="51.4182" y1="45.7708" x2="54.05" y2="61.8504" gradientUnits="userSpaceOnUse">
<stop stop-color="#311944"/>
<stop offset="1" stop-color="#893976"/>
</linearGradient>
<linearGradient id="paint34_linear_952_3889" x1="45.0907" y1="62.5429" x2="58.0361" y2="60.4065" gradientUnits="userSpaceOnUse">
<stop stop-color="#311944"/>
<stop offset="1" stop-color="#893976"/>
</linearGradient>
<linearGradient id="paint35_linear_952_3889" x1="69.0184" y1="50.4914" x2="57.6274" y2="32.1294" gradientUnits="userSpaceOnUse">
<stop offset="0.004" stop-color="#6165D7"/>
<stop offset="1" stop-color="#AA80F9"/>
</linearGradient>
<linearGradient id="paint36_linear_952_3889" x1="51.4848" y1="30.6013" x2="62.2372" y2="42.2624" gradientUnits="userSpaceOnUse">
<stop stop-color="#FF9085"/>
<stop offset="1" stop-color="#FB6FBB"/>
</linearGradient>
<linearGradient id="paint37_linear_952_3889" x1="62.1705" y1="54.8457" x2="50.7045" y2="36.3629" gradientUnits="userSpaceOnUse">
<stop offset="0.004" stop-color="#6165D7"/>
<stop offset="1" stop-color="#AA80F9"/>
</linearGradient>
<linearGradient id="paint38_linear_952_3889" x1="65.0981" y1="37.4686" x2="56.8215" y2="24.127" gradientUnits="userSpaceOnUse">
<stop stop-color="#444B8C"/>
<stop offset="0.996" stop-color="#26264F"/>
</linearGradient>
<linearGradient id="paint39_linear_952_3889" x1="23.3984" y1="35.1525" x2="27.2636" y2="36.3274" gradientUnits="userSpaceOnUse">
<stop stop-color="#FFC444"/>
<stop offset="0.996" stop-color="#F36F56"/>
</linearGradient>
<linearGradient id="paint40_linear_952_3889" x1="11.4767" y1="28.055" x2="21.0801" y2="26.1906" gradientUnits="userSpaceOnUse">
<stop stop-color="#444B8C"/>
<stop offset="0.996" stop-color="#3E4177"/>
</linearGradient>
<linearGradient id="paint41_linear_952_3889" x1="12.4224" y1="27.387" x2="14.509" y2="27.387" gradientUnits="userSpaceOnUse">
<stop stop-color="#444B8C"/>
<stop offset="0.996" stop-color="#3E4177"/>
</linearGradient>
<linearGradient id="paint42_linear_952_3889" x1="4.31541" y1="42.3795" x2="2.57785" y2="46.6147" gradientUnits="userSpaceOnUse">
<stop stop-color="#FFC444"/>
<stop offset="0.996" stop-color="#F36F56"/>
</linearGradient>
<linearGradient id="paint43_linear_952_3889" x1="12.3725" y1="59.8102" x2="9.95918" y2="59.9224" gradientUnits="userSpaceOnUse">
<stop stop-color="#444B8C"/>
<stop offset="0.996" stop-color="#26264F"/>
</linearGradient>
<linearGradient id="paint44_linear_952_3889" x1="9.58153" y1="58.7838" x2="10.8862" y2="60.9296" gradientUnits="userSpaceOnUse">
<stop stop-color="#FFC444"/>
<stop offset="0.996" stop-color="#F36F56"/>
</linearGradient>
<linearGradient id="paint45_linear_952_3889" x1="19.1484" y1="59.4668" x2="14.0764" y2="41.2492" gradientUnits="userSpaceOnUse">
<stop stop-color="#444B8C"/>
<stop offset="0.996" stop-color="#3E4177"/>
</linearGradient>
<linearGradient id="paint46_linear_952_3889" x1="9.88487" y1="61.1797" x2="6.60399" y2="61.1797" gradientUnits="userSpaceOnUse">
<stop stop-color="#444B8C"/>
<stop offset="0.996" stop-color="#26264F"/>
</linearGradient>
<linearGradient id="paint47_linear_952_3889" x1="8.81636" y1="61.4672" x2="7.59871" y2="58.9446" gradientUnits="userSpaceOnUse">
<stop stop-color="#FFC444"/>
<stop offset="0.996" stop-color="#F36F56"/>
</linearGradient>
<linearGradient id="paint48_linear_952_3889" x1="18.7255" y1="59.4197" x2="13.753" y2="41.5594" gradientUnits="userSpaceOnUse">
<stop stop-color="#444B8C"/>
<stop offset="0.996" stop-color="#3E4177"/>
</linearGradient>
<linearGradient id="paint49_linear_952_3889" x1="15.7429" y1="48.4686" x2="8.44788" y2="36.9568" gradientUnits="userSpaceOnUse">
<stop stop-color="#444B8C"/>
<stop offset="0.996" stop-color="#3E4177"/>
</linearGradient>
<linearGradient id="paint50_linear_952_3889" x1="13.5449" y1="49.4549" x2="6.56565" y2="38.4413" gradientUnits="userSpaceOnUse">
<stop stop-color="#444B8C"/>
<stop offset="0.996" stop-color="#3E4177"/>
</linearGradient>
<linearGradient id="paint51_linear_952_3889" x1="5.2343" y1="27.2568" x2="15.2499" y2="27.2568" gradientUnits="userSpaceOnUse">
<stop stop-color="#444B8C"/>
<stop offset="0.996" stop-color="#3E4177"/>
</linearGradient>
<linearGradient id="paint52_linear_952_3889" x1="5.97005" y1="17.2402" x2="12.9351" y2="41.9689" gradientUnits="userSpaceOnUse">
<stop stop-color="#444B8C"/>
<stop offset="0.996" stop-color="#3E4177"/>
</linearGradient>
<linearGradient id="paint53_linear_952_3889" x1="6.87401" y1="30.8758" x2="3.94715" y2="39.3302" gradientUnits="userSpaceOnUse">
<stop stop-color="#444B8C"/>
<stop offset="0.996" stop-color="#3E4177"/>
</linearGradient>
<linearGradient id="paint54_linear_952_3889" x1="7.73545" y1="29.8487" x2="9.67037" y2="24.5762" gradientUnits="userSpaceOnUse">
<stop stop-color="#FFC444"/>
<stop offset="0.996" stop-color="#F36F56"/>
</linearGradient>
<linearGradient id="paint55_linear_952_3889" x1="10.3386" y1="28.797" x2="12.5932" y2="24.9138" gradientUnits="userSpaceOnUse">
<stop stop-color="#311944"/>
<stop offset="1" stop-color="#6B3976"/>
</linearGradient>
<linearGradient id="paint56_linear_952_3889" x1="12.2269" y1="25.4846" x2="11.6182" y2="31.4006" gradientUnits="userSpaceOnUse">
<stop stop-color="#FFC444"/>
<stop offset="0.996" stop-color="#F36F56"/>
</linearGradient>
<linearGradient id="paint57_linear_952_3889" x1="10.7899" y1="28.8916" x2="12.9505" y2="25.1703" gradientUnits="userSpaceOnUse">
<stop stop-color="#311944"/>
<stop offset="1" stop-color="#6B3976"/>
</linearGradient>
<linearGradient id="paint58_linear_952_3889" x1="8.65961" y1="25.8633" x2="9.79312" y2="22.7746" gradientUnits="userSpaceOnUse">
<stop stop-color="#444B8C"/>
<stop offset="0.996" stop-color="#3E4177"/>
</linearGradient>
<linearGradient id="paint59_linear_952_3889" x1="10.0491" y1="25.727" x2="10.5041" y2="24.4873" gradientUnits="userSpaceOnUse">
<stop stop-color="#444B8C"/>
<stop offset="0.996" stop-color="#3E4177"/>
</linearGradient>
<linearGradient id="paint60_linear_952_3889" x1="9.8129" y1="25.4858" x2="10.3574" y2="24.0021" gradientUnits="userSpaceOnUse">
<stop stop-color="#FFC444"/>
<stop offset="0.996" stop-color="#F36F56"/>
</linearGradient>
<linearGradient id="paint61_linear_952_3889" x1="10.9617" y1="24.683" x2="11.6391" y2="22.8372" gradientUnits="userSpaceOnUse">
<stop stop-color="#FFC444"/>
<stop offset="0.996" stop-color="#F36F56"/>
</linearGradient>
<linearGradient id="paint62_linear_952_3889" x1="9.35456" y1="33.7615" x2="11.1313" y2="28.92" gradientUnits="userSpaceOnUse">
<stop stop-color="#FF9085"/>
<stop offset="1" stop-color="#FB6FBB"/>
</linearGradient>
<linearGradient id="paint63_linear_952_3889" x1="10.4893" y1="29.5224" x2="10.9426" y2="28.2872" gradientUnits="userSpaceOnUse">
<stop stop-color="#FF9085"/>
<stop offset="1" stop-color="#FB6FBB"/>
</linearGradient>
<linearGradient id="paint64_linear_952_3889" x1="8.65918" y1="25.9533" x2="8.19272" y2="29.7278" gradientUnits="userSpaceOnUse">
<stop stop-color="#444B8C"/>
<stop offset="0.996" stop-color="#3E4177"/>
</linearGradient>
<clipPath id="clip0_952_3889">
<rect width="65" height="63" fill="white"/>
</clipPath>
</defs>
</svg>
