<svg width="88" height="65" viewBox="0 0 88 65" fill="none" xmlns="http://www.w3.org/2000/svg">
<path fill-rule="evenodd" clip-rule="evenodd" d="M65.0897 28.1444C65.7407 28.0657 66.3747 28.2756 66.8459 28.7129C67.317 29.1414 67.5826 29.7536 67.5826 30.4007V33.1555C67.5826 34.4061 66.5803 35.4206 65.3553 35.4206H56.1118C53.9787 35.4206 51.974 34.3624 50.749 32.5871L33.0073 3.43001C32.7932 3.07145 32.8788 2.60794 33.2044 2.36307L36.0828 0.159237C36.2627 0.0280562 36.4854 -0.024416 36.691 0.0105655C36.9138 0.0542924 37.1022 0.185473 37.2136 0.369126L54.7068 28.0657C55.2722 28.8616 56.266 29.2988 57.2683 29.1851L65.0897 28.1444ZM66.0063 33.1468V30.392C66.0063 30.2083 65.9292 30.0334 65.7922 29.9023C65.6465 29.7798 65.4666 29.7186 65.2781 29.7361L57.4567 30.7855C55.8805 30.9692 54.3299 30.2696 53.4047 28.9752L36.3484 1.96953L34.7292 3.20263L52.0683 31.6951C52.9678 33.0069 54.4927 33.8114 56.1118 33.8114H65.3553C65.7151 33.8114 66.0063 33.5141 66.0063 33.1468Z" fill="#1372E6"/>
<path fill-rule="evenodd" clip-rule="evenodd" d="M23.0872 2.33337L28.9639 11.2187C29.8891 12.6179 30.4974 14.1396 31.0799 15.6089C31.6624 17.0431 32.2021 18.3986 33.016 19.6317L40.7175 31.2893L41.1801 30.9745C41.497 30.7559 41.9254 30.8346 42.1395 31.1582C42.3537 31.4817 42.268 31.919 41.9511 32.1376L36.7939 35.6883C36.6311 35.802 36.4512 35.8369 36.2713 35.802C36.1 35.767 35.9372 35.662 35.8344 35.5046C35.6203 35.181 35.7059 34.735 36.0229 34.5251L36.4769 34.2016L30.8657 25.7098L28.7755 22.5527C27.9616 21.3109 26.925 20.2789 25.8285 19.1857C24.7148 18.0838 23.5669 16.9382 22.6588 15.5564L16.7906 6.67108C16.4051 6.09388 16.268 5.403 16.3965 4.72086C16.5251 4.02997 16.9106 3.44403 17.476 3.05049L19.5405 1.63374C20.7056 0.820415 22.299 1.14399 23.0872 2.33337ZM23.8068 14.7693C24.6377 16.0286 25.6829 17.0781 26.788 18.18C27.8931 19.2732 29.0239 20.4013 29.9234 21.7569L31.6282 24.3368L33.5728 22.99L31.8766 20.4188C30.9771 19.0633 30.386 17.5766 29.8035 16.1423C29.2466 14.7343 28.6641 13.2913 27.816 12.0058L21.9478 3.12045C21.5965 2.59573 20.8341 2.43831 20.3115 2.79687L18.247 4.22237C17.99 4.39728 17.8101 4.66839 17.7587 4.98322C17.6987 5.29805 17.7587 5.62163 17.93 5.88399L23.8068 14.7693Z" fill="#1372E6"/>
<path fill-rule="evenodd" clip-rule="evenodd" d="M0.454036 61.3155C0.154201 61.3155 0 61.1493 0 60.8257V50.9171C0 50.5936 0.154201 50.4274 0.462603 50.4274H3.99209C5.11433 50.4274 5.97957 50.6985 6.57067 51.2232C7.17034 51.7567 7.47018 52.5088 7.47018 53.4883C7.47018 54.2929 7.24744 54.9488 6.81911 55.4473C6.39077 55.9458 5.78253 56.2694 4.9944 56.4093C5.42273 56.5755 5.79967 56.9777 6.13377 57.6074L7.71861 60.6246C7.81285 60.7995 7.82998 60.9569 7.77001 61.0969C7.71861 61.2368 7.60724 61.3155 7.43591 61.3155C7.19604 61.3155 7.01614 61.193 6.89621 60.9569L5.21713 57.7648C4.96013 57.2838 4.66886 56.9603 4.35189 56.7941C4.02636 56.6367 3.59802 56.5492 3.05832 56.5492H0.916639V60.8257C0.916639 61.1493 0.762438 61.3155 0.454036 61.3155ZM0.916639 51.2407V55.7534H3.87216C5.64547 55.7534 6.5364 55.0013 6.5364 53.4883C6.5364 51.9928 5.64547 51.2407 3.87216 51.2407H0.916639ZM12.7301 61.3417C11.6079 61.3417 10.7255 61.0007 10.0745 60.3273C9.43196 59.6451 9.11499 58.7181 9.11499 57.5287C9.11499 56.7679 9.26062 56.0945 9.55189 55.5085C9.84316 54.9313 10.2372 54.4765 10.7512 54.1442C11.2652 53.8206 11.8649 53.6545 12.5331 53.6545C13.5011 53.6545 14.255 53.9781 14.7947 54.6252C15.3344 55.2636 15.6086 56.1469 15.6086 57.2663C15.6086 57.5549 15.4629 57.6949 15.1888 57.6949H10.0145C10.0488 58.6131 10.2886 59.3303 10.7512 59.8288C11.2224 60.3185 11.8649 60.5634 12.6959 60.5634C13.0642 60.5634 13.424 60.5196 13.7667 60.4234C14.1094 60.3185 14.4521 60.1436 14.7862 59.89C14.9661 59.7675 15.1203 59.7413 15.2488 59.8113C15.3773 59.8725 15.4458 59.9774 15.4544 60.1349C15.4801 60.2748 15.403 60.406 15.2316 60.5284C14.9147 60.7995 14.5206 61.0007 14.0665 61.1406C13.6125 61.2718 13.167 61.3417 12.7301 61.3417ZM12.5502 54.4066C11.7878 54.4066 11.1967 54.6515 10.7684 55.1412C10.3486 55.6222 10.1002 56.2431 10.0316 57.0127H14.7862C14.7605 56.1907 14.5634 55.5522 14.1865 55.0975C13.801 54.6427 13.2613 54.4066 12.5502 54.4066ZM17.9301 61.3155C17.6217 61.3155 17.4675 61.1493 17.4675 60.8345V54.1792C17.4675 53.8556 17.6217 53.6895 17.9301 53.6895C18.2214 53.6895 18.367 53.8556 18.367 54.1792V55.1237C18.6069 54.6427 18.9496 54.2667 19.4036 54.0218C19.8491 53.7769 20.346 53.6545 20.9028 53.6545C22.6247 53.6545 23.4899 54.6165 23.4899 56.5317V60.8345C23.4899 61.1493 23.3443 61.3155 23.0445 61.3155C22.7361 61.3155 22.5819 61.1493 22.5819 60.8345V56.6104C22.5819 55.8758 22.4362 55.3336 22.145 54.9925C21.8537 54.6427 21.3911 54.4678 20.7657 54.4678C20.0461 54.4678 19.4636 54.7039 19.0267 55.1587C18.5983 55.6047 18.3842 56.2169 18.3842 56.9777V60.8345C18.3842 61.1493 18.23 61.3155 17.9301 61.3155ZM28.6043 61.3417C27.799 61.3417 27.1822 61.1143 26.7796 60.6683C26.3769 60.2223 26.1799 59.5751 26.1799 58.7443V54.5465H25.0662C24.7749 54.5465 24.6293 54.4153 24.6293 54.1617C24.6293 53.9168 24.7749 53.7944 25.0662 53.7944H26.1799V51.8879C26.1799 51.5643 26.3341 51.4069 26.6425 51.4069C26.9423 51.4069 27.088 51.5643 27.088 51.8879V53.7944H29.1183C29.3924 53.7944 29.538 53.9168 29.538 54.1617C29.538 54.4153 29.3924 54.5465 29.1183 54.5465H27.088V58.6219C27.088 59.2428 27.2165 59.7151 27.4649 60.0387C27.7133 60.371 28.1331 60.5284 28.7071 60.5284C28.9127 60.5284 29.0754 60.5109 29.2039 60.4672C29.3324 60.4147 29.4524 60.3972 29.5466 60.3972C29.7265 60.3972 29.8207 60.5196 29.8207 60.7733C29.8207 60.8607 29.795 60.9394 29.7608 61.0181C29.7265 61.0881 29.6665 61.1406 29.5809 61.1756C29.4695 61.2105 29.3153 61.2543 29.1268 61.298C28.9384 61.3242 28.767 61.3417 28.6043 61.3417ZM30.686 61.3155C30.4889 61.3155 30.3604 61.2455 30.3005 61.1231C30.2405 60.9919 30.2491 60.8345 30.3262 60.6508L34.541 50.7685C34.6609 50.4799 34.8494 50.3399 35.0978 50.3399C35.3463 50.3399 35.5347 50.4799 35.6547 50.7685L39.8609 60.6508C39.9552 60.8345 39.9723 60.9919 39.9123 61.1231C39.8609 61.2455 39.741 61.3155 39.5525 61.3155C39.4069 61.3155 39.2955 61.2718 39.2013 61.2018C39.1242 61.1231 39.0557 61.0181 38.9957 60.8782L37.9334 58.342H32.2623L31.2 60.8782C31.08 61.1668 30.9087 61.3155 30.686 61.3155ZM35.115 51.5905H35.0807L32.6049 57.5287H37.5822L35.115 51.5905ZM42.8507 61.3592C42.4052 61.3592 42.0711 61.2368 41.8313 60.9919C41.5914 60.747 41.4715 60.3885 41.4715 59.9162V51.7305C41.4715 51.2582 41.5914 50.8997 41.8313 50.6548C42.0711 50.4099 42.4052 50.2875 42.8507 50.2875C43.2876 50.2875 43.6303 50.4099 43.8702 50.6548C44.11 50.8997 44.23 51.2582 44.23 51.7305V54.5902H48.5904V51.7305C48.5904 51.2582 48.7104 50.8997 48.9502 50.6548C49.1901 50.4099 49.5242 50.2875 49.9697 50.2875C50.4066 50.2875 50.7407 50.4099 50.972 50.6548C51.2118 50.8997 51.3318 51.2582 51.3318 51.7305V59.9162C51.3318 60.3885 51.2118 60.747 50.972 60.9919C50.7407 61.2368 50.4066 61.3592 49.9697 61.3592C49.5156 61.3592 49.173 61.2368 48.9331 60.9919C48.7018 60.747 48.5904 60.3885 48.5904 59.9162V56.899H44.23V59.9162C44.23 60.3885 44.11 60.747 43.8702 60.9919C43.6389 61.2368 43.2962 61.3592 42.8507 61.3592ZM56.8059 61.3855C55.9835 61.3855 55.2725 61.228 54.6642 60.9132C54.0474 60.5984 53.5762 60.1436 53.2336 59.5489C52.8995 58.963 52.7281 58.2633 52.7281 57.45C52.7281 56.6367 52.8995 55.937 53.2336 55.3598C53.5762 54.7651 54.0474 54.3104 54.6642 53.9955C55.2725 53.6807 55.9835 53.5233 56.8059 53.5233C57.6197 53.5233 58.3393 53.6807 58.9476 53.9955C59.5558 54.3104 60.027 54.7651 60.3611 55.3598C60.6952 55.937 60.8665 56.6367 60.8665 57.45C60.8665 58.2633 60.6952 58.963 60.3611 59.5489C60.027 60.1436 59.5558 60.5984 58.9476 60.9132C58.3393 61.228 57.6197 61.3855 56.8059 61.3855ZM56.8059 59.3827C57.2 59.3827 57.5341 59.2341 57.7911 58.928C58.0566 58.6131 58.1851 58.1234 58.1851 57.45C58.1851 56.7679 58.0566 56.2781 57.7911 55.9895C57.5341 55.6747 57.2 55.526 56.8059 55.526C56.3947 55.526 56.0606 55.6747 55.8036 55.9895C55.538 56.2781 55.4095 56.7679 55.4095 57.45C55.4095 58.1234 55.538 58.6131 55.8036 58.928C56.0606 59.2341 56.3947 59.3827 56.8059 59.3827ZM66.9575 61.3855C66.4606 61.3855 66.0151 61.2805 65.6039 61.0706C65.2013 60.852 64.9014 60.5634 64.7044 60.2048C64.6273 60.9744 64.199 61.3592 63.4194 61.3592C62.537 61.3592 62.1001 60.8957 62.1001 59.9774V51.6693C62.1001 50.751 62.537 50.2875 63.4194 50.2875C63.8477 50.2875 64.1733 50.4099 64.4046 50.646C64.6444 50.8822 64.7644 51.2232 64.7644 51.6693V54.5902C64.9785 54.2667 65.2784 54.0043 65.6639 53.8119C66.0665 53.6195 66.4949 53.5233 66.9575 53.5233C67.5914 53.5233 68.1568 53.6807 68.6365 53.9955C69.1248 54.3104 69.5018 54.7651 69.7759 55.3598C70.0415 55.937 70.1785 56.6367 70.1785 57.45C70.1785 58.2633 70.0329 58.963 69.7588 59.5489C69.4846 60.1436 69.1077 60.5984 68.6194 60.9132C68.1397 61.228 67.5828 61.3855 66.9575 61.3855ZM66.1179 59.3827C66.512 59.3827 66.8461 59.2341 67.1031 58.928C67.3601 58.6131 67.4972 58.1234 67.4972 57.45C67.4972 56.7679 67.3601 56.2781 67.1031 55.9895C66.8461 55.6747 66.512 55.526 66.1179 55.526C65.7067 55.526 65.3726 55.6747 65.107 55.9895C64.85 56.2781 64.7215 56.7679 64.7215 57.45C64.7215 58.1234 64.85 58.6131 65.107 58.928C65.3726 59.2341 65.7067 59.3827 66.1179 59.3827ZM76.2523 61.3855C75.7555 61.3855 75.31 61.2805 74.8988 61.0706C74.4962 60.852 74.1963 60.5634 73.9993 60.2048C73.9222 60.9744 73.4939 61.3592 72.7143 61.3592C71.8319 61.3592 71.395 60.8957 71.395 59.9774V51.6693C71.395 50.751 71.8319 50.2875 72.7143 50.2875C73.1426 50.2875 73.4682 50.4099 73.6995 50.646C73.9393 50.8822 74.0593 51.2232 74.0593 51.6693V54.5902C74.2734 54.2667 74.5733 54.0043 74.9588 53.8119C75.3614 53.6195 75.7897 53.5233 76.2523 53.5233C76.8863 53.5233 77.4517 53.6807 77.9314 53.9955C78.4197 54.3104 78.7967 54.7651 79.0708 55.3598C79.3364 55.937 79.4734 56.6367 79.4734 57.45C79.4734 58.2633 79.3278 58.963 79.0537 59.5489C78.7795 60.1436 78.4026 60.5984 77.9143 60.9132C77.4346 61.228 76.8777 61.3855 76.2523 61.3855ZM75.4128 59.3827C75.8069 59.3827 76.141 59.2341 76.398 58.928C76.655 58.6131 76.792 58.1234 76.792 57.45C76.792 56.7679 76.655 56.2781 76.398 55.9895C76.141 55.6747 75.8069 55.526 75.4128 55.526C75.0016 55.526 74.6675 55.6747 74.4019 55.9895C74.1449 56.2781 74.0164 56.7679 74.0164 57.45C74.0164 58.1234 74.1449 58.6131 74.4019 58.928C74.6675 59.2341 75.0016 59.3827 75.4128 59.3827ZM82.6346 64.114C82.3261 64.114 82.0691 64.0266 81.8721 63.8692C81.6836 63.703 81.5637 63.4931 81.5294 63.2395C81.4866 62.9771 81.5294 62.6885 81.6579 62.3824L82.429 60.7033L80.0988 55.2811C79.9018 54.8264 79.9018 54.4153 80.0988 54.0743C80.3044 53.7244 80.6899 53.5495 81.2724 53.5495C81.5808 53.5495 81.8378 53.6282 82.0349 53.7769C82.2319 53.9256 82.4118 54.2054 82.5746 54.6427L83.8339 57.9572L85.1532 54.6252C85.3159 54.2054 85.4958 53.9256 85.6929 53.7769C85.907 53.6282 86.1812 53.5495 86.5324 53.5495C86.9693 53.5495 87.2863 53.7244 87.4662 54.0743C87.6546 54.4153 87.6461 54.8264 87.449 55.2811L84.0481 63.0908C83.8682 63.4844 83.6626 63.7555 83.4484 63.8954C83.2342 64.0441 82.9687 64.114 82.6346 64.114Z" fill="#3D3D3D"/>
</svg>
