<svg width="47" height="32" viewBox="0 0 47 32" fill="none" xmlns="http://www.w3.org/2000/svg">
<path fill-rule="evenodd" clip-rule="evenodd" d="M44.169 25.1443C44.753 25.074 45.3216 25.2616 45.7442 25.6522C46.1668 26.0351 46.405 26.5821 46.405 27.1603V29.6217C46.405 30.7391 45.506 31.6455 44.4072 31.6455H36.1165C34.2033 31.6455 32.4053 30.7 31.3065 29.1138L15.3936 3.06234C15.2015 2.74198 15.2783 2.32784 15.5703 2.10905L18.152 0.139957C18.3134 0.0227485 18.5132 -0.0241347 18.6976 0.00712078C18.8973 0.0461901 19.0664 0.163398 19.1663 0.327489L34.8564 25.074C35.3635 25.7851 36.2548 26.1758 37.1538 26.0742L44.169 25.1443ZM44.9912 29.6139V27.1525C44.9912 26.9884 44.922 26.8321 44.7991 26.7149C44.6685 26.6055 44.5071 26.5508 44.338 26.5665L37.3228 27.5041C35.909 27.6682 34.5183 27.0431 33.6885 25.8867L18.3902 1.75743L16.938 2.85918L32.4898 28.3168C33.2966 29.4889 34.6643 30.2077 36.1165 30.2077H44.4072C44.7299 30.2077 44.9912 29.9421 44.9912 29.6139Z" fill="#1372E6"/>
<path fill-rule="evenodd" clip-rule="evenodd" d="M6.49613 2.08241L11.7671 10.0213C12.597 11.2715 13.1425 12.6311 13.665 13.9439C14.1875 15.2253 14.6716 16.4365 15.4015 17.5383L22.3092 27.9541L22.7241 27.6728C23.0084 27.4775 23.3926 27.5478 23.5847 27.8369C23.7768 28.126 23.6999 28.5167 23.4156 28.7121L18.79 31.8845C18.6441 31.9861 18.4827 32.0174 18.3213 31.9861C18.1677 31.9548 18.0217 31.8611 17.9295 31.7204C17.7374 31.4313 17.8142 31.0328 18.0985 30.8453L18.5057 30.5562L13.4729 22.9689L11.5981 20.1481C10.8682 19.0385 9.93843 18.1165 8.95492 17.1397C7.95604 16.1552 6.92642 15.1316 6.11195 13.897L0.848621 5.95809C0.502855 5.44238 0.379916 4.82508 0.495172 4.2156C0.610427 3.5983 0.956193 3.07477 1.46332 2.72315L3.31509 1.4573C4.36007 0.730611 5.78923 1.01972 6.49613 2.08241ZM7.14156 13.1937C7.88688 14.3189 8.82429 15.2566 9.81549 16.2411C10.8067 17.2179 11.8209 18.2259 12.6277 19.437L14.1568 21.7421L15.901 20.5388L14.3796 18.2415C13.5728 17.0303 13.0426 15.702 12.5201 14.4205C12.0207 13.1625 11.4982 11.8732 10.7375 10.7246L5.4742 2.78566C5.15917 2.31683 4.47532 2.17618 4.00662 2.49655L2.15485 3.77021C1.92434 3.92648 1.76298 4.16871 1.71688 4.45001C1.66309 4.73131 1.71688 5.02043 1.87055 5.25484L7.14156 13.1937Z" fill="#1372E6"/>
</svg>
