<svg width="19" height="15" viewBox="0 0 19 15" fill="none" xmlns="http://www.w3.org/2000/svg">
<path d="M19 1.34603C19 2.09183 18.3817 2.69429 17.6163 2.69429H1.38374C0.618316 2.69429 0 2.09183 0 1.34603C0 0.602468 0.618316 6.20119e-06 1.38374 6.20119e-06H17.6163C18.3817 -0.00223343 19 0.602468 19 1.34603Z" fill="white"/>
<path d="M16.7012 7.01428C16.7012 7.75783 16.0829 8.36254 15.3175 8.36254H3.68208C2.91666 8.36254 2.29834 7.75783 2.29834 7.01428C2.29834 6.27072 2.91666 5.66602 3.68208 5.66602H15.3175C16.0829 5.66602 16.7012 6.26848 16.7012 7.01428Z" fill="white"/>
<path d="M13.2542 12.6808C13.2542 13.4266 12.6359 14.029 11.8705 14.029H7.13081C6.36539 14.029 5.74707 13.4266 5.74707 12.6808C5.74707 11.9372 6.36539 11.3325 7.13081 11.3325H11.8705C12.6359 11.3325 13.2542 11.935 13.2542 12.6808Z" fill="white"/>
</svg>
