<svg width="151" height="151" viewBox="0 0 151 151" fill="none" xmlns="http://www.w3.org/2000/svg">
<circle opacity="0.3" cx="75.5" cy="75.5" r="75.5" fill="#6CA83E" fill-opacity="0.26"/>
<circle opacity="0.9" cx="75.5" cy="75.5" r="67.5" fill="#6CA83E" fill-opacity="0.26"/>
<circle cx="75.5" cy="75.5" r="59.5" fill="#6CA83E"/>
<path d="M54.6005 69.6448V102.576H43.404V69.6448H54.6005ZM77.9886 62.813C77.6231 63.9086 78.4357 65.0667 79.6041 65.0667H103.867C107.433 65.0667 107.443 70.6492 103.867 70.6492L89.4296 70.6485C87.1941 70.6485 87.1941 74.08 89.4296 74.08H103.868C107.434 74.08 107.444 79.6625 103.868 79.6625H89.4296C87.1941 79.6625 87.1941 83.0941 89.4296 83.0941H103.868C107.434 83.0941 107.444 88.6766 103.868 88.6766L89.4296 88.6759C87.1941 88.6759 87.1941 92.1074 89.4296 92.1074H103.868C107.566 92.1074 107.302 97.8436 103.858 97.6997C100.729 97.5155 97.6807 98.4984 94.1349 99.6557C87.2055 101.899 78.1736 104.829 63.2782 99.8194C61.3576 98.8563 59.3359 98.3035 58.0254 98.0065L58.1273 73.9257C63.7357 70.6685 70.2482 53.154 70.2686 53.1014C70.4514 52.6202 71.0812 43.4426 70.7255 38.4136C70.6236 37.0004 72.7881 38.0245 73.3674 38.3314C81.9206 45.4205 78.3544 61.2566 77.9889 62.8132L77.9886 62.813ZM41.697 66.2133C40.762 66.2133 40 66.9815 40 67.9241V104.286C40 105.228 40.762 105.997 41.697 105.997H56.3072C58.4612 105.997 58.0043 103.364 58.0043 101.51C60.4021 102.136 60.717 102.555 62.1091 103.026C85.5998 110.955 96.0234 100.445 103.654 101.111C108.602 101.541 112.391 94.7912 108.195 90.5091V90.5191L108.063 90.3965C110.593 87.8969 110.613 83.9643 108.195 81.4953L108.063 81.3826C110.593 78.8731 110.613 74.9504 108.195 72.4814L108.063 72.3588C110.593 69.86 110.613 65.9266 108.195 63.4681C107.077 62.3314 105.543 61.6348 103.867 61.6348H81.6861C82.6211 56.3698 84.0433 42.6647 75.4479 35.629C74.8995 35.1478 66.761 30.8048 67.3298 38.6608C67.6349 42.901 67.1063 50.6655 67.0051 52.1303C66.2936 54.0049 61.4472 66.5624 58.0032 70.0958C58.0032 68.621 58.3793 66.2137 56.3062 66.2137L41.697 66.2133Z" fill="white"/>
</svg>
