<svg width="168" height="123" viewBox="0 0 168 123" fill="none" xmlns="http://www.w3.org/2000/svg">
<path fill-rule="evenodd" clip-rule="evenodd" d="M124.531 53.8464C125.776 53.6958 126.989 54.0974 127.891 54.934C128.792 55.7539 129.3 56.9251 129.3 58.1632V63.4338C129.3 65.8264 127.383 67.7673 125.039 67.7673H107.354C103.273 67.7673 99.4376 65.7427 97.0939 62.3462L63.1502 6.56235C62.7405 5.87635 62.9044 4.98956 63.5272 4.52107L69.0342 0.304655C69.3784 0.0536777 69.8045 -0.0467131 70.1979 0.0202141C70.624 0.103873 70.9846 0.35485 71.1977 0.706218L104.666 53.6958C105.748 55.2184 107.649 56.055 109.567 55.8375L124.531 53.8464ZM126.284 63.417V58.1465C126.284 57.7951 126.137 57.4605 125.875 57.2095C125.596 56.9753 125.252 56.8582 124.891 56.8916L109.927 58.8994C106.911 59.2508 103.945 57.9123 102.175 55.436L69.5423 3.76814L66.4446 6.12732L99.6179 60.6395C101.339 63.1493 104.256 64.6886 107.354 64.6886H125.039C125.727 64.6886 126.284 64.1198 126.284 63.417Z" fill="white"/>
<path fill-rule="evenodd" clip-rule="evenodd" d="M44.1709 4.46421L55.4144 21.4637C57.1845 24.1408 58.3482 27.0522 59.4627 29.8631C60.5772 32.6071 61.6098 35.2006 63.1669 37.5598L77.9015 59.8633L78.7865 59.2609C79.3929 58.8426 80.2124 58.9932 80.6222 59.6123C81.0319 60.2314 80.8681 61.068 80.2616 61.4863L70.3948 68.2794C70.0834 68.4969 69.7392 68.5638 69.3951 68.4969C69.0673 68.43 68.7558 68.2292 68.5592 67.928C68.1494 67.309 68.3133 66.4556 68.9197 66.0541L69.7884 65.435L59.053 49.1884L55.0538 43.1482C53.4968 40.7723 51.5136 38.7979 49.4157 36.7064C47.285 34.5982 45.0887 32.4064 43.3514 29.7627L32.1242 12.7632C31.3867 11.6589 31.1244 10.3371 31.3703 9.032C31.6161 7.71019 32.3537 6.58916 33.4354 5.83622L37.3854 3.12567C39.6144 1.56961 42.663 2.18868 44.1709 4.46421ZM45.5476 28.2569C47.1374 30.6663 49.137 32.6741 51.2513 34.7823C53.3656 36.8738 55.5291 39.0322 57.2501 41.6256L60.5117 46.5615L64.2322 43.9848L60.987 39.0656C59.266 36.4722 58.1351 33.6278 57.0206 30.8838C55.9553 28.1899 54.8407 25.4292 53.2181 22.9696L41.991 5.97008C41.319 4.96617 39.8603 4.66499 38.8605 5.351L34.9105 8.07829C34.4188 8.41292 34.0746 8.93161 33.9763 9.53396C33.8615 10.1363 33.9763 10.7554 34.3041 11.2573L45.5476 28.2569Z" fill="white"/>
<path fill-rule="evenodd" clip-rule="evenodd" d="M0.86867 117.31C0.29502 117.31 0 116.992 0 116.373V97.4156C0 96.7965 0.29502 96.4786 0.88506 96.4786H7.63774C9.78483 96.4786 11.4402 96.9973 12.5711 98.0012C13.7184 99.0218 14.2921 100.461 14.2921 102.335C14.2921 103.874 13.8659 105.129 13.0464 106.083C12.2269 107.036 11.0632 107.656 9.55537 107.923C10.3749 108.241 11.096 109.011 11.7352 110.216L14.7674 115.988C14.9477 116.323 14.9805 116.624 14.8657 116.892C14.7674 117.159 14.5543 117.31 14.2265 117.31C13.7676 117.31 13.4234 117.076 13.1939 116.624L9.98151 110.517C9.48981 109.596 8.93255 108.977 8.32612 108.659C7.7033 108.358 6.8838 108.191 5.85123 108.191H1.75373V116.373C1.75373 116.992 1.45871 117.31 0.86867 117.31ZM1.75373 98.0347V106.668H7.40828C10.801 106.668 12.5056 105.229 12.5056 102.335C12.5056 99.4736 10.801 98.0347 7.40828 98.0347H1.75373ZM24.3555 117.36C22.2084 117.36 20.5203 116.708 19.2746 115.419C18.0454 114.114 17.439 112.34 17.439 110.065C17.439 108.609 17.7176 107.321 18.2748 106.2C18.8321 105.096 19.586 104.225 20.5694 103.59C21.5528 102.971 22.7001 102.653 23.9786 102.653C25.8306 102.653 27.2729 103.272 28.3055 104.51C29.3381 105.731 29.8626 107.421 29.8626 109.563C29.8626 110.115 29.5839 110.383 29.0595 110.383H19.1599C19.2255 112.14 19.6844 113.512 20.5694 114.465C21.4709 115.402 22.7001 115.871 24.29 115.871C24.9947 115.871 25.6831 115.787 26.3387 115.603C26.9943 115.402 27.6499 115.068 28.2891 114.583C28.6333 114.348 28.9283 114.298 29.1742 114.432C29.42 114.549 29.5512 114.75 29.5675 115.051C29.6167 115.319 29.4692 115.57 29.1414 115.804C28.535 116.323 27.781 116.708 26.9124 116.975C26.0437 117.226 25.1914 117.36 24.3555 117.36ZM24.0113 104.092C22.5526 104.092 21.4217 104.56 20.6022 105.497C19.7991 106.417 19.3238 107.605 19.1927 109.078H28.2891C28.24 107.505 27.863 106.284 27.1418 105.413C26.4043 104.543 25.3717 104.092 24.0113 104.092ZM34.3043 117.31C33.7142 117.31 33.4192 116.992 33.4192 116.39V103.657C33.4192 103.038 33.7142 102.72 34.3043 102.72C34.8615 102.72 35.1401 103.038 35.1401 103.657V105.464C35.5991 104.543 36.2547 103.824 37.1233 103.355C37.9756 102.887 38.9262 102.653 39.9916 102.653C43.286 102.653 44.9414 104.493 44.9414 108.157V116.39C44.9414 116.992 44.6627 117.31 44.0891 117.31C43.499 117.31 43.204 116.992 43.204 116.39V108.308C43.204 106.903 42.9254 105.865 42.3681 105.213C41.8109 104.543 40.9258 104.209 39.7293 104.209C38.3526 104.209 37.2381 104.661 36.4022 105.531C35.5827 106.384 35.1729 107.555 35.1729 109.011V116.39C35.1729 116.992 34.8779 117.31 34.3043 117.31ZM54.7262 117.36C53.1855 117.36 52.0054 116.925 51.2351 116.072C50.4648 115.218 50.0878 113.98 50.0878 112.391V104.359H47.9571C47.3999 104.359 47.1212 104.108 47.1212 103.623C47.1212 103.155 47.3999 102.92 47.9571 102.92H50.0878V99.2728C50.0878 98.6537 50.3828 98.3526 50.9729 98.3526C51.5465 98.3526 51.8252 98.6537 51.8252 99.2728V102.92H55.7096C56.2341 102.92 56.5127 103.155 56.5127 103.623C56.5127 104.108 56.2341 104.359 55.7096 104.359H51.8252V112.156C51.8252 113.344 52.071 114.248 52.5463 114.867C53.0216 115.503 53.8247 115.804 54.9229 115.804C55.3162 115.804 55.6276 115.771 55.8735 115.687C56.1193 115.586 56.3488 115.553 56.5291 115.553C56.8733 115.553 57.0536 115.787 57.0536 116.272C57.0536 116.44 57.0044 116.59 56.9388 116.741C56.8733 116.875 56.7585 116.975 56.5946 117.042C56.3816 117.109 56.0866 117.193 55.726 117.276C55.3654 117.327 55.0376 117.36 54.7262 117.36ZM58.709 117.31C58.332 117.31 58.0861 117.176 57.9714 116.942C57.8567 116.691 57.8731 116.39 58.0206 116.038L66.0845 97.1311C66.3139 96.579 66.6745 96.3113 67.1498 96.3113C67.6251 96.3113 67.9857 96.579 68.2152 97.1311L76.2626 116.038C76.4429 116.39 76.4757 116.691 76.361 116.942C76.2626 117.176 76.0332 117.31 75.6726 117.31C75.394 117.31 75.1809 117.226 75.0006 117.092C74.8531 116.942 74.722 116.741 74.6073 116.473L72.5749 111.621H61.7247L59.6924 116.473C59.4629 117.025 59.1351 117.31 58.709 117.31ZM67.1826 98.7039H67.117L62.3803 110.065H71.9029L67.1826 98.7039ZM81.9827 117.394C81.1305 117.394 80.4913 117.159 80.0323 116.691C79.5734 116.222 79.344 115.536 79.344 114.633V98.9717C79.344 98.0681 79.5734 97.3821 80.0323 96.9136C80.4913 96.4451 81.1305 96.2109 81.9827 96.2109C82.8186 96.2109 83.4742 96.4451 83.9332 96.9136C84.3921 97.3821 84.6215 98.0681 84.6215 98.9717V104.443H92.964V98.9717C92.964 98.0681 93.1935 97.3821 93.6524 96.9136C94.1113 96.4451 94.7505 96.2109 95.6028 96.2109C96.4387 96.2109 97.0779 96.4451 97.5205 96.9136C97.9794 97.3821 98.2088 98.0681 98.2088 98.9717V114.633C98.2088 115.536 97.9794 116.222 97.5205 116.691C97.0779 117.159 96.4387 117.394 95.6028 117.394C94.7342 117.394 94.0786 117.159 93.6196 116.691C93.1771 116.222 92.964 115.536 92.964 114.633V108.86H84.6215V114.633C84.6215 115.536 84.3921 116.222 83.9332 116.691C83.4906 117.159 82.835 117.394 81.9827 117.394ZM108.682 117.444C107.109 117.444 105.748 117.143 104.585 116.54C103.404 115.938 102.503 115.068 101.847 113.93C101.208 112.809 100.88 111.47 100.88 109.914C100.88 108.358 101.208 107.02 101.847 105.915C102.503 104.778 103.404 103.908 104.585 103.305C105.748 102.703 107.109 102.402 108.682 102.402C110.239 102.402 111.616 102.703 112.78 103.305C113.943 103.908 114.845 104.778 115.484 105.915C116.123 107.02 116.451 108.358 116.451 109.914C116.451 111.47 116.123 112.809 115.484 113.93C114.845 115.068 113.943 115.938 112.78 116.54C111.616 117.143 110.239 117.444 108.682 117.444ZM108.682 113.612C109.436 113.612 110.075 113.328 110.567 112.742C111.075 112.14 111.321 111.203 111.321 109.914C111.321 108.609 111.075 107.672 110.567 107.12C110.075 106.518 109.436 106.233 108.682 106.233C107.895 106.233 107.256 106.518 106.764 107.12C106.256 107.672 106.01 108.609 106.01 109.914C106.01 111.203 106.256 112.14 106.764 112.742C107.256 113.328 107.895 113.612 108.682 113.612ZM128.104 117.444C127.154 117.444 126.301 117.243 125.515 116.841C124.744 116.423 124.171 115.871 123.794 115.185C123.646 116.657 122.827 117.394 121.335 117.394C119.647 117.394 118.811 116.507 118.811 114.75V98.8545C118.811 97.0977 119.647 96.2109 121.335 96.2109C122.155 96.2109 122.777 96.4451 123.22 96.8969C123.679 97.3486 123.908 98.0012 123.908 98.8545V104.443C124.318 103.824 124.892 103.322 125.629 102.954C126.4 102.586 127.219 102.402 128.104 102.402C129.317 102.402 130.399 102.703 131.317 103.305C132.251 103.908 132.972 104.778 133.496 105.915C134.005 107.02 134.267 108.358 134.267 109.914C134.267 111.47 133.988 112.809 133.464 113.93C132.939 115.068 132.218 115.938 131.284 116.54C130.366 117.143 129.301 117.444 128.104 117.444ZM126.498 113.612C127.252 113.612 127.891 113.328 128.383 112.742C128.875 112.14 129.137 111.203 129.137 109.914C129.137 108.609 128.875 107.672 128.383 107.12C127.891 106.518 127.252 106.233 126.498 106.233C125.711 106.233 125.072 106.518 124.564 107.12C124.072 107.672 123.826 108.609 123.826 109.914C123.826 111.203 124.072 112.14 124.564 112.742C125.072 113.328 125.711 113.612 126.498 113.612ZM145.887 117.444C144.937 117.444 144.084 117.243 143.298 116.841C142.527 116.423 141.954 115.871 141.577 115.185C141.429 116.657 140.61 117.394 139.118 117.394C137.43 117.394 136.594 116.507 136.594 114.75V98.8545C136.594 97.0977 137.43 96.2109 139.118 96.2109C139.938 96.2109 140.561 96.4451 141.003 96.8969C141.462 97.3486 141.691 98.0012 141.691 98.8545V104.443C142.101 103.824 142.675 103.322 143.412 102.954C144.183 102.586 145.002 102.402 145.887 102.402C147.1 102.402 148.182 102.703 149.1 103.305C150.034 103.908 150.755 104.778 151.28 105.915C151.788 107.02 152.05 108.358 152.05 109.914C152.05 111.47 151.771 112.809 151.247 113.93C150.722 115.068 150.001 115.938 149.067 116.54C148.149 117.143 147.084 117.444 145.887 117.444ZM144.281 113.612C145.035 113.612 145.674 113.328 146.166 112.742C146.658 112.14 146.92 111.203 146.92 109.914C146.92 108.609 146.658 107.672 146.166 107.12C145.674 106.518 145.035 106.233 144.281 106.233C143.494 106.233 142.855 106.518 142.347 107.12C141.855 107.672 141.61 108.609 141.61 109.914C141.61 111.203 141.855 112.14 142.347 112.742C142.855 113.328 143.494 113.612 144.281 113.612ZM158.098 122.664C157.508 122.664 157.016 122.497 156.639 122.196C156.279 121.878 156.049 121.476 155.984 120.991C155.902 120.489 155.984 119.937 156.229 119.351L157.705 116.139L153.246 105.765C152.869 104.895 152.869 104.108 153.246 103.456C153.64 102.787 154.377 102.452 155.492 102.452C156.082 102.452 156.574 102.602 156.951 102.887C157.328 103.171 157.672 103.707 157.983 104.543L160.392 110.885L162.917 104.51C163.228 103.707 163.572 103.171 163.949 102.887C164.359 102.602 164.883 102.452 165.555 102.452C166.391 102.452 166.998 102.787 167.342 103.456C167.702 104.108 167.686 104.895 167.309 105.765L160.802 120.706C160.458 121.459 160.065 121.978 159.655 122.246C159.245 122.53 158.737 122.664 158.098 122.664Z" fill="white"/>
</svg>
