<svg width="126" height="22" viewBox="0 0 126 22" fill="none" xmlns="http://www.w3.org/2000/svg">
<g id="Group 427318336">
<path id="Vector" d="M5.79336 4.5504C6.64031 3.82476 7.61051 3.26825 8.70132 2.87542C9.81049 2.48259 10.9773 2.2889 12.2019 2.2889C13.2744 2.2889 14.2917 2.43622 15.2515 2.72811C16.2295 3.00091 17.1237 3.38282 17.9339 3.87386C18.7442 4.34307 19.439 4.8914 20.0238 5.51883L21.3217 3.49194C20.7396 2.8836 19.9661 2.3271 19.0064 1.81696C18.065 1.28773 17.0293 0.867626 15.9017 0.553908C14.7716 0.221094 13.6047 0.0546875 12.4012 0.0546875C10.7833 0.0546875 9.26771 0.30839 7.85699 0.818522C6.44627 1.32865 5.21386 2.05157 4.15976 2.99272C3.10565 3.93388 2.27705 5.03871 1.67658 6.31268C1.09446 7.56482 0.800781 8.94518 0.800781 10.4538C0.800781 11.9623 1.09184 13.43 1.67658 14.7421C2.27967 16.0352 3.10565 17.1509 4.15976 18.0894C5.23222 19.0305 6.48298 19.7644 7.91468 20.2909C9.34375 20.801 10.8987 21.0547 12.5716 21.0547C13.7935 21.0547 14.9525 20.8883 16.0433 20.5555C17.1342 20.2227 18.1332 19.8025 19.0352 19.2924C19.9399 18.7632 20.6531 18.2449 21.1801 17.7347L20.1365 15.7679C19.6095 16.2562 18.9697 16.7472 18.2171 17.2355C17.4829 17.7047 16.6464 18.0866 15.7051 18.3813C14.7821 18.6759 13.7673 18.8205 12.6555 18.8205C11.3392 18.8205 10.1042 18.6241 8.95829 18.234C7.80979 17.8411 6.79502 17.2846 5.90873 16.559C5.02507 15.8333 4.32757 14.9631 3.81888 13.9456C3.32853 12.9089 3.08467 11.7441 3.08467 10.451C3.08467 9.23707 3.32067 8.12951 3.79003 7.13107C4.28038 6.13263 4.9464 5.27059 5.79336 4.54767V4.5504Z" fill="#1B1B1B"/>
<path id="Vector_2" d="M47.858 9.51372H32.896V0.203125H30.6934V20.7612H32.896V11.7452H47.858V20.7612H50.0606V0.203125H47.858V9.51372Z" fill="#1B1B1B"/>
<path id="Vector_3" d="M95.7658 12.5636C96.2981 12.4272 96.8042 12.2362 97.2788 11.9798C98.3119 11.4315 99.1326 10.6786 99.7331 9.71832C100.336 8.73898 100.638 7.61505 100.638 6.34108C100.638 5.20624 100.355 4.17779 99.7908 3.25846C99.2244 2.31731 98.464 1.57257 97.5043 1.02425C96.5629 0.475923 95.4983 0.203125 94.3131 0.203125H85.7754V2.43461H93.6917C94.5412 2.43461 95.3122 2.61193 96.007 2.96384C96.7045 3.31575 97.2578 3.79588 97.6721 4.40422C98.0864 4.99073 98.2935 5.65636 98.2935 6.4011C98.2935 7.18403 98.0864 7.88785 97.6721 8.51528C97.2578 9.13999 96.694 9.63921 95.9782 10.0129C95.265 10.3839 94.4547 10.5695 93.5527 10.5695H91.5363L93.1908 12.8037L93.5055 13.232L99.054 20.7612H101.791L95.7632 12.5636H95.7658Z" fill="#1B1B1B"/>
<path id="Vector_4" d="M76.4229 0.414062H60.7031V2.64555H76.4229V0.414062Z" fill="#1B1B1B"/>
<path id="Vector_5" d="M125.144 0.414062H109.424V2.64555H125.144V0.414062Z" fill="#1B1B1B"/>
<path id="Vector_6" d="M76.4229 18.7891H60.7031V21.0206H76.4229V18.7891Z" fill="#1B1B1B"/>
<path id="Vector_7" d="M125.144 18.7891H109.424V21.0206H125.144V18.7891Z" fill="#1B1B1B"/>
<path id="Vector_8" d="M73.1924 9.24219H60.7031V11.4737H73.1924V9.24219Z" fill="#1B1B1B"/>
<path id="Vector_9" d="M121.913 9.24219H109.424V11.4737H121.913V9.24219Z" fill="#1B1B1B"/>
</g>
</svg>
