<svg width="66" height="54" viewBox="0 0 66 54" fill="none" xmlns="http://www.w3.org/2000/svg">
<g clip-path="url(#clip0_958_4292)">
<path d="M15.6363 7.43074C15.6363 7.73859 15.3872 7.98756 15.0799 7.98756C14.7726 7.98756 14.5234 7.73859 14.5234 7.43074C14.5234 7.12373 14.7726 6.87476 15.0799 6.87476C15.3872 6.87476 15.6363 7.12373 15.6363 7.43074Z" fill="#7658D6"/>
<path d="M49.4762 21.3336C49.4762 21.6414 49.227 21.8904 48.9197 21.8904C48.6125 21.8904 48.3633 21.6414 48.3633 21.3336C48.3633 21.0266 48.6125 20.7776 48.9197 20.7776C49.227 20.7776 49.4762 21.0266 49.4762 21.3336Z" fill="#F48378"/>
<path d="M33.5582 3.53791C33.5582 3.84576 33.309 4.09474 33.0018 4.09474C32.6945 4.09474 32.4453 3.84576 32.4453 3.53791C32.4453 3.23091 32.6945 2.98193 33.0018 2.98193C33.309 2.98193 33.5582 3.23091 33.5582 3.53791Z" fill="#F48378"/>
<path d="M59.7192 6.98651C59.7192 7.29352 59.47 7.54249 59.1619 7.54249C58.8547 7.54249 58.6055 7.29352 58.6055 6.98651C58.6055 6.67866 58.8547 6.42969 59.1619 6.42969C59.47 6.42969 59.7192 6.67866 59.7192 6.98651Z" fill="#7658D6"/>
<path d="M5.2543 4.95423C5.1617 4.95423 5.08594 4.87853 5.08594 4.786V3.62526C5.08594 3.53273 5.1617 3.45703 5.2543 3.45703C5.34775 3.45703 5.42267 3.53273 5.42267 3.62526V4.786C5.42267 4.87853 5.34775 4.95423 5.2543 4.95423Z" fill="#2D3962"/>
<path d="M5.83401 4.3738H4.67227C4.57967 4.3738 4.50391 4.2981 4.50391 4.20558C4.50391 4.11221 4.57967 4.03735 4.67227 4.03735H5.83401C5.92661 4.03735 6.00238 4.11221 6.00238 4.20558C6.00238 4.2981 5.92661 4.3738 5.83401 4.3738Z" fill="#2D3962"/>
<path d="M12.7309 42.1043C12.6383 42.1043 12.5625 42.0294 12.5625 41.936V40.7761C12.5625 40.6836 12.6383 40.6079 12.7309 40.6079C12.8243 40.6079 12.8992 40.6836 12.8992 40.7761V41.936C12.8992 42.0294 12.8243 42.1043 12.7309 42.1043Z" fill="#2D3962"/>
<path d="M13.3136 41.5247H12.1527C12.0593 41.5247 11.9844 41.449 11.9844 41.3565C11.9844 41.2631 12.0593 41.1882 12.1527 41.1882H13.3136C13.4062 41.1882 13.482 41.2631 13.482 41.3565C13.482 41.449 13.4062 41.5247 13.3136 41.5247Z" fill="#2D3962"/>
<path d="M43.1645 4.56252C43.071 4.56252 42.9961 4.48766 42.9961 4.39429V3.23439C42.9961 3.14186 43.071 3.06616 43.1645 3.06616C43.2571 3.06616 43.3328 3.14186 43.3328 3.23439V4.39429C43.3328 4.48766 43.2571 4.56252 43.1645 4.56252Z" fill="#2D3962"/>
<path d="M43.7433 3.98293H42.5824C42.489 3.98293 42.4141 3.90723 42.4141 3.81471C42.4141 3.72134 42.489 3.64648 42.5824 3.64648H43.7433C43.8368 3.64648 43.9117 3.72134 43.9117 3.81471C43.9117 3.90723 43.8368 3.98293 43.7433 3.98293Z" fill="#2D3962"/>
<path d="M61.2348 16.7132C61.1422 16.7132 61.0664 16.6375 61.0664 16.5449V15.385C61.0664 15.2917 61.1422 15.2168 61.2348 15.2168C61.3282 15.2168 61.4031 15.2917 61.4031 15.385V16.5449C61.4031 16.6375 61.3282 16.7132 61.2348 16.7132Z" fill="#2D3962"/>
<path d="M61.8175 16.1328H60.6566C60.5632 16.1328 60.4883 16.058 60.4883 15.9646C60.4883 15.8721 60.5632 15.7964 60.6566 15.7964H61.8175C61.9101 15.7964 61.9859 15.8721 61.9859 15.9646C61.9859 16.058 61.9101 16.1328 61.8175 16.1328Z" fill="#2D3962"/>
<g opacity="0.102">
<path opacity="0.102" d="M63.919 51.2932C63.7768 53.8527 49.1675 53.9503 30.9712 53.9503C12.7749 53.9503 -1.97656 54.137 -1.97656 51.2932C-1.97656 47.8774 13.0679 48.3997 31.2642 48.3997C49.4605 48.3997 64.1009 48.0238 63.919 51.2932Z" fill="#6751C4"/>
</g>
<path d="M49.0156 39.2856L60.0117 39.9552V51.2758L49.0156 50.6055V39.2856Z" fill="#AF7123"/>
<path d="M49.0144 39.2856L44.5586 39.9552V51.2758L49.0144 50.6055V39.2856Z" fill="#C17C26"/>
<path d="M55.5547 51.9453L44.5586 51.2757V39.9551L55.5547 40.6255V51.9453Z" fill="#F48378"/>
<path d="M55.5547 51.9453L60.0105 51.2757V39.9551L55.5547 40.6255V51.9453Z" fill="#E2746F"/>
<g style="mix-blend-mode:overlay" opacity="0.149">
<g style="mix-blend-mode:overlay" opacity="0.149">
<path d="M55.5547 40.6255L44.5586 39.9551V41.6247L55.5547 42.2951L60.0105 41.6247V39.9551L55.5547 40.6255Z" fill="black"/>
</g>
</g>
<path d="M48.8704 37.9331L44.1367 38.6447V41.1294L48.8704 40.4178V37.9331Z" fill="#C17C26"/>
<path d="M48.8711 37.9331L60.2822 38.6447V41.1294L48.8711 40.4178V37.9331Z" fill="#AF7123"/>
<path d="M55.5487 41.8408L44.1367 41.1292V38.6445L55.5487 39.3561V41.8408Z" fill="#F48378"/>
<path d="M55.5469 41.8408L60.2797 41.1292V38.6445L55.5469 39.3561V41.8408Z" fill="#E2746F"/>
<path d="M44.1367 38.6447L48.8704 37.9331L60.2815 38.6447L55.5487 39.3563L44.1367 38.6447Z" fill="#F99D98"/>
<path d="M52.0078 27.95L60.6964 28.6388V38.7617L52.0078 38.0729V27.95Z" fill="#6751C4"/>
<path d="M52.0078 27.9498L60.6964 28.6387L62.3397 26.8488L53.6511 26.1599L52.0078 27.9498Z" fill="#8A74E8"/>
<path d="M52.0087 27.95L47.4258 28.6388V38.7617L52.0087 38.0729V27.95Z" fill="#7658D6"/>
<path d="M52.0084 27.9498L47.4254 28.6387L45.5742 27.3988L50.1572 26.71L52.0084 27.9498Z" fill="#8A74E8"/>
<path d="M56.1144 39.4504L47.4258 38.7616V28.6387L56.1144 29.3276V39.4504Z" fill="#7658D6"/>
<path d="M54.0605 31.1208L45.3711 30.4319L47.4243 28.6387L56.1129 29.3276L54.0605 31.1208Z" fill="#8A74E8"/>
<path d="M56.1133 39.4504L60.6962 38.7616V28.6387L56.1133 29.3276V39.4504Z" fill="#6751C4"/>
<path d="M58.7221 29.8793L63.3051 29.1904L60.6962 28.6387L56.1133 29.3275L58.7221 29.8793Z" fill="#8A74E8"/>
<path d="M59.4596 20.4057C59.4596 21.7363 58.3804 22.8155 57.0486 22.8155C55.7168 22.8155 54.6367 21.7363 54.6367 20.4057C54.6367 19.075 55.7168 17.9958 57.0486 17.9958C58.3804 17.9958 59.4596 19.075 59.4596 20.4057Z" fill="#7658D6"/>
<path d="M57.7303 19.3997C58.1302 19.4014 58.4543 19.7244 58.456 20.1239C58.456 20.6126 58.0115 21.0979 57.1225 21.5807C56.2336 21.0912 55.7891 20.605 55.7891 20.1239C55.7891 19.7244 56.1132 19.3997 56.5139 19.3997C56.7597 19.3972 56.9887 19.5208 57.1225 19.7261C57.2564 19.5217 57.4854 19.3989 57.7303 19.3997Z" fill="white"/>
<path d="M26.769 2.46879C26.769 3.79944 25.689 4.8786 24.3572 4.8786C23.0254 4.8786 21.9453 3.79944 21.9453 2.46879C21.9453 1.13813 23.0254 0.0598145 24.3572 0.0598145C25.689 0.0598145 26.769 1.13813 26.769 2.46879Z" fill="#F48378"/>
<path d="M25.0389 1.46291C25.4388 1.46459 25.7629 1.78842 25.7646 2.18795C25.7646 2.67581 25.3201 3.16113 24.4311 3.64478C23.5421 3.1544 23.0977 2.66908 23.0977 2.18795C23.0977 1.78758 23.4218 1.46291 23.8225 1.46291C24.0683 1.46123 24.2973 1.58403 24.4311 1.7901C24.565 1.58571 24.794 1.46207 25.0389 1.46291Z" fill="white"/>
<path d="M7.37891 21.1296L15.1802 21.6049V29.6359L7.37891 29.1607V21.1296Z" fill="#AF7123"/>
<path d="M7.37594 21.1296L4.21484 21.6049V29.6359L7.37594 29.1607V21.1296Z" fill="#C17C26"/>
<path d="M12.0161 30.1112L4.21484 29.636V21.605L12.0161 22.0802V30.1112Z" fill="#F48378"/>
<path d="M12.0195 30.1112L15.1806 29.636V21.605L12.0195 22.0802V30.1112Z" fill="#E2746F"/>
<g style="mix-blend-mode:overlay" opacity="0.149">
<g style="mix-blend-mode:overlay" opacity="0.149">
<path d="M12.0161 22.0802L4.21484 21.605V22.7893L12.0161 23.2645L15.1772 22.7893V21.605L12.0161 22.0802Z" fill="black"/>
</g>
</g>
<path d="M7.27521 20.1699L3.91797 20.6746V22.4376L7.27521 21.9329V20.1699Z" fill="#C17C26"/>
<path d="M7.27734 20.1699L15.3733 20.6746V22.4376L7.27734 21.9329V20.1699Z" fill="#AF7123"/>
<path d="M12.0139 22.9422L3.91797 22.4375V20.6746L12.0139 21.1792V22.9422Z" fill="#F48378"/>
<path d="M12.0156 22.9422L15.3729 22.4375V20.6746L12.0156 21.1792V22.9422Z" fill="#E2746F"/>
<path d="M3.91797 20.6746L7.27521 20.1699L15.3712 20.6746L12.0139 21.1793L3.91797 20.6746Z" fill="#F99D98"/>
<path d="M6.55299 50.0886H5.03516V35.115H6.55299V50.0886Z" fill="#7658D6"/>
<path d="M4.1875 50.5051C4.1875 49.9222 4.60505 49.4495 5.12026 49.4495H6.4613C6.97651 49.4495 7.39406 49.9222 7.39406 50.5051H4.1875Z" fill="#2D3962"/>
<path d="M24.6263 35.2319H2.60382C0.974028 35.2319 -0.347656 33.9122 -0.347656 32.283C-0.347656 30.6545 0.974028 29.334 2.60382 29.334H24.6263V35.2319Z" fill="#2D3962"/>
<path fill-rule="evenodd" clip-rule="evenodd" d="M22.985 34.7541H2.83902C1.45673 34.7541 0.332031 33.6304 0.332031 32.2501C0.332031 30.869 1.45673 29.7461 2.83902 29.7461H22.985V34.7541ZM2.83902 29.9067C1.54512 29.9067 0.492822 30.9573 0.492822 32.2501C0.492822 33.5421 1.54512 34.5935 2.83902 34.5935H22.8242V29.9067H2.83902Z" fill="white"/>
<path d="M7.08359 36.0688H4.5V35.1621H7.08359V36.0688Z" fill="#2D3962"/>
<path d="M14.0804 15.014C14.0804 16.9662 12.496 18.5492 10.5421 18.5492C8.58824 18.5492 7.00391 16.9662 7.00391 15.014C7.00391 13.0617 8.58824 11.4788 10.5421 11.4788C12.496 11.4788 14.0804 13.0617 14.0804 15.014Z" fill="#7658D6"/>
<path fill-rule="evenodd" clip-rule="evenodd" d="M11.9987 14.4464C11.9987 15.0856 11.5138 15.9957 10.544 17.1775C9.57168 16.0285 9.08594 15.1184 9.08594 14.4464C9.08594 13.6439 9.7392 12.9912 10.5423 12.9912C11.3454 12.9912 11.9987 13.6439 11.9987 14.4464ZM10.9818 13.9938C10.8639 13.8769 10.7082 13.8121 10.5423 13.8121C10.3765 13.8121 10.2199 13.8769 10.1029 13.9938C9.86043 14.2361 9.86043 14.6297 10.1029 14.872C10.2241 14.9931 10.3832 15.0536 10.5423 15.0536C10.7014 15.0536 10.8605 14.9931 10.9818 14.872C11.2242 14.6297 11.2242 14.2361 10.9818 13.9938Z" fill="white"/>
<path d="M54.9203 12.203C54.9203 12.5008 54.5617 12.7481 54.4884 13.0231C54.4118 13.3074 54.597 13.7002 54.4531 13.9492C54.3066 14.2024 53.8722 14.2377 53.6668 14.4429C53.4614 14.6482 53.426 15.0822 53.1735 15.2277C52.9243 15.3724 52.5312 15.1873 52.2458 15.2639C51.9705 15.337 51.7238 15.6954 51.425 15.6954C51.127 15.6954 50.8795 15.337 50.6042 15.2639C50.3197 15.1873 49.9265 15.3724 49.6773 15.2277C49.4239 15.0822 49.3886 14.6482 49.1832 14.4429C48.9778 14.2377 48.5442 14.2024 48.3977 13.9492C48.253 13.7002 48.4382 13.3074 48.3616 13.0231C48.2883 12.7481 47.9297 12.5008 47.9297 12.203C47.9297 11.9044 48.2883 11.658 48.3616 11.3829C48.4382 11.0986 48.253 10.7058 48.3977 10.456C48.5442 10.2037 48.9778 10.1684 49.1832 9.96312C49.3886 9.75789 49.4239 9.32387 49.6773 9.17836C49.9265 9.03368 50.3197 9.21873 50.6042 9.14219C50.8795 9.06901 51.127 8.71069 51.425 8.71069C51.7238 8.71069 51.9705 9.06901 52.2458 9.14219C52.5312 9.21873 52.9243 9.03368 53.1735 9.17836C53.426 9.32387 53.4614 9.75789 53.6668 9.96312C53.8722 10.1684 54.3066 10.2037 54.4531 10.456C54.597 10.7058 54.4118 11.0986 54.4884 11.3829C54.5617 11.658 54.9203 11.9044 54.9203 12.203Z" fill="#F48378"/>
<path fill-rule="evenodd" clip-rule="evenodd" d="M50.2074 12.2105C50.103 12.0978 50.0508 11.9464 50.0508 11.7572C50.0508 11.5671 50.103 11.4157 50.2074 11.303C50.3126 11.1894 50.4473 11.1331 50.614 11.1331C50.7798 11.1331 50.9145 11.1894 51.018 11.303C51.1216 11.4157 51.1729 11.5671 51.1729 11.7572C51.1729 11.9464 51.1216 12.0978 51.018 12.2105C50.9145 12.3241 50.7798 12.3804 50.614 12.3804C50.4473 12.3804 50.3126 12.3241 50.2074 12.2105ZM50.7865 12.0246C50.8286 11.9649 50.8497 11.8758 50.8497 11.7572C50.8497 11.6386 50.8286 11.5486 50.7865 11.4889C50.7445 11.4283 50.6864 11.398 50.614 11.398C50.5424 11.398 50.4852 11.4291 50.4422 11.4905C50.3993 11.5519 50.3774 11.6403 50.3774 11.7572C50.3774 11.8732 50.3993 11.9624 50.4422 12.0238C50.4852 12.0852 50.5424 12.1155 50.614 12.1155C50.6864 12.1155 50.7445 12.0852 50.7865 12.0246ZM51.9626 11.1591H52.3473L50.8009 13.4209H50.4161L51.9626 11.1591ZM51.8599 13.3713C51.7749 13.32 51.7092 13.2476 51.6612 13.1526C51.6141 13.0584 51.5905 12.9482 51.5905 12.8229C51.5905 12.6984 51.6141 12.5882 51.6612 12.494C51.7092 12.3989 51.7749 12.3258 51.8599 12.2753C51.9457 12.2248 52.0417 12.1996 52.1495 12.1996C52.3153 12.1996 52.4508 12.256 52.5552 12.3695C52.6605 12.4822 52.7127 12.6336 52.7127 12.8229C52.7127 13.013 52.6605 13.1644 52.5552 13.2771C52.4508 13.3906 52.3153 13.447 52.1495 13.447C52.0417 13.447 51.9457 13.4217 51.8599 13.3713ZM52.3229 13.0895C52.365 13.0281 52.386 12.9398 52.386 12.8229C52.386 12.7068 52.365 12.6176 52.3229 12.5562C52.2808 12.4948 52.2227 12.4646 52.1495 12.4646C52.0788 12.4646 52.0215 12.4948 51.9786 12.5554C51.9348 12.6151 51.9138 12.7051 51.9138 12.8229C51.9138 12.9415 51.9348 13.0315 51.9786 13.0912C52.0215 13.1517 52.0788 13.182 52.1495 13.182C52.2227 13.182 52.2808 13.1509 52.3229 13.0895Z" fill="white"/>
<path d="M39.9665 51.6769H21.7542C20.3735 51.6769 19.2539 50.5582 19.2539 49.1787V11.0187C19.2539 9.63847 20.3735 8.51978 21.7542 8.51978H39.9665C41.3471 8.51978 42.4667 9.63847 42.4667 11.0187V49.1787C42.4667 50.5582 41.3471 51.6769 39.9665 51.6769Z" fill="#2D3962"/>
<path d="M41.357 49.203H20.3633V12.859C20.3633 12.1979 20.9004 11.6621 21.5621 11.6621H40.1591C40.8208 11.6621 41.357 12.1979 41.357 12.859V49.203Z" fill="white"/>
<path d="M33.2015 10.2416H28.5125C28.3804 10.2416 28.2734 10.1347 28.2734 10.0035C28.2734 9.87147 28.3804 9.76465 28.5125 9.76465H33.2015C33.3337 9.76465 33.4406 9.87147 33.4406 10.0035C33.4406 10.1347 33.3337 10.2416 33.2015 10.2416Z" fill="#7658D6"/>
<path d="M42.1251 12.8793C41.5392 11.3367 40.6123 11.1399 39.3319 11.1399H22.384C21.1036 11.1399 20.1767 11.3367 19.5908 12.8793L17.6016 18.032H44.1144L42.1251 12.8793Z" fill="#7658D6"/>
<path d="M23.1639 11.1399L21.2773 18.032H25.0454L26.2854 11.1399H23.1639Z" fill="#F48378"/>
<path d="M38.5512 11.1399H35.4297L36.6697 18.032H40.4386L38.5512 11.1399Z" fill="#F48378"/>
<path d="M32.3282 11.1399H29.3834L28.7891 18.032H32.9225L32.3282 11.1399Z" fill="#F48378"/>
<path d="M21.2773 18.032C21.2773 18.99 22.1209 19.7664 23.1614 19.7664C24.2019 19.7664 25.0454 18.99 25.0454 18.032H21.2773Z" fill="#F48378"/>
<path d="M28.7891 18.032C28.7891 18.99 29.7126 19.7664 30.8524 19.7664C31.9914 19.7664 32.9149 18.99 32.9149 18.032H28.7891Z" fill="#F48378"/>
<path d="M40.4369 18.032C40.4369 18.99 39.5934 19.7664 38.552 19.7664C37.5115 19.7664 36.668 18.99 36.668 18.032H40.4369Z" fill="#F48378"/>
<path d="M25.0469 18.032C25.0469 18.99 25.8853 19.7664 26.9191 19.7664C27.9529 19.7664 28.7914 18.99 28.7914 18.032H25.0469Z" fill="#7658D6"/>
<path d="M17.6016 18.032C17.6016 18.99 18.4249 19.7664 19.4401 19.7664C20.4554 19.7664 21.2787 18.99 21.2787 18.032H17.6016Z" fill="#7658D6"/>
<path d="M36.6703 18.032C36.6703 18.99 35.8318 19.7664 34.798 19.7664C33.7643 19.7664 32.9258 18.99 32.9258 18.032H36.6703Z" fill="#7658D6"/>
<path d="M44.1138 18.032C44.1138 18.99 43.2913 19.7664 42.2752 19.7664C41.26 19.7664 40.4375 18.99 40.4375 18.032H44.1138Z" fill="#7658D6"/>
<g opacity="0.149">
<path opacity="0.149" d="M36.6849 42.5181C36.6849 43.0926 34.3244 43.4055 31.4116 43.4055C28.4989 43.4055 26.2066 43.0842 26.1375 42.5181C26.0096 41.4785 28.4989 41.4785 31.4116 41.4785C34.3244 41.4785 36.6849 41.4785 36.6849 42.5181Z" fill="#B75851"/>
</g>
<path d="M29.4993 41.8349C29.4993 42.3026 29.1205 42.6819 28.6524 42.6819C28.1844 42.6819 27.8047 42.3026 27.8047 41.8349C27.8047 41.3673 28.1844 40.9888 28.6524 40.9888C29.1205 40.9888 29.4993 41.3673 29.4993 41.8349Z" fill="#DD796B"/>
<path d="M29.0466 41.835C29.0466 42.0529 28.8698 42.2295 28.6526 42.2295C28.4346 42.2295 28.2578 42.0529 28.2578 41.835C28.2578 41.618 28.4346 41.4414 28.6526 41.4414C28.8698 41.4414 29.0466 41.618 29.0466 41.835Z" fill="#5C47B5"/>
<path d="M35.0119 41.8349C35.0119 42.3026 34.6322 42.6819 34.1641 42.6819C33.6961 42.6819 33.3164 42.3026 33.3164 41.8349C33.3164 41.3673 33.6961 40.9888 34.1641 40.9888C34.6322 40.9888 35.0119 41.3673 35.0119 41.8349Z" fill="#DD796B"/>
<path d="M34.5583 41.835C34.5583 42.0529 34.3815 42.2295 34.1644 42.2295C33.9463 42.2295 33.7695 42.0529 33.7695 41.835C33.7695 41.618 33.9463 41.4414 34.1644 41.4414C34.3815 41.4414 34.5583 41.618 34.5583 41.835Z" fill="#5C47B5"/>
<path fill-rule="evenodd" clip-rule="evenodd" d="M34.8371 40.295H27.6049C27.5468 40.295 27.4954 40.2554 27.4811 40.1999L25.2435 31.5666C25.033 30.7314 24.4076 30.1704 23.6878 30.1704H23.4201C23.3502 30.1704 23.293 30.1132 23.293 30.0434C23.293 29.9727 23.3502 29.9155 23.4201 29.9155H23.6878C24.5263 29.9155 25.2511 30.5539 25.4902 31.5036L25.9355 33.222H36.5612C36.6007 33.222 36.6378 33.2396 36.6613 33.2708C36.6858 33.3019 36.6942 33.3423 36.6841 33.3801L34.96 40.1991C34.9457 40.2554 34.8952 40.295 34.8371 40.295ZM27.7025 40.0409H34.7377L36.3978 33.476H26.0012L27.7025 40.0409Z" fill="#5C47B5"/>
<path d="M36.1318 35.181H26.3185C26.2487 35.181 26.1914 35.1238 26.1914 35.054C26.1914 34.9834 26.2487 34.927 26.3185 34.927H36.1318C36.2017 34.927 36.2589 34.9834 36.2589 35.054C36.2589 35.1238 36.2017 35.181 36.1318 35.181Z" fill="#5C47B5"/>
<path d="M35.6998 36.8851H26.7443C26.6736 36.8851 26.6172 36.8288 26.6172 36.7581C26.6172 36.6883 26.6736 36.6311 26.7443 36.6311H35.6998C35.7696 36.6311 35.8269 36.6883 35.8269 36.7581C35.8269 36.8288 35.7696 36.8851 35.6998 36.8851Z" fill="#5C47B5"/>
<path d="M35.2519 38.59H27.2334C27.1627 38.59 27.1055 38.5336 27.1055 38.4629C27.1055 38.3923 27.1627 38.3359 27.2334 38.3359H35.2519C35.3218 38.3359 35.379 38.3923 35.379 38.4629C35.379 38.5336 35.3218 38.59 35.2519 38.59Z" fill="#5C47B5"/>
<path d="M28.9883 40.295C28.9251 40.295 28.8704 40.2478 28.862 40.1839L27.9621 33.3658C27.9528 33.296 28.0016 33.2321 28.0715 33.2228C28.1397 33.2136 28.2045 33.2623 28.2138 33.3322L29.1145 40.1511C29.1238 40.2209 29.0741 40.2849 29.0051 40.2933C28.9992 40.2941 28.9933 40.295 28.9883 40.295Z" fill="#5C47B5"/>
<path d="M30.6481 40.2949C30.5815 40.2949 30.5251 40.2436 30.5209 40.1763L30.0705 33.3573C30.0663 33.2875 30.1194 33.227 30.1892 33.2219C30.2591 33.2177 30.3197 33.2707 30.3248 33.3405L30.7752 40.1595C30.7794 40.2293 30.7263 40.2899 30.6565 40.2949C30.6531 40.2949 30.6506 40.2949 30.6481 40.2949Z" fill="#5C47B5"/>
<path d="M33.6001 40.295C33.5942 40.295 33.5883 40.2941 33.5832 40.2933C33.5133 40.2849 33.4645 40.2209 33.4738 40.1511L34.3737 33.3322C34.383 33.2623 34.447 33.2136 34.5168 33.2228C34.5859 33.2321 34.6355 33.296 34.6263 33.3658L33.7255 40.1839C33.7171 40.2478 33.6624 40.295 33.6001 40.295Z" fill="#5C47B5"/>
<path d="M32.1195 40.2951C32.117 40.2951 32.1136 40.2951 32.1111 40.2951C32.0412 40.29 31.9882 40.2295 31.9924 40.1597L32.4428 33.3407C32.447 33.2709 32.5076 33.2187 32.5783 33.2221C32.6482 33.2271 32.7013 33.2877 32.697 33.3575L32.2467 40.1765C32.2416 40.2438 32.186 40.2951 32.1195 40.2951Z" fill="#5C47B5"/>
<path d="M28.6507 41.962C28.6423 41.962 28.6339 41.9612 28.6254 41.9595C28.5564 41.9461 28.5118 41.8788 28.5261 41.8098L28.8628 40.1427C28.8763 40.0737 28.9437 40.0283 29.0127 40.0434C29.0817 40.0569 29.1263 40.1242 29.112 40.1932L28.7753 41.8603C28.7627 41.9208 28.7096 41.962 28.6507 41.962Z" fill="#5C47B5"/>
<path d="M34.1588 41.962C34.1058 41.962 34.0561 41.9292 34.0384 41.8762L33.4752 40.2083C33.4533 40.1419 33.4887 40.0695 33.5552 40.0477C33.6217 40.0249 33.6941 40.0603 33.7168 40.1267L34.2792 41.7947C34.3019 41.8611 34.2657 41.9334 34.1992 41.9553C34.1857 41.9604 34.1723 41.962 34.1588 41.962Z" fill="#5C47B5"/>
<path d="M23.7418 30.3663H21.7264C21.5471 30.3663 21.4023 30.2216 21.4023 30.0425C21.4023 29.8642 21.5471 29.7195 21.7264 29.7195H23.7418V30.3663Z" fill="#DD796B"/>
<path d="M33.7131 26.391C33.7131 27.9328 32.4621 29.1827 30.9191 29.1827C29.376 29.1827 28.125 27.9328 28.125 26.391C28.125 24.8493 29.376 23.5994 30.9191 23.5994C32.4621 23.5994 33.7131 24.8493 33.7131 26.391Z" fill="#F48378"/>
<path d="M30.8301 27.8346C30.7568 27.8346 30.6878 27.8035 30.6398 27.748L29.6372 26.6032C29.5446 26.4981 29.5555 26.3391 29.6608 26.2474C29.766 26.1549 29.9251 26.1658 30.0169 26.271L30.7905 27.1541L31.9497 25.1994C32.0204 25.0791 32.1753 25.0396 32.2957 25.1111C32.4152 25.1817 32.4548 25.3365 32.3841 25.4568L31.0473 27.711C31.006 27.7808 30.9336 27.8262 30.8528 27.8338C30.8452 27.8338 30.8376 27.8346 30.8301 27.8346Z" fill="#2D3962"/>
<path d="M22.0811 45.122L22.1611 45.3306L22.3842 45.3423C22.4288 45.3449 22.4473 45.4004 22.4128 45.4281L22.2386 45.5686L22.2966 45.7848C22.3084 45.8277 22.2604 45.8622 22.2234 45.8378L22.0357 45.7166L21.8479 45.8378C21.8109 45.8622 21.7629 45.8277 21.7747 45.7848L21.8328 45.5686L21.6585 45.4281C21.624 45.4004 21.6425 45.3449 21.6872 45.3423L21.9102 45.3306L21.9902 45.122C22.0062 45.0808 22.0651 45.0808 22.0811 45.122Z" fill="#F99D98"/>
<path d="M23.21 45.122L23.29 45.3306L23.5131 45.3423C23.5577 45.3449 23.5762 45.4004 23.5417 45.4281L23.3675 45.5686L23.4255 45.7848C23.4373 45.8277 23.3893 45.8622 23.3523 45.8378L23.1646 45.7166L22.9769 45.8378C22.9398 45.8622 22.8918 45.8277 22.9036 45.7848L22.9617 45.5686L22.7874 45.4281C22.7529 45.4004 22.7714 45.3449 22.8161 45.3423L23.0391 45.3306L23.1191 45.122C23.1351 45.0808 23.194 45.0808 23.21 45.122Z" fill="#F99D98"/>
<path d="M24.3429 45.122L24.4228 45.3306L24.6459 45.3423C24.6905 45.3449 24.7091 45.4004 24.6737 45.4281L24.5003 45.5686L24.5584 45.7848C24.5702 45.8277 24.5222 45.8622 24.4843 45.8378L24.2974 45.7166L24.1097 45.8378C24.0726 45.8622 24.0246 45.8277 24.0364 45.7848L24.0945 45.5686L23.9203 45.4281C23.8857 45.4004 23.9043 45.3449 23.9489 45.3423L24.172 45.3306L24.2519 45.122C24.2679 45.0808 24.3269 45.0808 24.3429 45.122Z" fill="#F99D98"/>
<path d="M25.472 45.122L25.552 45.3306L25.7751 45.3423C25.8197 45.3449 25.8382 45.4004 25.8029 45.4281L25.6294 45.5686L25.6875 45.7848C25.6985 45.8277 25.6513 45.8622 25.6134 45.8378L25.4266 45.7166L25.2388 45.8378C25.2018 45.8622 25.1538 45.8277 25.1656 45.7848L25.2237 45.5686L25.0494 45.4281C25.0149 45.4004 25.0326 45.3449 25.0772 45.3423L25.3011 45.3306L25.3811 45.122C25.3971 45.0808 25.456 45.0808 25.472 45.122Z" fill="#F99D98"/>
<path d="M26.6048 45.122L26.684 45.3306L26.9079 45.3423C26.9525 45.3449 26.9702 45.4004 26.9357 45.4281L26.7622 45.5686L26.8203 45.7848C26.8313 45.8277 26.7841 45.8622 26.7463 45.8378L26.5594 45.7166L26.3716 45.8378C26.3338 45.8622 26.2866 45.8277 26.2984 45.7848L26.3556 45.5686L26.1822 45.4281C26.1477 45.4004 26.1654 45.3449 26.21 45.3423L26.4339 45.3306L26.5139 45.122C26.5291 45.0808 26.5888 45.0808 26.6048 45.122Z" fill="#F99D98"/>
<path d="M28.4881 46.8505H21.8957C21.7551 46.8505 21.6406 46.737 21.6406 46.5957C21.6406 46.4552 21.7551 46.3408 21.8957 46.3408H28.4881C28.6287 46.3408 28.7432 46.4552 28.7432 46.5957C28.7432 46.737 28.6287 46.8505 28.4881 46.8505Z" fill="#F48378"/>
<path d="M26.0114 47.8331H21.8957C21.7551 47.8331 21.6406 47.7195 21.6406 47.5782C21.6406 47.4378 21.7551 47.3242 21.8957 47.3242H26.0114C26.152 47.3242 26.2665 47.4378 26.2665 47.5782C26.2665 47.7195 26.152 47.8331 26.0114 47.8331Z" fill="#F48378"/>
</g>
<defs>
<clipPath id="clip0_958_4292">
<rect width="66" height="54" fill="white"/>
</clipPath>
</defs>
</svg>
