<svg width="314" height="332" viewBox="0 0 314 332" fill="none" xmlns="http://www.w3.org/2000/svg">
<path d="M313.864 320.151C313.864 326.191 281.154 331.084 240.801 331.084C200.448 331.084 167.735 326.191 167.735 320.151C167.735 314.113 200.448 309.22 240.801 309.22C281.154 309.22 313.864 314.113 313.864 320.151Z" fill="#BED4EF"/>
<path opacity="0.3" d="M262.405 24.4864C266.04 22.8425 269.819 21.3331 273.798 21.0406C277.778 20.748 282.029 21.8302 284.778 24.722C287.403 27.4844 288.319 31.4921 288.299 35.303C288.242 47.0981 280.431 57.4564 271.681 65.363C263.231 73.0003 253.556 79.2784 243.138 83.8867C236.154 86.9779 228.726 89.339 221.094 89.5901C216.32 89.7455 203.161 88.8057 200.58 83.6537C198.786 80.0681 207.901 69.3577 210.239 66.207C218.824 54.6241 229.417 44.561 241.29 36.3955C247.956 31.8105 255.032 27.8184 262.405 24.4864Z" fill="white"/>
<path opacity="0.2" d="M28.445 113.825C26.3791 114.819 24.2304 115.735 21.9496 115.958C19.6688 116.181 17.2145 115.619 15.5965 113.996C14.0509 112.445 13.471 110.156 13.4296 107.969C13.3001 101.199 17.6417 95.1432 22.558 90.4831C27.3059 85.9836 32.7736 82.2451 38.6892 79.4569C42.658 77.5877 46.9374 76.5754 51.2686 75.8816C59.8584 74.5069 64.1379 81.5669 57.821 89.1576C52.5268 95.5212 47.1057 101.846 40.4031 106.698C36.6388 109.421 32.6313 111.811 28.445 113.825Z" fill="white"/>
<path opacity="0.7" d="M280.583 174.365C278.519 175.356 276.368 176.275 274.087 176.498C271.809 176.72 269.352 176.156 267.734 174.535C266.189 172.985 265.609 170.696 265.567 168.508C265.438 161.736 269.779 155.683 274.696 151.023C279.444 146.523 284.911 142.785 290.83 139.997C294.796 138.127 299.075 137.115 303.406 136.421C311.999 135.044 316.276 142.104 309.959 149.695C304.665 156.061 299.246 162.386 292.541 167.237C288.777 169.961 284.769 172.348 280.583 174.365Z" fill="#E1ECFD"/>
<path opacity="0.4" d="M99.8802 32.2065C97.6486 32.7269 95.3522 33.1566 93.0766 32.877C90.8036 32.6 88.528 31.5153 87.3034 29.5788C86.1307 27.7303 86.0634 25.3692 86.4983 23.2255C87.8445 16.5875 93.4002 11.6246 99.2122 8.14504C104.825 4.78461 110.974 2.32513 117.355 0.890868C121.634 -0.0722123 126.033 -0.129169 130.411 0.137491C139.096 0.663042 141.735 8.48419 133.919 14.519C127.366 19.5803 120.7 24.5744 113.104 27.8519C108.835 29.6901 104.406 31.1502 99.8802 32.2065Z" fill="white"/>
<path d="M216.421 278.858H102.13C98.5859 278.858 95.7148 275.987 95.7148 272.443V34.0574C95.7148 30.5132 98.5859 27.6421 102.13 27.6421H216.421C219.965 27.6421 222.836 30.5132 222.836 34.0574V272.443C222.836 275.987 219.965 278.858 216.421 278.858Z" fill="#AAC6EF"/>
<path d="M209.157 275.351H94.8635C91.3219 275.351 88.4482 272.48 88.4482 268.938V30.5496C88.4482 27.0054 91.3219 24.1343 94.8635 24.1343H209.157C212.701 24.1343 215.572 27.0054 215.572 30.5496V268.938C215.572 272.48 212.701 275.351 209.157 275.351Z" fill="#1372E6"/>
<path d="M201.953 246.139H102.066C100.309 246.139 98.8848 244.713 98.8848 242.958V45.4149C98.8848 43.6597 100.309 42.2332 102.066 42.2332H201.953C203.711 42.2332 205.135 43.6597 205.135 45.4149V242.958C205.135 244.713 203.711 246.139 201.953 246.139Z" fill="#E1ECFD"/>
<path d="M196.932 115.487H66.665V56.4209H196.932V115.487Z" fill="#D5D7E0"/>
<path d="M203.267 109.96H73V50.896H203.267V109.96Z" fill="white"/>
<path d="M169.873 35.7275H134.139C133.675 35.7275 133.3 35.3521 133.3 34.8886V32.1418C133.3 31.6784 133.675 31.303 134.139 31.303H169.873C170.336 31.303 170.712 31.6784 170.712 32.1418V34.8886C170.712 35.3521 170.336 35.7275 169.873 35.7275Z" fill="#AAC6EF"/>
<path fill-rule="evenodd" clip-rule="evenodd" d="M118.346 62.1532V62.3733C118.346 63.6885 117.958 64.4651 117.013 64.7862V64.8198C118.129 65.1564 118.6 66.034 118.6 67.5848V67.9913C118.6 69.9304 117.554 70.9763 115.63 70.9763H113V59.1682H115.496C117.352 59.1682 118.346 60.2141 118.346 62.1532ZM114.789 60.8225V64.0432H115.343C116.205 64.0432 116.557 63.6056 116.557 62.6089V62.2206C116.557 61.2601 116.205 60.8225 115.428 60.8225H114.789ZM114.789 65.6975V69.322H115.563C116.422 69.322 116.811 68.8689 116.811 67.8722V67.2146C116.811 66.1687 116.422 65.6975 115.478 65.6975H114.789Z" fill="#1372E6"/>
<path fill-rule="evenodd" clip-rule="evenodd" d="M126.478 61.985V68.1596C126.478 70.0159 125.383 71.1447 123.594 71.1447C121.805 71.1447 120.71 70.0159 120.71 68.1596V61.985C120.71 60.1288 121.805 59 123.594 59C125.383 59 126.478 60.1288 126.478 61.985ZM122.496 62.0032V68.1415C122.496 69.0192 122.885 69.4929 123.594 69.4929C124.303 69.4929 124.689 69.0192 124.689 68.1415V62.0032C124.689 61.1255 124.303 60.6543 123.594 60.6543C122.885 60.6543 122.496 61.1255 122.496 62.0032Z" fill="#1372E6"/>
<path fill-rule="evenodd" clip-rule="evenodd" d="M134.639 61.985V68.1596C134.639 70.0159 133.544 71.1447 131.755 71.1447C129.969 71.1447 128.871 70.0159 128.871 68.1596V61.985C128.871 60.1288 129.969 59 131.755 59C133.544 59 134.639 60.1288 134.639 61.985ZM130.66 62.0032V68.1415C130.66 69.0192 131.048 69.4929 131.755 69.4929C132.464 69.4929 132.853 69.0192 132.853 68.1415V62.0032C132.853 61.1255 132.464 60.6543 131.755 60.6543C131.048 60.6543 130.66 61.1255 130.66 62.0032Z" fill="#1372E6"/>
<path d="M140.967 63.857L143.447 70.9765H141.542L139.787 65.8142L139.013 67.3339V70.9765H137.224V59.1685H139.013V64.0952H139.046L141.524 59.1685H143.398L140.967 63.857Z" fill="#1372E6"/>
<path d="M147.14 70.9765H145.354V59.1685H147.14V70.9765Z" fill="#1372E6"/>
<path d="M155.729 70.9765H153.974L151.631 63.1502H151.597V70.9765H149.909V59.1685H151.9L154.007 66.2026H154.041V59.1685H155.729V70.9765Z" fill="#1372E6"/>
<path d="M163.909 61.8349V62.6426L162.19 62.7281V62.0187C162.19 61.0737 161.836 60.6543 161.144 60.6543C160.451 60.6543 160.098 61.0737 160.098 61.8504V68.2943C160.098 69.0709 160.435 69.4929 161.126 69.4929C161.818 69.4929 162.154 69.0709 162.154 68.126V66.1014H161.144V64.4471H163.909V68.3124C163.909 70.0987 162.879 71.1447 161.093 71.1447C159.322 71.1447 158.31 70.0987 158.31 68.3124V61.8349C158.31 60.0459 159.322 59 161.093 59C162.879 59 163.909 60.0459 163.909 61.8349Z" fill="#1372E6"/>
<path fill-rule="evenodd" clip-rule="evenodd" d="M98.7371 87.801C98.6464 88.2126 98.5015 88.601 98.3332 88.9789C98.3487 88.9582 98.3617 88.9401 98.3694 88.9272L93.2797 100.761C93.1037 101.17 92.5212 101.17 92.3451 100.761L87.2968 89.0255L87.2632 88.922C87.1053 88.5621 86.9732 88.1919 86.8878 87.801C86.7972 87.379 86.7402 86.9466 86.7402 86.4988C86.7402 83.1461 89.4585 80.4277 92.8111 80.4277C96.1663 80.4277 98.8846 83.1461 98.8846 86.4988C98.8846 86.9466 98.8277 87.379 98.7371 87.801ZM93.404 92.518C93.2072 92.5387 93.0131 92.5698 92.8111 92.5698C93.0105 92.5698 93.2072 92.5517 93.404 92.518Z" fill="#75B43C"/>
<path d="M95.8579 86.3538C95.8579 88.0366 94.4935 89.401 92.8108 89.401C91.128 89.401 89.7637 88.0366 89.7637 86.3538C89.7637 84.671 91.128 83.3066 92.8108 83.3066C94.4935 83.3066 95.8579 84.671 95.8579 86.3538Z" fill="white"/>
<path d="M100.17 99.6945H98.2285V99.1121H100.17V99.6945Z" fill="#D5D7E0"/>
<path d="M115.911 99.6945H111.976V99.1121H115.911V99.6945ZM108.041 99.6945H104.105V99.1121H108.041V99.6945Z" fill="#D5D7E0"/>
<path d="M186.731 99.6945H182.796V99.1121H186.731V99.6945ZM178.864 99.6945H174.929V99.1121H178.864V99.6945ZM170.994 99.6945H167.059V99.1121H170.994V99.6945ZM163.124 99.6945H159.188V99.1121H163.124V99.6945ZM155.256 99.6945H151.321V99.1121H155.256V99.6945ZM147.386 99.6945H143.451V99.1121H147.386V99.6945ZM139.516 99.6945H135.583V99.1121H139.516V99.6945ZM131.648 99.6945H127.713V99.1121H131.648V99.6945ZM123.778 99.6945H119.843V99.1121H123.778V99.6945Z" fill="#D5D7E0"/>
<path d="M192.608 99.6945H190.666V99.1121H192.608V99.6945Z" fill="#D5D7E0"/>
<path d="M133.751 184.412H114.482C113.346 184.412 112.427 183.493 112.427 182.357V127.347C112.427 126.21 113.346 125.289 114.482 125.289H133.751C134.888 125.289 135.807 126.21 135.807 127.347V182.357C135.807 183.493 134.888 184.412 133.751 184.412Z" fill="#F5F7FF"/>
<path d="M163.31 184.412H144.041C142.907 184.412 141.985 183.493 141.985 182.357V127.347C141.985 126.21 142.907 125.289 144.041 125.289H163.31C164.446 125.289 165.368 126.21 165.368 127.347V182.357C165.368 183.493 164.446 184.412 163.31 184.412Z" fill="#F5F7FF"/>
<path d="M192.873 184.412H173.604C172.468 184.412 171.546 183.493 171.546 182.357V127.347C171.546 126.21 172.468 125.289 173.604 125.289H192.873C194.007 125.289 194.929 126.21 194.929 127.347V182.357C194.929 183.493 194.007 184.412 192.873 184.412Z" fill="#F5F7FF"/>
<path d="M163.31 240.53H144.041C142.907 240.53 141.985 239.608 141.985 238.471V193.15C141.985 192.013 142.907 191.094 144.041 191.094H163.31C164.446 191.094 165.368 192.013 165.368 193.15V238.471C165.368 239.608 164.446 240.53 163.31 240.53Z" fill="#F5F7FF"/>
<path d="M192.873 240.53H173.604C172.468 240.53 171.546 239.608 171.546 238.471V193.15C171.546 192.013 172.468 191.094 173.604 191.094H192.873C194.007 191.094 194.929 192.013 194.929 193.15V238.471C194.929 239.608 194.007 240.53 192.873 240.53Z" fill="#F5F7FF"/>
<path d="M163.567 261.663C163.567 267.126 159.14 271.555 153.677 271.555C148.215 271.555 143.785 267.126 143.785 261.663C143.785 256.2 148.215 251.773 153.677 251.773C159.14 251.773 163.567 256.2 163.567 261.663Z" fill="#E1ECFD"/>
<path d="M161.902 259.91C161.902 265.373 157.472 269.8 152.01 269.8C146.547 269.8 142.12 265.373 142.12 259.91C142.12 254.447 146.547 250.018 152.01 250.018C157.472 250.018 161.902 254.447 161.902 259.91Z" fill="#F5F7FF"/>
<path d="M230.45 131.989C225.795 134.448 212.201 212.737 209.692 225.056C208.02 233.265 202.622 260.638 193.499 307.171L211.973 308.541C225.813 268.241 234.328 244.9 237.52 238.513C242.312 228.931 266.526 157.474 264.113 141.195C249.732 130.801 238.509 127.73 230.45 131.989Z" fill="#0C4285"/>
<path d="M243.529 136.853C243.819 192.945 245.134 224.913 247.472 232.755C249.81 240.597 253.755 266.445 259.309 310.293H278.961L284.7 132.201C258.586 126.43 244.863 127.981 243.529 136.853Z" fill="#0D478E"/>
<path d="M259.355 73.4558C260.761 70.9005 259.92 67.6695 257.46 66.1007C254.48 64.2004 249.805 62.7428 243.584 65.4353C237.893 67.8974 229.995 73.303 219.888 81.6523C208.608 89.5822 204.15 94.7497 206.514 97.1522C208.857 99.5366 210.718 102.299 214.027 101.83C224.413 100.357 246.794 96.3031 259.355 73.4558Z" fill="#1372E6"/>
<path d="M247.441 64.2084C237.262 70.9422 231.39 77.311 229.824 83.3147C228.258 89.3184 227.259 105.567 226.826 132.059C248.404 146.295 268.277 145.886 286.44 130.827C286.192 132.528 285.938 131.552 285.676 127.899C285.327 123.003 283.416 94.3849 283.01 88.3113C282.958 87.5217 282.743 86.7761 282.365 86.0797C279.688 81.1607 267.671 61.534 247.441 64.2084Z" fill="#1372E6"/>
<path d="M229.912 96.8261C229.922 96.6967 229.928 96.5776 229.933 96.4636L230.803 80.7644C228.589 84.1947 228.385 94.2631 228.299 95.6119C227.792 102.361 227.445 110.436 227.212 117.273C227.217 117.253 229.576 101.911 229.912 96.852V96.8261Z" fill="#383BA4"/>
<path d="M285.291 122.283L244.324 105.698C252.031 117.597 259.876 124.955 267.86 127.769C275.844 130.583 282.443 130.834 285.966 130.692C285.873 130.164 285.775 129.291 285.676 127.899C285.604 126.894 285.467 124.882 285.291 122.283Z" fill="#383BA4"/>
<path d="M261.61 87.1047C264.103 98.3226 266.985 105.794 270.254 109.52L247.387 101.331L280.747 119.557L261.61 87.1047Z" fill="#383BA4"/>
<path d="M256.653 64.5216C254.916 64.1669 253.101 63.9624 251.203 63.9624C248.788 67.6672 245.428 73.6217 248.011 74.6521C251.812 76.1666 257.823 70.6289 258.432 69.0315C258.89 67.8328 257.414 65.5727 256.653 64.5216Z" fill="#383BA4"/>
<path d="M243.641 49.3373C243.954 51.2816 243.954 52.6046 243.641 53.3036C243.175 54.3547 244.035 60.3506 245.135 61.5131C245.699 62.1085 248.224 61.9454 250.44 59.6128C251.918 58.0568 252.607 55.644 252.508 52.3716C252.819 48.8713 249.865 47.8591 243.641 49.3373Z" fill="#F0C6B2"/>
<path d="M244.329 68.0577C244.378 66.1807 245.118 60.2314 246.55 50.2045C248.717 51.0795 250.464 52.0763 251.792 53.1947C251.857 52.7468 252.03 52.1669 252.385 51.398C252.939 50.4038 253.465 50.0077 253.959 50.2045C254.7 50.4996 255.44 51.6853 253.959 53.0186L253.032 54.5927C253.162 54.8283 253.252 55.0639 253.291 55.2995C254.575 63.3614 255.414 67.7626 255.81 68.503C252.522 72.9482 249.923 74.9986 248.01 74.6517C245.141 74.1339 244.253 70.8745 244.329 68.0577Z" fill="#F0C6B2"/>
<path d="M244.506 65.8909C244.63 64.7026 244.806 63.2114 245.008 61.6218C245.06 61.5752 245.104 61.539 245.135 61.5131C247.273 63.0379 249.042 62.4037 250.44 59.6128C249.228 64.1201 247.25 66.2146 244.506 65.8909Z" fill="#AB6360"/>
<path d="M271.702 72.5707C269.361 70.8309 266.045 71.227 264.158 73.4483C261.869 76.1408 259.79 80.5756 261.61 87.1049C263.275 93.0775 267.554 101.639 274.451 112.79L247.387 101.331L244.324 105.699C258.55 123.231 273.105 130.715 287.986 128.15C291.279 127.58 293.655 124.683 293.642 121.341C293.598 110.851 292.627 88.1275 271.702 72.5707Z" fill="#1372E6"/>
<path d="M199.026 307.614C191.759 313.317 186.848 316.388 184.29 316.828C183.622 316.942 183.053 317.589 183.004 318.41C182.957 319.223 183.335 320.142 185.049 320.561C187.568 321.18 198.78 320.111 204.517 319.502C206.472 319.298 207.96 317.685 208.007 315.72C208.033 314.661 208.064 313.447 208.098 312.207C208.129 311.057 207.937 309.729 207.52 308.222L199.026 307.614Z" fill="#422E2D"/>
<path d="M273.389 310.293C279.556 317.353 283.843 321.283 286.251 322.076C286.88 322.285 287.338 323.005 287.268 323.823C287.201 324.636 286.704 325.493 284.992 325.667C282.479 325.923 271.859 323.303 266.391 321.894C264.504 321.408 263.277 319.614 263.505 317.68C263.629 316.621 263.771 315.401 263.916 314.156C264.048 313.012 264.421 311.725 265.035 310.293H273.389Z" fill="#422E2D"/>
<path d="M243.838 51.3154C244.961 48.7912 249.857 50.4947 250.035 50.5905C250.494 50.8365 250.797 51.3465 250.791 51.8669C250.789 52.1801 250.683 52.4856 250.659 52.7989C250.621 53.283 250.789 53.7801 251.112 54.1425C251.084 53.5755 252.163 51.3827 252.834 53.195C253.013 53.6765 252.539 54.1814 252.487 54.6914C252.396 55.6156 252.891 56.4933 253.445 57.2415C254.053 56.6719 254.292 55.802 254.346 54.971C254.452 53.384 254.988 54.4843 255.19 52.9076C255.451 50.8727 255.627 47.489 252.51 45.9874C244.692 42.2153 241.803 43.9913 243.838 51.3154Z" fill="#422E2D"/>
<path d="M252.348 243.455C251.589 239.957 250.981 225.206 249.459 218.06C248.941 215.627 248.182 213.47 247.406 211.671C247.406 211.668 247.406 211.668 247.406 211.668C247.403 211.661 247.398 211.653 247.395 211.645C247.227 211.259 247.064 210.899 246.896 210.547C246.87 210.493 246.846 210.436 246.82 210.384C246.66 210.048 246.505 209.737 246.349 209.437C246.318 209.377 246.285 209.312 246.254 209.255C246.111 208.978 245.974 208.725 245.837 208.481C245.795 208.406 245.754 208.331 245.712 208.256C245.593 208.049 245.485 207.86 245.376 207.679C245.319 207.583 245.267 207.495 245.213 207.407C245.174 207.342 245.127 207.262 245.091 207.202V207.21C244.786 206.716 244.529 206.327 244.325 206.045L234.337 246.073H234.34C235.683 242.634 236.791 239.976 237.521 238.513C238.932 235.694 242.026 227.502 245.63 216.945C246.121 224.478 246.727 230.254 247.473 232.755C248.718 236.934 250.572 247.929 252.444 260.366H252.446C252.889 251.424 252.855 245.788 252.348 243.455Z" fill="#422E2D"/>
<path d="M242.346 95.8631C239.781 97.6883 238.774 99.5885 239.32 101.566C239.866 103.544 241.536 104.919 244.324 105.698L247.387 101.331C245.598 97.5329 243.918 95.7129 242.346 95.8631Z" fill="#F0C6B2"/>
<path d="M216.851 83.9151C205.633 85.6782 195.798 83.6019 187.348 77.6836L184.881 82.2297C192.554 93.8773 201.991 100.425 213.185 101.872L216.851 83.9151Z" fill="#1372E6"/>
<path d="M214.027 101.83C217.755 101.302 223.039 100.422 228.848 98.4778L229.009 97.5199L228.297 95.6118C224.998 98.4389 214.071 101.618 213.266 101.851C213.514 101.854 213.76 101.867 214.027 101.83Z" fill="#383BA4"/>
<path d="M187.359 77.6735C181.094 73.0134 177.855 70.7455 177.643 70.8672C175.691 71.9856 181.966 77.1945 182.406 78.0929C182.847 78.9912 181.285 78.8437 180.545 79.4288C179.807 80.0139 182.391 81.7614 184.423 82.2274C185.743 82.5303 186.722 81.0132 187.359 77.6735Z" fill="#F0C6B2"/>
<path d="M171.545 318.151C171.545 324.191 138.835 329.084 98.4818 329.084C58.129 329.084 25.416 324.191 25.416 318.151C25.416 312.113 58.129 307.22 98.4818 307.22C138.835 307.22 171.545 312.113 171.545 318.151Z" fill="#BED4EF"/>
<path d="M149.227 307.797C157.162 313.78 162.482 316.903 165.19 317.162C165.897 317.229 166.541 317.861 166.655 318.712C166.769 319.559 166.446 320.548 164.688 321.12C161.959 322.011 148.971 321.692 143.314 321.508C141.805 321.457 140.567 320.307 140.42 318.806C140.29 317.516 140.127 315.877 139.956 314.195C139.835 312.996 139.7 311.116 139.558 308.556L149.227 307.797Z" fill="#422E2D"/>
<path d="M75.6066 307.22C83.5415 313.203 88.8616 316.325 91.5696 316.584C92.2764 316.651 92.921 317.283 93.0349 318.138C93.1488 318.982 92.8226 319.973 91.0674 320.543C88.3387 321.433 75.3477 321.115 69.6936 320.931C68.1843 320.882 66.9468 319.73 66.7967 318.228C66.6698 316.939 66.5067 315.3 66.3359 313.62C66.2116 312.419 66.0795 310.285 65.9346 307.22H75.6066Z" fill="#422E2D"/>
<path d="M16.1475 230.088L46.2379 259.897L64.4973 307.22H79.6448L73.157 232.708L50.3957 227.706L16.1475 230.088Z" fill="#335910"/>
<path d="M112.237 226.067C99.1118 216.066 85.0724 205.951 70.4944 196.328L51.2539 225.552L56.3695 237.689L91.2546 254.507C93.5665 255.62 95.6298 257.191 97.3151 259.125L135.144 308.54H153.678L119.652 235.323C117.961 231.685 115.429 228.501 112.237 226.067Z" fill="#335910"/>
<path d="M49.1577 131.269C45.479 131.637 39.7653 131.517 34.629 134.024C32.7805 134.924 24.768 184.187 21.1979 197.152C19.2614 204.181 19.2614 205.087 22.9972 207.238C27.2636 209.693 24.3563 212.437 54.7937 210.433C73.7805 211.028 83.0409 207.924 82.5775 201.118C79.9213 162.067 74.7953 139.201 67.1944 132.522C61.0174 131.101 55.0034 130.684 49.1577 131.269Z" fill="#75B43C"/>
<path d="M90.9863 138.031C93.5856 133.14 95.566 131.24 96.9278 132.328C98.9678 133.964 101.505 135.929 100.493 137.847C99.8144 139.126 97.7278 140.519 94.2276 142.026C92.2601 140.695 91.1779 139.362 90.9863 138.031Z" fill="#F0C6B2"/>
<path d="M79.645 143.786L90.9869 138.031L94.2437 142.041C89.884 153.73 82.8242 161.414 73.0615 165.088L79.645 143.786Z" fill="#679839"/>
<path d="M127.736 132.85C127.332 127.24 128 124.501 129.74 124.633C132.347 124.835 135.549 125.029 135.793 127.186C135.953 128.625 135.014 130.953 132.968 134.168C130.39 134.282 128.645 133.842 127.736 132.85Z" fill="#F0C6B2"/>
<path d="M67.6811 133.104C88.563 152.558 101.368 162.245 106.092 162.165C111.034 162.082 125.449 141.221 127.735 132.851L133.071 134.024C133.413 157.407 124.419 174.022 106.092 183.876C98.5224 187.886 88.7235 184.101 76.6982 172.521C66.3841 142.717 63.3784 129.578 67.6811 133.104Z" fill="#75B43C"/>
<path d="M34.6294 134.023C24.2739 143.323 19.1532 150.088 19.2645 154.318C19.3758 158.548 21.6488 165.119 26.0862 174.03L34.6294 134.023Z" fill="#67AE27"/>
<path d="M76.6992 172.521C80.6084 190.278 82.255 200.328 81.644 202.666C80.8466 205.708 78.1775 207.072 77.4836 207.381C80.6421 205.998 82.7753 203.999 82.5786 201.118C81.8951 191.081 80.9916 182.501 79.969 175.123L76.6992 172.521Z" fill="#335910"/>
<path d="M55.3237 132.952C55.448 131.235 55.3108 125.737 54.9069 116.458C52.8513 117.061 51.166 117.814 49.8534 118.715C49.8353 118.301 49.7292 117.755 49.4729 117.022C49.056 116.064 48.6134 115.655 48.1448 115.79C47.4432 115.994 46.6613 117.009 47.8911 118.358L48.5952 119.88C48.4554 120.082 48.3519 120.289 48.2949 120.499C46.2238 126.006 44.976 129.076 44.5488 129.718L55.3237 132.952Z" fill="#F0C6B2"/>
<path d="M55.3396 129.454C55.3345 128.362 55.3137 128.005 55.2723 126.537C55.2283 126.49 55.2283 126.49 55.2723 126.537C53.0304 126.172 51.4045 124.981 50.3975 122.959C51.1586 127.337 52.8051 129.501 55.3396 129.454Z" fill="#DCAC9B"/>
<path d="M56.2451 114.964C56.2321 116.769 56.4159 117.967 56.7965 118.56C57.366 119.445 57.423 124.999 56.5868 126.208C56.1596 126.826 53.8478 127.031 51.5126 125.224C49.9567 124.02 48.9962 121.928 48.6312 118.948C47.8623 115.818 50.3994 114.49 56.2451 114.964Z" fill="#F0C6B2"/>
<path d="M52.1926 120.89C52.0373 121.304 51.8483 121.716 51.8017 122.156C51.6722 123.318 52.5084 124.33 53.1453 125.312C54.929 128.066 56.7387 131.46 56.7128 134.743C56.6947 136.97 56.4824 139.219 55.7497 141.322C55.0145 143.424 51.592 148.93 44.5114 148.286C37.5318 147.651 37.0632 140.524 37.1383 139.023C37.405 133.648 39.9213 132.752 39.6858 132.315C34.6297 122.958 37.8554 113.198 46.9242 110.386C48.3637 109.941 56.195 108.722 56.6972 114.327C56.9613 117.291 53.7848 114.076 53.7848 118.21C53.7848 122.438 52.5783 119.854 52.1926 120.89Z" fill="#422E2D"/>
<path d="M118.437 149.873C113.784 156.467 108.661 162.121 106.093 162.165C108.047 162.722 109.58 162.973 110.693 162.916C111.806 162.861 114.39 158.512 118.442 149.868C118.439 149.87 118.437 149.873 118.437 149.873Z" fill="#679839"/>
<path d="M73.0615 239.481L99.5897 320.747L85.0609 239.481H73.0615Z" fill="#EFF5FF"/>
<path d="M36.9522 161.865C39.8 163.115 42.3164 165.01 44.6929 167.017C48.4235 170.17 51.9211 173.688 54.4193 177.888C58.8618 185.359 60.1925 194.962 66.8537 200.546C73.7789 206.348 86.2029 205.123 90.6273 212.999C98.8858 227.706 94.244 239.191 81.341 239.191C63.2552 239.191 45.1408 241.125 27.1378 239.406C23.5522 239.064 19.876 238.585 16.7176 236.855C14.0251 235.385 11.879 233.094 9.97615 230.691C-2.50999 214.92 -3.64392 167.581 15.1151 162.188C22.1956 160.153 29.9674 158.797 36.9522 161.865Z" fill="white"/>
<path fill-rule="evenodd" clip-rule="evenodd" d="M43.7997 240.884C38.2155 240.884 32.6158 240.703 27.0652 240.172C23.4538 239.828 19.6533 239.338 16.3473 237.531C13.3209 235.877 11.0298 233.262 9.37287 231.168C0.451615 219.898 -2.79742 193.09 2.68581 176.005C5.24103 168.044 9.46607 163.012 14.9027 161.45C21.3775 159.586 29.7706 157.87 37.2628 161.16C40.3591 162.52 43.0049 164.586 45.1899 166.429C49.7257 170.261 52.8685 173.776 55.0794 177.494C56.726 180.264 57.9583 183.332 59.1517 186.302C61.2617 191.56 63.2577 196.525 67.3481 199.958C70.2037 202.35 74.1594 203.533 77.9858 204.678C83.2153 206.244 88.6235 207.862 91.2978 212.623C95.9137 220.843 96.7991 228.568 93.7236 233.821C91.4065 237.78 87.0106 239.96 81.341 239.96C75.0914 239.96 68.728 240.195 62.5742 240.423C56.3972 240.653 50.1088 240.884 43.7997 240.884ZM27.7798 160.845C23.3813 160.845 19.0346 161.862 15.3273 162.926C9.1114 164.715 5.81835 171.283 4.15112 176.477C-1.20526 193.157 1.91951 219.274 10.5767 230.215C12.1456 232.193 14.3021 234.66 17.0851 236.18C20.1348 237.85 23.7592 238.31 27.2102 238.642C38.9275 239.76 50.9191 239.315 62.5173 238.885C68.684 238.657 75.063 238.422 81.341 238.422C86.4411 238.422 90.3658 236.511 92.3981 233.045C95.1863 228.276 94.2983 221.107 89.9567 213.377C87.5853 209.157 82.7079 207.699 77.5431 206.151C73.5692 204.962 69.4606 203.733 66.3618 201.133C61.9736 197.457 59.8145 192.077 57.7227 186.874C56.5551 183.961 55.3435 180.945 53.7591 178.281C51.6362 174.716 48.5969 171.322 44.1958 167.604C42.0988 165.831 39.5591 163.848 36.6441 162.569C33.7911 161.316 30.7751 160.845 27.7798 160.845Z" fill="#E1ECFD"/>
<path d="M51.9699 240.529L49.9531 324.208L64.4974 240.117L51.9699 240.529Z" fill="#EFF5FF"/>
<path d="M16.7184 236.856L0.78125 320.747L29.0466 239.574C22.4242 238.849 18.3157 237.943 16.7184 236.856Z" fill="#EFF5FF"/>
<path d="M99.0293 143.129L91.6769 145.552C91.5501 145.593 91.4128 145.524 91.3714 145.397L86.4448 130.453C86.4034 130.327 86.4707 130.189 86.6001 130.148L93.9525 127.722C94.0794 127.681 94.2166 127.751 94.258 127.877L99.1847 142.823C99.2261 142.95 99.1562 143.087 99.0293 143.129Z" fill="#1372E6"/>
<path d="M96.9773 140.333L91.6624 142.085C91.3957 142.173 91.1083 142.028 91.0203 141.762L87.515 131.129C87.427 130.862 87.572 130.575 87.8386 130.487L93.1561 128.737C93.4228 128.649 93.7102 128.794 93.7982 129.061L97.3009 139.691C97.3889 139.957 97.244 140.245 96.9773 140.333Z" fill="white"/>
<path d="M95.8551 132.447C94.8247 135.015 94.5374 136.485 94.9982 136.861C95.4564 137.239 96.2408 136.905 97.3463 135.859L95.8551 132.447Z" fill="#F0C6B2"/>
<path opacity="0.7" d="M79.6458 35.7274C79.6458 41.801 74.7217 46.7277 68.6456 46.7277C62.5721 46.7277 57.6455 41.801 57.6455 35.7274C57.6455 29.6512 62.5721 24.7271 68.6456 24.7271C74.7217 24.7271 79.6458 29.6512 79.6458 35.7274Z" fill="#E1ECFD"/>
<path opacity="0.7" d="M250.203 275.035C250.203 281.108 245.279 286.033 239.205 286.033C233.129 286.033 228.205 281.108 228.205 275.035C228.205 268.959 233.129 264.034 239.205 264.034C245.279 264.034 250.203 268.959 250.203 275.035Z" fill="#E1ECFD"/>
<path opacity="0.4" d="M63.1466 52.7937C63.1466 55.8305 60.6846 58.2926 57.6452 58.2926C54.6085 58.2926 52.1465 55.8305 52.1465 52.7937C52.1465 49.7569 54.6085 47.2922 57.6452 47.2922C60.6846 47.2922 63.1466 49.7569 63.1466 52.7937Z" fill="white"/>
<path d="M232.327 293.025C232.327 296.065 229.865 298.527 226.826 298.527C223.789 298.527 221.327 296.065 221.327 293.025C221.327 289.988 223.789 287.526 226.826 287.526C229.865 287.526 232.327 289.988 232.327 293.025Z" fill="#E1ECFD"/>
</svg>
