<svg width="77" height="59" viewBox="0 0 77 59" fill="none" xmlns="http://www.w3.org/2000/svg">
<path d="M41.6038 51.182C39.8846 49.1626 39.8316 47.5112 41.4451 46.2288C42.6235 45.5104 43.6928 45.1806 44.6541 45.2389C43.2922 47.5372 42.8318 48.801 43.2723 49.0298C43.7127 49.2582 44.3796 47.9223 45.2727 45.0223C47.9546 44.7606 49.7267 44.8386 50.5897 45.2561C48.2967 47.1447 47.3919 48.1453 47.8747 48.258C48.3576 48.3702 49.8372 47.4994 52.3137 45.6456C54.8096 46.0734 55.9909 47.0535 55.8575 48.5868C55.658 50.8861 54.3681 51.5961 53.8011 51.5349C53.2341 51.4736 49.9175 50.199 49.845 50.6665C49.773 51.1345 51.7695 52.6629 53.1674 52.7345C51.4079 54.6882 49.9433 55.3831 48.7737 54.8196C47.0196 53.9738 46.8696 52.633 45.7765 52.1303C44.6828 51.627 43.7492 51.6285 44.2009 52.141C44.6521 52.6541 46.6311 53.1525 47.2566 54.2663C47.882 55.3802 48.4432 56.1309 46.6282 55.856C44.8132 55.5811 41.8632 54.2443 41.7332 52.7129C41.6471 51.6922 41.6038 51.182 41.6038 51.182Z" fill="#1B2251"/>
<path d="M54.0171 48.6487C47.2379 48.3855 43.0998 49.2303 41.6026 51.1821C41.2717 52.1803 40.5966 53.1339 39.5779 54.0434L39.3398 54.6967C40.5143 53.45 41.3121 52.7885 41.7321 52.713C41.075 50.2947 45.1698 48.9403 54.0171 48.6487Z" fill="#1B2251"/>
<path d="M39.5765 54.0435C38.1217 55.1265 37.3434 56.6363 37.2422 58.5719L37.6384 58.6077C38.1032 56.6064 38.7554 55.2142 39.5955 54.4311C40.4356 53.6485 40.4293 53.5191 39.5765 54.0435Z" fill="#6615B2"/>
<path d="M15.0291 26.4375C17.6588 24.9546 18.3602 23.2072 17.1332 21.1946C16.151 19.9587 15.1342 19.182 14.0824 18.8645C14.6431 21.8655 14.6431 23.4012 14.0824 23.4718C13.5212 23.5423 13.3284 21.8478 13.5037 18.3877C10.7332 17.0465 8.80481 16.4285 7.71747 16.5344C9.4361 19.4648 10.0143 20.8947 9.45362 20.8241C8.89242 20.7531 7.64738 19.2354 5.71897 16.2698C2.87844 15.74 1.23039 16.3227 0.774325 18.0172C0.0904753 20.559 1.19534 21.8302 1.82663 21.9889C2.45791 22.1477 6.50795 22.0948 6.40282 22.6245C6.29769 23.1542 3.56229 24.0015 2.03689 23.5247C3.15879 26.314 4.4564 27.6375 5.92924 27.4964C8.13848 27.2847 8.82234 25.9077 10.19 25.8019C11.5572 25.696 12.557 26.0665 11.8731 26.4375C11.1893 26.8079 8.8749 26.559 7.77003 27.5043C6.66565 28.4495 5.77154 29.0322 7.82309 29.4561C9.87415 29.8794 13.5562 29.6148 14.2926 28.0261C14.7838 26.9672 15.0291 26.4375 15.0291 26.4375Z" fill="#242E6C"/>
<path d="M2.71875 18.8115C10.0829 21.2122 14.1855 23.754 15.0271 26.4374C14.992 27.6375 15.3425 28.9263 16.0789 30.3033V31.0976C15.3074 29.2972 14.7117 28.2731 14.2907 28.0261C15.9387 25.696 12.0814 22.6245 2.71875 18.8115Z" fill="#1B2251"/>
<path d="M16.0781 30.3033C17.2141 32.0395 17.458 33.9643 16.8106 36.0778L16.3726 35.9592C16.6558 33.6316 16.5006 31.8822 15.9063 30.7115C15.3125 29.5403 15.3694 29.4046 16.0781 30.3033Z" fill="#6615B2"/>
<path d="M39.109 44.1822C35.5038 42.1496 34.5425 39.7538 36.2247 36.9954C37.571 35.3014 38.9649 34.2365 40.4071 33.8009C39.6376 37.9147 39.6376 40.0199 40.4071 40.1169C41.1761 40.2139 41.4404 37.8907 41.2 33.1477C44.9974 31.3086 47.6413 30.4618 49.1317 30.6069C46.7764 34.6237 45.983 36.5838 46.7521 36.4873C47.5211 36.3902 49.2275 34.3095 51.8714 30.2437C55.7652 29.518 58.0246 30.3168 58.6496 32.6395C59.587 36.1241 58.0728 37.8667 57.2074 38.0843C56.342 38.3018 50.7899 38.2293 50.9345 38.9555C51.0786 39.6813 54.8278 40.8427 56.9188 40.1895C55.3807 44.0127 53.6022 45.8278 51.5833 45.6342C48.5549 45.3436 47.6174 43.4565 45.7426 43.311C43.8677 43.1659 42.4981 43.6741 43.4355 44.1822C44.3724 44.6904 47.5454 44.3488 49.0596 45.645C50.5738 46.9406 51.7994 47.7394 48.9876 48.3201C46.1753 48.9008 41.1279 48.5381 40.1185 46.3599C39.4453 44.908 39.109 44.1822 39.109 44.1822Z" fill="#242E6C"/>
<path d="M55.983 33.7285C45.8878 37.0196 40.2637 40.5042 39.1101 44.1824C39.1583 45.8279 38.6774 47.5945 37.668 49.4821V50.571C38.7256 48.1027 39.5428 46.6992 40.1196 46.3601C37.8602 43.1661 43.148 38.9557 55.983 33.7285Z" fill="#1B2251"/>
<path d="M37.6668 49.482C36.1103 51.8621 35.7754 54.5004 36.6632 57.398L37.2638 57.2353C36.8749 54.0442 37.0876 51.646 37.9024 50.0411C38.7167 48.4363 38.6384 48.2496 37.6668 49.482Z" fill="#6615B2"/>
<path d="M13.3343 58.9607C13.2316 58.9607 13.144 58.8882 13.1265 58.7887L12.1053 52.9637L10.6374 44.5861L10.2266 42.2438L11.2725 42.2134L11.4541 43.5732L12.7278 53.1303L13.4832 58.7951C13.4949 58.8828 13.4253 58.9607 13.3343 58.9607Z" fill="#F9795A"/>
<path d="M11.4541 43.5732C11.0024 43.7741 10.7298 44.1118 10.6374 44.5861L10.2266 42.2438L11.2725 42.2134L11.4541 43.5732Z" fill="#7B36BD"/>
<path d="M42.6254 44.3539H37.5114C37.3697 44.3539 37.2539 44.2373 37.2539 44.0947C37.2539 43.9526 37.3697 43.8359 37.5114 43.8359H42.6254C42.7666 43.8359 42.8824 43.9526 42.8824 44.0947C42.8824 44.2373 42.7666 44.3539 42.6254 44.3539Z" fill="#FF7D78"/>
<path d="M42.6254 45.3678H37.5114C37.3697 45.3678 37.2539 45.2512 37.2539 45.1091C37.2539 44.9665 37.3697 44.8499 37.5114 44.8499H42.6254C42.7666 44.8499 42.8824 44.9665 42.8824 45.1091C42.8824 45.2512 42.7666 45.3678 42.6254 45.3678Z" fill="#FF7D78"/>
<path d="M43.7007 1.59308V57.3397C43.7007 58.2002 43.0125 58.9069 42.1627 58.9284C42.149 58.9289 42.1359 58.9289 42.1223 58.9289H14.4339C13.5661 58.9289 12.8555 58.214 12.8555 57.3397V1.59308C12.8555 0.718864 13.5661 0.00390625 14.4339 0.00390625H42.1223C42.9906 0.00390625 43.7007 0.718864 43.7007 1.59308Z" fill="#319F78"/>
<path d="M45.3296 1.59308V57.3402C45.3296 58.2135 44.619 58.9284 43.7507 58.9284H16.0623C15.194 58.9284 14.4844 58.2135 14.4844 57.3402V1.59308C14.4844 0.718864 15.194 0.00390625 16.0623 0.00390625H43.7507C44.619 0.00390625 45.3296 0.718864 45.3296 1.59308Z" fill="#3AAD84"/>
<path d="M34.428 2.23467H26.4096C26.2383 2.23467 26.0977 2.09305 26.0977 1.92056C26.0977 1.74757 26.2383 1.60645 26.4096 1.60645H34.428C34.5993 1.60645 34.74 1.74757 34.74 1.92056C34.74 2.09305 34.5993 2.23467 34.428 2.23467Z" fill="#52C59C"/>
<path d="M24.9878 2.23467C24.8164 2.23467 24.6758 2.09305 24.6758 1.92056C24.6758 1.74757 24.8164 1.60645 24.9878 1.60645C25.1596 1.60645 25.2998 1.74757 25.2998 1.92056C25.2998 2.09305 25.1596 2.23467 24.9878 2.23467Z" fill="#52C59C"/>
<path d="M32.3021 55.6725C32.3021 56.2287 32.0792 56.7329 31.7185 57.099C31.3539 57.4695 30.8482 57.6988 30.2895 57.6988C29.1783 57.6988 28.2773 56.7918 28.2773 55.6725C28.2773 54.9536 28.6497 54.3225 29.2109 53.9628C29.5224 53.7634 29.8928 53.6472 30.2895 53.6472C31.4007 53.6472 32.3021 54.5538 32.3021 55.6725Z" fill="url(#paint0_linear_1038_156)"/>
<path d="M43.6846 52.6516H16.332V3.63354H43.6846V52.6516Z" fill="#242E6C"/>
<path d="M31.7185 57.0991C31.3539 57.4696 30.8482 57.6989 30.2895 57.6989C29.1783 57.6989 28.2773 56.7918 28.2773 55.6726C28.2773 54.9537 28.6497 54.3226 29.2109 53.9629C29.4085 54.8253 29.9931 56.268 31.7185 57.0991Z" fill="#5FCFA7"/>
<path d="M43.7041 7.60327V26.8866H17.6521C17.3606 26.8866 17.1211 26.6313 17.1211 26.3191V8.17171C17.1211 7.85907 17.3606 7.60327 17.6521 7.60327H43.7041Z" fill="#B1C9F6"/>
<path d="M36.2698 30.7642V48.9112C36.2698 49.2233 36.0537 49.4791 35.7903 49.4791H16.332V30.1958H35.7903C36.0537 30.1958 36.2698 30.4511 36.2698 30.7642Z" fill="#B1C9F6"/>
<path d="M55.6698 6.56844V24.7158C55.6698 25.0275 55.4162 25.2833 55.1052 25.2833H18.6027C18.2931 25.2833 18.0391 25.0275 18.0391 24.7158V6.56844C18.0391 6.25531 18.2931 6 18.6027 6H55.1052C55.4162 6 55.6698 6.25531 55.6698 6.56844Z" fill="#EFECEA"/>
<path d="M55.6708 6.56844V24.7153C55.6708 25.0275 55.3759 25.2833 55.0147 25.2833H36.8555V6H55.0147C55.3759 6 55.6708 6.25531 55.6708 6.56844Z" fill="#FFD4D2"/>
<path d="M47.6201 8.51002H40.7869C40.6745 8.51002 40.582 8.41691 40.582 8.30371C40.582 8.19052 40.6745 8.0979 40.7869 8.0979H47.6201C47.733 8.0979 47.825 8.19052 47.825 8.30371C47.825 8.41691 47.733 8.51002 47.6201 8.51002Z" fill="#FD8857"/>
<path d="M47.6201 9.30323H40.7869C40.6745 9.30323 40.582 9.21061 40.582 9.09742C40.582 8.98422 40.6745 8.8916 40.7869 8.8916H47.6201C47.733 8.8916 47.825 8.98422 47.825 9.09742C47.825 9.21061 47.733 9.30323 47.6201 9.30323Z" fill="#FD8857"/>
<path d="M39.5757 8.55404H39.3479C39.2297 8.55404 39.1328 8.45652 39.1328 8.33793V8.26982C39.1328 8.15074 39.2297 8.05322 39.3479 8.05322H39.5757C39.694 8.05322 39.7909 8.15074 39.7909 8.26982V8.33793C39.7909 8.45652 39.694 8.55404 39.5757 8.55404Z" fill="#FD8857"/>
<path d="M47.6201 11.4314H40.7869C40.6745 11.4314 40.582 11.3388 40.582 11.2256C40.582 11.1124 40.6745 11.0198 40.7869 11.0198H47.6201C47.733 11.0198 47.825 11.1124 47.825 11.2256C47.825 11.3388 47.733 11.4314 47.6201 11.4314Z" fill="#FD8857"/>
<path d="M47.6201 12.2251H40.7869C40.6745 12.2251 40.582 12.1325 40.582 12.0193C40.582 11.9061 40.6745 11.813 40.7869 11.813H47.6201C47.733 11.813 47.825 11.9061 47.825 12.0193C47.825 12.1325 47.733 12.2251 47.6201 12.2251Z" fill="#FD8857"/>
<path d="M39.5757 11.4759H39.3479C39.2297 11.4759 39.1328 11.3784 39.1328 11.2593V11.1917C39.1328 11.0726 39.2297 10.9751 39.3479 10.9751H39.5757C39.694 10.9751 39.7909 11.0726 39.7909 11.1917V11.2593C39.7909 11.3784 39.694 11.4759 39.5757 11.4759Z" fill="#FD8857"/>
<path d="M47.6201 14.3213H40.7869C40.6745 14.3213 40.582 14.2287 40.582 14.115C40.582 14.0018 40.6745 13.9092 40.7869 13.9092H47.6201C47.733 13.9092 47.825 14.0018 47.825 14.115C47.825 14.2287 47.733 14.3213 47.6201 14.3213Z" fill="#FD8857"/>
<path d="M47.6201 15.1145H40.7869C40.6745 15.1145 40.582 15.0219 40.582 14.9087C40.582 14.7955 40.6745 14.7029 40.7869 14.7029H47.6201C47.733 14.7029 47.825 14.7955 47.825 14.9087C47.825 15.0219 47.733 15.1145 47.6201 15.1145Z" fill="#FD8857"/>
<path d="M39.5757 14.3653H39.3479C39.2297 14.3653 39.1328 14.2683 39.1328 14.1492V14.0811C39.1328 13.962 39.2297 13.8645 39.3479 13.8645H39.5757C39.694 13.8645 39.7909 13.962 39.7909 14.0811V14.1492C39.7909 14.2683 39.694 14.3653 39.5757 14.3653Z" fill="#3AAD84"/>
<path d="M37.6463 28.856V47.0034C37.6463 47.3161 37.3927 47.5714 37.0822 47.5714H0.580714C0.269696 47.5714 0.015625 47.3161 0.015625 47.0034V28.856C0.015625 28.5444 0.269696 28.2886 0.580714 28.2886H37.0822C37.3927 28.2886 37.6463 28.5444 37.6463 28.856Z" fill="#3AAD84"/>
<path d="M37.6465 28.856V47.0034C37.6465 47.3161 37.3929 47.5719 37.0829 47.5719H20.8477V28.2886H37.0829C37.3929 28.2886 37.6465 28.5439 37.6465 28.856Z" fill="#EFECEA"/>
<path fill-rule="evenodd" clip-rule="evenodd" d="M6.93481 33.4741C6.93481 34.5997 6.02902 35.5121 4.91101 35.5121C3.793 35.5121 2.88672 34.5997 2.88672 33.4741C2.88672 32.3485 3.793 31.436 4.91101 31.436C6.02902 31.436 6.93481 32.3485 6.93481 33.4741ZM6.37751 33.4741C6.37751 33.4383 6.3488 33.4089 6.31278 33.4089H4.97574V31.9564C4.97574 31.9207 4.94654 31.8918 4.91101 31.8918C4.87548 31.8918 4.84628 31.9207 4.84628 31.9564V33.4741C4.84628 33.5099 4.87548 33.5393 4.91101 33.5393H6.31278C6.3488 33.5393 6.37751 33.5099 6.37751 33.4741Z" fill="#EFECEA"/>
<path fill-rule="evenodd" clip-rule="evenodd" d="M6.53083 41.1582C6.53083 41.8334 5.9234 42.9218 4.70902 44.4233C3.49415 42.9218 2.88672 41.8334 2.88672 41.1582C2.88672 40.1448 3.70247 39.3235 4.70902 39.3235C5.71508 39.3235 6.53083 40.1448 6.53083 41.1582ZM5.5603 41.1396C5.5603 40.6657 5.1792 40.282 4.70902 40.282C4.23836 40.282 3.85725 40.6657 3.85725 41.1396C3.85725 41.6129 4.23836 41.9966 4.70902 41.9966C5.1792 41.9966 5.5603 41.6129 5.5603 41.1396Z" fill="#EFECEA"/>
<path d="M14.9446 40.4526H8.31396C8.14556 40.4526 8.00781 40.3144 8.00781 40.1449C8.00781 39.9758 8.14556 39.8372 8.31396 39.8372H14.9446C15.113 39.8372 15.2508 39.9758 15.2508 40.1449C15.2508 40.3144 15.113 40.4526 14.9446 40.4526Z" fill="#EFEBE9"/>
<path d="M13.2226 41.6316H8.27211C8.12706 41.6316 8.00781 41.5115 8.00781 41.3655V41.2817C8.00781 41.1357 8.12706 41.0156 8.27211 41.0156H13.2226C13.3676 41.0156 13.4864 41.1357 13.4864 41.2817V41.3655C13.4864 41.5115 13.3676 41.6316 13.2226 41.6316Z" fill="#EFEBE9"/>
<path d="M14.9446 33.1929H8.31396C8.14556 33.1929 8.00781 33.0542 8.00781 32.8851C8.00781 32.7156 8.14556 32.5769 8.31396 32.5769H14.9446C15.113 32.5769 15.2508 32.7156 15.2508 32.8851C15.2508 33.0542 15.113 33.1929 14.9446 33.1929Z" fill="#EFEBE9"/>
<path d="M13.2226 34.3713H8.27211C8.12706 34.3713 8.00781 34.2518 8.00781 34.1052V34.0215C8.00781 33.8754 8.12706 33.7554 8.27211 33.7554H13.2221C13.3676 33.7554 13.4864 33.8754 13.4864 34.0215V34.1052C13.4864 34.2518 13.3676 34.3713 13.2226 34.3713Z" fill="#EFEBE9"/>
<path d="M51.6963 13.0611C51.6588 13.0381 51.6062 13.0082 51.5439 12.9739L50.5559 12.1624C50.4722 12.21 50.4722 12.28 50.5559 12.3717C50.5719 12.3893 50.5938 12.4123 50.6196 12.4393L50.2424 12.1423C50.1981 12.1869 50.1903 12.2452 50.2191 12.3158C50.2497 12.3923 50.6036 12.6961 50.8022 12.8632C50.6824 12.8049 50.514 12.6775 50.2619 12.4226C50.1047 12.2639 50.1558 12.503 50.1796 12.6079C50.222 12.7936 50.7131 13.4189 50.8854 13.7006C51.0582 13.9819 51.1443 14.2598 51.0236 14.1382C50.9029 14.0167 50.2473 13.61 50.1782 13.7006C50.1091 13.7908 50.5057 14.1382 50.6956 14.4161C50.8854 14.6939 51.0927 15.1634 51.7654 15.2673C52.2141 15.3369 52.477 15.2575 52.5539 15.0291C52.1893 13.8447 51.9036 13.1886 51.6963 13.0611Z" fill="#FF9792"/>
<path d="M72.4957 29.9881C72.3866 31.0583 72.2718 31.6944 72.152 31.8968C71.9719 32.2001 71.1358 33.0822 70.8797 33.361C70.8622 33.3801 70.6958 33.2321 70.8218 33.0185C71.329 32.1565 71.1878 32.3633 71.0126 31.7968C70.9255 31.5165 70.8715 32.3231 70.7279 32.3417C70.5838 32.3608 70.6349 31.492 70.6296 31.2274C70.6247 30.9628 71.3509 30.8388 71.4366 29.8852C71.4731 29.476 71.8264 29.5103 72.4957 29.9881Z" fill="#FF9792"/>
<path d="M67.495 13.5217C66.6116 17.8883 63.738 20.7849 58.8756 22.2119C57.3575 22.6569 54.8742 20.364 51.4258 15.3328C51.547 14.8688 51.9875 14.6899 52.7472 14.7967C56.1047 17.0347 57.9951 18.2755 58.4176 18.5185C58.9803 18.842 62.6804 14.3586 64.3673 13.6353C65.4917 13.1532 66.5342 13.1154 67.495 13.5217Z" fill="#1B2251"/>
<path d="M76.2022 54.6957C76.8057 55.2505 77.0486 55.7243 76.9308 56.1183C76.7541 56.7088 75.9374 57.1028 75.8274 57.8246C75.7169 58.5464 75.2754 58.9404 74.8783 58.9404C74.6135 58.9404 73.9822 58.9404 72.9839 58.9404C72.7892 58.6018 72.927 58.3813 73.3981 58.2794C74.1044 58.126 74.3706 57.2777 74.3263 56.4902C74.2971 55.9649 74.319 55.3524 74.3925 54.6521L75.8936 54.3022L76.2022 54.6957Z" fill="#1B2251"/>
<path d="M65.1002 56.8465C65.2087 58.1078 65.1304 58.8042 64.8656 58.9355L59.7812 58.9247C59.7812 58.5312 60.0538 58.2901 60.598 58.2029C61.4147 58.0716 62.8491 57.5903 63.092 56.5182C63.254 55.8032 63.9233 55.913 65.1002 56.8465Z" fill="#1B2251"/>
<path d="M60.8086 30.1186C60.9872 32.3296 61.1814 34.7641 61.3917 37.422C61.82 42.8379 62.3355 49.4901 62.3861 50.7505C62.445 52.2093 62.592 54.1057 62.828 56.4392C63.3868 56.9935 64.2254 57.1537 65.3439 56.9205C66.3407 53.5887 66.9812 50.1609 67.266 46.6361C67.2723 46.5494 67.2791 46.4622 67.2859 46.3749C67.5507 42.7869 67.889 37.2148 68.3008 29.6594L60.8086 30.1186Z" fill="#3AAD84"/>
<path d="M60.8086 30.1186C60.9872 32.3296 61.1814 34.7641 61.3917 37.422L67.266 46.6361C67.2723 46.5494 67.2791 46.4622 67.2859 46.3749C67.5507 42.7869 67.889 37.2148 68.3008 29.6594L60.8086 30.1186Z" fill="#319F78"/>
<path d="M62.0312 30.5126C65.2534 38.5203 67.9236 44.4056 70.0423 48.169C72.161 51.932 73.5516 54.339 74.2135 55.3892C75.4274 54.9075 76.0898 54.5032 76.1998 54.1749C75.3899 46.9096 74.2753 42.3915 72.8565 40.6205C71.6538 39.1196 70.2409 34.6147 70.1747 33.0397C70.1309 31.9896 69.9873 30.4249 69.7444 28.3467L62.0312 30.5126Z" fill="#3AAD84"/>
<path d="M68.3903 12.0016C66.2102 13.061 64.4916 13.3938 63.2344 13.0007C63.5439 12.6082 63.9693 12.2652 64.5111 11.9731C64.4458 11.5919 64.3947 11.2611 64.366 10.9808C64.3125 10.5496 64.2862 10.212 64.2862 9.96744L65.5478 8.96826L66.7442 8.01221C66.6814 9.80426 67.2299 11.1342 68.3903 12.0016Z" fill="#FF9792"/>
<path d="M70.1183 28.9617C70.1256 29.1636 69.6977 29.3929 69.5089 29.4791C68.1096 30.0976 66.8042 30.5288 65.325 30.6724C63.5777 30.8522 61.511 30.4568 60.7999 30.4715C60.7279 30.4715 60.6627 30.4426 60.6043 30.3921C60.5536 30.3563 60.5176 28.2359 60.5536 25.5687C60.5536 25.4614 60.5536 25.3536 60.5609 25.2457V25.2095C60.5755 24.1672 60.6116 23.0744 60.6627 21.9816C60.7639 19.581 60.9528 17.2661 61.2716 15.9866C61.6556 14.4768 62.5263 13.4781 63.3168 12.7514L63.969 12.1766C64.6217 12.3059 65.3104 12.2702 65.9996 11.9325C66.7535 11.566 67.5659 11.1705 67.6963 11.271C68.6824 11.9967 69.3492 13.6285 69.705 15.7136C69.7065 15.7239 69.7085 15.7337 69.7104 15.7445C69.9095 16.9367 70.0092 18.2701 70.0019 19.6667C70.0019 20.1847 69.9878 20.7164 69.9586 21.2412C69.8131 23.6183 69.9104 25.7348 70.0058 27.2015C70.0243 27.4911 70.0438 27.7552 70.0604 27.9914C70.0891 28.4084 70.111 28.7318 70.1183 28.9617Z" fill="#242E6C"/>
<path d="M70.0018 27.2014C66.3879 23.0003 65.7016 19.3731 67.944 16.3202L69.7064 15.7444C69.9055 16.9366 70.0053 18.27 69.998 19.6666C69.998 20.1846 69.9838 20.7163 69.9546 21.2411C69.8091 23.6182 69.9064 25.7347 70.0018 27.2014Z" fill="#1B2251"/>
<path d="M66.7689 9.0403C66.218 10.0512 65.4178 10.6981 64.3689 10.9808C64.3153 10.5496 64.2891 10.212 64.2891 9.96744L65.5507 8.96826L66.7689 9.0403Z" fill="#FF9490"/>
<path d="M63.7144 9.92333C65.7942 10.2659 66.9316 9.79347 67.1268 8.50664C67.4198 6.57542 68.0195 5.34152 66.04 4.93185C64.0604 4.52218 63.5611 5.20088 63.305 5.82175C63.049 6.44262 62.9103 9.74006 63.7144 9.92333Z" fill="#FF9792"/>
<path d="M68.2574 4.70054C68.2857 4.66771 68.3509 4.64125 68.4964 4.63341C68.419 4.58489 68.3285 4.55892 68.2248 4.55647C68.1942 4.35311 68.0866 3.99244 67.7391 3.90522C67.8637 3.97186 67.9338 4.07771 67.9503 4.22178C67.5473 3.80525 66.6838 3.50192 64.293 3.69205C61.142 3.94246 62.1802 5.97365 62.5885 6.21573C62.9964 6.4578 64.0229 5.79381 64.7832 5.85457C65.5434 5.91534 65.6875 7.02085 65.9455 7.17276C66.2034 7.32467 66.1022 7.05613 66.4507 6.89736C66.7997 6.73859 66.8328 7.32075 66.732 7.69906C66.6649 7.95142 66.7914 8.24397 67.1107 8.57671C67.1107 8.57671 67.2723 8.40176 67.595 8.05139C68.0793 7.52608 68.5358 5.30181 68.3158 4.82746C68.2964 4.78532 68.2769 4.74318 68.2574 4.70054Z" fill="#1B2251"/>
<path d="M67.6932 11.2546C69.0093 11.8824 69.9828 12.6782 70.6136 13.6426C72.0816 15.8869 73.7832 24.0656 73.8148 24.8227C73.8357 25.3279 73.4215 27.3625 72.5727 30.927C71.7116 30.8702 71.1699 30.6227 70.948 30.1851C71.1198 26.5226 71.1514 24.5737 71.0424 24.338C70.8789 23.9847 65.6582 16.9689 66.2452 15.4714C66.6366 14.4737 67.1194 13.0678 67.6932 11.2546Z" fill="#242E6C"/>
<path d="M72.148 31.897L71.2135 33.4705C71.139 33.4391 71.1079 33.3857 71.1196 33.3107C71.1313 33.2358 71.2271 32.9143 71.4072 32.3458L72.148 31.897Z" fill="#FF9792"/>
<path d="M71.2154 31.9424C70.7662 32.4579 70.5915 32.774 70.6913 32.8906L71.1775 32.5118L71.2154 31.9424Z" fill="#FF9792"/>
<path d="M32.4502 15.6452C32.4502 15.7069 32.3855 15.7569 32.3052 15.7569C32.2254 15.7569 32.1602 15.7069 32.1602 15.6452C32.1602 15.5834 32.2254 15.5334 32.3052 15.5334C32.3855 15.5334 32.4502 15.5834 32.4502 15.6452Z" fill="white"/>
<path d="M32.6065 16.0509C32.6065 16.0955 32.573 16.1337 32.5243 16.1519L32.3281 16.0073C32.35 15.9676 32.4016 15.9397 32.462 15.9397C32.5418 15.9397 32.6065 15.9897 32.6065 16.0509Z" fill="white"/>
<path d="M33.126 16.0764C33.126 16.1072 33.0934 16.1322 33.0535 16.1322C33.0131 16.1322 32.9805 16.1072 32.9805 16.0764C32.9805 16.0455 33.0131 16.0205 33.0535 16.0205C33.0934 16.0205 33.126 16.0455 33.126 16.0764Z" fill="white"/>
<path d="M33.5127 15.757C33.5127 15.7879 33.4801 15.8129 33.4402 15.8129C33.3998 15.8129 33.3672 15.7879 33.3672 15.757C33.3672 15.7262 33.3998 15.7012 33.4402 15.7012C33.4801 15.7012 33.5127 15.7262 33.5127 15.757Z" fill="white"/>
<path d="M32.7779 15.6731C32.7779 15.7039 32.7452 15.7289 32.7053 15.7289C32.6654 15.7289 32.6328 15.7039 32.6328 15.6731C32.6328 15.6422 32.6654 15.6172 32.7053 15.6172C32.7452 15.6172 32.7779 15.6422 32.7779 15.6731Z" fill="white"/>
<path d="M33.1491 15.5745C33.1491 15.6255 33.0961 15.6667 33.0299 15.6667C32.9637 15.6667 32.9102 15.6255 32.9102 15.5745C32.9102 15.5236 32.9637 15.4824 33.0299 15.4824C33.0961 15.4824 33.1491 15.5236 33.1491 15.5745Z" fill="white"/>
<path d="M33.0288 15.8738C33.0288 15.9081 32.9923 15.936 32.948 15.936C32.9032 15.936 32.8672 15.9081 32.8672 15.8738C32.8672 15.8395 32.9032 15.8115 32.948 15.8115C32.9923 15.8115 33.0288 15.8395 33.0288 15.8738Z" fill="white"/>
<path d="M31.966 15.5333C31.966 15.5559 31.9421 15.5745 31.9124 15.5745C31.8832 15.5745 31.8594 15.5559 31.8594 15.5333C31.8594 15.5108 31.8832 15.4922 31.9124 15.4922C31.9421 15.4922 31.966 15.5108 31.966 15.5333Z" fill="white"/>
<path d="M32.5849 15.6804C32.5157 15.6809 32.4534 15.7309 32.3984 15.8304C32.4895 15.8549 32.5518 15.8049 32.5849 15.6804Z" fill="#6615B2"/>
<path d="M33.788 15.8218C33.7349 15.7311 33.6716 15.6875 33.5977 15.6914C33.659 15.8291 33.7227 15.8722 33.788 15.8218Z" fill="#6615B2"/>
<path d="M32.8368 16.0506C32.7828 15.9634 32.7185 15.9242 32.6445 15.9325C32.7083 16.0663 32.7725 16.1055 32.8368 16.0506Z" fill="#6615B2"/>
<path d="M33.4676 16.1828C33.399 16.1656 33.3338 16.1995 33.2734 16.2842C33.362 16.3313 33.4267 16.2975 33.4676 16.1828Z" fill="#6615B2"/>
<path d="M31.8671 15.4081C31.8072 15.3811 31.7484 15.4002 31.6914 15.4649C31.7678 15.5213 31.8267 15.5027 31.8671 15.4081Z" fill="#6615B2"/>
<path d="M27.4696 45.7245H22.8749C22.7717 45.7245 22.6875 45.6397 22.6875 45.5358C22.6875 45.4319 22.7717 45.3472 22.8749 45.3472H27.4696C27.5728 45.3472 27.6575 45.4319 27.6575 45.5358C27.6575 45.6397 27.5728 45.7245 27.4696 45.7245Z" fill="#FF7D78"/>
<path d="M27.4696 44.84H22.8749C22.7717 44.84 22.6875 44.7552 22.6875 44.6513C22.6875 44.5474 22.7717 44.4622 22.8749 44.4622H27.4696C27.5728 44.4622 27.6575 44.5474 27.6575 44.6513C27.6575 44.7552 27.5728 44.84 27.4696 44.84Z" fill="#FF7D78"/>
<path d="M24.93 14.897H19.5955C19.4826 14.897 19.3906 14.8039 19.3906 14.6907C19.3906 14.577 19.4826 14.4844 19.5955 14.4844H24.93C25.043 14.4844 25.135 14.577 25.135 14.6907C25.135 14.8039 25.043 14.897 24.93 14.897Z" fill="#242E6C"/>
<path d="M24.93 15.7398H19.5955C19.4826 15.7398 19.3906 15.6471 19.3906 15.5335C19.3906 15.4203 19.4826 15.3271 19.5955 15.3271H24.93C25.043 15.3271 25.135 15.4203 25.135 15.5335C25.135 15.6471 25.043 15.7398 24.93 15.7398Z" fill="#242E6C"/>
<path d="M24.93 16.5828H19.5955C19.4826 16.5828 19.3906 16.4902 19.3906 16.3765C19.3906 16.2633 19.4826 16.1702 19.5955 16.1702H24.93C25.043 16.1702 25.135 16.2633 25.135 16.3765C25.135 16.4902 25.043 16.5828 24.93 16.5828Z" fill="#242E6C"/>
<path d="M34.0516 8.88087H28.7166C28.6042 8.88087 28.5117 8.78776 28.5117 8.67457C28.5117 8.56088 28.6042 8.46826 28.7166 8.46826H34.0516C34.1645 8.46826 34.2565 8.56088 34.2565 8.67457C34.2565 8.78776 34.1645 8.88087 34.0516 8.88087Z" fill="#242E6C"/>
<path d="M34.0516 9.72364H28.7166C28.6042 9.72364 28.5117 9.63054 28.5117 9.51734C28.5117 9.40365 28.6042 9.31104 28.7166 9.31104H34.0516C34.1645 9.31104 34.2565 9.40365 34.2565 9.51734C34.2565 9.63054 34.1645 9.72364 34.0516 9.72364Z" fill="#242E6C"/>
<path d="M34.0516 10.5667H28.7166C28.6042 10.5667 28.5117 10.4736 28.5117 10.3604C28.5117 10.2467 28.6042 10.1541 28.7166 10.1541H34.0516C34.1645 10.1541 34.2565 10.2467 34.2565 10.3604C34.2565 10.4736 34.1645 10.5667 34.0516 10.5667Z" fill="#242E6C"/>
<path d="M34.0516 20.8421H28.7166C28.6042 20.8421 28.5117 20.7489 28.5117 20.6357C28.5117 20.5221 28.6042 20.4294 28.7166 20.4294H34.0516C34.1645 20.4294 34.2565 20.5221 34.2565 20.6357C34.2565 20.7489 34.1645 20.8421 34.0516 20.8421Z" fill="#242E6C"/>
<path d="M34.0516 21.6848H28.7166C28.6042 21.6848 28.5117 21.5917 28.5117 21.4785C28.5117 21.3648 28.6042 21.2722 28.7166 21.2722H34.0516C34.1645 21.2722 34.2565 21.3648 34.2565 21.4785C34.2565 21.5917 34.1645 21.6848 34.0516 21.6848Z" fill="#242E6C"/>
<path d="M34.0516 22.5278H28.7166C28.6042 22.5278 28.5117 22.4347 28.5117 22.3215C28.5117 22.2079 28.6042 22.1152 28.7166 22.1152H34.0516C34.1645 22.1152 34.2565 22.2079 34.2565 22.3215C34.2565 22.4347 34.1645 22.5278 34.0516 22.5278Z" fill="#242E6C"/>
<path d="M48.6409 21.4785H43.5322C42.6916 21.4785 42.0039 20.7861 42.0039 19.9398C42.0039 19.0935 42.6916 18.4016 43.5322 18.4016H48.6409C49.481 18.4016 50.1687 19.0935 50.1687 19.9398C50.1687 20.7861 49.481 21.4785 48.6409 21.4785Z" fill="#3AAD84"/>
<path d="M45.1094 19.4974C45.7557 20.4083 46.0784 20.8469 46.0765 20.8126C46.0745 20.7788 46.4031 20.1315 47.0626 18.8716L45.9207 19.9859L45.1094 19.4974Z" fill="#EFECEA"/>
<defs>
<linearGradient id="paint0_linear_1038_156" x1="28.2773" y1="53.5493" x2="32.3019" y2="53.5493" gradientUnits="userSpaceOnUse">
<stop stop-color="#F9795A"/>
<stop offset="1" stop-color="#FFEFE9"/>
</linearGradient>
</defs>
</svg>
