<svg width="75" height="55" viewBox="0 0 75 55" fill="none" xmlns="http://www.w3.org/2000/svg">
<path d="M6.25177 54.9556C0.36085 48.0022 -0.136934 40.7601 4.75841 33.2326C11.2736 23.2166 18.8697 23.8993 24.4443 27.9671C26.8177 29.6985 35.6843 28.2774 43.4371 19.7787C51.6932 10.7277 73.7745 15.171 69.9435 33.9028C67.8094 44.3315 77.3388 44.6294 72.3334 54.9773L6.25177 54.9556Z" fill="#FCECDB"/>
<path d="M72 5.97754L61.1751 10.1707L63.3494 12.2929L53.9813 23.7754L45.7724 15.5206L13 46.9718L13.2879 46.9775H21.453L45.6918 23.7155L54.3473 32.4187L67.4758 16.3204L69.8209 18.6112L72 5.97754Z" fill="#1372E6"/>
<path d="M20.7697 44.6247L16.9654 44.2954C17.111 42.7277 16.9617 40.8981 16.5137 38.8066C16.0209 36.4907 15.0428 33.7444 13.1313 31.2002C10.9585 28.308 6.64651 26.0556 0.195312 24.4393V23.8781L0.542513 23.8407C0.445446 23.7696 0.329712 23.7135 0.195312 23.6723V22.3478C0.482779 22.3441 0.889714 22.359 1.29665 22.4563C1.06891 22.3964 0.587312 22.2879 0.195312 22.258V21.5583C14.214 21.9362 18.7873 30.4257 20.2209 36.9995C20.8294 39.8019 21.0124 42.3424 20.7697 44.6247Z" fill="#82B378"/>
<path d="M37.4166 43.3901L20.7697 44.6248C20.6838 42.0506 20.0118 39.3942 19.366 37.3775C18.9329 36.0306 18.511 34.9006 18.0929 33.9877C14.7702 26.6918 8.80811 22.5462 0.195312 21.5585L14.5313 15.6731C21.4566 16.1932 26.3137 19.5306 29.711 23.7173C34.15 29.1836 36.7185 35.7425 37.4166 43.3901Z" fill="#A8D29F"/>
<path opacity="0.502" d="M37.4147 43.3901L20.7677 44.6248L16.9635 44.2955C17.1091 42.7278 16.9597 40.8982 16.5117 38.8067C17.3069 38.3278 18.2477 37.8489 19.364 37.3775C19.6552 37.2503 19.9427 37.1268 20.2189 36.9996C30.8179 32.0908 29.8323 24.4469 29.7091 23.7173C34.148 29.1836 36.7165 35.7425 37.4147 43.3901Z" fill="#82B378"/>
<path fill-rule="evenodd" clip-rule="evenodd" d="M36.1093 44.6735L21.2693 44.3891L21.3215 44.101C21.329 44.0561 22.0906 39.6936 20.3135 34.7361C19.2719 31.8289 17.5733 29.2847 15.2623 27.1782C12.3727 24.5367 8.50501 22.5725 3.77488 21.3378L3.04688 21.147L14.6277 16.5262L14.6725 16.5225C14.7957 16.5187 17.7786 16.4738 21.6127 18.2922C23.8602 19.3585 25.9285 20.8476 27.7615 22.7221C30.0501 25.0568 31.9727 27.9939 33.481 31.4548C33.6005 31.7204 36.4191 38.066 36.2698 41.8786V41.8823L36.1093 44.6735ZM21.8517 43.9027L35.6426 44.1721L35.777 41.8561C35.8367 40.3333 35.3813 38.0884 34.4629 35.3684C33.761 33.2993 33.0367 31.6718 33.0293 31.6568C31.5471 28.2558 29.6618 25.3711 27.4255 23.0813C25.6335 21.2517 23.6175 19.7963 21.4261 18.7524C19.0517 17.6225 16.9759 17.2259 15.7775 17.0912C15.1466 17.0201 14.5119 17.1024 13.9221 17.3381L5.89541 20.5408C5.47728 20.7092 5.49594 21.3078 5.92527 21.4463C9.83034 22.7072 13.0783 24.5106 15.6058 26.8228C17.9765 28.9891 19.7199 31.6007 20.7839 34.5902C21.7359 37.2429 21.9637 39.7085 21.9861 41.3099C22.0047 42.5521 21.9114 43.465 21.8517 43.9027Z" fill="#82B378"/>
<path d="M28.1252 27.5785C28.1252 30.0292 26.6953 31.5108 24.25 31.5108C21.8046 31.5108 19.2734 30.0292 19.2734 27.5785C19.2734 25.1278 20.6286 23.6611 23.0702 23.6611C25.5156 23.6611 28.1252 25.1278 28.1252 27.5785Z" fill="#82B378"/>
<path d="M50.3508 52.6128V54.0757C50.3508 54.1917 50.3172 54.3002 50.2537 54.39C50.1903 54.4873 50.0969 54.5621 49.9887 54.6033C49.9588 54.6145 49.9215 54.6257 49.8879 54.6332C49.8543 54.637 49.8207 54.6407 49.7871 54.6407H26.5247C26.2223 54.6407 25.9759 54.4013 25.9609 54.1057C25.9609 54.0945 25.9609 54.087 25.9609 54.0757V52.6128C25.9609 52.6016 25.9609 52.5941 25.9609 52.5829C25.9759 52.2873 26.2223 52.0479 26.5247 52.0479H49.7871C49.8207 52.0479 49.8543 52.0516 49.8879 52.0553C49.9215 52.0628 49.9588 52.074 49.9887 52.0853C50.0969 52.1264 50.1903 52.2013 50.2537 52.2985C50.3172 52.3883 50.3508 52.4968 50.3508 52.6128Z" fill="#FFB93E"/>
<path d="M38.9268 54.6407H26.4612C26.1961 54.6407 25.9759 54.4013 25.9609 54.1057C25.9609 54.0945 25.9609 54.087 25.9609 54.0757V52.6128C25.9609 52.6016 25.9609 52.5941 25.9609 52.5829C25.9759 52.2873 26.1961 52.0479 26.4612 52.0479H37.3961C37.5716 52.8111 37.9785 53.8662 38.9268 54.6407Z" fill="#FFA412"/>
<path d="M47.5229 54.6407H47.2578V52.0479H47.5229V54.6407Z" fill="#FFA412"/>
<path d="M46.6244 54.6407H46.3594V52.0479H46.6244V54.6407Z" fill="#FFA412"/>
<path d="M45.5541 54.6407H45.2891V52.0479H45.5541V54.6407Z" fill="#FFA412"/>
<path d="M43.9096 54.6407H43.6445V52.0479H43.9096V54.6407Z" fill="#FFA412"/>
<path d="M42.1674 54.6407H41.9023V52.0479H42.1674V54.6407Z" fill="#FFA412"/>
<path d="M39.4996 54.6407H39.2383V52.0479H39.4996V54.6407Z" fill="#FFA412"/>
<path d="M37.0073 54.6407H36.7422V52.0479H37.0073V54.6407Z" fill="#FFA412"/>
<path d="M34.7729 54.6407H34.5078V52.0479H34.7729V54.6407Z" fill="#FFA412"/>
<path d="M48.3744 54.6407H48.1094V52.0479H48.3744V54.6407Z" fill="#FFA412"/>
<path d="M48.937 54.6407H48.6719V52.0479H48.937V54.6407Z" fill="#FFA412"/>
<path d="M49.4799 54.6407H49.2148V52.0479H49.4799V54.6407Z" fill="#FFA412"/>
<path d="M49.8901 52.0553V54.6332C49.8565 54.637 49.8229 54.6407 49.7893 54.6407H49.625V52.0479H49.7893C49.8229 52.0479 49.8565 52.0516 49.8901 52.0553Z" fill="#FFA412"/>
<path d="M50.2573 52.2985V54.39C50.1938 54.4872 50.1005 54.5621 49.9922 54.6032V52.0852C50.1005 52.1264 50.1938 52.2012 50.2573 52.2985Z" fill="#FFA412"/>
<path d="M47.8625 50.02V51.483C47.8625 51.599 47.8252 51.7075 47.7655 51.7973C47.702 51.8945 47.6087 51.9694 47.5004 52.0105C47.4668 52.0217 47.4332 52.033 47.3996 52.0367C47.366 52.0442 47.3324 52.0479 47.2988 52.0479H24.0327C23.734 52.0479 23.4876 51.8085 23.4727 51.5129C23.4727 51.5017 23.4727 51.4942 23.4727 51.483V50.02C23.4727 50.0088 23.4727 49.9976 23.4727 49.9901C23.4876 49.6908 23.734 49.4551 24.0327 49.4551H47.2988C47.3137 49.4551 47.3287 49.4551 47.3436 49.4551C47.3511 49.4551 47.3548 49.4551 47.3623 49.4588C47.3697 49.4588 47.3772 49.4588 47.3847 49.4588C47.3884 49.4626 47.3921 49.4626 47.3996 49.4626C47.4332 49.47 47.4668 49.4775 47.5004 49.4925C47.5041 49.4925 47.5116 49.4962 47.5153 49.4962C47.5191 49.5 47.5265 49.5037 47.5303 49.5037C47.5377 49.5075 47.5489 49.5149 47.5564 49.5187C47.5639 49.5224 47.5676 49.5224 47.5751 49.5262C47.5788 49.5299 47.5825 49.5336 47.59 49.5336C47.5975 49.5411 47.6049 49.5449 47.6161 49.5524C47.6236 49.5598 47.6348 49.5673 47.6423 49.5748C47.6497 49.5785 47.6572 49.586 47.6647 49.5898C47.6647 49.5935 47.6684 49.5935 47.6684 49.5935C47.6721 49.5973 47.6759 49.601 47.6796 49.6047C47.6945 49.6197 47.7095 49.6347 47.7207 49.6459C47.7244 49.6534 47.7281 49.6571 47.7319 49.6609C47.7356 49.6646 47.7393 49.6683 47.7431 49.6758C47.7505 49.6833 47.758 49.6945 47.7655 49.702C47.8252 49.7918 47.8625 49.9003 47.8625 50.02Z" fill="#FFB93E"/>
<path d="M36.4385 52.0479H23.9729C23.7041 52.0479 23.4839 51.8085 23.4727 51.5129C23.4727 51.5017 23.4727 51.4942 23.4727 51.483V50.02C23.4727 50.0088 23.4727 49.9976 23.4727 49.9901C23.4839 49.6908 23.7041 49.4551 23.9729 49.4551H34.9079C34.9116 49.4738 34.9153 49.4962 34.9228 49.5187C35.1057 50.2745 35.5127 51.2959 36.4385 52.0479Z" fill="#FFA412"/>
<path d="M45.0309 52.0479H44.7695V49.4551H45.0309V52.0479Z" fill="#FFA412"/>
<path d="M44.1362 52.0479H43.8711V49.4551H44.1362V52.0479Z" fill="#FFA412"/>
<path d="M43.0619 52.0479H42.7969V49.4551H43.0619V52.0479Z" fill="#FFA412"/>
<path d="M41.4213 52.0479H41.1562V49.4551H41.4213V52.0479Z" fill="#FFA412"/>
<path d="M39.6791 52.0479H39.4141V49.4551H39.6791V52.0479Z" fill="#FFA412"/>
<path d="M37.0112 52.0479H36.7461V49.4551H37.0112V52.0479Z" fill="#FFA412"/>
<path d="M34.5151 52.0479H34.25V49.4551H34.5151V52.0479Z" fill="#FFA412"/>
<path d="M32.2846 52.0479H32.0195V49.4551H32.2846V52.0479Z" fill="#FFA412"/>
<path d="M45.8862 52.0479H45.6211V49.4551H45.8862V52.0479Z" fill="#FFA412"/>
<path d="M46.4449 52.0479H46.1836V49.4551H46.4449V52.0479Z" fill="#FFA412"/>
<path d="M46.9916 52.0479H46.7266V49.4551H46.9916V52.0479Z" fill="#FFA412"/>
<path d="M47.4018 49.4626V52.0367C47.3682 52.0442 47.3346 52.0479 47.301 52.0479H47.1367V49.4551H47.301C47.3346 49.4551 47.3682 49.4588 47.4018 49.4626Z" fill="#FFA412"/>
<path d="M47.769 49.702V51.7972C47.7055 51.8945 47.6122 51.9693 47.5039 52.0105V49.4924C47.6122 49.5336 47.7055 49.6084 47.769 49.702Z" fill="#FFA412"/>
<path d="M49.0656 47.487V48.9537C49.0656 49.0696 49.0283 49.1782 48.9686 49.268C48.9051 49.3652 48.8118 49.4363 48.7035 49.4812C48.6699 49.4924 48.6363 49.5037 48.6027 49.5074C48.5691 49.5149 48.5355 49.5186 48.5019 49.5186H25.2358C25.1424 49.5186 25.0566 49.4962 24.9782 49.455C24.8139 49.369 24.6944 49.2006 24.6758 49.006C24.6758 48.9986 24.6758 48.9911 24.6758 48.9836C24.6758 48.9724 24.6758 48.9649 24.6758 48.9537V47.487C24.6758 47.4795 24.6758 47.4683 24.6758 47.4608C24.6907 47.1615 24.9371 46.9258 25.2358 46.9258H48.5019C48.5355 46.9258 48.5691 46.9258 48.6027 46.9333C48.6363 46.9407 48.6699 46.9482 48.7035 46.9632C48.8118 47.0044 48.9051 47.0792 48.9686 47.1727C49.0283 47.2625 49.0656 47.371 49.0656 47.487Z" fill="#FFB93E"/>
<path d="M37.6417 49.5186H25.176C25.0939 49.5186 25.0155 49.4962 24.9446 49.455C24.799 49.369 24.6944 49.2006 24.6758 49.006C24.6758 48.9986 24.6758 48.9911 24.6758 48.9836C24.6758 48.9724 24.6758 48.9649 24.6758 48.9537V47.487C24.6758 47.4795 24.6758 47.4683 24.6758 47.4608C24.687 47.1615 24.911 46.9258 25.176 46.9258H36.111C36.279 47.6666 36.671 48.688 37.5632 49.455C37.5894 49.4737 37.6155 49.4962 37.6417 49.5186Z" fill="#FFA412"/>
<path d="M46.234 49.5186H45.9727V46.9258H46.234V49.5186Z" fill="#FFA412"/>
<path d="M45.3393 49.5186H45.0742V46.9258H45.3393V49.5186Z" fill="#FFA412"/>
<path d="M44.2651 49.5186H44V46.9258H44.2651V49.5186Z" fill="#FFA412"/>
<path d="M42.6244 49.5186H42.3594V46.9258H42.6244V49.5186Z" fill="#FFA412"/>
<path d="M40.8822 49.5186H40.6172V46.9258H40.8822V49.5186Z" fill="#FFA412"/>
<path d="M38.2143 49.5186H37.9492V46.9258H38.2143V49.5186Z" fill="#FFA412"/>
<path d="M35.7182 49.5186H35.4531V46.9258H35.7182V49.5186Z" fill="#FFA412"/>
<path d="M33.4877 49.5186H33.2227V46.9258H33.4877V49.5186Z" fill="#FFA412"/>
<path d="M47.0893 49.5186H46.8242V46.9258H47.0893V49.5186Z" fill="#FFA412"/>
<path d="M47.648 49.5186H47.3867V46.9258H47.648V49.5186Z" fill="#FFA412"/>
<path d="M48.1947 49.5186H47.9297V46.9258H48.1947V49.5186Z" fill="#FFA412"/>
<path d="M48.6049 46.9333V49.5074C48.5713 49.5149 48.5377 49.5186 48.5041 49.5186H48.3398V46.9258H48.5041C48.5377 46.9258 48.5713 46.9258 48.6049 46.9333Z" fill="#FFA412"/>
<path d="M48.9721 47.1727V49.2679C48.9086 49.3614 48.8153 49.4362 48.707 49.4811V46.9631C48.8153 47.0043 48.9086 47.0791 48.9721 47.1727Z" fill="#FFA412"/>
<path d="M49.6203 44.8941V46.3607C49.6203 46.4767 49.583 46.5852 49.5233 46.675C49.4598 46.7686 49.3665 46.8434 49.2582 46.8845C49.2283 46.8995 49.191 46.9107 49.1574 46.9145C49.1238 46.922 49.0902 46.9257 49.0566 46.9257H25.7942C25.4918 46.9257 25.2454 46.6862 25.2305 46.3869C25.2305 46.3794 25.2305 46.3682 25.2305 46.3607V44.8941C25.2305 44.8866 25.2305 44.8754 25.2305 44.8641C25.2454 44.591 25.4582 44.3665 25.727 44.3328C25.7494 44.3328 25.7718 44.3291 25.7942 44.3291H49.0566C49.0902 44.3291 49.1238 44.3328 49.1574 44.3403C49.191 44.3441 49.2283 44.3553 49.2582 44.3703C49.3665 44.4114 49.4598 44.4862 49.5233 44.5798C49.583 44.6696 49.6203 44.7781 49.6203 44.8941Z" fill="#FFB93E"/>
<path d="M38.1963 46.9257H25.7307C25.4657 46.9257 25.2454 46.6862 25.2305 46.3869C25.2305 46.3794 25.2305 46.3682 25.2305 46.3607V44.8941C25.2305 44.8866 25.2305 44.8754 25.2305 44.8641C25.2417 44.591 25.4321 44.3665 25.6747 44.3328C25.6934 44.3328 25.7121 44.3291 25.7307 44.3291H36.6657C36.6657 44.3328 36.6657 44.3328 36.6657 44.3328C36.8411 45.0961 37.2481 46.1512 38.1963 46.9257Z" fill="#FFA412"/>
<path d="M46.7924 46.9257H46.5273V44.3291H46.7924V46.9257Z" fill="#FFA412"/>
<path d="M45.894 46.9257H45.6289V44.3291H45.894V46.9257Z" fill="#FFA412"/>
<path d="M44.8199 46.9257H44.5586V44.3291H44.8199V46.9257Z" fill="#FFA412"/>
<path d="M43.1791 46.9257H42.9141V44.3291H43.1791V46.9257Z" fill="#FFA412"/>
<path d="M41.4369 46.9257H41.1719V44.3291H41.4369V46.9257Z" fill="#FFA412"/>
<path d="M38.7692 46.9257H38.5078V44.3291H38.7692V46.9257Z" fill="#FFA412"/>
<path d="M36.2768 46.9257H36.0117V44.3291H36.2768V46.9257Z" fill="#FFA412"/>
<path d="M34.0424 46.9257H33.7773V44.3291H34.0424V46.9257Z" fill="#FFA412"/>
<path d="M47.644 46.9257H47.3789V44.3291H47.644V46.9257Z" fill="#FFA412"/>
<path d="M48.2065 46.9257H47.9414V44.3291H48.2065V46.9257Z" fill="#FFA412"/>
<path d="M48.7494 46.9257H48.4844V44.3291H48.7494V46.9257Z" fill="#FFA412"/>
<path d="M49.1596 44.3403V46.9145C49.126 46.922 49.0924 46.9257 49.0588 46.9257H48.8945V44.3291H49.0588C49.0924 44.3291 49.126 44.3328 49.1596 44.3403Z" fill="#FFA412"/>
<path d="M49.5268 44.5799V46.6751C49.4633 46.7687 49.37 46.8435 49.2617 46.8846V44.3704C49.37 44.4115 49.4633 44.4863 49.5268 44.5799Z" fill="#FFA412"/>
<path d="M47.9133 42.305V43.7716C47.9133 43.8876 47.876 43.9961 47.8162 44.0859C47.7528 44.1794 47.6594 44.2543 47.5512 44.2954C47.5176 44.3104 47.484 44.3179 47.4504 44.3254C47.4392 44.3291 47.428 44.3291 47.4168 44.3291C47.4093 44.3328 47.4056 44.3328 47.3981 44.3328C47.3906 44.3328 47.3869 44.3328 47.3794 44.3328C47.3682 44.3328 47.3608 44.3328 47.3496 44.3328H24.0834C23.7848 44.3328 23.5384 44.0971 23.5234 43.7978C23.5234 43.7903 23.5234 43.7791 23.5234 43.7716V42.305C23.5234 42.2975 23.5234 42.2862 23.5234 42.275C23.5234 42.2675 23.5234 42.2601 23.5234 42.2526C23.5458 42.0131 23.7213 41.8148 23.9453 41.7587C23.9528 41.7587 23.9565 41.755 23.964 41.755C24.0013 41.7437 24.0424 41.74 24.0834 41.74H47.3496C47.3682 41.74 47.3832 41.74 47.4018 41.7437C47.4093 41.7437 47.4168 41.7437 47.4242 41.7437C47.4317 41.7475 47.4392 41.7475 47.4504 41.7512C47.484 41.755 47.5176 41.7662 47.5512 41.7774C47.6594 41.8223 47.7528 41.8971 47.8162 41.9907C47.876 42.0805 47.9133 42.189 47.9133 42.305Z" fill="#FFB93E"/>
<path d="M36.4893 44.3328H24.0237C23.7586 44.3328 23.5384 44.0971 23.5234 43.7978C23.5234 43.7903 23.5234 43.7791 23.5234 43.7716V42.305C23.5234 42.2975 23.5234 42.2862 23.5234 42.275C23.5234 42.2675 23.5234 42.2601 23.5234 42.2526C23.5458 42.0094 23.7064 41.8073 23.9154 41.755C23.9229 41.7512 23.9304 41.7512 23.9341 41.7512C23.964 41.7437 23.9938 41.74 24.0237 41.74H34.9586C34.9586 41.7475 34.9624 41.755 34.9624 41.7587C35.1378 42.522 35.5448 43.5621 36.4818 44.3291C36.4856 44.3328 36.4856 44.3328 36.4893 44.3328Z" fill="#FFA412"/>
<path d="M45.0854 44.3328H44.8203V41.74H45.0854V44.3328Z" fill="#FFA412"/>
<path d="M44.187 44.3328H43.9219V41.74H44.187V44.3328Z" fill="#FFA412"/>
<path d="M43.1127 44.3328H42.8477V41.74H43.1127V44.3328Z" fill="#FFA412"/>
<path d="M41.4721 44.3328H41.207V41.74H41.4721V44.3328Z" fill="#FFA412"/>
<path d="M39.7299 44.3328H39.4648V41.74H39.7299V44.3328Z" fill="#FFA412"/>
<path d="M37.0619 44.3328H36.7969V41.74H37.0619V44.3328Z" fill="#FFA412"/>
<path d="M34.566 44.3328H34.3047V41.74H34.566V44.3328Z" fill="#FFA412"/>
<path d="M32.3354 44.3328H32.0703V41.74H32.3354V44.3328Z" fill="#FFA412"/>
<path d="M45.9369 44.3328H45.6719V41.74H45.9369V44.3328Z" fill="#FFA412"/>
<path d="M46.4994 44.3328H46.2344V41.74H46.4994V44.3328Z" fill="#FFA412"/>
<path d="M47.0424 44.3328H46.7773V41.74H47.0424V44.3328Z" fill="#FFA412"/>
<path d="M47.4526 41.7512V44.3254C47.419 44.3328 47.3854 44.3328 47.3518 44.3328H47.1875V41.74H47.3518C47.3854 41.74 47.419 41.7437 47.4526 41.7512Z" fill="#FFA412"/>
<path d="M47.8198 41.9906V44.0858C47.7563 44.1794 47.663 44.2542 47.5547 44.2954V41.7773C47.663 41.8222 47.7563 41.8971 47.8198 41.9906Z" fill="#FFA412"/>
<path d="M47.8625 39.731V41.1939C47.8625 41.3099 47.8252 41.4184 47.7655 41.5119C47.702 41.6055 47.6087 41.6803 47.5004 41.7215C47.4743 41.7327 47.4481 41.7402 47.422 41.7439H47.4183C47.4108 41.7476 47.4071 41.7476 47.3996 41.7514C47.366 41.7551 47.3324 41.7589 47.2988 41.7589H24.0327C24.0103 41.7589 23.9841 41.7589 23.9617 41.7551C23.9505 41.7551 23.9431 41.7514 23.9319 41.7514C23.6817 41.7027 23.4839 41.4857 23.4727 41.2238C23.4727 41.2126 23.4727 41.2051 23.4727 41.1939V39.731C23.4727 39.7198 23.4727 39.7123 23.4727 39.701C23.4876 39.4055 23.734 39.166 24.0327 39.166H47.2988C47.3137 39.166 47.3287 39.166 47.3436 39.166C47.3511 39.1698 47.3548 39.1698 47.3623 39.1698C47.3697 39.1698 47.3772 39.1698 47.3847 39.1735C47.3884 39.1735 47.3921 39.1735 47.3996 39.1735C47.4332 39.181 47.4668 39.1922 47.5004 39.2034C47.5041 39.2072 47.5116 39.2072 47.5153 39.2109C47.5191 39.2109 47.5265 39.2147 47.5303 39.2147C47.5377 39.2221 47.5489 39.2259 47.5564 39.2296C47.5676 39.2371 47.5788 39.2408 47.59 39.2483C47.5975 39.2521 47.6049 39.2596 47.6161 39.2633C47.6236 39.2708 47.6348 39.2783 47.6423 39.2857C47.6497 39.2895 47.6572 39.297 47.6647 39.3045H47.6684C47.6721 39.3082 47.6759 39.3119 47.6796 39.3157C47.6945 39.3306 47.7095 39.3456 47.7207 39.3606C47.7244 39.3643 47.7281 39.3681 47.7319 39.3718C47.7356 39.3793 47.7393 39.383 47.7431 39.3868C47.7505 39.3942 47.758 39.4055 47.7655 39.4167C47.8252 39.5065 47.8625 39.615 47.8625 39.731Z" fill="#FFB93E"/>
<path d="M36.4385 41.7589H23.9729C23.9655 41.7589 23.9543 41.7589 23.9431 41.7589C23.9319 41.7589 23.9244 41.7551 23.9132 41.7551C23.6743 41.7215 23.4839 41.497 23.4727 41.2238C23.4727 41.2126 23.4727 41.2051 23.4727 41.1939V39.731C23.4727 39.7198 23.4727 39.7123 23.4727 39.701C23.4839 39.4055 23.7041 39.166 23.9729 39.166H34.9079C34.9116 39.1885 34.9153 39.2072 34.9228 39.2296C35.102 39.9817 35.5089 40.9919 36.4161 41.7402C36.4236 41.7476 36.4311 41.7551 36.4385 41.7589Z" fill="#FFA412"/>
<path d="M45.0309 41.7589H44.7695V39.166H45.0309V41.7589Z" fill="#FFA412"/>
<path d="M44.1362 41.7589H43.8711V39.166H44.1362V41.7589Z" fill="#FFA412"/>
<path d="M43.0619 41.7589H42.7969V39.166H43.0619V41.7589Z" fill="#FFA412"/>
<path d="M41.4213 41.7589H41.1562V39.166H41.4213V41.7589Z" fill="#FFA412"/>
<path d="M39.6791 41.7589H39.4141V39.166H39.6791V41.7589Z" fill="#FFA412"/>
<path d="M37.0112 41.7589H36.7461V39.166H37.0112V41.7589Z" fill="#FFA412"/>
<path d="M34.5151 41.7589H34.25V39.166H34.5151V41.7589Z" fill="#FFA412"/>
<path d="M32.2846 41.7589H32.0195V39.166H32.2846V41.7589Z" fill="#FFA412"/>
<path d="M45.8862 41.7589H45.6211V39.166H45.8862V41.7589Z" fill="#FFA412"/>
<path d="M46.4449 41.7589H46.1836V39.166H46.4449V41.7589Z" fill="#FFA412"/>
<path d="M46.9916 41.7589H46.7266V39.166H46.9916V41.7589Z" fill="#FFA412"/>
<path d="M47.4018 39.1735V41.7514C47.3682 41.7551 47.3346 41.7589 47.301 41.7589H47.1367V39.166H47.301C47.3346 39.166 47.3682 39.1698 47.4018 39.1735Z" fill="#FFA412"/>
<path d="M47.769 39.4166V41.5119C47.7055 41.6054 47.6122 41.6802 47.5039 41.7214V39.2034C47.6122 39.2445 47.7055 39.3194 47.769 39.4166Z" fill="#FFA412"/>
<path d="M49.0656 37.2017V38.6646C49.0656 38.7806 49.0283 38.8891 48.9686 38.9789C48.9051 39.0762 48.8118 39.151 48.7035 39.1922C48.6699 39.2034 48.6363 39.2146 48.6027 39.2221C48.5691 39.2258 48.5355 39.2296 48.5019 39.2296H25.2358C25.1424 39.2296 25.0566 39.2071 24.9782 39.166C24.8139 39.0799 24.6944 38.9115 24.6758 38.7207C24.6758 38.7095 24.6758 38.702 24.6758 38.6945C24.6758 38.6833 24.6758 38.6758 24.6758 38.6646V37.2017C24.6758 37.1905 24.6758 37.183 24.6758 37.1718C24.6907 36.8762 24.9371 36.6367 25.2358 36.6367H48.5019C48.5355 36.6367 48.5691 36.6405 48.6027 36.6442C48.6363 36.6517 48.6699 36.6629 48.7035 36.6741C48.8118 36.7153 48.9051 36.7901 48.9686 36.8837C49.0283 36.9772 49.0656 37.0857 49.0656 37.2017Z" fill="#FFB93E"/>
<path d="M37.6417 39.2296H25.176C25.0939 39.2296 25.0155 39.2071 24.9446 39.166C24.799 39.0799 24.6944 38.9115 24.6758 38.7207C24.6758 38.7095 24.6758 38.702 24.6758 38.6945C24.6758 38.6833 24.6758 38.6758 24.6758 38.6646V37.2017C24.6758 37.1905 24.6758 37.183 24.6758 37.1718C24.687 36.8762 24.911 36.6367 25.176 36.6367H36.111C36.279 37.3775 36.671 38.399 37.5632 39.166C37.5894 39.1884 37.6155 39.2071 37.6417 39.2296Z" fill="#FFA412"/>
<path d="M46.234 39.2296H45.9727V36.6367H46.234V39.2296Z" fill="#FFA412"/>
<path d="M45.3393 39.2296H45.0742V36.6367H45.3393V39.2296Z" fill="#FFA412"/>
<path d="M44.2651 39.2296H44V36.6367H44.2651V39.2296Z" fill="#FFA412"/>
<path d="M42.6244 39.2296H42.3594V36.6367H42.6244V39.2296Z" fill="#FFA412"/>
<path d="M40.8822 39.2296H40.6172V36.6367H40.8822V39.2296Z" fill="#FFA412"/>
<path d="M38.2143 39.2296H37.9492V36.6367H38.2143V39.2296Z" fill="#FFA412"/>
<path d="M35.7182 39.2296H35.4531V36.6367H35.7182V39.2296Z" fill="#FFA412"/>
<path d="M33.4877 39.2296H33.2227V36.6367H33.4877V39.2296Z" fill="#FFA412"/>
<path d="M47.0893 39.2296H46.8242V36.6367H47.0893V39.2296Z" fill="#FFA412"/>
<path d="M47.648 39.2296H47.3867V36.6367H47.648V39.2296Z" fill="#FFA412"/>
<path d="M48.1947 39.2296H47.9297V36.6367H48.1947V39.2296Z" fill="#FFA412"/>
<path d="M48.6049 36.6442V39.2221C48.5713 39.2258 48.5377 39.2296 48.5041 39.2296H48.3398V36.6367H48.5041C48.5377 36.6367 48.5713 36.6405 48.6049 36.6442Z" fill="#FFA412"/>
<path d="M48.9721 36.8836V38.9788C48.9086 39.0761 48.8153 39.1509 48.707 39.1921V36.6741C48.8153 36.7152 48.9086 36.7901 48.9721 36.8836Z" fill="#FFA412"/>
<path d="M50.9641 34.6087V36.0716C50.9641 36.1876 50.9267 36.2961 50.867 36.3859C50.8035 36.4832 50.7102 36.5542 50.6019 36.5991C50.5721 36.6104 50.5347 36.6216 50.5011 36.6253C50.4675 36.6328 50.4339 36.6366 50.4003 36.6366H27.1379C26.8355 36.6366 26.5892 36.3971 26.5742 36.1015C26.5742 36.0903 26.5742 36.0828 26.5742 36.0716V34.6087C26.5742 34.5974 26.5742 34.5862 26.5742 34.5787C26.5892 34.3019 26.802 34.0774 27.0708 34.0474C27.0932 34.0437 27.1155 34.0437 27.1379 34.0437H50.4003C50.4339 34.0437 50.4675 34.0437 50.5011 34.0512C50.5347 34.0587 50.5721 34.0661 50.6019 34.0811C50.7102 34.1223 50.8035 34.1971 50.867 34.2906C50.9267 34.3804 50.9641 34.4889 50.9641 34.6087Z" fill="#FFB93E"/>
<path d="M39.5401 36.6366H27.0745C26.8094 36.6366 26.5892 36.3971 26.5742 36.1015C26.5742 36.0903 26.5742 36.0828 26.5742 36.0716V34.6087C26.5742 34.5974 26.5742 34.5862 26.5742 34.5787C26.5854 34.3019 26.7758 34.0774 27.0185 34.0474C27.0372 34.0437 27.0558 34.0437 27.0745 34.0437H38.0094C38.0094 34.0437 38.0094 34.0437 38.0094 34.0474C38.1849 34.8107 38.5918 35.8621 39.5401 36.6366Z" fill="#FFA412"/>
<path d="M48.1362 36.6366H47.8711V34.0437H48.1362V36.6366Z" fill="#FFA412"/>
<path d="M47.2377 36.6366H46.9727V34.0437H47.2377V36.6366Z" fill="#FFA412"/>
<path d="M46.1637 36.6366H45.9023V34.0437H46.1637V36.6366Z" fill="#FFA412"/>
<path d="M44.5229 36.6366H44.2578V34.0437H44.5229V36.6366Z" fill="#FFA412"/>
<path d="M42.7807 36.6366H42.5156V34.0437H42.7807V36.6366Z" fill="#FFA412"/>
<path d="M40.1129 36.6366H39.8516V34.0437H40.1129V36.6366Z" fill="#FFA412"/>
<path d="M37.6166 36.6366H37.3516V34.0437H37.6166V36.6366Z" fill="#FFA412"/>
<path d="M35.3862 36.6366H35.1211V34.0437H35.3862V36.6366Z" fill="#FFA412"/>
<path d="M48.9877 36.6366H48.7227V34.0437H48.9877V36.6366Z" fill="#FFA412"/>
<path d="M49.5502 36.6366H49.2852V34.0437H49.5502V36.6366Z" fill="#FFA412"/>
<path d="M50.0932 36.6366H49.8281V34.0437H50.0932V36.6366Z" fill="#FFA412"/>
<path d="M50.5033 34.0512V36.6253C50.4697 36.6328 50.4361 36.6366 50.4025 36.6366H50.2383V34.0437H50.4025C50.4361 34.0437 50.4697 34.0437 50.5033 34.0512Z" fill="#FFA412"/>
<path d="M50.8705 34.2906V36.3858C50.8071 36.4831 50.7137 36.5542 50.6055 36.5991V34.0811C50.7137 34.1222 50.8071 34.197 50.8705 34.2906Z" fill="#FFA412"/>
<path d="M47.9133 32.0161V33.4827C47.9133 33.5987 47.876 33.7072 47.8162 33.797C47.7528 33.8906 47.6594 33.9654 47.5512 34.0103C47.5176 34.0215 47.484 34.0327 47.4504 34.0365C47.4392 34.0402 47.428 34.0402 47.4168 34.044C47.4093 34.044 47.3981 34.044 47.3906 34.044C47.3869 34.044 47.3832 34.044 47.3757 34.0477C47.3682 34.0477 47.3608 34.0477 47.3496 34.0477H24.0834C23.7848 34.0477 23.5384 33.8082 23.5234 33.5127C23.5234 33.5014 23.5234 33.4902 23.5234 33.4827V32.0161C23.5234 32.0086 23.5234 31.9974 23.5234 31.9899C23.5384 31.6905 23.7848 31.4548 24.0834 31.4548H47.3496C47.3608 31.4548 47.3682 31.4548 47.3794 31.4548C47.4018 31.4548 47.428 31.4586 47.4504 31.4623C47.484 31.4698 47.5176 31.4773 47.5512 31.4923C47.5698 31.496 47.5848 31.5035 47.5997 31.5147C47.6109 31.5184 47.6221 31.5222 47.6296 31.5297H47.6333C47.6408 31.5371 47.652 31.5409 47.6594 31.5484C47.6632 31.5484 47.6632 31.5521 47.6669 31.5521C47.6744 31.5559 47.6818 31.5633 47.6893 31.5708C47.7117 31.5858 47.7304 31.6008 47.7453 31.6195C47.7528 31.6232 47.7565 31.6307 47.764 31.6344V31.6382C47.7677 31.6419 47.7714 31.6457 47.7752 31.6494C47.7752 31.6494 47.7752 31.6494 47.7789 31.6494C47.7826 31.6569 47.7901 31.6644 47.7938 31.6718C47.8013 31.6831 47.8088 31.6905 47.8162 31.7018C47.876 31.7916 47.9133 31.9001 47.9133 32.0161Z" fill="#FFB93E"/>
<path d="M36.4893 34.0477H24.0237C23.7586 34.0477 23.5384 33.8082 23.5234 33.5127C23.5234 33.5014 23.5234 33.4902 23.5234 33.4827V32.0161C23.5234 32.0086 23.5234 31.9974 23.5234 31.9899C23.5384 31.6905 23.7586 31.4548 24.0237 31.4548H34.9586C34.9624 31.4735 34.9661 31.4923 34.9736 31.5147C35.1528 32.2705 35.5634 33.2882 36.4818 34.044C36.4856 34.044 36.4856 34.044 36.4893 34.0477Z" fill="#FFA412"/>
<path d="M45.0854 34.0477H44.8203V31.4548H45.0854V34.0477Z" fill="#FFA412"/>
<path d="M44.187 34.0477H43.9219V31.4548H44.187V34.0477Z" fill="#FFA412"/>
<path d="M43.1127 34.0477H42.8477V31.4548H43.1127V34.0477Z" fill="#FFA412"/>
<path d="M41.4721 34.0477H41.207V31.4548H41.4721V34.0477Z" fill="#FFA412"/>
<path d="M39.7299 34.0477H39.4648V31.4548H39.7299V34.0477Z" fill="#FFA412"/>
<path d="M37.0619 34.0477H36.7969V31.4548H37.0619V34.0477Z" fill="#FFA412"/>
<path d="M34.566 34.0477H34.3047V31.4548H34.566V34.0477Z" fill="#FFA412"/>
<path d="M32.3354 34.0477H32.0703V31.4548H32.3354V34.0477Z" fill="#FFA412"/>
<path d="M45.9369 34.0477H45.6719V31.4548H45.9369V34.0477Z" fill="#FFA412"/>
<path d="M46.4994 34.0477H46.2344V31.4548H46.4994V34.0477Z" fill="#FFA412"/>
<path d="M47.0424 34.0477H46.7773V31.4548H47.0424V34.0477Z" fill="#FFA412"/>
<path d="M47.4526 31.4623V34.0365C47.419 34.044 47.3854 34.0477 47.3518 34.0477H47.1875V31.4548H47.3518C47.3854 31.4548 47.419 31.4548 47.4526 31.4623Z" fill="#FFA412"/>
<path d="M47.8198 31.7017V33.797C47.7563 33.8905 47.663 33.9653 47.5547 34.0102V31.4922C47.663 31.5333 47.7563 31.6082 47.8198 31.7017Z" fill="#FFA412"/>
<path d="M49.6203 29.4829V30.9496C49.6203 31.0656 49.583 31.1741 49.5233 31.2639C49.4598 31.3574 49.3665 31.4323 49.2582 31.4734C49.2283 31.4884 49.191 31.4959 49.1574 31.5033C49.1238 31.5108 49.0902 31.5146 49.0566 31.5146H25.7942C25.7009 31.5146 25.6187 31.4921 25.5403 31.4547C25.3723 31.3687 25.2491 31.1965 25.2305 31.002C25.2305 30.9945 25.2305 30.9833 25.2305 30.9758C25.2305 30.9683 25.2305 30.9571 25.2305 30.9496V29.4829C25.2305 29.4755 25.2305 29.4642 25.2305 29.453C25.2454 29.1799 25.4582 28.9554 25.727 28.9217C25.7494 28.9217 25.7718 28.918 25.7942 28.918H49.0566C49.0902 28.918 49.1238 28.9217 49.1574 28.9292C49.191 28.9329 49.2283 28.9442 49.2582 28.9554C49.3665 29.0003 49.4598 29.0751 49.5233 29.1686C49.583 29.2584 49.6203 29.3669 49.6203 29.4829Z" fill="#FFB93E"/>
<path d="M38.1963 31.5146H25.7307C25.6523 31.5146 25.5739 31.4921 25.5067 31.4547C25.3574 31.3687 25.2491 31.1965 25.2305 31.002C25.2305 30.9945 25.2305 30.9833 25.2305 30.9758C25.2305 30.9683 25.2305 30.9571 25.2305 30.9496V29.4829C25.2305 29.4755 25.2305 29.4642 25.2305 29.453C25.2417 29.1799 25.4321 28.9554 25.6747 28.9217C25.6934 28.9217 25.7121 28.918 25.7307 28.918H36.6657C36.6657 28.9217 36.6657 28.9217 36.6657 28.9217C36.8374 29.6663 37.2294 30.6877 38.1254 31.4547C38.1478 31.4734 38.1702 31.4921 38.1963 31.5146Z" fill="#FFA412"/>
<path d="M46.7924 31.5146H46.5273V28.918H46.7924V31.5146Z" fill="#FFA412"/>
<path d="M45.894 31.5146H45.6289V28.918H45.894V31.5146Z" fill="#FFA412"/>
<path d="M44.8199 31.5146H44.5586V28.918H44.8199V31.5146Z" fill="#FFA412"/>
<path d="M43.1791 31.5146H42.9141V28.918H43.1791V31.5146Z" fill="#FFA412"/>
<path d="M41.4369 31.5146H41.1719V28.918H41.4369V31.5146Z" fill="#FFA412"/>
<path d="M38.7692 31.5146H38.5078V28.918H38.7692V31.5146Z" fill="#FFA412"/>
<path d="M36.2768 31.5146H36.0117V28.918H36.2768V31.5146Z" fill="#FFA412"/>
<path d="M34.0424 31.5146H33.7773V28.918H34.0424V31.5146Z" fill="#FFA412"/>
<path d="M47.644 31.5146H47.3789V28.918H47.644V31.5146Z" fill="#FFA412"/>
<path d="M48.2065 31.5146H47.9414V28.918H48.2065V31.5146Z" fill="#FFA412"/>
<path d="M48.7494 31.5146H48.4844V28.918H48.7494V31.5146Z" fill="#FFA412"/>
<path d="M49.1596 28.9292V31.5033C49.126 31.5108 49.0924 31.5146 49.0588 31.5146H48.8945V28.918H49.0588C49.0924 28.918 49.126 28.9217 49.1596 28.9292Z" fill="#FFA412"/>
<path d="M49.5268 29.1686V31.2638C49.4633 31.3574 49.37 31.4322 49.2617 31.4733V28.9553C49.37 29.0002 49.4633 29.075 49.5268 29.1686Z" fill="#FFA412"/>
<path d="M47.9133 26.8938V28.3605C47.9133 28.4765 47.876 28.585 47.8162 28.6748C47.7528 28.7683 47.6594 28.8431 47.5512 28.8843C47.5176 28.8993 47.484 28.9068 47.4504 28.9142C47.4392 28.9142 47.428 28.918 47.4168 28.918C47.4093 28.918 47.4056 28.9217 47.3981 28.9217C47.3906 28.9217 47.3869 28.9217 47.3794 28.9217C47.3682 28.9217 47.3608 28.9217 47.3496 28.9217H24.0834C23.7848 28.9217 23.5384 28.686 23.5234 28.3867C23.5234 28.3792 23.5234 28.368 23.5234 28.3605V26.8938C23.5234 26.8826 23.5234 26.8751 23.5234 26.8639C23.5384 26.5683 23.7848 26.3289 24.0834 26.3289H47.3496C47.3832 26.3289 47.4168 26.3326 47.4504 26.3401C47.484 26.3438 47.5176 26.355 47.5512 26.3663C47.6594 26.4112 47.7528 26.4823 47.8162 26.5795C47.876 26.6693 47.9133 26.7778 47.9133 26.8938Z" fill="#FFB93E"/>
<path d="M36.4893 28.9217H24.0237C23.7586 28.9217 23.5384 28.686 23.5234 28.3867C23.5234 28.3792 23.5234 28.368 23.5234 28.3605V26.8938C23.5234 26.8826 23.5234 26.8751 23.5234 26.8639C23.5384 26.5683 23.7586 26.3289 24.0237 26.3289H34.9586C35.1304 27.0921 35.5373 28.1435 36.4818 28.918C36.4856 28.9217 36.4856 28.9217 36.4893 28.9217Z" fill="#FFA412"/>
<path d="M45.0854 28.9217H44.8203V26.3289H45.0854V28.9217Z" fill="#FFA412"/>
<path d="M44.187 28.9217H43.9219V26.3289H44.187V28.9217Z" fill="#FFA412"/>
<path d="M43.1127 28.9217H42.8477V26.3289H43.1127V28.9217Z" fill="#FFA412"/>
<path d="M41.4721 28.9217H41.207V26.3289H41.4721V28.9217Z" fill="#FFA412"/>
<path d="M39.7299 28.9217H39.4648V26.3289H39.7299V28.9217Z" fill="#FFA412"/>
<path d="M37.0619 28.9217H36.7969V26.3289H37.0619V28.9217Z" fill="#FFA412"/>
<path d="M34.566 28.9217H34.3047V26.3289H34.566V28.9217Z" fill="#FFA412"/>
<path d="M32.3354 26.3289V28.9217H32.0703V26.3289H32.3354Z" fill="#FFA412"/>
<path d="M45.9369 28.9217H45.6719V26.3289H45.9369V28.9217Z" fill="#FFA412"/>
<path d="M46.4994 28.9217H46.2344V26.3289H46.4994V28.9217Z" fill="#FFA412"/>
<path d="M47.0424 28.9217H46.7773V26.3289H47.0424V28.9217Z" fill="#FFA412"/>
<path d="M47.4526 26.3401V28.9142C47.419 28.9217 47.3854 28.9217 47.3518 28.9217H47.1875V26.3289H47.3518C47.3854 26.3289 47.419 26.3326 47.4526 26.3401Z" fill="#FFA412"/>
<path d="M47.8198 26.5795V28.6747C47.7563 28.7683 47.663 28.8431 47.5547 28.8842V26.3662C47.663 26.4111 47.7563 26.4822 47.8198 26.5795Z" fill="#FFA412"/>
<path d="M13.3672 41.4445C13.3672 34.1523 19.2621 28.2407 26.5347 28.2407C33.8072 28.2407 39.6984 34.1523 39.6984 41.4445C39.6984 48.7366 33.8072 54.6482 26.5347 54.6482C19.2621 54.6482 13.3672 48.7366 13.3672 41.4445Z" fill="#E2810E"/>
<path d="M12.2188 41.4445C12.2188 34.1523 18.1137 28.2407 25.3862 28.2407C32.6587 28.2407 38.5537 34.1523 38.5537 41.4445C38.5537 48.7366 32.6587 54.6482 25.3862 54.6482C18.1137 54.6482 12.2188 48.7366 12.2188 41.4445Z" fill="#FFB93E"/>
<path fill-rule="evenodd" clip-rule="evenodd" d="M25.3858 53.6304C22.1826 53.6304 19.1698 52.377 16.9037 50.1059C14.6376 47.8348 13.3906 44.8117 13.3906 41.6015C13.3906 38.3876 14.6376 35.3644 16.9037 33.0933C19.1698 30.8223 22.1826 29.5688 25.3858 29.5688C28.589 29.5688 31.6018 30.8223 33.868 33.0933C36.1341 35.3644 37.381 38.3876 37.381 41.6015C37.381 44.8117 36.1341 47.8348 33.868 50.1059C31.6018 52.377 28.589 53.6304 25.3858 53.6304ZM25.3858 30.2872C22.373 30.2872 19.5394 31.4658 17.4077 33.6022C15.2797 35.7386 14.1037 38.5784 14.1037 41.6015C14.1037 44.6209 15.2797 47.4607 17.4077 49.5971C19.5394 51.7372 22.373 52.912 25.3858 52.912C28.3986 52.912 31.2322 51.7372 33.364 49.5971C35.492 47.4607 36.668 44.6209 36.668 41.6015C36.668 38.5784 35.492 35.7386 33.364 33.6022C31.2322 31.4658 28.3986 30.2872 25.3858 30.2872Z" fill="#FFA412"/>
<path d="M27.037 45.0924C27.0706 44.8305 27.0594 44.5986 27.0109 44.3928C26.9623 44.187 26.8615 43.9924 26.7159 43.8129C26.5703 43.6333 26.3725 43.4574 26.1261 43.2928C25.8797 43.1244 25.5773 42.9523 25.2151 42.7802C24.5917 42.4734 24.0279 42.1629 23.5277 41.8486C23.0274 41.538 22.6093 41.1938 22.2695 40.8234C21.9298 40.4493 21.6797 40.0302 21.5229 39.57C21.3661 39.1061 21.325 38.571 21.3959 37.9649C21.4594 37.4411 21.6087 36.9734 21.8439 36.5618C22.0829 36.1503 22.3927 35.8061 22.7735 35.5254C23.1581 35.2448 23.5986 35.0353 24.1063 34.8894C24.6103 34.7472 25.1629 34.6836 25.7677 34.6986L26.0029 32.7156L27.5933 32.9064L27.3543 34.9156C27.9181 35.0578 28.4146 35.271 28.8514 35.5554C29.2882 35.836 29.6503 36.1802 29.9303 36.5843C30.2141 36.9884 30.4119 37.4486 30.5277 37.9649C30.6471 38.485 30.6695 39.0537 30.5949 39.671L27.7202 39.3268C27.8098 38.586 27.709 38.0135 27.4253 37.6057C27.1415 37.2016 26.7234 36.9622 26.1709 36.8986C25.8722 36.8612 25.6109 36.8724 25.3869 36.9322C25.1629 36.9884 24.9687 37.0819 24.8119 37.2129C24.6589 37.3401 24.5357 37.4972 24.4461 37.688C24.3565 37.8788 24.2967 38.0884 24.2706 38.3166C24.2407 38.5448 24.2519 38.7544 24.2967 38.9489C24.3415 39.1435 24.4349 39.3268 24.5767 39.5027C24.7223 39.6822 24.9202 39.8544 25.1703 40.0265C25.4242 40.1948 25.7415 40.3782 26.1186 40.5765C26.7346 40.8945 27.2909 41.2088 27.7874 41.5268C28.2839 41.8411 28.7021 42.189 29.0418 42.5632C29.3815 42.9373 29.6279 43.3564 29.7847 43.8203C29.9415 44.2843 29.9863 44.8156 29.9154 45.4142C29.8519 45.9567 29.6989 46.4356 29.4599 46.8435C29.2173 47.255 28.9074 47.5955 28.5266 47.8724C28.1421 48.1455 27.6978 48.3476 27.1863 48.4822C26.6786 48.6169 26.1186 48.6731 25.5175 48.6581L25.2973 50.5027L23.7181 50.3156L23.9346 48.4822C23.3895 48.3588 22.8743 48.1754 22.3815 47.9285C21.8887 47.6816 21.4631 47.3598 21.1085 46.9632C20.7501 46.5703 20.485 46.0914 20.3095 45.5302C20.1341 44.9727 20.0893 44.3217 20.1751 43.5809L23.0498 43.9214C23.0013 44.3591 23.0162 44.7333 23.1058 45.0401C23.1917 45.3506 23.3298 45.605 23.5127 45.8033C23.6994 46.0054 23.9197 46.155 24.1735 46.2598C24.4237 46.3608 24.6887 46.4282 24.9613 46.4618C25.2711 46.4955 25.5511 46.488 25.7938 46.4394C26.0402 46.387 26.2493 46.2972 26.4247 46.1737C26.6039 46.0503 26.7421 45.8969 26.8429 45.7135C26.9474 45.5265 27.0109 45.3207 27.037 45.0924Z" fill="#FFA412"/>
<path d="M64.6975 45.7212C63.7455 44.6062 63.7157 43.697 64.6117 42.9862C65.2613 42.5896 65.8549 42.41 66.3888 42.4399C65.6346 43.7083 65.377 44.4079 65.6234 44.5314C65.8661 44.6586 66.2357 43.9215 66.7285 42.3239C68.2144 42.178 69.1962 42.2191 69.6741 42.4511C68.4047 43.495 67.9045 44.045 68.1696 44.1086C68.4384 44.1685 69.2597 43.6896 70.6298 42.6644C72.0111 42.9038 72.6645 43.4426 72.5936 44.2882C72.4816 45.5566 71.7685 45.9494 71.4549 45.9158C71.1376 45.8821 69.3008 45.1787 69.2634 45.4368C69.2224 45.695 70.3274 46.5368 71.104 46.578C70.1296 47.6556 69.3157 48.0372 68.6698 47.7266C67.6992 47.259 67.6133 46.5219 67.0085 46.245C66.4037 45.9644 65.8847 45.9681 66.1349 46.2487C66.385 46.5331 67.4826 46.8062 67.8298 47.4236C68.1733 48.0372 68.4869 48.4487 67.4789 48.2991C66.4746 48.1457 64.8432 47.4086 64.7685 46.5668C64.72 46.0018 64.6975 45.7212 64.6975 45.7212Z" fill="#82B378"/>
<path d="M71.5726 44.3219C67.8169 44.176 65.5246 44.6437 64.6958 45.7213C64.5129 46.2713 64.1395 46.7988 63.5758 47.3002L63.4414 47.6593C64.0947 46.9709 64.5353 46.608 64.7667 46.5668C64.4046 45.2311 66.6707 44.4828 71.5726 44.3219Z" fill="#82B378"/>
<path d="M63.5767 47.3003C62.7703 47.8952 62.3372 48.7295 62.2812 49.7959L62.5015 49.8183C62.7591 48.7146 63.1212 47.9438 63.5879 47.5135C64.0508 47.0795 64.0471 47.0084 63.5767 47.3003Z" fill="#82B378"/>
<path d="M59.7002 43.6185C61.216 42.7692 61.6192 41.7664 60.9136 40.6103C60.3498 39.9032 59.7637 39.4579 59.1552 39.2746C59.48 40.9957 59.48 41.875 59.1552 41.9161C58.8341 41.9573 58.7221 40.9845 58.8229 39.0015C57.2288 38.2307 56.1162 37.8753 55.489 37.9389C56.4784 39.6188 56.8144 40.4382 56.4896 40.3971C56.1685 40.3559 55.4517 39.4879 54.3392 37.7855C52.704 37.4824 51.7557 37.8154 51.4906 38.7882C51.0986 40.2474 51.7333 40.977 52.0992 41.0668C52.4613 41.1566 54.7946 41.1267 54.7349 41.4297C54.6714 41.7365 53.096 42.2229 52.2186 41.946C52.8645 43.5474 53.6112 44.3069 54.4586 44.2246C55.7317 44.1049 56.1274 43.3154 56.9152 43.2556C57.7029 43.192 58.2778 43.4052 57.8821 43.6185C57.4901 43.8318 56.1573 43.6896 55.5226 44.2321C54.8842 44.7746 54.369 45.1076 55.5525 45.3508C56.7322 45.594 58.8528 45.4406 59.2784 44.5314C59.5621 43.9216 59.7002 43.6185 59.7002 43.6185Z" fill="#A8D29F"/>
<path d="M52.6094 39.2446C56.8542 40.6215 59.2174 42.0807 59.699 43.6184C59.6803 44.3069 59.8819 45.0477 60.3075 45.8372V46.2936C59.8632 45.261 59.5198 44.6735 59.2771 44.5314C60.2254 43.1919 58.004 41.4297 52.6094 39.2446Z" fill="#82B378"/>
<path d="M60.3066 45.8371C60.9599 46.8324 61.1018 47.9361 60.7285 49.1484L60.4746 49.081C60.6389 47.7453 60.5493 46.7426 60.2058 46.0691C59.8661 45.3994 59.8959 45.3208 60.3066 45.8371Z" fill="#82B378"/>
<path d="M63.3167 41.8599C61.3194 40.7375 60.7855 39.4167 61.7189 37.8939C62.4618 36.9586 63.2346 36.3712 64.0335 36.1317C63.6079 38.4028 63.6079 39.5627 64.0335 39.615C64.4591 39.6712 64.6085 38.3878 64.4741 35.7725C66.5759 34.7586 68.0394 34.2909 68.8682 34.3695C67.5615 36.5844 67.121 37.6657 67.5503 37.6133C67.9759 37.5609 68.9204 36.4123 70.3839 34.1712C72.5418 33.7708 73.7924 34.2086 74.1396 35.4919C74.6586 37.415 73.8186 38.3729 73.3407 38.4963C72.8591 38.6161 69.7866 38.5749 69.865 38.9752C69.9434 39.3756 72.0229 40.0154 73.1802 39.6562C72.329 41.7664 71.3434 42.7654 70.2234 42.6606C68.5471 42.4997 68.0282 41.4596 66.9903 41.3773C65.9524 41.2987 65.1909 41.5793 65.7098 41.8599C66.2325 42.1405 67.9871 41.9497 68.8271 42.6643C69.6634 43.379 70.3428 43.8205 68.786 44.1422C67.2292 44.4603 64.433 44.262 63.873 43.061C63.5034 42.2603 63.3167 41.8599 63.3167 41.8599Z" fill="#A8D29F"/>
<path d="M72.6591 36.0906C67.0666 37.9089 63.953 39.8283 63.3146 41.86C63.3407 42.7654 63.0719 43.7419 62.5156 44.7821V45.3845C63.1018 44.0226 63.5535 43.2481 63.8708 43.061C62.6202 41.2987 65.5508 38.9753 72.6591 36.0906Z" fill="#82B378"/>
<path d="M62.5159 44.782C61.6535 46.0953 61.4668 47.5507 61.9596 49.1484L62.2919 49.0586C62.0754 47.3001 62.1949 45.9756 62.6466 45.0926C63.0946 44.2058 63.0535 44.1011 62.5159 44.782Z" fill="#82B378"/>
<path d="M63.2165 54.349C66.457 54.349 69.0815 51.715 69.0815 48.4636H57.3477C57.3477 51.715 59.9759 54.349 63.2165 54.349Z" fill="#F1A34F"/>
<path d="M64.6595 54.3041C64.4206 54.334 64.1779 54.349 63.9315 54.349C60.6909 54.349 58.0664 51.715 58.0664 48.4636H59.5224C59.5224 51.468 61.7661 53.9449 64.6595 54.3041Z" fill="#FFB973"/>
<path d="M69.1638 54.6485H57.2656C57.2656 54.2481 57.5904 53.9226 57.9899 53.9226H68.4395C68.839 53.9226 69.1638 54.2481 69.1638 54.6485Z" fill="#F1A34F"/>
<path d="M69.2147 48.647H57.1523V48.4636H69.2147V48.647Z" fill="#D86713"/>
<path d="M11.6635 7.8608L11.6673 8.21624C11.6001 8.9608 12.0257 9.38733 12.9403 9.49584C14.3105 9.65672 15.4305 9.63801 15.3969 8.77747C15.27 8.10774 15.0497 7.07509 15.0422 6.52135C15.0385 6.31931 15.0534 6.1023 15.0908 5.85536L12.4363 5.80298L11.6523 5.93019L11.6635 7.8608Z" fill="#FFB27D"/>
<path d="M11.6523 5.93019L11.6635 7.8608C11.9473 7.99176 12.2646 8.07033 12.6193 8.07033C13.8401 8.07033 14.6278 7.17237 15.0422 6.52135C15.0385 6.31931 15.0534 6.1023 15.0907 5.85536L12.4363 5.80298L11.6523 5.93019Z" fill="#E2915A"/>
<path d="M15.2905 5.42511C14.9844 7.09008 12.8452 7.03396 11.9193 6.92919C11.7476 6.91049 11.6057 6.88804 11.4975 6.86559C11.2025 6.79076 11.0383 6.32681 10.9636 5.71695C10.8143 4.51967 11.0047 2.75368 11.2063 2.3047C11.5087 1.62375 12.0836 0.890419 14.2377 1.42171C16.3918 1.94926 15.6862 3.2962 15.2905 5.42511Z" fill="#FFB27D"/>
<path d="M17.0432 54.6408H14.0117C14.0341 54.4836 14.1125 53.9972 14.2544 53.552C14.3029 53.3949 14.3627 53.2452 14.4261 53.1143C14.624 52.7214 15.3445 52.6503 16.5915 52.8972C16.7109 52.9983 16.8117 53.2377 16.9013 53.6194C16.9648 53.87 17.0171 54.203 17.0432 54.6408Z" fill="#233862"/>
<path d="M7.88448 53.6831C7.87702 54.0984 7.82475 54.4875 7.67542 54.6409H1.67969C1.75435 54.4239 1.97089 54.0984 2.58689 53.9973C3.28502 53.8851 4.37515 53.5446 5.01355 52.8711C5.24129 52.6317 5.40928 52.3473 5.48395 52.0181C5.67062 51.18 6.44715 51.3072 7.81355 52.4035C7.86955 52.845 7.89195 53.2715 7.88448 53.6831Z" fill="#233862"/>
<path d="M11.8717 40.0714C11.7896 40.5316 11.7336 40.9095 11.7224 41.1827C11.532 44.9092 8.59014 53.4323 8.06748 53.6306C7.25361 53.9412 5.97308 53.2864 5.30108 53.0694C5.02481 52.9833 4.83814 52.7027 4.89788 52.4146C6.35388 45.7061 6.88774 36.0456 7.08188 30.3286C7.14908 28.4055 7.34694 26.7816 7.67548 25.4572C12.4541 24.1776 14.8547 24.3459 14.8845 25.966C14.9219 28.1099 12.5101 36.5282 11.8717 40.0714Z" fill="#2B478B"/>
<path d="M11.8719 40.0714L7.08203 30.3286C7.14923 28.4055 7.3471 26.7816 7.67563 25.4572C12.4543 24.1776 14.8548 24.3459 14.8847 25.966C14.922 28.1099 12.5103 36.5282 11.8719 40.0714Z" fill="#233862"/>
<path d="M10.2773 25.9734L14.0667 53.5109C15.1755 53.7802 16.1611 53.8064 17.0235 53.5894C17.7627 43.8279 18.1024 37.7666 18.0389 35.4057C17.9493 31.8625 18.8379 25.9285 17.8373 25.2738C17.1728 24.8398 14.6528 25.0717 10.2773 25.9734Z" fill="#2B478B"/>
<path d="M10.5455 0.722054C11.1764 0.673414 11.8671 0.48634 12.61 0.160829C13.5172 -0.235769 14.6634 0.201986 15.0367 0.396544C15.0255 0.33668 15.0031 0.254367 14.9434 0.172054C15.0554 0.250625 15.1188 0.347904 15.1375 0.456408C15.1524 0.471374 15.1599 0.478857 15.1562 0.482598C15.2831 0.460149 15.3876 0.467632 15.466 0.501306C15.41 0.493823 15.3727 0.508789 15.354 0.546203C15.3503 0.549945 15.3428 0.557428 15.3391 0.56117C16.754 1.24586 16.8847 3.49076 16.4292 4.01083C16.0634 4.42614 15.6639 5.10335 15.2234 6.03872C15.0628 5.81797 15.018 5.52614 15.0852 5.15947C15.1823 4.60947 14.7119 4.60947 14.1108 4.35879C13.5135 4.10811 14.0138 3.40845 13.4911 2.98566C12.9647 2.55913 11.0457 2.80981 11.0719 2.4843C10.3588 2.22614 10.5455 0.793142 10.5455 0.722054Z" fill="#233862"/>
<path d="M15.7159 9.25269L14.8423 28.0238C9.98896 28.1023 7.63323 27.5935 7.77136 26.4898C7.9095 25.3898 8.7831 19.8374 10.3959 9.82888L15.7159 9.25269Z" fill="#E9F3FE"/>
<path d="M18.3153 19.8934C17.8823 21.1954 18.6999 25.5692 18.9911 27.0509C19.0321 27.2604 19.0695 27.425 19.0993 27.5485C18.4273 28.6447 16.8593 29.1873 14.3953 29.1723C13.9249 27.0733 13.5628 24.3532 13.3164 21.0121L16.15 8.55664L19.7153 11.8604C19.5361 13.2036 19.3345 14.558 19.1105 15.9274C18.8492 17.5512 18.5505 19.2012 18.3153 19.8934Z" fill="#22407A"/>
<path d="M12.2556 5.69809C12.2108 5.84401 12.0092 5.88891 11.647 5.83653C11.3446 5.79163 11.2065 5.69061 11.2289 5.52973C11.5313 5.43993 11.8748 5.49605 12.2556 5.69809Z" fill="white"/>
<path fill-rule="evenodd" clip-rule="evenodd" d="M11.2619 8.59424C10.5227 12.4405 9.84321 16.4102 9.22348 20.5072C8.80535 23.2759 8.45441 28.6337 8.45441 28.6711C8.45441 28.7834 7.08801 28.2857 6.78561 26.8078C6.61761 25.9885 6.90135 24.0691 7.15148 21.9925C6.99468 22.0262 6.80055 22 6.56908 21.9102C3.01121 19.4109 1.54775 17.5364 2.18988 16.283C3.13068 14.431 7.99148 9.69798 8.16321 9.52961C8.16321 9.52587 8.16321 9.52587 8.16321 9.52213C9.16748 9.01329 10.2016 8.70648 11.2619 8.59424ZM7.32321 20.466C7.43895 19.28 7.50988 18.1126 7.44641 17.1361C7.41281 16.6123 7.41281 16.0473 7.43148 15.4711C7.43148 15.4711 7.43148 15.4711 7.42775 15.4711C7.42401 15.4749 7.41655 15.4823 7.40908 15.4936C6.29281 16.197 5.26241 16.7956 5.26241 17.065C5.26241 17.0725 5.26241 17.0874 5.26988 17.0949C5.37441 17.4017 6.79308 19.6354 7.32321 20.466Z" fill="#22407A"/>
<path d="M15.9206 8.53444C15.9281 8.41471 15.6481 8.27254 15.0843 8.10791C14.4385 9.00587 13.5835 9.46233 12.5195 9.4773C12.8257 10.0685 13.1542 10.4426 13.5126 10.596C15.0843 9.93002 15.887 9.24159 15.9206 8.53444Z" fill="#D9E9F9"/>
<path d="M10.2816 22.1646C10.3226 22.6024 10.5205 23.0102 10.8453 23.3095L11.353 23.7772C11.48 23.8932 11.6816 23.8782 11.7861 23.7435L12.417 22.9428C12.585 22.7258 12.6634 22.4564 12.6373 22.1833C12.5813 21.5772 12.4693 20.4098 12.3834 19.2836C12.3125 18.3707 12.2528 17.4802 12.249 16.9415C12.2416 15.7928 12.3498 13.387 12.5776 9.72412L12.1632 9.74657C11.4837 11.1683 10.9648 12.8445 10.6064 14.7826C10.472 15.4935 10.3712 16.2568 10.3226 17.0425C10.177 19.134 10.1658 20.8401 10.2816 22.1646Z" fill="#C65447"/>
<path d="M10.2816 22.1647C10.3226 22.6024 10.5205 23.0103 10.8453 23.3096L11.353 23.7773C11.48 23.8933 11.6816 23.8783 11.7861 23.7436L12.417 22.9429C12.585 22.7259 12.6634 22.4565 12.6373 22.1834C12.5813 21.5773 12.4693 20.4099 12.3834 19.2837C11.2448 18.0004 10.7818 16.2269 10.6064 14.7827C10.472 15.4936 10.3712 16.2569 10.3226 17.0426C10.177 19.1341 10.1658 20.8402 10.2816 22.1647Z" fill="#BA4C43"/>
<path d="M12.5226 9.44726C11.9588 9.11053 11.6788 8.76257 11.6751 8.39964C11.313 8.35101 11.0516 8.41835 10.8911 8.5942C10.7567 9.21903 10.7791 9.70917 10.9583 10.0721C11.7684 9.94862 12.2911 9.7391 12.5226 9.44726Z" fill="#D9E9F9"/>
<path d="M13.0966 9.36501L11.9505 9.08813C11.8497 9.09936 11.8012 9.16296 11.8049 9.29018C11.8086 9.47725 12.1297 10.0235 12.2678 10.0684C12.4097 10.1096 13.3692 9.7429 13.0966 9.36501Z" fill="#BA4C43"/>
<path d="M15.7899 8.44079C15.7937 8.32106 15.607 8.13773 15.2262 7.89453C14.487 8.75882 13.5835 9.20031 12.5195 9.21528C12.8257 9.80644 13.1542 10.1806 13.5126 10.334C14.9947 9.78025 15.7526 9.15167 15.7899 8.44079Z" fill="#E9F3FE"/>
<path d="M12.5195 9.21529C11.952 8.91223 11.6645 8.57923 11.6645 8.21631C11.3173 8.36971 11.0672 8.53434 10.9104 8.71019C10.7611 9.10304 10.776 9.48093 10.9552 9.84012C11.7653 9.71665 12.288 9.50712 12.5195 9.21529Z" fill="#E9F3FE"/>
<path d="M6.23047 22.2133C6.23047 21.7344 6.64861 21.3527 7.12274 21.4238C7.25341 21.4425 7.36914 21.4987 7.45127 21.6072C7.77607 22.0412 8.08594 23.3021 7.511 23.3582C7.2758 23.3844 6.97714 23.2198 6.74567 23.0439C6.51047 22.8643 6.23047 22.5837 6.23047 22.2844V22.2133Z" fill="#FFB27D"/>
<path d="M18.9898 27.051C17.9445 25.9622 16.1413 23.8183 16.2048 22.0598C16.2645 20.4173 17.2314 18.3707 19.1093 15.9275C18.848 17.5513 18.5493 19.2013 18.3141 19.8935C17.881 21.1955 18.6986 25.5693 18.9898 27.051Z" fill="#233862"/>
<path d="M18.9595 22.7632C18.4593 23.0139 18.0598 23.0775 17.7537 22.954C17.2982 22.7632 16.7643 22.6247 16.2529 23.2047C15.7451 23.7846 15.6369 24.1887 15.7451 24.4057C15.8534 24.619 17.0406 24.5367 17.2347 24.4057C17.4326 24.271 17.7462 23.938 17.9403 23.9979C18.4891 24.155 18.9483 23.7397 19.2022 23.4067C19.359 23.2047 18.9409 23.1074 18.9595 22.7632Z" fill="#FFB27D"/>
<path d="M16.1484 8.55664C18.142 8.77739 19.374 9.32365 19.8444 10.1917C20.5463 11.4975 24.2124 16.7879 24.093 18.9879C24.0146 20.4509 22.3458 22.0073 19.094 23.6498C18.3735 23.3468 18.0076 23.0288 17.9964 22.6995C17.9815 22.2056 21.3714 19.2611 21.166 18.7111C20.9607 18.1611 17.2274 13.8172 16.8652 12.3805C16.6263 11.4264 16.3874 10.1505 16.1484 8.55664Z" fill="#22407A"/>
<path d="M7.42998 15.4709C7.42625 15.4747 7.41878 15.4822 7.41132 15.4934C6.29505 16.1968 5.26465 16.7954 5.26465 17.0648C5.11532 16.5896 6.56385 14.5954 7.03425 14.1876C7.35158 13.9145 7.48225 14.341 7.42998 15.4709Z" fill="#233862"/>
<path d="M15.2276 7.89453C13.7119 14.2476 13.0772 18.6214 13.3199 21.016C13.8761 18.4568 14.8207 16.1296 16.1609 14.0343C15.6719 13.6041 15.4404 13.3085 15.4665 13.1513C15.8287 13.0428 16.1871 13.0241 16.538 13.099C16.5007 10.3602 16.37 8.84487 16.1497 8.55678C15.9332 8.26494 15.6233 8.04419 15.2276 7.89453Z" fill="#233862"/>
<path d="M11.6643 8.21631C11.6941 8.23127 9.41306 17.5289 9.22266 20.5071C9.37572 16.9639 9.44292 14.6854 9.42799 13.6639C10.0552 13.3309 10.3688 13.1064 10.3688 12.9867C10.3688 12.8707 10.0328 12.6537 9.36452 12.3394C9.79012 10.1581 10.1149 8.9459 10.3501 8.70644C10.5816 8.46699 11.0184 8.30236 11.6643 8.21631Z" fill="#233862"/>
<path d="M37.9161 26.3327L44.1321 26.3252C44.9385 26.3252 45.5993 25.6592 45.5993 24.8473L45.5955 22.1497C45.5955 21.3378 44.9347 20.6755 44.1246 20.6755L37.9123 20.683C37.1022 20.683 36.4414 21.349 36.4414 22.1572L36.4451 24.8585C36.4451 25.6704 37.1097 26.3327 37.9161 26.3327Z" fill="#233862"/>
<path fill-rule="evenodd" clip-rule="evenodd" d="M44.7792 22.1122L44.7829 24.8435C44.7829 25.371 44.5029 25.8387 44.0848 26.1006C43.9466 26.1867 43.7898 26.254 43.6256 26.2877C43.5248 26.3139 43.4165 26.3251 43.3082 26.3251L37.1034 26.3326C36.2933 26.3326 35.6287 25.6666 35.6287 24.8547L35.625 22.1234C35.6213 21.3077 36.2858 20.6418 37.0997 20.6418L39.2352 20.638L39.2314 20.0543C39.2314 19.785 39.4517 19.568 39.7205 19.5642H39.952H41.2512H41.576C41.7066 19.5642 41.8261 19.6128 41.9194 19.7064C42.0128 19.7999 42.0613 19.9234 42.0613 20.0506L42.065 20.6343H43.3008C43.3493 20.6343 43.3978 20.6343 43.4464 20.638C43.4464 20.6418 43.4464 20.6418 43.4464 20.6418V20.638C43.9317 20.6867 44.3498 20.9748 44.5813 21.3788C44.7082 21.5958 44.7792 21.8465 44.7792 22.1122ZM39.5376 20.638L41.7589 20.6343V20.0506C41.7589 19.9533 41.6768 19.871 41.576 19.871H41.0197H39.9968H39.7205C39.7018 19.871 39.6832 19.8748 39.6645 19.8822C39.5936 19.9047 39.5376 19.972 39.5376 20.0543V20.638Z" fill="#2B478B"/>
</svg>
