<svg width="20" height="20" viewBox="0 0 20 20" fill="none" xmlns="http://www.w3.org/2000/svg">
<path d="M16.8937 4.93251C16.8937 5.34071 16.8937 5.75087 16.8937 6.15907C16.8937 7.14149 16.8937 8.12392 16.8937 9.10634C16.8937 10.2938 16.8937 11.4833 16.8937 12.6708C16.8937 13.6981 16.8937 14.7255 16.8937 15.7548C16.8937 16.2548 16.8864 16.7548 16.8937 17.2548C16.8937 17.2626 16.8937 17.2684 16.8937 17.2763C17.136 17.0165 17.3801 16.7548 17.6224 16.495C17.4748 16.495 17.3273 16.495 17.1797 16.495C16.7789 16.495 16.3763 16.495 15.9755 16.495C15.3817 16.495 14.7878 16.495 14.1957 16.495C13.4706 16.495 12.7474 16.495 12.0224 16.495C11.2299 16.495 10.4356 16.495 9.64317 16.495C8.84343 16.495 8.04186 16.495 7.24212 16.495C6.49521 16.495 5.75011 16.495 5.0032 16.495C4.37288 16.495 3.74256 16.495 3.11224 16.495C2.66044 16.495 2.20865 16.495 1.75686 16.495C1.5419 16.495 1.32693 16.4931 1.11197 16.495C1.10286 16.495 1.09375 16.495 1.08464 16.495C1.32693 16.7548 1.57104 17.0165 1.81334 17.2763C1.81334 16.8681 1.81334 16.4579 1.81334 16.0497C1.81334 15.0673 1.81334 14.0849 1.81334 13.1024C1.81334 11.9149 1.81334 10.7255 1.81334 9.53798C1.81334 8.51063 1.81334 7.48329 1.81334 6.45399C1.81334 5.95399 1.82062 5.45399 1.81334 4.95399C1.81334 4.94618 1.81334 4.94032 1.81334 4.93251C1.57104 5.19227 1.32693 5.45399 1.08464 5.71376C1.2322 5.71376 1.37976 5.71376 1.52732 5.71376C1.92811 5.71376 2.33071 5.71376 2.73149 5.71376C3.32538 5.71376 3.91927 5.71376 4.51133 5.71376C5.23638 5.71376 5.95961 5.71376 6.68467 5.71376C7.47712 5.71376 8.2714 5.71376 9.06386 5.71376C9.8636 5.71376 10.6652 5.71376 11.4649 5.71376C12.2118 5.71376 12.9569 5.71376 13.7038 5.71376C14.3342 5.71376 14.9645 5.71376 15.5948 5.71376C16.0466 5.71376 16.4984 5.71376 16.9502 5.71376C17.1651 5.71376 17.3801 5.71571 17.5951 5.71376C17.6042 5.71376 17.6133 5.71376 17.6224 5.71376C18.0031 5.71376 18.3693 5.35438 18.3511 4.93251C18.3329 4.50868 18.0305 4.15126 17.6224 4.15126C17.4748 4.15126 17.3273 4.15126 17.1797 4.15126C16.7789 4.15126 16.3763 4.15126 15.9755 4.15126C15.3817 4.15126 14.7878 4.15126 14.1957 4.15126C13.4706 4.15126 12.7474 4.15126 12.0224 4.15126C11.2299 4.15126 10.4356 4.15126 9.64317 4.15126C8.84343 4.15126 8.04186 4.15126 7.24212 4.15126C6.49521 4.15126 5.75011 4.15126 5.0032 4.15126C4.37288 4.15126 3.74256 4.15126 3.11224 4.15126C2.66044 4.15126 2.20865 4.15126 1.75686 4.15126C1.5419 4.15126 1.32693 4.14931 1.11197 4.15126C1.10286 4.15126 1.09375 4.15126 1.08464 4.15126C0.691145 4.15126 0.355945 4.50868 0.355945 4.93251C0.355945 5.34071 0.355945 5.75087 0.355945 6.15907C0.355945 7.14149 0.355945 8.12392 0.355945 9.10634C0.355945 10.2938 0.355945 11.4833 0.355945 12.6708C0.355945 13.6981 0.355945 14.7255 0.355945 15.7548C0.355945 16.2548 0.350479 16.7548 0.355945 17.2548C0.355945 17.2626 0.355945 17.2684 0.355945 17.2763C0.355945 17.6981 0.689323 18.0575 1.08464 18.0575C1.2322 18.0575 1.37976 18.0575 1.52732 18.0575C1.92811 18.0575 2.33071 18.0575 2.73149 18.0575C3.32538 18.0575 3.91927 18.0575 4.51133 18.0575C5.23638 18.0575 5.95961 18.0575 6.68467 18.0575C7.47712 18.0575 8.2714 18.0575 9.06386 18.0575C9.8636 18.0575 10.6652 18.0575 11.4649 18.0575C12.2118 18.0575 12.9569 18.0575 13.7038 18.0575C14.3342 18.0575 14.9645 18.0575 15.5948 18.0575C16.0466 18.0575 16.4984 18.0575 16.9502 18.0575C17.1651 18.0575 17.3801 18.0595 17.5951 18.0575C17.6042 18.0575 17.6133 18.0575 17.6224 18.0575C18.0159 18.0575 18.3511 17.7001 18.3511 17.2763C18.3511 16.8681 18.3511 16.4579 18.3511 16.0497C18.3511 15.0673 18.3511 14.0849 18.3511 13.1024C18.3511 11.9149 18.3511 10.7255 18.3511 9.53798C18.3511 8.51063 18.3511 7.48329 18.3511 6.45399C18.3511 5.95399 18.3566 5.45399 18.3511 4.95399C18.3511 4.94618 18.3511 4.94032 18.3511 4.93251C18.3511 4.52431 18.0159 4.13173 17.6224 4.15126C17.2271 4.17079 16.8937 4.49501 16.8937 4.93251Z" fill="#1372E6"/>
<path d="M17.6224 4.15316C17.4749 4.15316 17.3273 4.15316 17.1798 4.15316C16.779 4.15316 16.3764 4.15316 15.9756 4.15316C15.3817 4.15316 14.7878 4.15316 14.1957 4.15316C13.4707 4.15316 12.7475 4.15316 12.0224 4.15316C11.23 4.15316 10.4357 4.15316 9.64322 4.15316C8.84348 4.15316 8.04191 4.15316 7.24217 4.15316C6.49525 4.15316 5.75016 4.15316 5.00325 4.15316C4.37293 4.15316 3.74261 4.15316 3.11228 4.15316C2.66049 4.15316 2.2087 4.15316 1.75691 4.15316C1.54194 4.15316 1.32698 4.15121 1.11201 4.15316C1.10291 4.15316 1.0938 4.15316 1.08469 4.15316C1.25593 4.59847 1.429 5.04183 1.60024 5.48715C2.01013 5.0184 2.42184 4.5516 2.83174 4.08285C3.48574 3.33675 4.13974 2.59261 4.79375 1.84652C4.94313 1.6766 5.09251 1.50668 5.2419 1.33675C5.07065 1.41293 4.89759 1.4891 4.72635 1.56527C5.03422 1.56527 5.34209 1.56527 5.64997 1.56527C6.38595 1.56527 7.12193 1.56527 7.85791 1.56527C8.74692 1.56527 9.63776 1.56527 10.5268 1.56527C11.2992 1.56527 12.0698 1.56527 12.8422 1.56527C13.2157 1.56527 13.5909 1.57308 13.9662 1.56527C13.9717 1.56527 13.9771 1.56527 13.9808 1.56527C13.8095 1.4891 13.6365 1.41293 13.4652 1.33675C13.8751 1.8055 14.2868 2.2723 14.6967 2.74105C15.3507 3.48715 16.0047 4.23129 16.6587 4.97738C16.8081 5.1473 16.9575 5.31722 17.1069 5.48715C17.3692 5.78597 17.8775 5.79183 18.138 5.48715C18.4113 5.16683 18.4167 4.70004 18.138 4.38168C17.7664 3.95785 17.3947 3.53402 17.0231 3.11214C16.3946 2.39535 15.7643 1.67855 15.1358 0.961754C14.9463 0.744958 14.7568 0.530114 14.5656 0.313317C14.4089 0.133629 14.2304 0.00862945 13.979 0.00277007C13.9535 0.00277007 13.928 0.00277007 13.9006 0.00277007C13.396 0.00277007 12.8914 0.00277007 12.3868 0.00277007C11.4905 0.00277007 10.5942 0.00277007 9.69787 0.00277007C8.76514 0.00277007 7.83241 0.00277007 6.9015 0.00277007C6.26936 0.00277007 5.63904 0.00277007 5.00689 0.00277007C4.85387 0.00277007 4.6808 -0.0128549 4.53142 0.0301139C4.26727 0.108239 4.08509 0.373864 3.90474 0.578942C3.31814 1.24691 2.73154 1.91488 2.14494 2.58285C1.64578 3.15121 1.14663 3.71957 0.647471 4.28988C0.620145 4.32113 0.592818 4.35238 0.565492 4.38363C0.363279 4.6141 0.299518 4.94222 0.414288 5.23714C0.525414 5.52035 0.787744 5.71761 1.08104 5.71761C1.22861 5.71761 1.37617 5.71761 1.52373 5.71761C1.92451 5.71761 2.32711 5.71761 2.7279 5.71761C3.32178 5.71761 3.91567 5.71761 4.50774 5.71761C5.23279 5.71761 5.95602 5.71761 6.68107 5.71761C7.47353 5.71761 8.26781 5.71761 9.06026 5.71761C9.86001 5.71761 10.6616 5.71761 11.4613 5.71761C12.2082 5.71761 12.9533 5.71761 13.7002 5.71761C14.3306 5.71761 14.9609 5.71761 15.5912 5.71761C16.043 5.71761 16.4948 5.71761 16.9466 5.71761C17.1615 5.71761 17.3765 5.71957 17.5915 5.71761C17.6006 5.71761 17.6097 5.71761 17.6188 5.71761C17.9995 5.71761 18.3657 5.35824 18.3475 4.93636C18.3329 4.51058 18.0305 4.15316 17.6224 4.15316Z" fill="#1372E6"/>
<path d="M10.6809 4.93258C10.6809 5.55173 10.6809 6.17087 10.6809 6.78805C10.6809 7.77047 10.6809 8.7529 10.6809 9.73532C10.6809 9.96188 10.6809 10.1865 10.6809 10.4131C11.0471 10.1884 11.4115 9.96383 11.7776 9.73922C11.1619 9.39352 10.548 9.04782 9.93221 8.70212C9.85205 8.65719 9.77372 8.61227 9.69356 8.56735C9.44398 8.43258 9.20351 8.43649 8.95575 8.56735C8.94847 8.57126 8.93936 8.57712 8.93207 8.58102C8.89199 8.60251 8.85009 8.62594 8.81001 8.64938C8.45295 8.85055 8.09589 9.05172 7.73701 9.25094C7.44735 9.41305 7.15952 9.57516 6.86986 9.73727C7.23603 9.96188 7.60038 10.1865 7.96655 10.4111C7.96655 9.79196 7.96655 9.17282 7.96655 8.55563C7.96655 7.57321 7.96655 6.59079 7.96655 5.60837C7.96655 5.3818 7.96655 5.15719 7.96655 4.93063C7.72426 5.1904 7.48014 5.45212 7.23785 5.71188C7.70604 5.71188 8.17423 5.71188 8.64424 5.71188C9.39479 5.71188 10.1454 5.71188 10.8959 5.71188C11.0672 5.71188 11.2384 5.71188 11.4115 5.71188C11.7922 5.71188 12.1584 5.35251 12.1402 4.93063C12.1219 4.5068 11.8195 4.14938 11.4115 4.14938C10.9433 4.14938 10.4751 4.14938 10.0051 4.14938C9.25452 4.14938 8.50396 4.14938 7.7534 4.14938C7.58216 4.14938 7.41092 4.14938 7.23785 4.14938C6.84436 4.14938 6.50916 4.5068 6.50916 4.93063C6.50916 5.54977 6.50916 6.16891 6.50916 6.7861C6.50916 7.76852 6.50916 8.75094 6.50916 9.73337C6.50916 9.95993 6.50916 10.1845 6.50916 10.4111C6.50916 10.6865 6.64761 10.9463 6.86986 11.0849C7.10304 11.2314 7.37084 11.2158 7.60584 11.0849C8.21431 10.7431 8.82095 10.4013 9.42941 10.0595C9.51685 10.0107 9.60429 9.96188 9.69174 9.91305C9.4458 9.91305 9.20169 9.91305 8.95575 9.91305C9.56422 10.2549 10.1709 10.5966 10.7793 10.9384C10.8668 10.9873 10.9542 11.0361 11.0416 11.0849C11.2748 11.2158 11.5444 11.2314 11.7776 11.0849C11.9999 10.9463 12.1383 10.6865 12.1383 10.4111C12.1383 9.79196 12.1383 9.17282 12.1383 8.55563C12.1383 7.57321 12.1383 6.59079 12.1383 5.60837C12.1383 5.3818 12.1383 5.15719 12.1383 4.93063C12.1383 4.52243 11.8031 4.12985 11.4096 4.14938C11.0143 4.17087 10.6809 4.49508 10.6809 4.93258Z" fill="#1372E6"/>
</svg>
