<svg width="42" height="27" viewBox="0 0 42 27" fill="none" xmlns="http://www.w3.org/2000/svg">
<path d="M34.3219 11.3004C34.3219 11.1885 34.3406 11.0766 34.3406 10.9648C34.3406 4.9043 29.4844 0 23.4938 0C19.1719 0 15.4594 2.55471 13.7156 6.24693C12.9563 5.86465 12.1031 5.64088 11.2031 5.64088C8.4375 5.64088 6.13125 7.68279 5.69062 10.3494C2.37187 11.4869 0 14.6476 0 18.3678C0 23.0484 3.75937 26.8525 8.39062 26.8525H18V19.3934H13.4813L21 11.5894L28.5188 19.3841H24V26.8431H34.3406C38.5781 26.8431 42 23.3467 42 19.0671C42 14.7875 38.5594 11.3097 34.3219 11.3004Z" fill="#B3B3B3"/>
</svg>
