<svg width="25" height="16" viewBox="0 0 25 16" fill="none" xmlns="http://www.w3.org/2000/svg">
<path d="M20.0211 6.62812C20.0211 6.5625 20.032 6.49688 20.032 6.43125C20.032 2.87656 17.1992 0 13.7047 0C11.1836 0 9.01797 1.49844 8.00078 3.66406C7.55781 3.43984 7.06016 3.30859 6.53516 3.30859C4.92188 3.30859 3.57656 4.50625 3.31953 6.07031C1.38359 6.7375 0 8.59141 0 10.7734C0 13.5188 2.19297 15.75 4.89453 15.75H10.5V11.375H7.86406L12.25 6.79766L16.6359 11.3695H14V15.7445H20.032C22.5039 15.7445 24.5 13.6938 24.5 11.1836C24.5 8.67344 22.493 6.63359 20.0211 6.62812Z" fill="#999999"/>
</svg>
